<?xml version="1.0" encoding="utf-8"?>
<!-- Generator: Adobe Illustrator 16.0.0, SVG Export Plug-In . SVG Version: 6.00 Build 0)  -->
<!DOCTYPE svg PUBLIC "-//W3C//DTD SVG 1.1//EN" "http://www.w3.org/Graphics/SVG/1.1/DTD/svg11.dtd">
<svg version="1.1" id="Layer_1" xmlns="http://www.w3.org/2000/svg" xmlns:xlink="http://www.w3.org/1999/xlink" x="0px" y="0px"
	 width="40px" height="40px" viewBox="0 0 40 40" enable-background="new 0 0 40 40" xml:space="preserve">
<g>
	<circle fill="none" stroke="#F69321" stroke-width="0.75" stroke-miterlimit="10" cx="20" cy="20" r="18.945"/>
	<g>
		<path fill="#F69321" d="M16.921,20.001c2.534,2.145,3.26,2.45,3.425,2.495c1.107-0.266,6.748-5.427,11.99-10.652
			c-0.262-0.188-0.582-0.301-0.928-0.301H8.592c-0.243,0-0.472,0.059-0.678,0.155C9.585,13.32,13.767,17.331,16.921,20.001z"/>
		<path fill="#F69321" d="M32.988,12.99c-1.164,1.152-2.955,2.909-4.813,4.656c-1.268,1.193-2.318,2.15-3.197,2.925l8.025,5.931
			V13.14C33.004,13.088,32.994,13.04,32.988,12.99z"/>
		<path fill="#F69321" d="M23.988,21.426c-2.775,2.348-3.333,2.35-3.642,2.35c-0.464,0-1.261-0.309-3.833-2.451L8.19,28.4
			c0.13,0.033,0.263,0.057,0.402,0.057h22.816c0.512,0,0.961-0.246,1.254-0.621L23.988,21.426z"/>
		<path fill="#F69321" d="M7.077,12.666c-0.048,0.15-0.08,0.307-0.08,0.475v13.721c0,0.262,0.069,0.506,0.181,0.723l8.349-7.097
			C12.46,17.842,8.689,14.227,7.077,12.666z"/>
	</g>
</g>
</svg>
