<?xml version="1.0" encoding="utf-8"?>
<!-- Generator: Adobe Illustrator 16.0.0, SVG Export Plug-In . SVG Version: 6.00 Build 0)  -->
<!DOCTYPE svg PUBLIC "-//W3C//DTD SVG 1.1//EN" "http://www.w3.org/Graphics/SVG/1.1/DTD/svg11.dtd">
<svg version="1.1" id="Layer_1" xmlns="http://www.w3.org/2000/svg" xmlns:xlink="http://www.w3.org/1999/xlink" x="0px" y="0px"
	 width="40px" height="40px" viewBox="0 0 40 40" enable-background="new 0 0 40 40" xml:space="preserve">
<g>
	<circle fill="none" stroke="#F69321" stroke-width="0.75" stroke-miterlimit="10" cx="20" cy="20" r="18.945"/>
	<g>
		<path fill="#F69321" d="M26.602,18.317v8.945H12.077V12.738h8.736l2.652-2.405H11.009c-0.739,0-1.337,0.599-1.337,1.337V28.33
			c0,0.738,0.598,1.338,1.337,1.338H27.67c0.74,0,1.338-0.6,1.338-1.338V15.856L26.602,18.317z"/>
		<path fill="#F69321" d="M15.93,17.703c0,0,1.769,2.227,2.292,3.079c3.338-5.502,8.184-8.382,11-10.02
			c0.988-0.574,1.701-0.195,0.393,0.72c-2.619,1.834-8.055,6.681-11.262,13.555l-4.977-6.615L15.93,17.703z"/>
	</g>
</g>
</svg>
