<?xml version="1.0" encoding="utf-8"?>
<!-- Generator: Adobe Illustrator 16.0.0, SVG Export Plug-In . SVG Version: 6.00 Build 0)  -->
<!DOCTYPE svg PUBLIC "-//W3C//DTD SVG 1.1//EN" "http://www.w3.org/Graphics/SVG/1.1/DTD/svg11.dtd">
<svg version="1.1" id="Layer_1" xmlns="http://www.w3.org/2000/svg" xmlns:xlink="http://www.w3.org/1999/xlink" x="0px" y="0px"
	 width="40px" height="40px" viewBox="0 0 40 40" enable-background="new 0 0 40 40" xml:space="preserve">
<g>
	<circle fill="#F69321" cx="20" cy="19.999" r="18.945"/>
	<g>
		<path fill="#FFFFFF" d="M18.006,19.962c-0.193,0.346-0.26,0.69-0.195,1.031c0.063,0.343,0.287,0.712,0.672,1.11l1.572-2.812
			c-0.43-0.162-0.83-0.177-1.201-0.048S18.201,19.612,18.006,19.962z"/>
		<path fill="#FFFFFF" d="M30.262,16.938c0.23-0.474-2.088-8.368-3.381-9.092c-1.311-0.731-9.271,1.159-9.668,1.867
			c-0.166,0.296-0.234,0.419-0.234,0.419L9.007,24.398c-0.602,1.076-0.219,2.436,0.859,3.037l9.122,5.1
			c1.078,0.6,2.439,0.217,3.041-0.859L30,17.409C30,17.409,30.137,17.196,30.262,16.938z M24.5,11.675
			c0.914,0.512,1.244,1.668,0.732,2.585c-0.514,0.917-1.67,1.243-2.588,0.731c-0.916-0.513-1.242-1.669-0.73-2.585
			C22.428,11.489,23.582,11.163,24.5,11.675z M18.416,27.711c-0.711,0.221-1.432,0.148-2.162-0.215l-0.574,1.027l-0.598-0.334
			l0.566-1.016c-0.473-0.348-0.818-0.693-1.047-1.035c-0.229-0.34-0.354-0.76-0.381-1.254s0.086-1.016,0.344-1.564l1.129,0.379
			c-0.225,0.592-0.311,1.07-0.254,1.436c0.084,0.521,0.314,0.916,0.689,1.182l1.809-3.236c-0.375-0.313-0.711-0.713-1.01-1.201
			c-0.223-0.363-0.334-0.752-0.33-1.17c0.006-0.417,0.119-0.829,0.346-1.236c0.404-0.722,0.988-1.164,1.75-1.326
			c0.51-0.109,1.123-0.01,1.832,0.298l0.273-0.485l0.598,0.334l-0.27,0.486c0.557,0.386,0.93,0.82,1.113,1.305
			c0.238,0.617,0.223,1.273-0.047,1.967l-1.137-0.428c0.162-0.434,0.207-0.809,0.137-1.127c-0.072-0.32-0.254-0.606-0.547-0.858
			l-1.637,2.931c0.439,0.412,0.721,0.701,0.846,0.867c0.238,0.314,0.402,0.627,0.492,0.939c0.086,0.311,0.109,0.635,0.063,0.967
			c-0.049,0.336-0.16,0.662-0.338,0.982C19.68,27.027,19.125,27.492,18.416,27.711z"/>
		<path fill="#FFFFFF" d="M18.457,23.555l-1.729,3.096c0.42,0.17,0.844,0.182,1.266,0.033c0.422-0.15,0.754-0.441,0.994-0.873
			c0.207-0.369,0.283-0.717,0.227-1.043C19.156,24.441,18.902,24.037,18.457,23.555z"/>
	</g>
</g>
</svg>
