<?xml version="1.0" encoding="utf-8"?>
<!-- Generator: Adobe Illustrator 16.0.0, SVG Export Plug-In . SVG Version: 6.00 Build 0)  -->
<!DOCTYPE svg PUBLIC "-//W3C//DTD SVG 1.1//EN" "http://www.w3.org/Graphics/SVG/1.1/DTD/svg11.dtd">
<svg version="1.1" id="Layer_1" xmlns="http://www.w3.org/2000/svg" xmlns:xlink="http://www.w3.org/1999/xlink" x="0px" y="0px"
	 width="40px" height="40px" viewBox="0 0 40 40" enable-background="new 0 0 40 40" xml:space="preserve">
<g>
	<g>
		<path fill="#F69321" d="M25.705,23.043c-0.996,0-1.891,0.418-2.527,1.088l-7.436-3.64c0.028-0.172,0.044-0.344,0.044-0.522
			c0-0.174-0.016-0.343-0.042-0.508l7.424-3.602c0.637,0.673,1.537,1.097,2.537,1.097c1.928,0,3.494-1.563,3.494-3.49
			c0-1.931-1.566-3.494-3.494-3.494s-3.49,1.563-3.49,3.494c0,0.171,0.016,0.342,0.039,0.507l-7.425,3.601
			c-0.635-0.674-1.533-1.098-2.535-1.098c-1.932,0-3.493,1.563-3.493,3.493c0,1.928,1.562,3.493,3.493,3.493
			c0.993,0,1.891-0.42,2.529-1.088l7.433,3.641c-0.025,0.17-0.041,0.344-0.041,0.52c0,1.932,1.563,3.496,3.49,3.496
			s3.494-1.564,3.494-3.496C29.199,24.607,27.633,23.043,25.705,23.043L25.705,23.043z M25.705,23.043"/>
	</g>
	<circle fill="none" stroke="#F69321" stroke-width="0.75" stroke-miterlimit="10" cx="20" cy="20" r="18.945"/>
</g>
</svg>
