<?xml version="1.0" encoding="utf-8"?>
<!-- Generator: Adobe Illustrator 16.0.0, SVG Export Plug-In . SVG Version: 6.00 Build 0)  -->
<!DOCTYPE svg PUBLIC "-//W3C//DTD SVG 1.1//EN" "http://www.w3.org/Graphics/SVG/1.1/DTD/svg11.dtd">
<svg version="1.1" id="Layer_1" xmlns="http://www.w3.org/2000/svg" xmlns:xlink="http://www.w3.org/1999/xlink" x="0px" y="0px"
	 width="28px" height="28px" viewBox="0 0 28 28" enable-background="new 0 0 28 28" xml:space="preserve">
<g>
	<path fill="none" stroke="#FFFFFF" stroke-width="1.2" stroke-linecap="round" stroke-linejoin="round" stroke-miterlimit="10" d="
		M21.353,20.611c0,1.216,0,2.278,0,2.926c0,1.865-0.364,2.727-2.738,2.727H5.106c-0.992,0-3.296,0.254-3.296-2.803
		c0-3.064,0-13.936,0-13.936"/>
	<path fill="none" stroke="#FFFFFF" stroke-width="1.2" stroke-linecap="round" stroke-linejoin="round" stroke-miterlimit="10" d="
		M4.814,6.871c0,0-2.798-0.342-2.857,1.924c-0.058,2.274,1.749,2.215,2.857,2.215c1.107,0,12.415,0,13.756,0
		c1.341,0,2.782,0.246,2.782,2.786c0,0.705,0,1.64,0,2.647"/>
	<path fill="none" stroke="#FFFFFF" stroke-width="1.2" stroke-linecap="round" stroke-linejoin="round" stroke-miterlimit="10" d="
		M4.935,10.939c0,0,0-3.719,0-4.58c0-0.856,0.223-1.465,1.469-1.465c1.247,0,7.085,0,8.089,0c1.004,0,1.485,0.48,1.485,1.829
		c0,1.352,0,4.326,0,4.326"/>
	
		<line fill="none" stroke="#FFFFFF" stroke-width="1.2" stroke-linecap="round" stroke-linejoin="round" stroke-miterlimit="10" x1="9.918" y1="11.049" x2="9.918" y2="4.986"/>
	
		<line fill="none" stroke="#FFFFFF" stroke-width="1.2" stroke-linecap="round" stroke-linejoin="round" stroke-miterlimit="10" x1="13.044" y1="11.049" x2="13.044" y2="4.948"/>
	<path fill="none" stroke="#FFFFFF" stroke-width="1.2" stroke-linecap="round" stroke-linejoin="round" stroke-miterlimit="10" d="
		M7.984,8.147c0,0.926-0.259,1.679-0.576,1.679S6.833,9.074,6.833,8.147c0-0.927,0.258-1.673,0.576-1.673S7.984,7.22,7.984,8.147z"
		/>
	<path fill="none" stroke="#FFFFFF" stroke-width="1.2" stroke-linecap="round" stroke-linejoin="round" stroke-miterlimit="10" d="
		M7.984,4.875c0,0,0-0.822,0-1.787c0-0.965,0.409-1.432,1.433-1.432s7.235,0,8.276,0c1.04,0,1.636,0.285,1.636,1.471
		c0,1.179,0,7.922,0,7.922"/>
	<path fill="none" stroke="#FFFFFF" stroke-width="1.2" stroke-linecap="round" stroke-linejoin="round" stroke-miterlimit="10" d="
		M19.296,6.994c0,0,1.599,0,2.64,0s2.782,0.122,2.782,2.779c0,2.661,0,6.606,0,6.606"/>
	<path fill="none" stroke="#FFFFFF" stroke-width="1.2" stroke-linecap="round" stroke-linejoin="round" stroke-miterlimit="10" d="
		M24.611,20.611c0,0,0,1.151,0,1.896c0,0.746-0.739,1.878-1.878,1.878c-1.132,0-1.466,0-1.466,0"/>
	<path fill="none" stroke="#FFFFFF" stroke-width="1.2" stroke-linecap="round" stroke-linejoin="round" stroke-miterlimit="10" d="
		M24.726,13.355c0,0,1.933-0.111,1.933,1.528c0,1.631-1.227,1.631-2.08,1.631c-0.855,0-5.881,0-6.922,0
		c-1.039,0-1.282,0.747-1.282,1.283c0,0.547,0,0.955,0,1.697c0,0.747,0.465,1.043,1.506,1.043c1.042,0,6.474,0,7.293,0
		c1.376,0,1.638-0.575,1.638-1.897c0-1.32,0-4.022,0-4.022"/>
	
		<circle fill="none" stroke="#FFFFFF" stroke-width="1.2" stroke-linecap="round" stroke-linejoin="round" stroke-miterlimit="10" cx="19.053" cy="18.583" r="0.764"/>
	
		<rect x="6.271" y="15.382" fill="none" stroke="#FFFFFF" stroke-width="1.2" stroke-linecap="round" stroke-linejoin="round" stroke-miterlimit="10" width="6.06" height="6.295"/>
</g>
</svg>
