<?xml version="1.0" encoding="utf-8"?>
<!-- Generator: Adobe Illustrator 16.0.0, SVG Export Plug-In . SVG Version: 6.00 Build 0)  -->
<!DOCTYPE svg PUBLIC "-//W3C//DTD SVG 1.1//EN" "http://www.w3.org/Graphics/SVG/1.1/DTD/svg11.dtd">
<svg version="1.1" id="Layer_1" xmlns="http://www.w3.org/2000/svg" xmlns:xlink="http://www.w3.org/1999/xlink" x="0px" y="0px"
	 width="25px" height="31px" viewBox="0 0 25 31" enable-background="new 0 0 25 31" xml:space="preserve">
<g>
	<path fill="none" stroke="#FFFFFF" stroke-width="1.2" stroke-linecap="round" stroke-linejoin="round" stroke-miterlimit="10" d="
		M23.722,29.055c0,0.523-0.423,0.945-0.946,0.945H1.945C1.423,30,1,29.578,1,29.055V2.682C1,2.16,1.423,1.736,1.945,1.736h20.83
		c0.523,0,0.946,0.424,0.946,0.945V29.055z"/>
	<g>
		
			<path fill="none" stroke="#FFFFFF" stroke-width="1.2" stroke-linecap="round" stroke-linejoin="round" stroke-miterlimit="10" d="
			M10.22,19.168c-0.042,0.044-0.076,0.087-0.116,0.131l3.656,3.554l-3.441,3.539c2.022,1.967,5.256,1.921,7.223-0.1
			c1.968-2.021,1.922-5.256-0.1-7.223S12.187,17.146,10.22,19.168z"/>
		
			<path fill="none" stroke="#FFFFFF" stroke-width="1.2" stroke-linecap="round" stroke-linejoin="round" stroke-miterlimit="10" d="
			M7.318,19.044c-1.846,2.027-1.767,5.165,0.214,7.092l0,0l3.44-3.537L7.318,19.044z"/>
	</g>
	<g>
		
			<line fill="none" stroke="#FFFFFF" stroke-width="1.2" stroke-linecap="round" stroke-linejoin="round" stroke-miterlimit="10" x1="3.684" y1="5.861" x2="7.243" y2="5.861"/>
		
			<line fill="none" stroke="#FFFFFF" stroke-width="1.2" stroke-linecap="round" stroke-linejoin="round" stroke-miterlimit="10" x1="9.38" y1="5.861" x2="21.039" y2="5.861"/>
	</g>
	<g>
		
			<line fill="none" stroke="#FFFFFF" stroke-width="1.2" stroke-linecap="round" stroke-linejoin="round" stroke-miterlimit="10" x1="3.684" y1="8.646" x2="7.243" y2="8.646"/>
		
			<line fill="none" stroke="#FFFFFF" stroke-width="1.2" stroke-linecap="round" stroke-linejoin="round" stroke-miterlimit="10" x1="9.38" y1="8.646" x2="21.039" y2="8.646"/>
	</g>
	<g>
		
			<line fill="none" stroke="#FFFFFF" stroke-width="1.2" stroke-linecap="round" stroke-linejoin="round" stroke-miterlimit="10" x1="3.684" y1="11.435" x2="7.243" y2="11.435"/>
		
			<line fill="none" stroke="#FFFFFF" stroke-width="1.2" stroke-linecap="round" stroke-linejoin="round" stroke-miterlimit="10" x1="9.38" y1="11.435" x2="21.039" y2="11.435"/>
	</g>
	<g>
		
			<line fill="none" stroke="#FFFFFF" stroke-width="1.2" stroke-linecap="round" stroke-linejoin="round" stroke-miterlimit="10" x1="3.684" y1="14.22" x2="7.243" y2="14.22"/>
		
			<line fill="none" stroke="#FFFFFF" stroke-width="1.2" stroke-linecap="round" stroke-linejoin="round" stroke-miterlimit="10" x1="9.38" y1="14.22" x2="21.039" y2="14.22"/>
	</g>
</g>
</svg>
