<?xml version="1.0" encoding="utf-8"?>
<!-- Generator: Adobe Illustrator 16.0.0, SVG Export Plug-In . SVG Version: 6.00 Build 0)  -->
<!DOCTYPE svg PUBLIC "-//W3C//DTD SVG 1.1//EN" "http://www.w3.org/Graphics/SVG/1.1/DTD/svg11.dtd">
<svg version="1.1" id="Layer_1" xmlns="http://www.w3.org/2000/svg" xmlns:xlink="http://www.w3.org/1999/xlink" x="0px" y="0px"
	 width="27px" height="27px" viewBox="0 0 27 27" enable-background="new 0 0 27 27" xml:space="preserve">
<g>
	<path fill="none" stroke="#FFFFFF" stroke-width="1.2" stroke-linecap="round" stroke-linejoin="round" stroke-miterlimit="10" d="
		M24.831,10.194h-2.719c-0.043-0.114-0.092-0.23-0.145-0.348l1.923-1.924c0.49-0.49,0.49-1.284,0-1.774l-2.956-2.956
		c-0.489-0.492-1.284-0.492-1.773,0l-1.924,1.922c-0.12-0.052-0.234-0.1-0.349-0.146V2.25c0-0.691-0.563-1.254-1.255-1.254h-4.182
		c-0.693,0-1.254,0.563-1.254,1.254v2.718c-0.114,0.044-0.23,0.093-0.35,0.145L7.925,3.19c-0.49-0.49-1.284-0.49-1.774,0
		L3.194,6.146c-0.488,0.49-0.488,1.284,0,1.774l1.923,1.924c-0.052,0.118-0.101,0.233-0.146,0.348H2.254
		C1.562,10.192,1,10.754,1,11.448v4.181c0,0.691,0.562,1.254,1.254,1.254h2.718c0.044,0.114,0.092,0.229,0.146,0.348l-1.923,1.927
		c-0.49,0.487-0.49,1.282,0,1.771l2.956,2.958c0.49,0.488,1.284,0.488,1.774,0l1.923-1.924c0.12,0.051,0.234,0.103,0.35,0.146v2.719
		c0,0.693,0.561,1.254,1.254,1.254h4.182c0.692,0,1.254-0.561,1.254-1.254v-2.719c0.114-0.043,0.229-0.095,0.35-0.144l1.924,1.922
		c0.489,0.49,1.283,0.49,1.773,0l2.957-2.956c0.488-0.489,0.488-1.284,0-1.773l-1.923-1.923c0.052-0.12,0.101-0.235,0.145-0.35
		h2.719c0.692,0,1.254-0.563,1.254-1.254v-4.183C26.085,10.756,25.523,10.194,24.831,10.194z M13.542,18.137
		c-2.54,0-4.599-2.058-4.599-4.598s2.059-4.599,4.599-4.599c2.54,0,4.599,2.059,4.599,4.599
		C18.139,16.078,16.081,18.135,13.542,18.137z"/>
</g>
</svg>
