<?xml version="1.0" encoding="utf-8"?>
<!-- Generator: Adobe Illustrator 16.0.0, SVG Export Plug-In . SVG Version: 6.00 Build 0)  -->
<!DOCTYPE svg PUBLIC "-//W3C//DTD SVG 1.1//EN" "http://www.w3.org/Graphics/SVG/1.1/DTD/svg11.dtd">
<svg version="1.1" id="Layer_1" xmlns="http://www.w3.org/2000/svg" xmlns:xlink="http://www.w3.org/1999/xlink" x="0px" y="0px"
	 width="50px" height="50px" viewBox="0 0 50 50" enable-background="new 0 0 50 50" xml:space="preserve">
<path fill="#FFFFFF" d="M29.61,30.105l6.527,17.785l1.625-1.049l-0.504-11.47c0.206-0.007,0.411-0.064,0.593-0.183l2.416-1.559
	c0.544-0.352,0.702-1.078,0.348-1.623l-0.889-1.38c-0.353-0.543-1.078-0.699-1.623-0.349l-1.037,0.672l-0.092-2.031
	c0.107-0.032,0.21-0.073,0.303-0.135l2.416-1.559c0.549-0.353,0.702-1.079,0.348-1.622l-0.889-1.382
	c-0.352-0.545-1.078-0.7-1.622-0.35l-0.755,0.489l-0.132-3.056c0,0,3.034-1.893,6.356-4.105c3.319-2.214,7.474-6.923,6.296-8.746
	s-6.619-0.406-10.509,1.896c-3.891,2.304-6.503,3.919-6.503,3.919l-2.845-1.515l0.496-0.32c0.543-0.351,0.701-1.077,0.353-1.623
	l-0.893-1.38c-0.352-0.545-1.082-0.701-1.622-0.349l-2.366,1.526l-1.719-0.916l0.646-0.417c0.547-0.352,0.699-1.077,0.349-1.622
	l-0.891-1.38c-0.353-0.545-1.078-0.701-1.624-0.351l-2.414,1.56c-0.033,0.02-0.055,0.047-0.088,0.07L9.44,2.109L7.772,3.278
	L21.5,17.325l2.081,2.937c-6.642,4.567-11.848,9.049-11.848,9.049l-9.151-5.08L0.5,25.761l7.037,7.003
	c-1.361,1.066-3.865,4.545-3.865,4.545l5.886-1.59l3.233,9.438l2.28-1.333l-0.777-10.185l13.364-6.883L29.61,30.105z"/>
</svg>
