<?xml version="1.0" encoding="utf-8"?>
<!-- Generator: Adobe Illustrator 16.0.0, SVG Export Plug-In . SVG Version: 6.00 Build 0)  -->
<!DOCTYPE svg PUBLIC "-//W3C//DTD SVG 1.1//EN" "http://www.w3.org/Graphics/SVG/1.1/DTD/svg11.dtd">
<svg version="1.1" id="Layer_1" xmlns="http://www.w3.org/2000/svg" xmlns:xlink="http://www.w3.org/1999/xlink" x="0px" y="0px"
	 width="50px" height="50px" viewBox="0 0 50 50" enable-background="new 0 0 50 50" xml:space="preserve">
<g>
	<g>
		<path fill="#FFFFFF" d="M23.462,32.975c0.027-0.018,0.051-0.035,0.074-0.049C23.512,32.941,23.485,32.957,23.462,32.975z"/>
		<path fill="#FFFFFF" d="M49.5,40.135c0,0-4.98,1.011-5.784,4.204c-0.204,0.814-0.4,1.232-0.469,1.394h4.421
			c0,0-1.445-1.641-1.124-2.944C46.865,41.483,49.5,40.135,49.5,40.135z"/>
		<path fill="#FFFFFF" d="M43.319,45.732h-0.072C43.249,45.832,43.271,45.849,43.319,45.732z"/>
		<path fill="#FFFFFF" d="M23.536,32.926c0.064-0.041,0.129-0.082,0.194-0.122C23.73,32.804,23.658,32.847,23.536,32.926z"/>
		<path fill="#FFFFFF" d="M42.689,42.157c0,0-0.099-5.418,3.34-7.441c0,0-3.92,1.641-4.723,5.441c0,0,0.031-1.208-0.813-2.822
			c1.026-1.373,2.226-2.215,2.226-2.215s-1.132,0.584-2.466,1.784c-0.632-1.059-1.64-2.251-3.254-3.381c0,0,1.42,1.979,2.238,4.387
			c-0.67,0.735-1.334,1.617-1.885,2.651c0,0,0.258-4.857-3.662-7.848c0,0,1.734,3.193,1.8,5.824c0,0-1.544-2.945-2.218-3.777
			c0,0,2.41,5.374,0.354,8.634c0,0-0.899-5.779-2.121-8.026c0,0,0.354,2.247,0.226,4.294c0,0-0.552-1.312-1.446-2.692
			c0.123-0.955,0.388-1.886,0.868-2.682c0,0-0.603,0.976-1.187,2.211c-0.526-0.749-1.149-1.478-1.834-1.986
			c0,0,0.786,1.093,1.561,2.586c-0.438,1.009-0.809,2.11-0.822,2.969c-0.001,0.044-0.001,0.083-0.001,0.121
			c-0.115-1.074-0.733-4.078-3.469-6.845c0,0,3.535,8.432,1.543,11.063l-0.451-0.09c0,0,0.467-5.033-2.429-7.732
			c0.216-0.415,0.473-0.774,0.791-1.036c0,0-0.474,0.249-1.066,0.796c-0.254-0.209-0.527-0.401-0.83-0.571
			c0,0,0.256,0.295,0.6,0.791c-0.682,0.684-1.455,1.732-1.853,3.212c0,0-0.055-1.668-1.104-3.392
			c0.614-1.312,1.522-2.532,2.86-3.409c-0.584,0.377-2.016,1.37-3.294,2.774c-0.371-0.488-0.834-0.964-1.407-1.392
			c0.633-0.362,1.343-0.71,2.143-1.036c0,0-1.05,0.282-2.382,0.864c-0.2-0.137-0.413-0.269-0.641-0.392c0,0,0.139,0.188,0.354,0.521
			c-0.614,0.279-1.271,0.619-1.909,1.022c-0.376-0.926-0.806-1.792-1.27-2.398c0,0,0.426,1.217,0.844,2.68
			c-0.345,0.238-0.677,0.496-0.988,0.773c-0.44-0.741-0.9-1.432-1.302-1.855c0,0,0.466,0.925,0.88,2.257
			c-0.636,0.656-1.132,1.409-1.361,2.263c0,0-0.237-1.131-1.193-2.405c0.257-0.485,0.585-0.962,0.999-1.419
			c0,0-0.631,0.277-1.34,0.996c-0.607-0.702-1.44-1.415-2.579-1.984c0,0,0.969,1.176,1.885,2.831
			c-0.39,0.566-0.749,1.283-0.985,2.183c0,0-0.577-3.26-4.047-4.833c0,0,3.532,4.024,2.826,7.599c0,0-0.796-1.611-2.531-3.068
			c0.156-0.423,0.38-0.85,0.699-1.271c0,0-0.593,0.341-1.169,0.898c-0.844-0.63-1.873-1.198-3.104-1.55c0,0,1.282,0.85,2.582,2.138
			c-0.35,0.469-0.602,1.021-0.558,1.616c0,0-1.768-1.191-4.112-0.854c0,0,3.823,0.854,4.272,2.697
			c0.451,1.844-0.32,3.103-0.32,3.103h38.795c-0.007-0.305,0.157-1.385,0.213-1.775c0.095-0.698,1.669-4.385,5.043-5.577
			C48.503,38.38,44.198,39.146,42.689,42.157z M7.857,44.271H7.184c0,0-1.553-1.978-1.267-4.307
			C7.014,41.22,7.938,42.745,7.857,44.271z M9.958,44.393l0.229-0.796c0.074,0.585,0.404,0.726,0.404,0.726L9.958,44.393z
			 M12.26,43.755h-0.482c0,0-1.206-2.808-0.39-5.73C12.239,39.811,12.859,41.942,12.26,43.755z M14.253,43.821l-0.161-0.18
			c0,0-0.955-2.683,0.733-5.595C15.239,39.9,15.358,42.133,14.253,43.821z M15.688,44.297l0.059-0.122
			c0.378-0.366,0-1.767,0.29-1.239c0.291,0.528,0.407,1.361,0.407,1.361H15.688z M16.694,39.775c0,0-0.582-1.241-1.313-2.562
			c0.213-0.282,0.454-0.563,0.725-0.842C16.441,37.633,16.721,38.952,16.694,39.775z M16.559,35.936
			c0.515-0.467,1.123-0.924,1.838-1.362c0.305,0.492,0.705,1.187,1.084,1.998c-0.82,1.072-1.477,2.319-1.629,3.675
			C17.852,40.246,17.35,38.051,16.559,35.936z M19.812,44.023h-0.386c0,0-0.338-3.055,0.602-6.133
			C20.749,39.889,21.087,42.237,19.812,44.023z M24.694,43.821l-1.606-1.551c0,0-0.098-3.12,0.774-5.25
			C24.899,38.645,26.268,41.544,24.694,43.821z M28.921,44.297c0.087-0.467-0.058-1.746-0.058-1.746
			c0.61,0.71,0.638,1.746,0.638,1.746H28.921z M30.928,43.372c0,0-0.797-2.547-0.73-5.237
			C30.976,39.879,31.542,41.904,30.928,43.372z M35.624,44.357c0,0-0.697,0.162-0.638,0c0.058-0.162,0.318-1.157,0.318-1.157
			C35.827,43.545,35.624,44.357,35.624,44.357z M39.122,43.552c0,0-0.578-0.607,0.063-3.508c0.085-0.379,0.207-0.742,0.356-1.088
			C39.927,40.535,39.957,42.198,39.122,43.552z M41.148,44.41h-0.862c0.706-0.529,0.862-1,0.862-1
			C41.025,43.929,41.148,44.41,41.148,44.41z"/>
	</g>
	<g>
		<path fill="#FFFFFF" d="M33.277,25.357c-1.177,0.361-1.228,1.318-1.009,2.718c0.906-0.3,1.841-0.408,2.453-0.884
			c0.372-0.289,0.243-1.146,0.339-1.747C34.464,25.405,33.806,25.196,33.277,25.357z"/>
		<path fill="#FFFFFF" d="M15.341,25.178c-0.694,0.005-1.249,0.124-1.13,1c0.187,1.394,1.078,1.898,2.961,1.536
			C17.276,25.914,16.723,25.171,15.341,25.178z"/>
		<path fill="#FFFFFF" d="M28.8,24.93c-0.494,2.117,0.158,2.862,2.362,2.702C31.803,25.576,30.971,24.624,28.8,24.93z"/>
		<path fill="#FFFFFF" d="M18.169,25.87c-0.171,0.535,0.074,1.186,0.132,1.785c0.595-0.089,1.479,0.018,1.73-0.308
			c0.506-0.652,0.668-1.539,1.022-2.457C19.519,24.689,18.516,24.774,18.169,25.87z"/>
		<path fill="#FFFFFF" d="M18.47,24.452c1.188,0.109,1.818-0.554,1.944-2.035c-0.166-0.154-0.52-0.744-0.857-0.737
			c-1.092,0.018-1.965,0.535-1.886,1.705C17.697,23.771,18.156,24.423,18.47,24.452z"/>
		<path fill="#FFFFFF" d="M29.985,21.694c-0.295-0.018-0.869,0.599-0.908,0.963c-0.117,1.096,0.508,1.817,1.723,1.808
			c0.393-0.002,0.78-0.422,0.955-0.523C31.816,22.356,31.097,21.762,29.985,21.694z"/>
		<path fill="#FFFFFF" d="M24.313,25.65c-0.084-1.297-0.826-1.755-2.792-1.601c-0.183,1.837,0.305,2.538,1.69,2.619
			C24.023,26.716,24.364,26.426,24.313,25.65z"/>
		<path fill="#FFFFFF" d="M25.088,25.699c-0.035,0.813,0.388,1.02,1.156,0.962c1.397-0.104,1.855-0.814,1.598-2.646
			C25.86,23.925,25.143,24.399,25.088,25.699z"/>
		<path fill="#FFFFFF" d="M34.265,22.19c-1.285,0.019-1.83,0.788-1.664,2.458c1.867,0.204,2.585-0.213,2.741-1.429
			C35.45,22.395,35.013,22.18,34.265,22.19z"/>
		<path fill="#FFFFFF" d="M16.81,24.644c0.156-1.673-0.391-2.437-1.676-2.453c-0.757-0.011-1.18,0.216-1.072,1.035
			C14.222,24.443,14.942,24.857,16.81,24.644z"/>
		<path fill="#FFFFFF" d="M27.715,21.144c-2.181-0.335-2.962,0.46-2.34,2.378C27.459,23.618,28.039,23.029,27.715,21.144z"/>
		<path fill="#FFFFFF" d="M21.698,21.135c-0.345,1.882,0.229,2.475,2.42,2.389C24.487,21.419,23.855,20.823,21.698,21.135z"/>
		<path fill="#FFFFFF" d="M29.787,18.813c-0.338,2.021-0.094,2.347,2.102,2.64C32.462,19.3,31.812,18.503,29.787,18.813z"/>
		<path fill="#FFFFFF" d="M19.462,18.684c-2.038,0.081-2.417,0.574-2,2.73C19.69,21.25,20.162,20.576,19.462,18.684z"/>
		<path fill="#FFFFFF" d="M34.579,19.274c-1.148-0.056-1.687,0.707-1.702,1.684c-0.006,0.313,0.511,0.633,0.663,0.808
			c1.448-0.068,2.132-0.627,2.084-1.66C35.611,19.8,34.961,19.292,34.579,19.274z"/>
		<path fill="#FFFFFF" d="M15.822,21.776c0.152-0.175,0.699-0.52,0.699-0.863c-0.001-0.907-0.527-1.647-1.591-1.64
			c-0.407,0.003-1.138,0.448-1.159,0.731C13.692,21.008,14.286,21.652,15.822,21.776z"/>
		<path fill="#FFFFFF" d="M21.812,18.129c-0.188,1.69,0.247,2.44,1.492,2.412c0.343-0.008,0.935-0.55,0.962-0.878
			C24.361,18.469,23.589,18.013,21.812,18.129z"/>
		<path fill="#FFFFFF" d="M25.368,18.813c-0.298,0.251-0.253,1.042-0.092,1.506c0.06,0.173,1.114,0.312,1.341,0.104
			c0.584-0.531,0.958-1.265,1.418-1.917c-0.188-0.211-0.374-0.42-0.562-0.63C26.756,18.173,25.923,18.347,25.368,18.813z"/>
		<path fill="#FFFFFF" d="M33.456,18.621c1.99,0.427,2.587-0.033,2.471-1.901C33.885,16.306,33.337,16.727,33.456,18.621z"/>
		<path fill="#FFFFFF" d="M18.363,18.225c0.449-0.637,0.683-1.406,0.999-2.123c-0.227-0.163-0.453-0.325-0.678-0.487
			c-0.624,0.436-1.379,0.778-1.814,1.34c-0.225,0.29,0.03,1.013,0.268,1.444C17.207,18.521,18.202,18.457,18.363,18.225z"/>
		<path fill="#FFFFFF" d="M31.633,18.435c0.285,0.048,0.967-0.53,0.993-0.853c0.104-1.325-0.77-1.774-2.192-1.713
			C30.054,17.149,30.102,18.178,31.633,18.435z"/>
		<path fill="#FFFFFF" d="M15.971,18.6c0.055-1.963-0.727-2.486-2.603-1.737C13.623,18.776,14.057,19.065,15.971,18.6z"/>
		<path fill="#FFFFFF" d="M15.523,13.191c-1.216,1.414-1.12,2.004,0.606,3.111C17.529,14.851,17.337,13.928,15.523,13.191z"/>
		<path fill="#FFFFFF" d="M33.198,16.298c1.803-0.994,1.937-1.698,0.655-3.12C32.108,13.952,31.925,14.712,33.198,16.298z"/>
		<path fill="#FFFFFF" d="M24.668,15.366c1.576-1.142,1.576-1.915-0.003-3.022C23.11,13.41,23.111,14.235,24.668,15.366z"/>
		<path fill="#FFFFFF" d="M24.208,17.436c0.105-1.835-0.21-2.127-2.319-2.047C21.677,17.369,22.331,17.917,24.208,17.436z"/>
		<path fill="#FFFFFF" d="M25.206,17.535c2.037,0.215,2.522-0.24,2.312-2.059C25.518,15.19,25.079,15.562,25.206,17.535z"/>
		<path fill="#FFFFFF" d="M32.412,8.357c-0.098-0.038-0.196-0.076-0.292-0.114c-0.491,2.19-0.979,4.38-1.468,6.572
			c0.095,0.018,0.188,0.037,0.282,0.057C31.428,12.701,31.92,10.529,32.412,8.357z"/>
		<path fill="#FFFFFF" d="M37.399,9.463c-0.457,2.083-0.916,4.164-1.374,6.246c0.096,0.019,0.19,0.036,0.284,0.055
			c0.466-2.084,0.932-4.168,1.397-6.253C37.604,9.495,37.503,9.479,37.399,9.463z"/>
		<path fill="#FFFFFF" d="M34.881,11.92c0.526-2.084,1.052-4.169,1.579-6.253c-0.1-0.022-0.196-0.043-0.295-0.064
			c-0.523,2.085-1.045,4.17-1.568,6.255C34.692,11.879,34.786,11.899,34.881,11.92z"/>
		<path fill="#FFFFFF" d="M35.378,5.616c-0.099-0.032-0.198-0.063-0.297-0.094c-0.493,2.022-0.984,4.044-1.477,6.068
			c0.093,0.017,0.183,0.036,0.276,0.055C34.378,9.635,34.879,7.625,35.378,5.616z"/>
		<path fill="#FFFFFF" d="M35.623,13.728c0.431-1.799,0.861-3.598,1.29-5.396c-0.096-0.031-0.19-0.064-0.287-0.097
			c-0.426,1.812-0.855,3.623-1.282,5.434C35.437,13.688,35.53,13.709,35.623,13.728z"/>
		<path fill="#FFFFFF" d="M18.761,14.802c-0.494-2.172-0.989-4.345-1.483-6.516c-0.093,0.02-0.187,0.04-0.279,0.06
			c0.481,2.155,0.963,4.313,1.443,6.468C18.547,14.809,18.653,14.806,18.761,14.802z"/>
		<path fill="#FFFFFF" d="M11.977,9.482c-0.092,0.021-0.186,0.042-0.278,0.063c0.47,2.086,0.94,4.171,1.411,6.257
			c0.095-0.043,0.19-0.086,0.285-0.13C12.923,13.61,12.45,11.546,11.977,9.482z"/>
		<path fill="#FFFFFF" d="M17.151,12.45c-0.5-2.027-0.999-4.054-1.497-6.082c-0.104,0.007-0.209,0.015-0.311,0.021
			c0.507,2.04,1.017,4.079,1.523,6.119C16.963,12.489,17.055,12.469,17.151,12.45z"/>
		<path fill="#FFFFFF" d="M14.814,11.88c-0.531-2.091-1.06-4.183-1.589-6.276c-0.096,0.022-0.191,0.042-0.287,0.064
			c0.529,2.092,1.059,4.184,1.589,6.275C14.622,11.922,14.717,11.901,14.814,11.88z"/>
		<path fill="#FFFFFF" d="M14.06,13.643c-0.432-1.815-0.862-3.63-1.294-5.445c-0.095,0.02-0.187,0.04-0.28,0.058
			c0.428,1.816,0.856,3.632,1.285,5.448C13.866,13.683,13.964,13.663,14.06,13.643z"/>
		<path fill="#FFFFFF" d="M27.618,13.9c-0.196-2.212-0.393-4.425-0.59-6.639c-0.095,0.008-0.189,0.017-0.285,0.025
			c0.187,2.195,0.371,4.392,0.557,6.587C27.406,13.884,27.511,13.892,27.618,13.9z"/>
		<path fill="#FFFFFF" d="M22.178,14.126c-0.188-2.104-0.379-4.207-0.567-6.311c-0.096,0.01-0.19,0.019-0.286,0.028
			c0.186,2.125,0.369,4.251,0.553,6.376C21.977,14.188,22.078,14.158,22.178,14.126z"/>
		<path fill="#FFFFFF" d="M25.135,10.413c-0.22-2.07-0.44-4.139-0.66-6.209c-0.104-0.005-0.209-0.011-0.312-0.017
			c0.228,2.084,0.455,4.168,0.683,6.252C24.941,10.43,25.039,10.422,25.135,10.413z"/>
		<path fill="#FFFFFF" d="M26.339,11.376c-0.219-2.071-0.439-4.14-0.66-6.21c-0.104-0.006-0.207-0.012-0.312-0.017
			c0.229,2.083,0.455,4.167,0.684,6.251C26.146,11.393,26.242,11.384,26.339,11.376z"/>
		<path fill="#FFFFFF" d="M23.113,12.19c-0.183-1.851-0.366-3.703-0.548-5.555c-0.096,0.008-0.189,0.017-0.284,0.024
			c0.179,1.852,0.355,3.704,0.534,5.557C22.913,12.208,23.014,12.199,23.113,12.19z"/>
		<path fill="#FFFFFF" d="M24.22,27.459c-0.04,0.521-0.999,12.752,0.006,16.826l0.617-0.135c-0.984-3.985-0.002-16.521,0.007-16.646
			L24.22,27.459z"/>
		<path fill="#FFFFFF" d="M31.038,29.043l-0.554-0.291C30.338,29,26.92,34.926,30.459,45.72l0.604-0.175
			C27.611,35.016,31.003,29.1,31.038,29.043z"/>
		<path fill="#FFFFFF" d="M18.774,28.328c0.019,0.073,1.81,7.458-0.004,16.612l0.623,0.11c1.84-9.284,0.016-16.784-0.003-16.858
			L18.774,28.328z"/>
	</g>
</g>
</svg>
