<?xml version="1.0" encoding="utf-8"?>
<!-- Generator: Adobe Illustrator 16.0.0, SVG Export Plug-In . SVG Version: 6.00 Build 0)  -->
<!DOCTYPE svg PUBLIC "-//W3C//DTD SVG 1.1//EN" "http://www.w3.org/Graphics/SVG/1.1/DTD/svg11.dtd">
<svg version="1.1" id="Layer_1" xmlns="http://www.w3.org/2000/svg" xmlns:xlink="http://www.w3.org/1999/xlink" x="0px" y="0px"
	 width="50px" height="50px" viewBox="0 0 50 50" enable-background="new 0 0 50 50" xml:space="preserve">
<g>
	<path fill-rule="evenodd" clip-rule="evenodd" fill="#FFFFFF" d="M0.502,35.241c0-0.705-0.08-1.057,0.823-1.099
		c1.056-0.048,2.284-0.107,3.457-0.107c0.47,0,1.322,0.352,1.333,0.441c0.141,1.134,2.129,0.664,3.265,0.035
		c3.771-1.314,7.605-1.256,11.556-0.549c1.918,0.345,3.92,0.468,5.897,0.536c2.762,0.095,5.53,0.04,8.296,0.058
		c1.599,0.013,2.726,0.801,2.762,1.915c0.039,1.135-0.998,1.958-2.582,2.071c-3.72,0.262-5.063,0.524-8.783,0.793
		c-0.122,0.008-0.252,0.023-0.358,0.041c-0.597,0.093-0.963,0.261-0.93,0.574c0.034,0.307,0.386,0.459,1.023,0.48
		c2.355,0.079,2.343-0.07,4.688-0.229c2.138-0.148,4.288-0.354,6.373-0.721c1.388-0.245,2.728-0.749,4-1.271
		c2.974-1.224,1.27-0.624,4.271-1.802c1.901-0.75,2.904-0.561,3.556,0.308c0.423,0.658,0.417,1.135,0.229,1.617
		c-0.497,0.536-1.566,1.36-2.232,1.713c-2.471,1.31-5.147,2.776-7.52,3.7c-1.517,0.65-4.32,1.421-5.277,1.549
		c-4.128,0.61-9.64,1.085-12.642,0.995c-3.353-0.103-6.771-0.989-10.238-1.32c-1.048-0.04-4.786-1.086-4.902,0.525
		c-0.019,0.273-0.393,0.239-0.967,0.258c-0.507,0.017-1.611,0.016-4.324-0.012c-0.666-0.005-0.741-0.414-0.693-0.995
		C0.635,44.085,0.502,35.749,0.502,35.241z"/>
	<g>
		<polygon fill="#FFFFFF" points="10.54,30.96 19.475,30.96 19.475,25.218 28.284,25.218 28.284,31.054 37.727,31.054 37.727,17.75 
			24.002,8.828 10.54,17.969 		"/>
		<polygon fill="#FFFFFF" points="4.656,16.567 6.643,18.177 23.985,6.77 41.629,18.102 43.612,16.42 24.184,3.699 		"/>
		<polygon fill="#FFFFFF" points="39.486,12.031 39.486,6.083 34.633,6.083 34.633,9.035 		"/>
	</g>
</g>
</svg>
