<?xml version="1.0" encoding="utf-8"?>
<!-- Generator: Adobe Illustrator 16.0.0, SVG Export Plug-In . SVG Version: 6.00 Build 0)  -->
<!DOCTYPE svg PUBLIC "-//W3C//DTD SVG 1.1//EN" "http://www.w3.org/Graphics/SVG/1.1/DTD/svg11.dtd">
<svg version="1.1" id="Layer_1" xmlns="http://www.w3.org/2000/svg" xmlns:xlink="http://www.w3.org/1999/xlink" x="0px" y="0px"
	 width="50px" height="50px" viewBox="0 0 50 50" enable-background="new 0 0 50 50" xml:space="preserve">
<path fill="#FFFFFF" d="M27.729,36.181c-6.475,4.563-12.54,8.799-13.569,9.427c-4.678,2.856-8.69,2.057-11.924-2.377
	c-1.43-1.96-1.992-4.131-1.628-6.275c0.449-2.641,2.151-4.646,3.598-5.641c7.647-5.273,27.876-19.642,28.649-20.188
	c0.297-0.229,2.25-1.643,4.55-1.352c1.433,0.181,2.667,0.95,3.67,2.287c1.161,1.547,1.632,3.148,1.401,4.763
	c-0.371,2.579-2.458,4.166-2.544,4.231l-0.027,0.021L15.796,38.064l-1.434-2.034l24.085-16.971c0.081-0.068,0.841-0.688,1.281-1.651
	c0.574-1.25,0.362-2.512-0.645-3.852c-0.591-0.785-1.236-1.214-1.979-1.311c-1.395-0.184-2.726,0.845-2.739,0.855l-0.051,0.039
	c-0.209,0.149-20.925,14.867-28.699,20.225c-1.047,0.731-2.258,2.25-2.557,4.01c-0.254,1.488,0.145,2.966,1.185,4.39
	c3.124,4.281,6.246,3.168,8.618,1.721c2.165-1.322,28.202-19.748,30.305-21.359c3.007-2.302,5.797-6.366,2.015-12.633
	c-1.362-2.257-3.096-3.637-5.153-4.103c-3.674-0.833-7.28,1.412-7.521,1.565L6.694,25.145L5.26,23.112L31.128,4.883
	c0.187-0.122,4.645-3.009,9.452-1.92c2.743,0.62,5.008,2.385,6.733,5.243c5.168,8.566-0.118,13.97-2.631,15.895
	C43.378,25.1,35.278,30.862,27.729,36.181z"/>
</svg>
