<?xml version="1.0" encoding="utf-8"?>
<!-- Generator: Adobe Illustrator 16.0.0, SVG Export Plug-In . SVG Version: 6.00 Build 0)  -->
<!DOCTYPE svg PUBLIC "-//W3C//DTD SVG 1.1//EN" "http://www.w3.org/Graphics/SVG/1.1/DTD/svg11.dtd">
<svg version="1.1" id="Layer_1" xmlns="http://www.w3.org/2000/svg" xmlns:xlink="http://www.w3.org/1999/xlink" x="0px" y="0px"
	 width="50px" height="50px" viewBox="0 0 50 50" enable-background="new 0 0 50 50" xml:space="preserve">
<g>
	<path fill="#FFFFFF" d="M25.067,1.167C11.902,1.167,1.232,11.837,1.232,25c0,13.165,10.67,23.834,23.835,23.834
		c13.162,0,23.832-10.67,23.832-23.834C48.899,11.837,38.229,1.167,25.067,1.167z M25.067,44.859C14.1,44.859,5.209,35.967,5.209,25
		c0-10.967,8.891-19.857,19.858-19.857c10.967,0,19.856,8.891,19.856,19.857C44.924,35.967,36.034,44.859,25.067,44.859z"/>
	<g>
		<path fill="#FFFFFF" d="M44.21,9.793l-4.299,2.999c1.799,2.163,3.131,4.727,3.851,7.535c-6.873,2.706-10.937-1.249-15.265-3.036
			c-0.618-0.288-1.281-0.503-1.977-0.635c-0.535-0.114-1.054-0.167-1.562-0.164c-0.399-0.002-0.805,0.03-1.223,0.099
			c-0.967,0.136-1.881,0.436-2.705,0.868c-4.169,1.844-8.18,5.463-14.801,2.897c0.72-2.82,2.054-5.394,3.859-7.564L5.791,9.793
			C2.479,13.97,0.5,19.252,0.5,24.996c0,4.788,1.374,9.252,3.748,13.024l4.251-2.744c-1.285-2.08-2.184-4.422-2.602-6.928
			c5.41-2.236,9.092-0.369,12.498,1.438c0.016,0.029,0.031,0.063,0.049,0.092c2.066,4.561,6.142,8.971,1.774,16.869h9.957
			c-4.5-8.137-0.04-12.572,1.956-17.283c3.256-1.699,6.836-3.234,11.967-1.082c-0.422,2.492-1.318,4.824-2.596,6.895l4.249,2.744
			c2.374-3.771,3.748-8.236,3.748-13.024C49.5,19.252,47.522,13.97,44.21,9.793z M24.933,19.874c2.448,0,4.433,1.985,4.433,4.434
			c0,2.447-1.984,4.431-4.433,4.431c-2.446,0-4.431-1.984-4.431-4.431C20.502,21.859,22.486,19.874,24.933,19.874z"/>
		<circle fill="#FFFFFF" cx="24.94" cy="24.257" r="3.388"/>
	</g>
</g>
</svg>
