<?xml version="1.0" encoding="utf-8"?>
<!-- Generator: Adobe Illustrator 16.0.0, SVG Export Plug-In . SVG Version: 6.00 Build 0)  -->
<!DOCTYPE svg PUBLIC "-//W3C//DTD SVG 1.1//EN" "http://www.w3.org/Graphics/SVG/1.1/DTD/svg11.dtd">
<svg version="1.1" id="Layer_1" xmlns="http://www.w3.org/2000/svg" xmlns:xlink="http://www.w3.org/1999/xlink" x="0px" y="0px"
	 width="50px" height="50px" viewBox="0 0 50 50" enable-background="new 0 0 50 50" xml:space="preserve">
<g>
	<polygon fill="#FFFFFF" points="25.045,2.021 0.689,11.822 0.596,15.06 3.83,14.869 3.83,16.388 45.978,16.388 45.978,14.964 
		49.404,14.964 49.5,11.919 	"/>
	<polygon fill="#FFFFFF" points="7.35,18.197 7.35,38.084 3.925,38.084 3.925,40.846 46.358,40.846 46.358,38.084 42.744,38.084 
		42.744,18.197 36.75,18.197 36.75,38.084 32.941,38.084 32.941,18.197 26.948,18.197 26.948,38.084 23.144,38.084 23.144,18.197 
		17.149,18.197 17.149,38.084 13.343,38.084 13.343,18.197 	"/>
	<rect x="0.5" y="42.841" fill="#FFFFFF" width="48.904" height="5.138"/>
</g>
</svg>
