<?xml version="1.0" encoding="utf-8"?>
<!-- Generator: Adobe Illustrator 16.0.0, SVG Export Plug-In . SVG Version: 6.00 Build 0)  -->
<!DOCTYPE svg PUBLIC "-//W3C//DTD SVG 1.1//EN" "http://www.w3.org/Graphics/SVG/1.1/DTD/svg11.dtd">
<svg version="1.1" id="Layer_1" xmlns="http://www.w3.org/2000/svg" xmlns:xlink="http://www.w3.org/1999/xlink" x="0px" y="0px"
	 width="50px" height="50px" viewBox="0 0 50 50" enable-background="new 0 0 50 50" xml:space="preserve">
<g>
	<path fill="#FFFFFF" d="M10.134,4.01C9.84,3.641,9.322,3.596,8.982,3.916c-6.5,6.104-9.583,15.475-8.127,24.689
		c0.043,0.318,0.249,0.579,0.521,0.693c0.276,0.107,0.585,0.052,0.808-0.152c0.227-0.209,0.335-0.532,0.28-0.842
		c-1.354-8.596,1.519-17.344,7.584-23.04C10.389,4.946,10.429,4.379,10.134,4.01L10.134,4.01z M10.134,4.01"/>
	<path fill="#FFFFFF" d="M15.131,43.875c-0.136,1.617,0.748,3.128,2.154,3.676c1.4,0.55,2.964-0.008,3.801-1.35L15.131,43.875z
		 M15.131,43.875"/>
	<path fill="#FFFFFF" d="M33.822,42.711c-0.023-0.334-0.046-0.658-0.055-0.999c-0.1-2.826,0.304-5.645,1.184-8.306l4.062-12.337
		c1.001-3.053,0.958-6.404-0.14-9.422c-0.01-0.019-0.02-0.035-0.028-0.057c-0.104-0.302-0.188-0.514-0.281-0.728
		c-0.947-2.155-2.398-4.004-4.211-5.352c-0.421-0.309-0.867-0.593-1.323-0.839c-1.378-0.757-2.87-1.23-4.402-1.399
		c-2.422-0.247-4.852,0.296-6.982,1.561c-2.652,1.566-4.679,4.139-5.698,7.229l-4.059,12.336c-0.874,2.669-2.211,5.124-3.938,7.243
		c-0.196,0.246-0.403,0.485-0.616,0.727l-0.099,0.103l-4.285,4.758l31.423,12.27L33.822,42.711z M33.822,42.711"/>
	<path fill="#FFFFFF" d="M30.077,1.715c0.248,0.053,0.496,0.116,0.737,0.176c0.121,0.035,0.238,0.066,0.356,0.107
		c0.294,0.083,0.589,0.184,0.877,0.292c0.038,0.017,0.078,0.026,0.115,0.041c0.039,0.014,0.076,0.035,0.114,0.051
		c0.288,0.11,0.574,0.239,0.855,0.381c0.108,0.052,0.219,0.105,0.321,0.16c0.236,0.126,0.462,0.247,0.69,0.383
		c0.059,0.032,0.127,0.066,0.187,0.102c0.1-1.209-0.567-2.341-1.614-2.751c-1.048-0.409-2.221,0.005-2.848,1.01
		C29.938,1.674,30.006,1.698,30.077,1.715L30.077,1.715z M30.077,1.715"/>
	<path fill="#FFFFFF" d="M6.032,26.906c0.263,0.101,0.558,0.048,0.781-0.142c0.217-0.188,0.335-0.49,0.303-0.788
		c-0.269-2.869,0.069-5.769,0.97-8.481c0.887-2.716,2.321-5.185,4.198-7.225c0.322-0.343,0.322-0.907,0-1.26
		c-0.318-0.346-0.835-0.346-1.152,0c-2.049,2.228-3.612,4.922-4.583,7.887c-0.989,2.957-1.348,6.129-1.053,9.259
		C5.528,26.497,5.738,26.786,6.032,26.906L6.032,26.906z M6.032,26.906"/>
	<path fill="#FFFFFF" d="M49.146,19.598c-0.084-0.477-0.505-0.798-0.944-0.713c-0.443,0.079-0.744,0.537-0.666,1.018
		c1.355,8.596-1.524,17.341-7.585,23.039c-0.227,0.209-0.332,0.528-0.276,0.846c0.054,0.312,0.258,0.566,0.534,0.674
		c0.281,0.106,0.585,0.041,0.808-0.17C47.513,38.185,50.601,28.813,49.146,19.598L49.146,19.598z M49.146,19.598"/>
	<path fill="#FFFFFF" d="M43.623,21.249c-0.453,0.051-0.778,0.484-0.734,0.976c0.259,2.875-0.072,5.772-0.979,8.48
		c-0.879,2.722-2.316,5.186-4.192,7.214c-0.231,0.223-0.327,0.559-0.26,0.881c0.074,0.326,0.301,0.578,0.595,0.658
		c0.295,0.077,0.607-0.022,0.807-0.274c2.06-2.217,3.627-4.905,4.594-7.875c0.982-2.96,1.345-6.12,1.061-9.259
		C44.472,21.562,44.067,21.204,43.623,21.249L43.623,21.249z M43.623,21.249"/>
</g>
</svg>
