<?xml version="1.0" encoding="utf-8"?>
<!-- Generator: Adobe Illustrator 16.0.0, SVG Export Plug-In . SVG Version: 6.00 Build 0)  -->
<!DOCTYPE svg PUBLIC "-//W3C//DTD SVG 1.1//EN" "http://www.w3.org/Graphics/SVG/1.1/DTD/svg11.dtd">
<svg version="1.1" id="Layer_1" xmlns="http://www.w3.org/2000/svg" xmlns:xlink="http://www.w3.org/1999/xlink" x="0px" y="0px"
	 width="50px" height="50px" viewBox="0 0 50 50" enable-background="new 0 0 50 50" xml:space="preserve">
<g>
	<g>
		<g>
			<path fill="#FFFFFF" d="M34.688,32.444c0,4.091,3.316,7.406,7.406,7.406c4.091,0,7.406-3.315,7.406-7.406
				c0-4.09-3.315-7.408-7.406-7.408C38.004,25.037,34.688,28.354,34.688,32.444z M36.441,32.444c0-3.123,2.532-5.653,5.652-5.653
				c3.123,0,5.654,2.53,5.654,5.653c0,3.122-2.531,5.653-5.654,5.653C38.974,38.098,36.441,35.566,36.441,32.444z"/>
			<path fill="#FFFFFF" d="M38.412,32.444c0,2.033,1.648,3.682,3.682,3.682c2.034,0,3.684-1.648,3.684-3.682
				s-1.649-3.682-3.684-3.682C40.061,28.763,38.412,30.411,38.412,32.444z M39.931,32.444c0-1.195,0.972-2.165,2.163-2.165
				c1.196,0,2.164,0.97,2.164,2.165c0,1.196-0.968,2.164-2.164,2.164C40.902,34.608,39.931,33.641,39.931,32.444z"/>
			<circle fill="#FFFFFF" cx="42.094" cy="32.444" r="1.746"/>
		</g>
		<g>
			<path fill="#FFFFFF" d="M2.238,32.377c0,4.091,3.317,7.408,7.407,7.408c4.091,0,7.407-3.317,7.407-7.408
				c0-4.092-3.316-7.407-7.407-7.407C5.556,24.97,2.238,28.285,2.238,32.377z M3.991,32.377c0-3.124,2.53-5.654,5.654-5.654
				c3.123,0,5.654,2.53,5.654,5.654c0,3.122-2.531,5.653-5.654,5.653C6.521,38.03,3.991,35.499,3.991,32.377z"/>
			<path fill="#FFFFFF" d="M5.965,32.377c0,2.032,1.647,3.682,3.681,3.682c2.034,0,3.68-1.649,3.68-3.682
				c0-2.035-1.646-3.681-3.68-3.681C7.612,28.696,5.965,30.342,5.965,32.377z M7.481,32.377c0-1.196,0.969-2.165,2.164-2.165
				s2.163,0.969,2.163,2.165c0,1.195-0.968,2.163-2.163,2.163S7.481,33.572,7.481,32.377z"/>
			<circle fill="#FFFFFF" cx="9.646" cy="32.376" r="1.746"/>
		</g>
	</g>
	<path fill="#FFFFFF" d="M19.225,28.844"/>
	<path fill="#FFFFFF" d="M45.996,25.292c0,0-0.868-0.566-3.045-0.788c-2.177-0.223-3.688,0.575-3.688,0.575l-2.089-3.775
		c0,0,0.268-0.133,0.492-0.133c0.219,0,0.174-0.399,0.174-0.399h1.423v-4.133c0,0-1.2-0.043-1.644,0.09
		c-0.445,0.134-0.711,0.444-0.889,0.844c-0.179,0.399-0.268,0.399-0.665,0.399c-0.399,0,0.133-0.577,0.133-0.577
		s0.621-0.934,0.799-1.199c0.177-0.266,0.268-0.533,0.043-0.71c-0.219-0.18-0.398-0.4-0.622-0.533
		c-0.22-0.134-0.397-0.134-0.752,0.266c-0.357,0.4-1.246,1.555-1.246,1.555l-0.087-2.267l-1.129-0.026l-0.188,0.66l-0.813-2.93
		c0.116-0.174,0.176-0.318,0.041-0.547c-0.267-0.443-0.134-1.068-0.444-1.291c-0.312-0.222-0.667-0.399-0.799,0.089
		c-0.13,0.471-0.311,1.868-0.357,2.224c-0.044,0.355-0.088,0.533,0.312,0.711s0.71,0.089,0.89-0.533
		c0.013-0.046,0.059-0.335,0.075-0.375l0.931,3.425c-0.071-0.002-2.337,0.325-2.399,0.184c-0.088-0.201-0.399-0.175-0.621-0.138
		c-0.447,0.075-0.881,0.107-1.905,0.308c-0.361,0.071-0.452,0.438-0.296,0.754c0.179,0.363,0.407,0.342,0.942,0.252
		c0.533-0.088,4.116-0.411,4.116-0.411l0.09,2.487l-0.401,0.088c0,0-0.219-0.269-0.529-0.269c-0.312,0-0.75-0.051-0.744-0.267
		c0.004-0.098-0.041-0.156-0.396-0.156s-0.453-0.075-0.461,0.159c-0.013,0.313-0.667,0.223-0.933,0.311
		c-0.189,0.063-0.149,0.21-0.353,0.317c-0.085,0.045-0.181,0.031-0.403,0.083c-0.755,0.177-1.866,0.399-3.51,1.155
		c-1.644,0.755-2.176,1.644-2.176,1.644s0-0.579,0.042-0.889c0.045-0.312,0.225-0.622-0.62-0.577
		c-0.845,0.044-5.776,0.312-6.665,0.354c-0.888,0.046-3.775-0.799-5.242-1.066c-1.466-0.266-3.046-1.085-3.888-0.577
		c-0.77,0.463-1.257,3.366-1.257,3.366l1.103,0.144c-0.799,0.089-2.045,0.8-2.045,0.8l-0.221-0.444
		c-0.132-0.933-1.289-1.065-1.289-1.065l-0.016-0.757l-1.226-0.001v2.312c0,0,0.085,0,0.307-0.044c0.226-0.044,0.8,0,0.935,0.267
		c0.133,0.268,0.133,1.556,0.133,1.556s-1.549,2.145-2.267,4.772C0.493,31.16,0.39,31.321,0.7,31.188
		c0.313-0.134,0.933-0.623,0.933-0.623c1.512-4.175,4.266-5.705,4.266-5.705l0.489,0.576c0,0,0.978,0.356,1.335,0.444
		c0.235,0.061,3.166,0.605,5.226,1.2l-1.693,2.701l1.01,0.74l1.953-3.015c0.354,0.145,0.604,0.286,0.701,0.418
		c0.575,0.8,0.8,3.555,0.8,3.555l-2.665-0.134l-5.331,1.467l-4.489-0.356l0.178,2.8c0,0,15.108,1.107,15.953,1.02
		c0.846-0.089,0.7,0.198,1.528,0.421c0.596,0.158,0.956,0.07,1.176-0.331c0.032-0.057,0.094-0.137,0.169-0.228
		c0.46,0.004,0.886-0.005,1.17-0.041c1.259-0.158,3.352-0.161,4.063-0.68c0.712-0.521,4.404-4.396,5.006-5.1
		c0.601-0.704,0.67-1.408,0.323-1.711c-0.293-0.256-0.568-0.485-0.799-0.673c-0.021-0.046-0.057-0.08-0.113-0.097
		c-0.011-0.004-0.016-0.012-0.024-0.016c-0.039-0.031-0.077-0.062-0.112-0.09c-0.157-0.257,0.259-0.866,0.937-1.318
		c0.799-0.533,0.533-1.999,1.199-2.887c0.664-0.888,1.422-1.11,1.422-1.11l1.999,3.644c-3.242,2.843-3.289,4.976-3.599,5.818
		c-0.311,0.845-0.787,1.294-0.208,1.205c0.577-0.09,1.454-0.271,1.941-1.025c0.49-0.757,1.112-1.022,1.598-2.044
		c0.49-1.023,1.514-2.044,1.514-2.044l1.535,2.575l1.586-0.621l-1.656-3.11c2.178-1.866,4.623-0.063,5.198-0.31
		c0.708-0.307,1.078-0.89,1.078-0.89C46.585,25.228,45.996,25.292,45.996,25.292z M21.026,31.149c0,0.895-0.512,2.393-0.512,2.393
		l-0.123-1.383c-0.202-1.616-0.202-1.616-0.961-2.84c-0.5-0.806-2.128-2.067-2.128-2.067s1.876,1.154,2.742,1.125
		c0.866-0.028,2.375-0.326,2.375-0.326C22.103,28.658,21.026,30.254,21.026,31.149z M26.038,27.136l5.381,0.196l-0.014,0.402
		l-5.381-0.196L26.038,27.136z M26.237,28.364l0.013-0.402l4.798,0.197l-0.013,0.402L26.237,28.364z M30.548,28.985l-0.012,0.403
		l-4.33-0.196l0.011-0.403L30.548,28.985z M25.959,29.616l3.893,0.197l-0.011,0.402l-3.892-0.197L25.959,29.616z M25.771,30.442
		l3.224,0.197l-0.009,0.402l-3.223-0.196L25.771,30.442z M25.043,31.27l2.623,0.197l-0.007,0.403l-2.624-0.197L25.043,31.27z
		 M31.964,29.296c0.098,0.455-4.567,5.417-5.604,5.565c-0.186,0.026-1.563,0.152-3.021,0.284c0.057-0.302,0.521-0.482,0.867-0.527
		c0.88-0.113,1.881-0.464,2.626-0.843c1.117-0.568,3.332-2.948,4.044-3.837c0.277-0.348,0.559-0.723,0.772-1.062
		C31.808,29.028,31.939,29.183,31.964,29.296z"/>
</g>
</svg>
