<?xml version="1.0" encoding="utf-8"?>
<!-- Generator: Adobe Illustrator 16.0.0, SVG Export Plug-In . SVG Version: 6.00 Build 0)  -->
<!DOCTYPE svg PUBLIC "-//W3C//DTD SVG 1.1//EN" "http://www.w3.org/Graphics/SVG/1.1/DTD/svg11.dtd">
<svg version="1.1" id="Layer_1" xmlns="http://www.w3.org/2000/svg" xmlns:xlink="http://www.w3.org/1999/xlink" x="0px" y="0px"
	 width="50px" height="50px" viewBox="0 0 50 50" enable-background="new 0 0 50 50" xml:space="preserve">
<g>
	<path fill="#FFFFFF" d="M49.479,40.484V8.187l-2.317-1.199l-0.21,34.023c0,0-2.843-1.053-9.164-1.581
		c-6.32-0.526-9.479,1.055-10.532,1.791c-1.053,0.737-1.474,1.053-2.633,1.159c-1.156,0.104-1.792-0.316-1.792-0.316
		c-0.632-0.947-3.263-2.316-7.794-2.845c-4.529-0.525-11.903,2.002-11.903,2.002L3.239,6.988L0.5,8.357c0,0,0,30.968,0,32.654
		c0,1.684,0.843,2.21,2.317,2.21c1.475,0,18.75,0.107,18.75,0.107s1.263,1.579,3.688,1.475c2.421-0.105,3.158-1.685,3.158-1.685
		s17.803,0,19.593,0C49.793,43.118,49.479,40.484,49.479,40.484z"/>
	<path fill="#FFFFFF" d="M17.142,37.431c4.846,0.736,6.846,3.054,6.846,3.054V12.572c0,0-0.209-2.845-6.846-5.057
		c-6.635-2.212-12.218-2-12.218-2v33.495C4.924,39.009,12.296,36.692,17.142,37.431z M19.897,32.536
		c-3.564-2.171-11.08-2.333-11.156-2.334l0.011-0.548c0.313,0.007,7.741,0.166,11.431,2.414L19.897,32.536z M19.897,29.654
		c-3.564-2.17-11.08-2.333-11.156-2.334l0.011-0.546c0.313,0.006,7.741,0.166,11.431,2.413L19.897,29.654z M8.737,24.046
		c0.292-0.005,7.09-0.125,11.212,2.518l-0.298,0.46c-3.979-2.553-10.833-2.435-10.9-2.431L8.737,24.046z M19.897,19.892
		c-3.564-2.17-11.08-2.332-11.156-2.333l0.011-0.546c0.313,0.005,7.741,0.166,11.431,2.412L19.897,19.892z M19.897,17.012
		c-3.564-2.172-11.08-2.333-11.156-2.334l0.011-0.547c0.313,0.006,7.741,0.167,11.431,2.415L19.897,17.012z M19.95,13.922
		l-0.298,0.46c-3.979-2.553-10.833-2.435-10.9-2.432l-0.014-0.547C9.029,11.398,15.828,11.278,19.95,13.922z M14.364,20.589
		l-0.136,0.531c-3.025-0.775-5.418-0.423-5.443-0.419L8.702,20.16C8.804,20.143,11.232,19.786,14.364,20.589z M14.228,33.762
		c-3.025-0.774-5.418-0.423-5.443-0.419l-0.083-0.54c0.102-0.017,2.53-0.373,5.662,0.43L14.228,33.762z"/>
	<path fill="#FFFFFF" d="M32.943,37.112c4.844-0.736,12.219,1.581,12.219,1.581V5.198c0,0-5.585-0.212-12.219,2.001
		c-6.639,2.211-6.849,5.055-6.849,5.055v27.913C26.095,40.167,28.098,37.851,32.943,37.112z M40.049,32.559
		c-3.569-2.17-11.085-0.809-11.16-0.812l0.011-0.546c0.314,0.005,7.739-1.357,11.433,0.891L40.049,32.559z M40.049,29.678
		c-3.569-2.17-11.085-0.81-11.16-0.812l0.011-0.545c0.314,0.004,7.739-1.357,11.433,0.89L40.049,29.678z M28.887,25.592
		c0.289-0.005,7.088-1.647,11.21,0.996l-0.296,0.462c-3.977-2.554-10.832-0.913-10.901-0.91L28.887,25.592z M40.049,19.916
		c-3.569-2.17-11.085-0.811-11.16-0.811l0.011-0.547c0.314,0.004,7.739-1.356,11.433,0.89L40.049,19.916z M40.049,17.034
		c-3.569-2.17-11.085-0.809-11.16-0.81l0.011-0.547c0.314,0.005,7.739-1.356,11.433,0.891L40.049,17.034z M40.097,13.945
		l-0.296,0.46c-3.977-2.553-10.832-0.913-10.901-0.91l-0.013-0.546C29.176,12.943,35.975,11.301,40.097,13.945z M34.64,21.742
		l-0.135,0.53c-3.022-0.775-5.545-0.029-5.571-0.026l-0.082-0.542C28.954,21.689,31.511,20.939,34.64,21.742z M34.517,34.081
		l-0.134,0.53c-3.022-0.775-5.423,0.274-5.449,0.278l-0.082-0.541C28.954,34.332,31.389,33.277,34.517,34.081z"/>
</g>
</svg>
