<?xml version="1.0" encoding="utf-8"?>
<!-- Generator: Adobe Illustrator 16.0.0, SVG Export Plug-In . SVG Version: 6.00 Build 0)  -->
<!DOCTYPE svg PUBLIC "-//W3C//DTD SVG 1.1//EN" "http://www.w3.org/Graphics/SVG/1.1/DTD/svg11.dtd">
<svg version="1.1" id="Layer_1" xmlns="http://www.w3.org/2000/svg" xmlns:xlink="http://www.w3.org/1999/xlink" x="0px" y="0px"
	 width="50px" height="50px" viewBox="0 0 50 50" enable-background="new 0 0 50 50" xml:space="preserve">
<g>
	<path fill-rule="evenodd" clip-rule="evenodd" fill="#FFFFFF" d="M46.021,3.062c-4.637-3.265-23.003-3.437-27.536-0.36
		c-0.838,0.566-1.17,1.155-1.163,2.2c0.036,11.576,0.02,31.411,0.02,42.987c0,0.519,0,1.033,0,1.582c3.533,0,7.793,0,11.29,0
		c0-4.129,0-3.017,0-7.072c2.973,0,3.96,0,6.923,0c0,4.172,0,3.063,0,7.038c3.497,0,7.752,0,11.063,0
		c0.057-0.22,0.101-0.309,0.101-0.398c0.008-12.156,0.021-32.575-0.012-44.729C46.706,3.885,46.374,3.308,46.021,3.062z
		 M19.448,5.956c1.186,0,2.289,0,3.47,0c0,1.206,0,2.402,0,3.656c-1.15,0-2.276,0-3.47,0C19.448,8.405,19.448,7.235,19.448,5.956z
		 M24.507,5.956c1.251,0,2.392,0,3.603,0c0,1.205,0,2.375,0,3.629c-1.175,0-2.36,0-3.603,0C24.507,8.384,24.507,7.216,24.507,5.956z
		 M30.09,5.975c1.146,0,2.275,0,3.477,0c0,1.198,0,2.367,0,3.65c-1.179,0-2.29,0-3.477,0C30.09,8.427,30.09,7.229,30.09,5.975z
		 M35.277,5.956c1.251,0,2.392,0,3.604,0c0,1.205,0,2.375,0,3.629c-1.176,0-2.36,0-3.604,0C35.277,8.384,35.277,7.216,35.277,5.956z
		 M40.648,5.975c1.146,0,2.274,0,3.477,0c0,1.198,0,2.367,0,3.65c-1.179,0-2.289,0-3.477,0C40.648,8.427,40.648,7.229,40.648,5.975z
		 M19.448,12.483c1.186,0,2.289,0,3.47,0c0,1.205,0,2.401,0,3.656c-1.15,0-2.276,0-3.47,0
		C19.448,14.932,19.448,13.763,19.448,12.483z M24.507,12.483c1.251,0,2.392,0,3.603,0c0,1.204,0,2.374,0,3.628
		c-1.175,0-2.36,0-3.603,0C24.507,14.912,24.507,13.743,24.507,12.483z M30.09,12.501c1.146,0,2.275,0,3.477,0
		c0,1.198,0,2.367,0,3.651c-1.179,0-2.29,0-3.477,0C30.09,14.955,30.09,13.756,30.09,12.501z M35.277,12.483
		c1.251,0,2.392,0,3.604,0c0,1.204,0,2.374,0,3.628c-1.176,0-2.36,0-3.604,0C35.277,14.912,35.277,13.743,35.277,12.483z
		 M40.648,12.501c1.146,0,2.274,0,3.477,0c0,1.198,0,2.367,0,3.651c-1.179,0-2.289,0-3.477,0
		C40.648,14.955,40.648,13.756,40.648,12.501z M19.448,19.01c1.186,0,2.289,0,3.47,0c0,1.206,0,2.402,0,3.657
		c-1.15,0-2.276,0-3.47,0C19.448,21.459,19.448,20.29,19.448,19.01z M24.507,19.01c1.251,0,2.392,0,3.603,0c0,1.205,0,2.374,0,3.628
		c-1.175,0-2.36,0-3.603,0C24.507,21.439,24.507,20.271,24.507,19.01z M30.09,19.029c1.146,0,2.275,0,3.477,0
		c0,1.198,0,2.367,0,3.65c-1.179,0-2.29,0-3.477,0C30.09,21.482,30.09,20.283,30.09,19.029z M35.277,19.01c1.251,0,2.392,0,3.604,0
		c0,1.205,0,2.374,0,3.628c-1.176,0-2.36,0-3.604,0C35.277,21.439,35.277,20.271,35.277,19.01z M40.648,19.029
		c1.146,0,2.274,0,3.477,0c0,1.198,0,2.367,0,3.65c-1.179,0-2.289,0-3.477,0C40.648,21.482,40.648,20.283,40.648,19.029z
		 M19.448,25.537c1.186,0,2.289,0,3.47,0c0,1.206,0,2.402,0,3.656c-1.15,0-2.276,0-3.47,0
		C19.448,27.986,19.448,26.816,19.448,25.537z M24.507,25.537c1.251,0,2.392,0,3.603,0c0,1.205,0,2.375,0,3.628
		c-1.175,0-2.36,0-3.603,0C24.507,27.966,24.507,26.798,24.507,25.537z M30.09,25.557c1.146,0,2.275,0,3.477,0
		c0,1.197,0,2.366,0,3.65c-1.179,0-2.29,0-3.477,0C30.09,28.011,30.09,26.811,30.09,25.557z M35.277,25.537c1.251,0,2.392,0,3.604,0
		c0,1.205,0,2.375,0,3.628c-1.176,0-2.36,0-3.604,0C35.277,27.966,35.277,26.798,35.277,25.537z M40.648,25.557
		c1.146,0,2.274,0,3.477,0c0,1.197,0,2.366,0,3.65c-1.179,0-2.289,0-3.477,0C40.648,28.011,40.648,26.811,40.648,25.557z
		 M19.448,32.065c1.186,0,2.289,0,3.47,0c0,1.205,0,2.401,0,3.655c-1.15,0-2.276,0-3.47,0
		C19.448,34.514,19.448,33.344,19.448,32.065z M24.507,32.065c1.251,0,2.392,0,3.603,0c0,1.203,0,2.374,0,3.628
		c-1.175,0-2.36,0-3.603,0C24.507,34.493,24.507,33.325,24.507,32.065z M30.09,32.083c1.146,0,2.275,0,3.477,0
		c0,1.199,0,2.367,0,3.651c-1.179,0-2.29,0-3.477,0C30.09,34.536,30.09,33.338,30.09,32.083z M35.277,32.065
		c1.251,0,2.392,0,3.604,0c0,1.203,0,2.374,0,3.628c-1.176,0-2.36,0-3.604,0C35.277,34.493,35.277,33.325,35.277,32.065z
		 M40.648,32.083c1.146,0,2.274,0,3.477,0c0,1.199,0,2.367,0,3.651c-1.179,0-2.289,0-3.477,0
		C40.648,34.536,40.648,33.338,40.648,32.083z M19.448,42.241c1.186,0,2.289,0,3.47,0c0,1.206,0,2.402,0,3.655
		c-1.15,0-2.276,0-3.47,0C19.448,44.689,19.448,43.521,19.448,42.241z M40.648,42.259c1.146,0,2.274,0,3.477,0
		c0,1.198,0,2.367,0,3.651c-1.179,0-2.289,0-3.477,0C40.648,44.713,40.648,43.514,40.648,42.259z"/>
	<path fill-rule="evenodd" clip-rule="evenodd" fill="#FFFFFF" d="M3.273,16.516c0,0.486,0,0.97,0,1.454c4.791,0,8.237,0,13.134,0
		c-0.039-0.592-0.063-0.996-0.092-1.454C11.445,16.516,8.035,16.516,3.273,16.516z"/>
	<path fill-rule="evenodd" clip-rule="evenodd" fill="#FFFFFF" d="M3.273,13.267c0,0.486,0,0.97,0,1.454c4.791,0,8.237,0,13.134,0
		c-0.039-0.592-0.063-0.996-0.092-1.454C11.445,13.267,8.035,13.267,3.273,13.267z"/>
	<path fill-rule="evenodd" clip-rule="evenodd" fill="#FFFFFF" d="M3.273,10.017c0,0.486,0,0.97,0,1.454c4.791,0,8.237,0,13.134,0
		c-0.039-0.592-0.063-0.996-0.092-1.454C11.445,10.017,8.035,10.017,3.273,10.017z"/>
	<path fill-rule="evenodd" clip-rule="evenodd" fill="#FFFFFF" d="M3.358,49.5c4.349,0,8.596,0,12.926,0c0-7.503,0-22.233,0-29.576
		c-4.376,0-8.645,0-12.926,0C3.358,27.381,3.358,42.113,3.358,49.5z M12.358,35.306c-1.662,0-3.275,0-4.995,0
		c0-1.723,0-3.425,0-5.21c1.634,0,3.248,0,4.995,0C12.358,31.878,12.358,33.549,12.358,35.306z M7.361,22.227
		c1.634,0,3.244,0,4.997,0c0,1.782,0,3.454,0,5.21c-1.668,0-3.275,0-4.997,0C7.361,25.716,7.361,24.012,7.361,22.227z M7.335,37.951
		c1.749,0,3.324,0,4.989,0c0,1.768,0,3.48,0,5.303c-1.626,0-3.264,0-4.989,0C7.335,41.486,7.335,39.778,7.335,37.951z"/>
</g>
</svg>
