<?xml version="1.0" encoding="utf-8"?>
<!-- Generator: Adobe Illustrator 16.0.0, SVG Export Plug-In . SVG Version: 6.00 Build 0)  -->
<!DOCTYPE svg PUBLIC "-//W3C//DTD SVG 1.1//EN" "http://www.w3.org/Graphics/SVG/1.1/DTD/svg11.dtd">
<svg version="1.1" id="Layer_1" xmlns="http://www.w3.org/2000/svg" xmlns:xlink="http://www.w3.org/1999/xlink" x="0px" y="0px"
	 width="50px" height="50px" viewBox="0 0 50 50" enable-background="new 0 0 50 50" xml:space="preserve">
<g>
	<path fill="#FFFFFF" d="M10.588,32.909c0,1.735,1.407,3.142,3.144,3.142c1.734,0,3.14-1.406,3.14-3.142
		c0-1.734-1.405-3.14-3.14-3.14C11.995,29.77,10.588,31.175,10.588,32.909z M12.54,32.91c0-0.658,0.533-1.191,1.191-1.191
		c0.657,0,1.188,0.533,1.188,1.191s-0.531,1.191-1.188,1.191C13.073,34.102,12.54,33.568,12.54,32.91z"/>
	<path fill="#FFFFFF" d="M32.809,32.909c0,1.735,1.406,3.142,3.142,3.142c1.736,0,3.14-1.406,3.14-3.142
		c0-1.734-1.403-3.14-3.14-3.14C34.215,29.77,32.809,31.175,32.809,32.909z M34.76,32.91c0-0.658,0.533-1.191,1.19-1.191
		s1.19,0.533,1.19,1.191s-0.533,1.191-1.19,1.191S34.76,33.568,34.76,32.91z"/>
	<path fill="#FFFFFF" d="M0.586,31.616c0.046,0.926,0.279,1.249,1.065,1.249l8.209,0.028c0.007-2.116,1.725-3.83,3.842-3.83
		c2.122,0,3.843,1.721,3.843,3.845c0,0.004-0.001,0.009-0.001,0.015l14.537,0.055c0-0.023-0.007-0.047-0.007-0.069
		c0-2.124,1.721-3.845,3.843-3.845c2.12,0,3.842,1.721,3.842,3.845c0,0.03-0.008,0.062-0.009,0.096l1.17,0.001
		c0,0,4.874,0,6.586,0.091c1.713,0.093,1.989-0.785,1.989-1.802c0-1.018,0.104-4.965-0.655-8.009
		c-0.278-1.11-1.353-4.849-1.861-5.773c-0.062-0.114-0.132-0.235-0.216-0.364c0.953,0.069,0.987,0.079,1.169,0.105
		c0.321,0.049,0.205,0.726,0.237,1.649c0.007,0.196,0.22,0.255,0.445,0.276c0.391,0.041,0.728-0.052,0.632-1.441
		c-0.086-1.29-0.311-1.196-1.789-1.196c-0.809,0-0.304,0.129-1.059,0.08c-0.563-0.749-1.308-1.468-1.964-1.468
		c-0.927,0-20.767-0.094-20.767-0.094l-0.881-1.063L6.878,13.949l-0.971,1.157c0,0-0.786-0.277-2.824,0
		c-2.035,0.277-2.035,1.525-2.172,2.45c-0.138,0.925-0.279,4.671-0.371,7.261C0.447,27.409,0.54,30.69,0.586,31.616z M40.938,17.466
		c0-0.482,0.42-0.874,0.939-0.874h2.794c0.264,0,0.501,0.104,0.672,0.268c0,0,0.267,0.179,0.267,0.606v13.5
		c0,0.483-0.421,0.874-0.938,0.874h-2.794c-0.52,0-0.939-0.391-0.939-0.874V17.466z M30.022,17.651c0-0.46,0.33-0.834,0.736-0.834
		h6.599c0.406,0,0.738,0.374,0.738,0.834v5.964c0,0.46-0.332,0.834-0.738,0.834h-6.599c-0.406,0-0.736-0.374-0.736-0.834V17.651z
		 M20.813,17.651c0-0.46,0.328-0.834,0.735-0.834h6.599c0.407,0,0.735,0.374,0.735,0.834v5.964c0,0.46-0.328,0.834-0.735,0.834
		h-6.599c-0.407,0-0.735-0.374-0.735-0.834V17.651z M11.601,17.651c0-0.46,0.33-0.834,0.736-0.834h6.599
		c0.406,0,0.736,0.374,0.736,0.834v5.964c0,0.46-0.33,0.834-0.736,0.834h-6.599c-0.406,0-0.736-0.374-0.736-0.834V17.651z
		 M2.389,17.651c0-0.46,0.331-0.834,0.737-0.834h6.598c0.407,0,0.738,0.374,0.738,0.834v5.964c0,0.46-0.331,0.834-0.738,0.834H3.126
		c-0.406,0-0.737-0.374-0.737-0.834V17.651z"/>
	<rect x="41.698" y="17.61" fill="#FFFFFF" width="3.168" height="5.742"/>
	<rect x="41.698" y="25.216" fill="#FFFFFF" width="3.168" height="5.744"/>
</g>
</svg>
