<?xml version="1.0" encoding="utf-8"?>
<!-- Generator: Adobe Illustrator 16.0.0, SVG Export Plug-In . SVG Version: 6.00 Build 0)  -->
<!DOCTYPE svg PUBLIC "-//W3C//DTD SVG 1.1//EN" "http://www.w3.org/Graphics/SVG/1.1/DTD/svg11.dtd">
<svg version="1.1" id="Layer_1" xmlns="http://www.w3.org/2000/svg" xmlns:xlink="http://www.w3.org/1999/xlink" x="0px" y="0px"
	 width="50px" height="50px" viewBox="0 0 50 50" enable-background="new 0 0 50 50" xml:space="preserve">
<g>
	<path fill="#FFFFFF" d="M31.744,11.654l0.572-2.145L14.614,3.85C14.346,1.957,12.726,0.5,10.76,0.5
		c-2.153,0-3.897,1.744-3.897,3.896c0,1.719,1.113,3.175,2.658,3.692l0.894,20.322l2.541-0.328l-2.401-19.8
		c0.068,0.004,0.136,0.01,0.206,0.01c0.63,0,1.224-0.152,1.75-0.418l14.218,20.29c0,0,2.787-2.869,2.787-2.624
		c0,0.198-11.492-13.283-15.916-18.482c0.479-0.511,0.824-1.148,0.973-1.86L31.744,11.654z"/>
	<path fill="#FFFFFF" d="M28.748,49.5c-0.363,0-0.706-0.172-0.922-0.465c-0.22-0.301-0.281-0.688-0.164-1.041l4.024-12.072
		l2.171,0.723l-3.513,10.534l13.318-0.268l-7.066-15.349l2.078-0.956l7.797,16.937c0.162,0.351,0.136,0.759-0.069,1.084
		c-0.205,0.327-0.561,0.531-0.947,0.538L28.771,49.5C28.764,49.5,28.756,49.5,28.748,49.5z"/>
	<path fill="#FFFFFF" d="M17.115,16.278c0.075-0.071,0.15-0.142,0.225-0.212l-0.704-0.972c-0.122,0.116-0.244,0.229-0.366,0.347
		c-1.368,1.324-2.646,2.671-3.825,4.018v1.817C13.839,19.607,15.403,17.925,17.115,16.278z"/>
	<g>
		<path fill="#FFFFFF" d="M25.006,9.836L23.677,9.25c-1.406,1-2.833,2.113-4.256,3.329l0.801,0.898
			C21.83,12.119,23.437,10.899,25.006,9.836z"/>
		<path fill="#FFFFFF" d="M41.585,5.35c-0.011-0.02-0.021-0.039-0.032-0.059c-0.038-0.064-0.077-0.122-0.114-0.182
			c-0.048-0.075-0.095-0.151-0.146-0.223c-0.002-0.002-0.003-0.006-0.005-0.008h-0.002c-0.09-0.119-0.183-0.233-0.286-0.34
			c-2.246-2.319-7.405-1.283-13.413,2.189c0.455,0.235,0.954,0.5,1.362,0.719c5.001-2.653,9.183-3.346,11.053-1.403
			c3.251,3.38-1.722,13.442-11.109,22.474C19.503,37.551,9.257,42.131,6.006,38.752c-2.211-2.298-0.618-7.684,3.576-13.735v-2.043
			C4.109,30.269,1.876,37.03,4.555,39.799c0.357,0.369,0.792,0.649,1.29,0.854l0,0c1.992,1.895,19.324,7.108,30.689-6.406
			C45.272,23.859,44.079,9.701,41.585,5.35z"/>
	</g>
</g>
</svg>
