<?xml version="1.0" encoding="utf-8"?>
<!-- Generator: Adobe Illustrator 16.0.0, SVG Export Plug-In . SVG Version: 6.00 Build 0)  -->
<!DOCTYPE svg PUBLIC "-//W3C//DTD SVG 1.1//EN" "http://www.w3.org/Graphics/SVG/1.1/DTD/svg11.dtd">
<svg version="1.1" id="Layer_1" xmlns="http://www.w3.org/2000/svg" xmlns:xlink="http://www.w3.org/1999/xlink" x="0px" y="0px"
	 width="50px" height="50px" viewBox="0 0 50 50" enable-background="new 0 0 50 50" xml:space="preserve">
<g>
	<g>
		<path fill-rule="evenodd" clip-rule="evenodd" fill="#FFFFFF" d="M49.5,8.723c0,13.71,0,27.419,0,41.132c-16.325,0-32.649,0-49,0
			c0-14.606,0-29.221,0-43.829c2.324,0.029,4.645,0.067,6.993,0.1c0,0.559,0,1.072,0,1.589C7.5,9.394,8.125,10.792,9.401,11.9
			c1.81,1.57,4.736,1.604,6.594,0.086c1.349-1.106,1.996-2.529,2.008-4.255c0.007-0.529,0-1.053,0-1.594
			c0.158-0.012,0.26-0.029,0.364-0.029c4.42,0,8.839,0.007,13.257-0.007c0.338,0,0.392,0.125,0.394,0.416
			c0.01,0.741-0.009,1.491,0.089,2.218c0.376,2.83,3.317,4.877,6.11,4.292c2.573-0.534,4.286-2.632,4.295-5.257
			c0.002-0.54,0-1.075,0-1.625c0.089-0.017,0.138-0.033,0.189-0.033c2.144-0.003,4.289,0.003,6.432-0.009
			c0.283,0,0.32,0.129,0.322,0.364C49.464,7.218,49.481,7.97,49.5,8.723z M24.996,18.348c-6.814,0-13.627,0-20.443,0
			c-0.55,0-0.55,0-0.55,0.529c0,8.996,0.003,17.994-0.006,26.994c-0.003,0.4,0.105,0.507,0.507,0.507
			c13.655-0.012,27.311-0.009,40.968-0.009c0.529,0,0.532,0,0.532-0.512c0-8.996,0-17.993,0-26.993c0-0.517-0.003-0.517-0.523-0.517
			C38.653,18.348,31.823,18.348,24.996,18.348z"/>
		<path fill-rule="evenodd" clip-rule="evenodd" fill="#FFFFFF" d="M13.205,0.146c0.516,0.227,1.074,0.388,1.529,0.699
			c0.922,0.627,1.377,1.567,1.398,2.668c0.021,1.373,0.053,2.752-0.052,4.12c-0.162,2.079-2.351,3.459-4.35,2.855
			C10.458,10.104,9.27,8.942,9.259,7.14C9.254,5.847,9.268,4.552,9.308,3.258c0.048-1.439,1.213-2.717,2.682-3.035
			c0.087-0.021,0.177-0.05,0.265-0.077C12.571,0.146,12.888,0.146,13.205,0.146z"/>
		<path fill-rule="evenodd" clip-rule="evenodd" fill="#FFFFFF" d="M37.667,0.146c0.526,0.227,1.106,0.385,1.572,0.702
			c0.967,0.665,1.401,1.654,1.401,2.821c0,1.283,0.014,2.565-0.039,3.845c-0.083,1.804-1.772,3.276-3.668,3.096
			c-1.8-0.172-3.053-1.426-3.148-3.231c-0.07-1.332-0.065-2.671,0.003-4.002c0.083-1.624,1.153-2.798,2.744-3.158
			c0.06-0.017,0.12-0.048,0.182-0.072C37.032,0.146,37.35,0.146,37.667,0.146z"/>
		<path fill-rule="evenodd" clip-rule="evenodd" fill="#FFFFFF" d="M14.715,43.318c-1.807,0-3.601,0-5.425,0
			c-0.012-0.132-0.036-0.244-0.036-0.359c0-1.377,0.007-2.755-0.005-4.131c-0.004-0.296,0.086-0.385,0.385-0.384
			c1.6,0.015,3.202,0.009,4.802,0.002c0.225-0.002,0.34,0.048,0.338,0.306c-0.009,1.439-0.005,2.885-0.007,4.326
			C14.765,43.153,14.734,43.229,14.715,43.318z"/>
		<path fill-rule="evenodd" clip-rule="evenodd" fill="#FFFFFF" d="M18.05,43.303c-0.014-0.12-0.029-0.235-0.029-0.352
			c-0.002-1.377,0.009-2.753-0.011-4.13c0-0.301,0.097-0.38,0.387-0.377c1.577,0.013,3.15,0.013,4.726,0
			c0.296,0,0.423,0.057,0.418,0.393c-0.021,1.374-0.011,2.752-0.009,4.129c0.005,0.217-0.005,0.378-0.306,0.375
			c-1.665-0.012-3.331-0.007-4.999-0.009C18.175,43.332,18.125,43.318,18.05,43.303z"/>
		<path fill-rule="evenodd" clip-rule="evenodd" fill="#FFFFFF" d="M26.958,43.312c0-1.615,0-3.209,0-4.829c1.817,0,3.62,0,5.463,0
			c0.011,0.129,0.027,0.254,0.027,0.38c0.002,1.347-0.007,2.698,0.007,4.044c0.006,0.311-0.058,0.441-0.407,0.438
			c-1.571-0.019-3.144-0.01-4.717-0.01C27.216,43.334,27.101,43.32,26.958,43.312z"/>
		<path fill-rule="evenodd" clip-rule="evenodd" fill="#FFFFFF" d="M40.681,38.486c0,1.614,0,3.21,0,4.848c-0.194,0-0.361,0-0.527,0
			c-1.509,0-3.015-0.007-4.523,0.007c-0.316,0.005-0.439-0.069-0.435-0.412c0.018-1.375,0.011-2.749,0.004-4.125
			c-0.002-0.238,0.053-0.359,0.326-0.359c1.668,0.013,3.334,0.007,4.999,0.009C40.562,38.453,40.6,38.469,40.681,38.486z"/>
		<path fill-rule="evenodd" clip-rule="evenodd" fill="#FFFFFF" d="M9.295,30.247c1.814,0,3.618,0,5.476,0c0,0.189,0,0.354,0,0.522
			c0,1.309-0.007,2.618,0.005,3.925c0,0.294-0.081,0.391-0.38,0.389c-1.6-0.014-3.2-0.011-4.8-0.005
			c-0.216,0-0.347-0.036-0.347-0.298c0.01-1.453,0.005-2.908,0.01-4.361C9.259,30.369,9.28,30.319,9.295,30.247z"/>
		<path fill-rule="evenodd" clip-rule="evenodd" fill="#FFFFFF" d="M18.019,26.99c0-0.392,0-0.733,0-1.072
			c0-1.139,0.011-2.279-0.005-3.415c-0.004-0.292,0.08-0.394,0.378-0.392c1.591,0.016,3.176,0.016,4.767,0
			c0.303-0.002,0.382,0.111,0.38,0.396c-0.012,1.376-0.009,2.749-0.009,4.127c0,0.17,0.033,0.357-0.238,0.357
			C21.561,26.988,19.827,26.99,18.019,26.99z"/>
		<path fill-rule="evenodd" clip-rule="evenodd" fill="#FFFFFF" d="M29.657,26.992c-0.782,0-1.56-0.013-2.338,0.005
			c-0.285,0.005-0.396-0.063-0.394-0.373c0.014-1.371,0.014-2.748,0-4.121c0-0.292,0.082-0.394,0.383-0.392
			c1.598,0.016,3.195,0.011,4.797,0.004c0.249-0.004,0.35,0.072,0.35,0.338c-0.008,1.4-0.008,2.8,0,4.202
			c0,0.258-0.079,0.347-0.34,0.342C31.296,26.981,30.475,26.992,29.657,26.992z"/>
		<path fill-rule="evenodd" clip-rule="evenodd" fill="#FFFFFF" d="M40.674,22.168c0,1.591,0,3.18,0,4.795
			c-0.088,0.012-0.163,0.027-0.24,0.027c-1.627,0.002-3.252-0.002-4.878,0.003c-0.242,0.004-0.36-0.048-0.358-0.324
			c0.012-1.4,0.009-2.802,0.002-4.204c0-0.214,0.039-0.35,0.3-0.349c1.681,0.011,3.36,0.006,5.037,0.011
			C40.574,22.127,40.611,22.147,40.674,22.168z"/>
		<path fill-rule="evenodd" clip-rule="evenodd" fill="#FFFFFF" d="M26.948,35.036c0-1.601,0-3.173,0-4.778c1.827,0,3.638,0,5.502,0
			c0,0.365,0,0.72,0,1.075c0,1.123,0,2.245,0.005,3.372c0,0.222-0.014,0.378-0.308,0.374c-1.669-0.01-3.336-0.007-5.002-0.008
			C27.092,35.071,27.042,35.054,26.948,35.036z"/>
		<path fill-rule="evenodd" clip-rule="evenodd" fill="#FFFFFF" d="M18.019,30.251c1.858,0,3.662,0,5.511,0c0,0.364,0,0.706,0,1.046
			c0,1.123-0.005,2.247,0.009,3.372c0.002,0.294-0.065,0.416-0.396,0.414c-1.587-0.016-3.173-0.009-4.757-0.005
			c-0.19,0-0.369,0.021-0.369-0.271C18.023,33.302,18.019,31.795,18.019,30.251z"/>
		<path fill-rule="evenodd" clip-rule="evenodd" fill="#FFFFFF" d="M40.681,30.263c0,1.598,0,3.18,0,4.784
			c-0.112,0.011-0.199,0.027-0.287,0.027c-1.603,0.004-3.204,0.004-4.807,0c-0.175,0-0.388,0.048-0.388-0.251
			c0.007-1.508,0.007-3.017,0.007-4.561C37.032,30.263,38.836,30.263,40.681,30.263z"/>
	</g>
</g>
</svg>
