<?xml version="1.0" encoding="utf-8"?>
<!-- Generator: Adobe Illustrator 16.0.0, SVG Export Plug-In . SVG Version: 6.00 Build 0)  -->
<!DOCTYPE svg PUBLIC "-//W3C//DTD SVG 1.1//EN" "http://www.w3.org/Graphics/SVG/1.1/DTD/svg11.dtd">
<svg version="1.1" id="Layer_1" xmlns="http://www.w3.org/2000/svg" xmlns:xlink="http://www.w3.org/1999/xlink" x="0px" y="0px"
	 width="50px" height="50px" viewBox="0 0 50 50" enable-background="new 0 0 50 50" xml:space="preserve">
<g>
	<path fill-rule="evenodd" clip-rule="evenodd" fill="#FFFFFF" d="M24.966,36.267c-4.912-0.012-8.842-3.957-8.826-8.85
		c0.016-4.865,4.027-8.851,8.884-8.827c4.871,0.025,8.836,4.016,8.822,8.886C33.836,32.369,29.883,36.281,24.966,36.267z
		 M25.014,31.554c2.2-0.01,4.062-1.844,4.109-4.047c0.049-2.222-1.878-4.143-4.151-4.132c-2.208,0.011-4.072,1.836-4.11,4.028
		C20.823,29.629,22.76,31.566,25.014,31.554z"/>
	<path fill-rule="evenodd" clip-rule="evenodd" fill="#FFFFFF" d="M49.477,16.901c-0.01-2.561-1.503-4.027-4.071-4.078
		c-2.03-0.04-4.064-0.062-6.095,0.012c-1.108,0.039-1.893-0.268-2.616-1.146c-1.104-1.339-2.258-2.684-3.601-3.764
		c-0.83-0.67-2.04-1.15-3.102-1.199c-3.235-0.154-6.484-0.154-9.718,0c-1.063,0.048-2.283,0.518-3.099,1.196
		c-1.44,1.197-2.669,2.659-3.902,4.083c-0.706,0.819-1.438,1.005-2.375,0.629c-0.074-0.625-0.141-1.187-0.208-1.759
		c-1.425,0-2.743,0-4.094,0c-0.036,0.636-0.063,1.163-0.101,1.845c-0.442,0.037-0.772,0.079-1.104,0.088
		c-3.52,0.099-4.892,1.497-4.892,5.005c0,6.868-0.003,13.738,0.002,20.608c0.002,3.177,1.76,4.958,4.918,4.96
		c13.157,0.007,26.316,0.004,39.472,0c2.882,0,4.568-1.58,4.584-4.423C49.51,31.605,49.505,24.253,49.477,16.901z M21.787,7.977
		h6.426v2.918h-6.426V7.977z M24.891,38.358c-6.018-0.067-10.812-4.93-10.793-10.947c0.02-6.051,4.962-10.949,10.998-10.899
		c5.968,0.049,10.803,4.958,10.796,10.964C35.886,33.534,30.94,38.424,24.891,38.358z M38.344,19.218
		c-0.741,0-1.345-0.601-1.345-1.345c0-0.741,0.604-1.344,1.345-1.344c0.743,0,1.344,0.604,1.344,1.344
		C39.688,18.617,39.087,19.218,38.344,19.218z"/>
</g>
</svg>
