<?xml version="1.0" encoding="utf-8"?>
<!-- Generator: Adobe Illustrator 16.0.0, SVG Export Plug-In . SVG Version: 6.00 Build 0)  -->
<!DOCTYPE svg PUBLIC "-//W3C//DTD SVG 1.1//EN" "http://www.w3.org/Graphics/SVG/1.1/DTD/svg11.dtd">
<svg version="1.1" id="Layer_1" xmlns="http://www.w3.org/2000/svg" xmlns:xlink="http://www.w3.org/1999/xlink" x="0px" y="0px"
	 width="50px" height="50px" viewBox="0 0 50 50" enable-background="new 0 0 50 50" xml:space="preserve">
<g>
	<path fill="#FFFFFF" d="M40.331,26.834c-2.213,0-4.01,1.797-4.01,4.013s1.797,4.01,4.01,4.01c2.214,0,4.011-1.794,4.011-4.01
		S42.545,26.834,40.331,26.834z M37.904,31.198c0.415,0.125,1.079,0.215,1.862,0.244c0.028,0.767,0.116,1.417,0.236,1.834
		C38.917,33.13,38.062,32.281,37.904,31.198z M39.767,30.369c-0.79,0.03-1.461,0.121-1.875,0.248
		c0.109-1.153,1.005-2.066,2.147-2.203C39.9,28.817,39.798,29.526,39.767,30.369z M40.602,33.282c0.121-0.416,0.209-1.07,0.237-1.84
		c0.818-0.03,1.513-0.128,1.922-0.26C42.607,32.293,41.723,33.158,40.602,33.282z M40.839,30.369
		c-0.031-0.848-0.135-1.559-0.274-1.961c1.18,0.112,2.105,1.045,2.208,2.225C42.366,30.498,41.666,30.399,40.839,30.369z"/>
	<path fill="#FFFFFF" d="M7.538,26.834c-2.216,0-4.012,1.797-4.012,4.013s1.796,4.01,4.012,4.01c2.212,0,4.007-1.794,4.007-4.01
		S9.75,26.834,7.538,26.834z M5.116,31.245c0.416,0.1,1.009,0.172,1.691,0.197c0.027,0.756,0.113,1.397,0.23,1.816
		C6.046,33.053,5.28,32.25,5.116,31.245z M6.808,30.369c-0.689,0.025-1.287,0.099-1.704,0.201c0.121-1.074,0.922-1.938,1.969-2.139
		C6.938,28.838,6.839,29.54,6.808,30.369z M7.637,33.3c0.124-0.415,0.215-1.077,0.242-1.857c0.951-0.035,1.729-0.161,2.092-0.328
		C9.839,32.313,8.857,33.25,7.637,33.3z M7.879,30.369c-0.031-0.861-0.138-1.579-0.281-1.979c1.28,0.031,2.312,1.04,2.386,2.312
		C9.626,30.533,8.841,30.405,7.879,30.369z"/>
	<path fill="#FFFFFF" d="M49.498,28.229c0.05-1.601-0.827-2.48-0.827-2.48c0.361-0.204,0.62-0.72,0.104-1.134
		s-1.237-0.827-4.233-2.015c-2.995-1.187-6.351-1.909-6.351-1.909c-2.53-1.704-8.519-4.285-10.069-4.647
		c-1.547-0.362-4.956-1.033-10.325-0.877C12.426,15.32,7.78,16.199,7.78,16.199s-2.17,1.858-3.924,3.872
		C2.1,22.084,1.79,24.458,1.79,24.458S0.5,25.7,0.5,27.661c0,1.961,0.772,3.148,0.772,3.148l1.654,0.206l0.059,0.005
		c-0.005-0.095-0.01-0.19-0.01-0.289c0-2.581,2.095-4.673,4.675-4.673c0.333,0,0.657,0.035,0.971,0.103
		c-0.58-1.058-1.099-2.817-1.137-4.15c-0.055-1.907,0.38-4.379,0.385-4.404l0.371,0.066C8.235,17.698,7.808,20.132,7.861,22
		c0.042,1.495,0.697,3.451,1.274,4.303c1.852,0.621,3.188,2.368,3.188,4.429c0,0.329-0.033,0.648-0.101,0.957l7.971,0.087
		l0.12-8.637c0,0,1.238,3.334-0.006,8.638l15.455,0.169l0.108,0.004c-0.104-0.39-0.162-0.796-0.162-1.218
		c0-1.503,0.713-2.837,1.816-3.691c0.669-1.434,0.377-2.352,0.236-2.985c-0.278-1.258-1.181-1.342-1.188-1.346l-0.133-0.531
		c0.036,0.018,1.237,0.349,1.608,1.529c0.325,1.034,0.503,1.747,0.053,2.948c0.676-0.379,1.452-0.597,2.281-0.597
		c2.582,0,4.673,2.092,4.673,4.673c0,0.495-0.077,0.973-0.221,1.421h0.014c0,0,3.512-0.413,4.287-0.567c0.773-0.155,0-1.138,0-1.138
		S49.445,29.827,49.498,28.229z M13.901,25.167c-0.679,0-1.229-0.156-1.229-0.351s0.55-0.352,1.229-0.352s1.229,0.157,1.229,0.352
		S14.58,25.167,13.901,25.167z M11.238,21.311c0,0-0.361-1.188-0.774-2.272c-0.413-1.086-0.359-1.497,0.723-1.755
		c1.085-0.261,2.479-0.36,4.08-0.465c1.6-0.104,3.252-0.155,3.252-0.155s0.362,0.928,0.619,2.995
		c0.259,2.064,0.362,2.476,0.362,2.476L11.238,21.311z M24.566,25.167c-0.679,0-1.229-0.156-1.229-0.351s0.55-0.352,1.229-0.352
		s1.229,0.157,1.229,0.352S25.245,25.167,24.566,25.167z M35.402,23.376c-1.343,0.052-12.961-0.982-12.961-0.982
		s-0.205-0.98-0.464-2.735c-0.26-1.757-0.724-2.892-0.724-2.892s1.396-0.052,3.047,0.204c1.653,0.259,3.77,0.672,5.784,1.446
		c2.012,0.776,5.214,2.84,5.938,3.408C36.745,22.394,36.745,23.325,35.402,23.376z"/>
</g>
</svg>
