<?xml version="1.0" encoding="utf-8"?>
<!-- Generator: Adobe Illustrator 16.0.0, SVG Export Plug-In . SVG Version: 6.00 Build 0)  -->
<!DOCTYPE svg PUBLIC "-//W3C//DTD SVG 1.1//EN" "http://www.w3.org/Graphics/SVG/1.1/DTD/svg11.dtd">
<svg version="1.1" id="Layer_1" xmlns="http://www.w3.org/2000/svg" xmlns:xlink="http://www.w3.org/1999/xlink" x="0px" y="0px"
	 width="50px" height="50px" viewBox="0 0 50 50" enable-background="new 0 0 50 50" xml:space="preserve">
<g>
	<path fill-rule="evenodd" clip-rule="evenodd" fill="#FFFFFF" d="M0.502,32.166c0-0.901-0.081-1.354,0.823-1.408
		c1.053-0.063,2.282-0.136,3.45-0.136c0.47,0,1.321,0.452,1.333,0.563c0.14,1.455,2.127,0.852,3.263,0.049
		c3.763-1.686,7.593-1.612,11.54-0.704c1.917,0.439,3.919,0.597,5.89,0.687c2.76,0.122,5.523,0.051,8.286,0.073
		c1.598,0.016,2.726,1.027,2.76,2.454c0.037,1.458-0.998,2.516-2.578,2.657c-3.717,0.335-5.061,0.677-8.773,1.02
		c-0.122,0.009-0.253,0.029-0.357,0.05c-0.596,0.122-0.964,0.336-0.931,0.738c0.036,0.394,0.387,0.59,1.023,0.616
		c2.353,0.101,2.341-0.089,4.683-0.294c2.135-0.191,4.282-0.451,6.368-0.926c1.385-0.312,2.725-0.961,3.992-1.631
		c2.97-1.569,1.269-0.799,4.267-2.311c1.896-0.961,2.897-0.719,3.552,0.393c0.422,0.846,0.415,1.457,0.231,2.076
		c-0.5,0.689-1.568,1.749-2.231,2.198c-2.472,1.681-5.142,3.56-7.515,4.743c-1.513,0.837-4.314,1.827-5.268,1.99
		c-4.125,0.78-9.629,1.393-12.627,1.274c-3.346-0.129-6.763-1.268-10.227-1.693c-1.046-0.047-4.779-1.393-4.895,0.672
		c-0.021,0.354-0.395,0.31-0.966,0.336c-0.506,0.021-1.609,0.019-4.322-0.015c-0.663-0.012-0.738-0.532-0.69-1.278
		C0.636,43.513,0.502,32.816,0.502,32.166z"/>
	<g>
		<path fill-rule="evenodd" clip-rule="evenodd" fill="#FFFFFF" d="M29.118,28.979c-5.477,0-10.949,0.009-16.424-0.002
			c-2.823-0.003-4.037-1.218-4.04-4.011c-0.011-5.737-0.011-11.474,0-17.215c0.003-2.79,1.335-4.099,4.182-4.099
			c10.788-0.009,21.579-0.009,32.37,0c2.955,0,4.281,1.288,4.285,4.173c0.012,5.734,0.012,11.47,0,17.207
			c-0.006,2.718-1.222,3.933-3.952,3.941C40.064,28.992,34.591,28.979,29.118,28.979z M11.6,23.432
			c1.626,0.284,2.463,1.123,2.721,2.558c8.655,0,21.65,0,29.983,0c-0.14-1.311,0.864-2.567,2.217-2.694c0-3.374,0-10.643,0-14.144
			c-1.801,0.117-2.573-1.011-2.573-2.424c-8.702,0-21.058,0-29.747,0c-0.296,1.059-0.849,1.957-2.601,2.305
			C11.6,12.535,11.6,19.833,11.6,23.432z"/>
		<path fill-rule="evenodd" clip-rule="evenodd" fill="#FFFFFF" d="M17.764,14.269c1.187,0.018,2.054,0.901,2.043,2.091
			c-0.012,1.285-0.938,2.186-2.188,2.127c-1.137-0.054-2.013-1.023-1.978-2.189C15.677,15.113,16.578,14.254,17.764,14.269z"/>
		<path fill-rule="evenodd" clip-rule="evenodd" fill="#FFFFFF" d="M42.495,16.389c-0.023,1.184-1.085,2.166-2.263,2.098
			c-1.167-0.069-1.948-0.981-1.904-2.226c0.042-1.208,0.926-2.035,2.127-1.987C41.645,14.323,42.522,15.229,42.495,16.389z"/>
		<g>
			<path fill-rule="evenodd" clip-rule="evenodd" fill="#FFFFFF" d="M27.853,14.323c0,0.392,0.265,0.719,0.795,0.981v-1.806
				C28.117,13.59,27.853,13.867,27.853,14.323z"/>
			<path fill-rule="evenodd" clip-rule="evenodd" fill="#FFFFFF" d="M29.478,17.23v1.728c0.544-0.085,0.818-0.355,0.818-0.814
				C30.296,17.773,30.021,17.465,29.478,17.23z"/>
			<path fill-rule="evenodd" clip-rule="evenodd" fill="#FFFFFF" d="M29.025,8.653c-4.295,0.018-7.703,3.436-7.696,7.718
				c0.007,4.284,3.59,7.829,7.872,7.797c4.17-0.037,7.634-3.626,7.607-7.89C36.782,12.023,33.326,8.638,29.025,8.653z M31.206,19.59
				c-0.403,0.383-0.979,0.621-1.729,0.701v1.237h-0.83v-1.204c-0.773-0.003-1.492-0.179-2.156-0.52v-1.58
				c0.22,0.179,0.549,0.339,0.987,0.494c0.435,0.151,0.827,0.24,1.169,0.261v-2.073c-0.889-0.331-1.496-0.69-1.823-1.073
				c-0.325-0.39-0.488-0.856-0.488-1.41c0-0.602,0.212-1.11,0.634-1.526c0.423-0.422,0.98-0.666,1.678-0.735v-1.059h0.83v1.038
				c0.803,0.035,1.4,0.167,1.796,0.387v1.538c-0.532-0.321-1.13-0.518-1.796-0.592v2.16c0.832,0.3,1.431,0.642,1.791,1.029
				c0.36,0.39,0.541,0.854,0.541,1.401C31.81,18.694,31.608,19.204,31.206,19.59z"/>
		</g>
	</g>
</g>
</svg>
