<?xml version="1.0" encoding="utf-8"?>
<!-- Generator: Adobe Illustrator 16.0.0, SVG Export Plug-In . SVG Version: 6.00 Build 0)  -->
<!DOCTYPE svg PUBLIC "-//W3C//DTD SVG 1.1//EN" "http://www.w3.org/Graphics/SVG/1.1/DTD/svg11.dtd">
<svg version="1.1" id="Layer_1" xmlns="http://www.w3.org/2000/svg" xmlns:xlink="http://www.w3.org/1999/xlink" x="0px" y="0px"
	 width="50px" height="50px" viewBox="0 0 50 50" enable-background="new 0 0 50 50" xml:space="preserve">
<g>
	<path fill="#FFFFFF" d="M48.224,42.162L29.011,22.948L6.565,0.5H4.811l-0.36,0.912c-0.945,2.4-1.349,4.857-1.167,7.104
		c0.208,2.561,1.181,4.778,2.813,6.411l17.524,17.522l2.312-2.311l16.199,18.117c1.611,1.611,4.385,1.707,6.093,0l0,0
		C49.904,46.573,49.904,43.839,48.224,42.162L48.224,42.162z"/>
	<path fill="#FFFFFF" d="M1.776,42.115c-1.68,1.682-1.68,4.412,0,6.092c1.596,1.597,4.356,1.737,6.092,0l13.724-13.724L15.5,28.39
		L1.776,42.115L1.776,42.115z"/>
	<path fill="#FFFFFF" d="M34.65,22.933c1.754-0.105,3.4-0.847,4.645-2.089l10.152-10.154l-2.03-2.031l-7.783,7.785l-2.032-2.03
		l7.785-7.786l-2.031-2.031l-7.785,7.785l-2.03-2.03l7.785-7.787l-2.03-2.03L29.139,10.689c-1.241,1.243-1.981,2.892-2.087,4.645
		c-0.026,0.443-0.128,0.881-0.296,1.296l6.598,6.596C33.769,23.06,34.206,22.96,34.65,22.933L34.65,22.933z"/>
</g>
</svg>
