<?xml version="1.0" encoding="utf-8"?>
<!-- Generator: Adobe Illustrator 16.0.0, SVG Export Plug-In . SVG Version: 6.00 Build 0)  -->
<!DOCTYPE svg PUBLIC "-//W3C//DTD SVG 1.1//EN" "http://www.w3.org/Graphics/SVG/1.1/DTD/svg11.dtd">
<svg version="1.1" id="Layer_1" xmlns="http://www.w3.org/2000/svg" xmlns:xlink="http://www.w3.org/1999/xlink" x="0px" y="0px"
	 width="50px" height="50px" viewBox="0 0 50 50" enable-background="new 0 0 50 50" xml:space="preserve">
<path fill="#FFFFFF" d="M47.238,8.698H2.761c-1.249,0-2.261,1.013-2.261,2.261V39.04c0,1.249,1.013,2.262,2.261,2.262h44.477
	c1.249,0,2.262-1.013,2.262-2.262V10.959C49.5,9.711,48.487,8.698,47.238,8.698z M8.048,36.894c-2.328,0-4.215-1.899-4.215-4.241
	s1.887-4.24,4.215-4.24c0.896,0,1.723,0.283,2.405,0.762c-1.093,0.766-1.81,2.037-1.81,3.479s0.717,2.713,1.81,3.479
	C9.771,36.61,8.943,36.894,8.048,36.894z M14.111,36.96c-2.328,0-4.215-1.899-4.215-4.241s1.887-4.24,4.215-4.24
	c2.327,0,4.214,1.898,4.214,4.24S16.438,36.96,14.111,36.96z M33.803,36.798h-8.616v-2.449h8.616V36.798z M33.803,32.636h-8.616
	v-2.45h8.616V32.636z M44.48,36.798h-8.617v-2.449h8.617V36.798z M44.48,32.636h-8.617v-2.45h8.617V32.636z M47.672,18.543H2.328
	v-6.219h45.344V18.543z M20.909,21.988H2.391v-2.471h18.519V21.988z"/>
</svg>
