<?xml version="1.0" encoding="utf-8"?>
<!-- Generator: Adobe Illustrator 16.0.0, SVG Export Plug-In . SVG Version: 6.00 Build 0)  -->
<!DOCTYPE svg PUBLIC "-//W3C//DTD SVG 1.1//EN" "http://www.w3.org/Graphics/SVG/1.1/DTD/svg11.dtd">
<svg version="1.1" id="Layer_1" xmlns="http://www.w3.org/2000/svg" xmlns:xlink="http://www.w3.org/1999/xlink" x="0px" y="0px"
	 width="50px" height="50px" viewBox="0 0 50 50" enable-background="new 0 0 50 50" xml:space="preserve">
<g>
	<path fill="#FFFFFF" d="M47.276,9.306H2.724c-1.229,0-2.224,0.996-2.224,2.224v26.941c0,1.229,0.995,2.224,2.224,2.224h44.553
		c1.229,0,2.224-0.995,2.224-2.224V11.529C49.5,10.301,48.505,9.306,47.276,9.306z M30.319,15.002h13.708v1.112H30.319V15.002z
		 M30.319,17.842h13.708v1.111H30.319V17.842z M30.319,20.93h13.708v1.11H30.319V20.93z M5.056,16.232
		c0-1.604,1.226-2.91,2.733-2.91h5.212c1.507,0,2.733,1.306,2.733,2.91v4.813c0,1.604-1.227,2.91-2.733,2.91H7.789
		c-1.508,0-2.733-1.306-2.733-2.91V16.232z M3.398,31.364H15.53v1.481H3.398V31.364z M23.774,37.293h-20.5v-1.482h20.5V37.293z
		 M30.506,32.846H18.373v-1.481h12.133V32.846z M45.262,32.846H33.13v-1.481h12.132V32.846z"/>
	<path fill="#FFFFFF" d="M9.689,20.857h0.889c0.97,0,1.755-0.786,1.755-1.756v-3.243c0-0.969-0.785-1.755-1.755-1.755H9.689
		c-0.97,0-1.756,0.786-1.756,1.755v3.243C7.934,20.071,8.72,20.857,9.689,20.857z"/>
</g>
</svg>
