<?xml version="1.0" encoding="utf-8"?>
<!-- Generator: Adobe Illustrator 16.0.0, SVG Export Plug-In . SVG Version: 6.00 Build 0)  -->
<!DOCTYPE svg PUBLIC "-//W3C//DTD SVG 1.1//EN" "http://www.w3.org/Graphics/SVG/1.1/DTD/svg11.dtd">
<svg version="1.1" id="Layer_1" xmlns="http://www.w3.org/2000/svg" xmlns:xlink="http://www.w3.org/1999/xlink" x="0px" y="0px"
	 width="50px" height="50px" viewBox="0 0 50 50" enable-background="new 0 0 50 50" xml:space="preserve">
<g>
	<path fill="#FFFFFF" d="M41.755,6.08H8.245c-1.817,0-3.291,1.399-3.291,3.127c0,1.729,1.474,3.128,3.291,3.128h33.51
		c1.817,0,3.291-1.399,3.291-3.128C45.046,7.479,43.572,6.08,41.755,6.08z"/>
	<path fill="#FFFFFF" d="M29.564,4.683c0-2.31-1.872-4.183-4.186-4.183h-0.758c-2.313,0-4.186,1.873-4.186,4.183V6.04h9.129V4.683z"
		/>
	<path fill="#FFFFFF" d="M8.133,42.802c0,3.699,2.995,6.698,6.694,6.698h20.138c3.699,0,6.698-2.999,6.698-6.698V15.968H8.133
		V42.802z M32.36,23.736c0-0.925,0.75-1.675,1.674-1.675c0.925,0,1.674,0.75,1.674,1.675v17.996c0,0.923-0.749,1.675-1.674,1.675
		c-0.924,0-1.674-0.752-1.674-1.675V23.736z M23.152,23.736c0-0.925,0.75-1.675,1.676-1.675c0.924,0,1.674,0.75,1.674,1.675v17.996
		c0,0.923-0.75,1.675-1.674,1.675c-0.926,0-1.676-0.752-1.676-1.675V23.736z M14.085,23.736c0-0.925,0.748-1.675,1.675-1.675
		c0.924,0,1.675,0.75,1.675,1.675v17.996c0,0.923-0.751,1.675-1.675,1.675c-0.927,0-1.675-0.752-1.675-1.675V23.736z"/>
</g>
</svg>
