<?xml version="1.0" encoding="utf-8"?>
<!-- Generator: Adobe Illustrator 16.0.0, SVG Export Plug-In . SVG Version: 6.00 Build 0)  -->
<!DOCTYPE svg PUBLIC "-//W3C//DTD SVG 1.1//EN" "http://www.w3.org/Graphics/SVG/1.1/DTD/svg11.dtd">
<svg version="1.1" id="Layer_1" xmlns="http://www.w3.org/2000/svg" xmlns:xlink="http://www.w3.org/1999/xlink" x="0px" y="0px"
	 width="50px" height="50px" viewBox="0 0 50 50" enable-background="new 0 0 50 50" xml:space="preserve">
<g>
	<path fill="#FFFFFF" d="M35.529,5.33c-1.517-0.779-2.679-1.25-2.883-1.331c0.067-0.257-0.061-0.53-0.313-0.635l-1.822-0.761
		c-0.066-0.443-0.282-0.866-0.641-1.188c-0.82-0.74-2.086-0.675-2.826,0.146c-0.74,0.821-0.675,2.085,0.148,2.826
		c0.753,0.68,1.88,0.678,2.634,0.037l1.759,0.735c0.239,0.1,0.51,0.013,0.652-0.193c0.083,0.034,1.271,0.507,2.811,1.297
		c1.49,0.765,1.624,1.006,1.298,2.345c-0.261,1.071-5.107,11.286-8.349,18.041l-0.592-0.285l-0.195,0.408
		c-1.153,2.414-1.969,3.896-4.125,3.924c-2.598,0.033-4.413-1.316-5.402-4.007l-0.612,0.227c-2.021-5.328-6.45-17.081-6.802-18.475
		c-0.444-1.773-0.28-2.262,0.934-2.756c1.243-0.506,2.896-1.073,3.525-1.283c0.131,0.184,0.37,0.273,0.599,0.201l1.886-0.595
		c0.335,0.295,0.772,0.48,1.254,0.496c1.104,0.035,2.028-0.832,2.063-1.937c0.035-1.104-0.831-2.028-1.937-2.063
		c-1.015-0.032-1.874,0.697-2.034,1.672L14.74,2.748c-0.276,0.088-0.433,0.38-0.354,0.66c-0.646,0.219-2.313,0.79-3.578,1.305
		c-1.95,0.793-2.05,2.012-1.553,3.983c0.366,1.46,4.801,13.222,6.83,18.581l-0.614,0.225c1.152,3.137,3.343,5.029,6.239,5.455
		c0.009,0.6,0.171,1.331,0.361,2.167c0.343,1.509,0.81,3.576,0.059,4.475c-0.396,0.471-1.179,0.68-2.347,0.629
		c-1.257-0.06-1.641-0.606-2.216-1.438c-0.739-1.062-1.749-2.517-4.832-2.085c-4.667,0.652-7.1,4.253-6.757,7.355
		c0.279,2.522,2.467,5.269,7.634,5.433c0.606,0.02,1.256,0.003,1.948-0.053c5.461-0.446,7.063-1.956,8.758-3.551
		c0.543-0.51,1.1-1.034,1.814-1.535c3.145-2.206,7.392-0.856,7.433-0.843l0.577-1.742c-0.209-0.068-5.154-1.66-9.063,1.082
		c-0.823,0.576-1.43,1.148-2.019,1.702c-1.583,1.487-2.83,2.663-7.653,3.059c-5.259,0.429-7.386-1.753-7.606-3.752
		c-0.247-2.234,1.625-4.839,5.188-5.339c1.965-0.272,2.404,0.359,3.069,1.316c0.624,0.896,1.476,2.122,3.639,2.223
		c1.768,0.081,3.057-0.352,3.836-1.283c1.337-1.595,0.776-4.069,0.325-6.059c-0.146-0.656-0.287-1.278-0.313-1.686
		c3.41-0.257,4.727-3.012,5.793-5.245l0.191-0.4l-0.589-0.284c2.911-6.062,8.115-16.989,8.423-18.247
		C37.841,6.906,37.297,6.238,35.529,5.33z"/>
	<g>
		<path fill="#FFFFFF" d="M38.352,36.639c-3.25-0.103-5.968,2.447-6.07,5.698c-0.104,3.25,2.445,5.969,5.695,6.072
			c3.252,0.104,5.97-2.447,6.074-5.699C44.152,39.461,41.603,36.742,38.352,36.639z M38.079,45.229
			c-1.493-0.048-2.666-1.297-2.62-2.792c0.05-1.493,1.297-2.666,2.792-2.62c1.495,0.048,2.668,1.299,2.62,2.792
			S39.573,45.275,38.079,45.229z"/>
		<circle fill="#FFFFFF" cx="38.165" cy="42.523" r="1.418"/>
	</g>
</g>
</svg>
