<?xml version="1.0" encoding="utf-8"?>
<!-- Generator: Adobe Illustrator 16.0.0, SVG Export Plug-In . SVG Version: 6.00 Build 0)  -->
<!DOCTYPE svg PUBLIC "-//W3C//DTD SVG 1.1//EN" "http://www.w3.org/Graphics/SVG/1.1/DTD/svg11.dtd">
<svg version="1.1" id="Layer_1" xmlns="http://www.w3.org/2000/svg" xmlns:xlink="http://www.w3.org/1999/xlink" x="0px" y="0px"
	 width="50px" height="50px" viewBox="0 0 50 50" enable-background="new 0 0 50 50" xml:space="preserve">
<g>
	<path fill-rule="evenodd" clip-rule="evenodd" fill="#FFFFFF" d="M24.995,37.312c7.089,0,14.175,0.007,21.261-0.008
		c1.241-0.004,2.407,0.089,3.038,1.054c0.635,0.979-0.348,1.598-0.895,2.36c-1.67,2.306-4.063,2.873-7.393,2.823
		c-11.468-0.177-22.943-0.087-34.42-0.05c-1.539,0.006-2.717-0.224-3.511-1.359c-0.395-0.571-1.182-0.982-1.541-1.563
		c-0.429-0.69-1.091-1.728-0.74-2.175c0.454-0.586,1.789-1.002,2.771-1.034c3.485-0.121,6.977-0.05,10.461-0.05
		C17.685,37.31,21.342,37.31,24.995,37.312z"/>
	<path fill-rule="evenodd" clip-rule="evenodd" fill="#FFFFFF" d="M25.491,24.75c6.748,0.001,13.494,0,20.245,0.002
		c2.157,0,3.234,0.82,3.254,2.467c0.022,1.67-1.328,2.933-3.248,2.932C32.13,30.145,18.52,30.129,4.913,30.094
		c-1.944-0.003-2.988-1.03-2.955-2.752c0.028-1.662,1.039-2.581,2.952-2.585C11.768,24.74,18.629,24.75,25.491,24.75z"/>
	<path fill-rule="evenodd" clip-rule="evenodd" fill="#FFFFFF" d="M2.068,35.718c0.274-2.002,1.68-3.219,3.929-3.82
		c3.085-0.822,5.742-0.197,7.903,1.691c3.97-2.742,6.954-2.737,11.118-0.011c3.936-2.729,7.442-2.736,10.998,0.046
		c2.24-1.948,4.962-2.596,8.155-1.659c2.112,0.621,3.41,1.794,3.783,3.785c-1.597-0.096-3.13,0.605-4.258-1.085
		c-0.884-1.331-3.8-1.106-4.647,0.285c-0.474,0.783-1.053,0.883-1.933,0.848c-0.732-0.027-1.463-0.027-2.195,0
		c-0.895,0.035-1.462-0.083-1.965-0.85c-1.02-1.558-3.905-1.524-4.959,0.036c-0.449,0.667-0.915,0.867-1.78,0.816
		c-0.784-0.045-1.576-0.038-2.363,0c-0.901,0.044-1.446-0.099-1.937-0.851c-0.983-1.497-3.9-1.55-4.858-0.078
		c-0.566,0.864-1.242,0.971-2.242,0.926c-0.729-0.031-1.497,0.094-2.185-0.036c-0.578-0.11-1.269-0.394-1.586-0.767
		c-1.121-1.327-3.795-1.714-4.689-0.388C5.235,36.262,3.695,35.731,2.068,35.718z"/>
	<path fill-rule="evenodd" clip-rule="evenodd" fill="#FFFFFF" d="M49.368,20.291c-1.476-3.922-3.717-7.459-8.126-9.918
		c-5.503-3.071-11.649-4.13-18.305-3.882C12.366,6.884,4.09,11.762,0.822,19.637c-0.731,1.76-0.288,2.246,2.069,2.246
		c7.31,0.003,14.616,0.001,21.922,0.001c0,0.006,0,0.013,0,0.02c2.023,0,4.047-0.001,6.071,0c5.447,0.006,10.901,0.025,16.352,0.008
		C49.124,21.908,49.789,21.408,49.368,20.291z M14.511,17.719c-0.76,0-1.378-0.333-1.378-0.744c0-0.411,0.618-0.746,1.378-0.746
		c0.763,0,1.381,0.335,1.381,0.746C15.892,17.386,15.274,17.719,14.511,17.719z M20.028,12.005c-0.761,0-1.378-0.334-1.378-0.745
		c0-0.411,0.617-0.745,1.378-0.745c0.763,0,1.381,0.334,1.381,0.745C21.409,11.671,20.791,12.005,20.028,12.005z M24.956,17.762
		c-0.76,0-1.377-0.334-1.377-0.745c0-0.411,0.617-0.745,1.377-0.745c0.763,0,1.381,0.334,1.381,0.745
		C26.337,17.428,25.718,17.762,24.956,17.762z M30.865,13.188c-0.76,0-1.378-0.334-1.378-0.746s0.618-0.745,1.378-0.745
		c0.763,0,1.381,0.333,1.381,0.745S31.628,13.188,30.865,13.188z M35.991,17.916c-0.762,0-1.378-0.334-1.378-0.745
		c0-0.411,0.616-0.745,1.378-0.745s1.379,0.333,1.379,0.745C37.37,17.582,36.753,17.916,35.991,17.916z"/>
</g>
</svg>
