<?xml version="1.0" encoding="utf-8"?>
<!-- Generator: Adobe Illustrator 16.0.0, SVG Export Plug-In . SVG Version: 6.00 Build 0)  -->
<!DOCTYPE svg PUBLIC "-//W3C//DTD SVG 1.1//EN" "http://www.w3.org/Graphics/SVG/1.1/DTD/svg11.dtd">
<svg version="1.1" id="Layer_1" xmlns="http://www.w3.org/2000/svg" xmlns:xlink="http://www.w3.org/1999/xlink" x="0px" y="0px"
	 width="50px" height="50px" viewBox="0 0 50 50" enable-background="new 0 0 50 50" xml:space="preserve">
<g>
	<path fill="#FFFFFF" d="M41.937,49.435H5.942c-3.003,0-5.442-2.496-5.442-5.564V8.054c0-3.068,2.439-5.564,5.442-5.564h12.283
		v5.123H5.942c-0.153,0-0.316,0.178-0.316,0.441V43.87c0,0.258,0.163,0.437,0.316,0.437h35.994c0.15,0,0.317-0.179,0.317-0.437
		V27.21h5.126v16.66C47.38,46.938,44.938,49.435,41.937,49.435z"/>
	<g>
		<polygon fill="#FFFFFF" points="17.539,25.12 14.789,35.143 24.481,32.343 		"/>
		<g>
			<path fill="#FFFFFF" d="M47.104,9.81c0.472-0.479,0.834-0.847,1.026-1.041c1.946-1.98,1.946-3.524-0.836-6.347
				c-2.502-2.547-4.728-2.263-6.535-0.427c-0.149,0.149-0.431,0.436-0.773,0.778L47.104,9.81z"/>
			<path fill="#FFFFFF" d="M38.501,4.018C34.331,8.227,21.79,20.742,18.644,23.91l7.002,7.285
				c3.186-3.232,15.623-15.726,19.977-20.141L38.501,4.018z"/>
		</g>
	</g>
</g>
</svg>
