<?xml version="1.0" encoding="utf-8"?>
<!-- Generator: Adobe Illustrator 16.0.0, SVG Export Plug-In . SVG Version: 6.00 Build 0)  -->
<!DOCTYPE svg PUBLIC "-//W3C//DTD SVG 1.1//EN" "http://www.w3.org/Graphics/SVG/1.1/DTD/svg11.dtd">
<svg version="1.1" id="Layer_1" xmlns="http://www.w3.org/2000/svg" xmlns:xlink="http://www.w3.org/1999/xlink" x="0px" y="0px"
	 width="50px" height="50px" viewBox="0 0 50 50" enable-background="new 0 0 50 50" xml:space="preserve">
<g>
	<path fill="#FFFFFF" d="M8.788,29.934c0-0.639-0.333-1.173-0.803-1.469V21.26l6.063,2.395l10.835,3.396L49.5,18.133L24.882,9.468
		L0.5,18.303l6.091,2.406v7.658c-0.547,0.266-0.932,0.865-0.932,1.566c0,0.621,0.317,1.143,0.768,1.443l-0.734,5.571l3.602-0.27
		l-1.063-5.46C8.563,30.904,8.788,30.453,8.788,29.934z"/>
	<path fill="#FFFFFF" d="M24.882,29.583l-11.841-4.077c0,0-1.021,7.849-0.696,8.411c2.966,5.12,11.345,6.572,12.864,6.613
		c1.39,0.037,7.972-0.874,11.983-6.699c0,0,0.465-0.595,0.465-1.274s-1.007-7.22-1.007-7.22L24.882,29.583z"/>
</g>
</svg>
