<?xml version="1.0" encoding="utf-8"?>
<!-- Generator: Adobe Illustrator 16.0.0, SVG Export Plug-In . SVG Version: 6.00 Build 0)  -->
<!DOCTYPE svg PUBLIC "-//W3C//DTD SVG 1.1//EN" "http://www.w3.org/Graphics/SVG/1.1/DTD/svg11.dtd">
<svg version="1.1" id="Layer_1" xmlns="http://www.w3.org/2000/svg" xmlns:xlink="http://www.w3.org/1999/xlink" x="0px" y="0px"
	 width="50px" height="50px" viewBox="0 0 50 50" enable-background="new 0 0 50 50" xml:space="preserve">
<g>
	<path fill="#FFFFFF" d="M29.847,39.874h-8.585c-0.508,0-0.919,0.412-0.919,0.919c0,0.509,0.411,0.921,0.919,0.921h8.585
		c0.509,0,0.92-0.412,0.92-0.921C30.767,40.286,30.355,39.874,29.847,39.874z"/>
	<path fill="#FFFFFF" d="M29.579,42.598h-8.014c-0.455,0-0.825,0.369-0.825,0.824c0,0.458,0.37,0.826,0.825,0.826h8.014
		c0.456,0,0.826-0.368,0.826-0.826C30.405,42.967,30.035,42.598,29.579,42.598z"/>
	<path fill="#FFFFFF" d="M29.332,45.358h-7.496c-0.441,0-0.801,0.358-0.801,0.801s0.359,0.801,0.801,0.801h7.496
		c0.443,0,0.802-0.358,0.802-0.801S29.775,45.358,29.332,45.358z"/>
	<path fill="#FFFFFF" d="M25.609,49.5c1.133,0,2.07-0.715,2.248-1.651h-4.496C23.539,48.785,24.477,49.5,25.609,49.5z"/>
	<path fill="#FFFFFF" d="M38.941,20.213c-0.093-7.892-5.986-13.368-13.369-13.368c-7.384,0-13.515,5.986-13.368,13.368
		c0.076,3.901,2.444,7.969,5.287,11.102c2.204,2.433,2.935,4.587,2.769,7.05c-0.008,0.113,0.072,0.467,0.638,0.481
		c0.704,0.018,7.969,0.041,9.543,0c0.54-0.015,0.603-0.522,0.596-0.732c-0.185-5.057,2.417-6.496,3.786-8.249
		C36.986,27.095,38.997,25.14,38.941,20.213z M18.239,14.317c-0.111,0.23-0.235,0.575-0.384,0.979
		c-0.082,0.198-0.131,0.431-0.214,0.659c-0.084,0.23-0.129,0.487-0.206,0.742c-0.083,0.253-0.114,0.53-0.188,0.8
		c-0.069,0.271-0.107,0.555-0.162,0.834c-0.204,1.121-0.325,2.267-0.42,3.135c-0.092,0.88-0.153,1.466-0.153,1.466
		s-0.205-0.57-0.309-1.461c-0.053-0.443-0.092-0.967-0.075-1.527c0-0.562,0.07-1.159,0.162-1.753
		c0.119-0.591,0.259-1.181,0.466-1.709c0.104-0.265,0.199-0.521,0.326-0.749c0.121-0.23,0.223-0.453,0.356-0.64
		c0.244-0.382,0.477-0.679,0.667-0.863c0.18-0.192,0.287-0.294,0.287-0.294S18.337,14.074,18.239,14.317z M18.624,11.34
		c-0.15,0.151-0.333,0.336-0.543,0.546c-0.176,0.241-0.373,0.511-0.596,0.794c-0.24,0.271-0.405,0.633-0.622,0.979
		c-0.231,0.342-0.382,0.75-0.57,1.155c-0.209,0.395-0.302,0.855-0.465,1.294c-0.154,0.442-0.221,0.921-0.34,1.383
		c-0.068,0.474-0.164,0.945-0.199,1.416c-0.033,0.474-0.098,0.938-0.095,1.391c-0.019,0.453-0.019,0.893-0.013,1.312
		c0,0.418,0.035,0.813,0.042,1.179c0.057,0.729,0.092,1.347,0.155,1.772c0.056,0.43,0.087,0.675,0.087,0.675
		s-0.104-0.227-0.237-0.64c-0.135-0.416-0.313-1.014-0.462-1.748c-0.06-0.37-0.148-0.769-0.184-1.197
		c-0.049-0.429-0.098-0.882-0.098-1.354c-0.023-0.472-0.005-0.961,0.026-1.457c0.028-0.495,0.12-0.996,0.183-1.499
		c0.133-0.49,0.216-0.993,0.39-1.465c0.173-0.473,0.321-0.943,0.563-1.36c0.219-0.425,0.427-0.837,0.706-1.18
		c0.262-0.351,0.481-0.7,0.773-0.951c0.268-0.271,0.521-0.508,0.745-0.715c0.251-0.175,0.471-0.327,0.651-0.451
		c0.362-0.246,0.571-0.374,0.571-0.374S18.924,11.033,18.624,11.34z M34.156,12.934c-0.396-0.517-0.812-0.964-1.162-1.359
		c-0.72-0.771-1.242-1.271-1.242-1.271s0.676,0.276,1.549,0.927c0.433,0.329,0.93,0.732,1.392,1.239
		c0.48,0.489,0.916,1.085,1.313,1.708c0.168,0.33,0.369,0.642,0.501,0.982c0.144,0.338,0.279,0.669,0.357,1.01
		c0.096,0.336,0.177,0.661,0.2,0.981c0.035,0.317,0.083,0.612,0.055,0.892c-0.009,0.278-0.025,0.528-0.042,0.749
		c-0.049,0.218-0.091,0.406-0.125,0.563c-0.08,0.307-0.125,0.48-0.125,0.48s-0.013-0.18-0.036-0.494
		c-0.006-0.154-0.013-0.34-0.023-0.555c-0.035-0.212-0.076-0.45-0.109-0.706c-0.023-0.257-0.121-0.525-0.186-0.812
		c-0.058-0.288-0.178-0.575-0.285-0.877c-0.087-0.308-0.259-0.594-0.389-0.903c-0.127-0.311-0.325-0.595-0.484-0.896
		c-0.181-0.291-0.362-0.583-0.558-0.858C34.546,13.466,34.371,13.18,34.156,12.934z"/>
	<g>
		<rect x="25.107" y="0.5" fill="#FFFFFF" width="0.762" height="5.04"/>
		
			<rect x="13.593" y="5.016" transform="matrix(0.6317 0.7752 -0.7752 0.6317 10.1186 -10.5036)" fill="#FFFFFF" width="5.041" height="0.762"/>
		
			<rect x="7.14" y="11.296" transform="matrix(0.9498 0.3128 -0.3128 0.9498 4.1371 -2.4361)" fill="#FFFFFF" width="5.042" height="0.761"/>
		
			<rect x="7.062" y="19.056" transform="matrix(0.1924 0.9813 -0.9813 0.1924 27.1843 10.1221)" fill="#FFFFFF" width="0.761" height="5.042"/>
		
			<rect x="10.827" y="28.75" transform="matrix(0.6139 0.7894 -0.7894 0.6139 29.0138 3.2278)" fill="#FFFFFF" width="0.762" height="5.042"/>
		
			<rect x="35.12" y="3.276" transform="matrix(0.8539 0.5205 -0.5205 0.8539 8.2057 -17.6314)" fill="#FFFFFF" width="0.762" height="5.042"/>
		
			<rect x="41.391" y="10.627" transform="matrix(0.4967 0.8679 -0.8679 0.4967 32.436 -29.638)" fill="#FFFFFF" width="0.763" height="5.041"/>
		
			<rect x="40.036" y="23.062" transform="matrix(0.9832 0.1826 -0.1826 0.9832 4.9966 -7.3774)" fill="#FFFFFF" width="5.043" height="0.762"/>
		
			<rect x="36.808" y="30.218" transform="matrix(0.9082 0.4185 -0.4185 0.9082 16.4141 -13.6504)" fill="#FFFFFF" width="5.043" height="0.761"/>
	</g>
</g>
</svg>
