<?xml version="1.0" encoding="utf-8"?>
<!-- Generator: Adobe Illustrator 16.0.0, SVG Export Plug-In . SVG Version: 6.00 Build 0)  -->
<!DOCTYPE svg PUBLIC "-//W3C//DTD SVG 1.1//EN" "http://www.w3.org/Graphics/SVG/1.1/DTD/svg11.dtd">
<svg version="1.1" id="Layer_1" xmlns="http://www.w3.org/2000/svg" xmlns:xlink="http://www.w3.org/1999/xlink" x="0px" y="0px"
	 width="50px" height="50px" viewBox="0 0 50 50" enable-background="new 0 0 50 50" xml:space="preserve">
<g>
	<path fill="#FFFFFF" d="M14.079,6.23H9.718c-0.44,0-0.796,0.329-0.796,0.736v5.202c0,0.405,0.356,0.735,0.796,0.735h4.361
		c0.439,0,0.795-0.33,0.795-0.735V6.966C14.874,6.559,14.518,6.23,14.079,6.23z M14.211,10.548c0,0.502-0.354,0.909-0.793,0.909
		h-3.04c-0.439,0-0.796-0.407-0.796-0.909V8.584c0-0.501,0.356-0.91,0.796-0.91h3.04c0.439,0,0.793,0.409,0.793,0.91V10.548z"/>
	<path fill="#FFFFFF" d="M9.029,19.154H4.666c-0.438,0-0.793,0.33-0.793,0.736v5.204c0,0.404,0.355,0.735,0.793,0.735h4.363
		c0.438,0,0.796-0.331,0.796-0.735V19.89C9.825,19.484,9.467,19.154,9.029,19.154z M9.163,23.473c0,0.502-0.356,0.91-0.795,0.91
		h-3.04c-0.438,0-0.794-0.408-0.794-0.91V21.51c0-0.502,0.356-0.909,0.794-0.909h3.04c0.439,0,0.795,0.407,0.795,0.909V23.473z"/>
	<path fill="#FFFFFF" d="M14.157,32.242H9.795C9.357,32.242,9,32.571,9,32.977v5.202c0,0.408,0.357,0.736,0.795,0.736h4.362
		c0.439,0,0.795-0.328,0.795-0.736v-5.202C14.953,32.571,14.597,32.242,14.157,32.242z M14.291,36.562
		c0,0.5-0.356,0.908-0.795,0.908h-3.04c-0.438,0-0.793-0.408-0.793-0.908v-1.963c0-0.504,0.355-0.91,0.793-0.91h3.04
		c0.439,0,0.795,0.406,0.795,0.91V36.562z"/>
	<path fill="#FFFFFF" d="M40.526,32.283h-4.361c-0.438,0-0.794,0.33-0.794,0.736v5.202c0,0.406,0.356,0.735,0.794,0.735h4.361
		c0.44,0,0.797-0.329,0.797-0.735V33.02C41.323,32.613,40.967,32.283,40.526,32.283z M40.661,36.603
		c0,0.501-0.356,0.908-0.796,0.908h-3.038c-0.438,0-0.794-0.407-0.794-0.908v-1.965c0-0.501,0.355-0.909,0.794-0.909h3.038
		c0.439,0,0.796,0.408,0.796,0.909V36.603z"/>
	<path fill="#FFFFFF" d="M45.64,19.098h-4.361c-0.439,0-0.795,0.329-0.795,0.735v5.202c0,0.405,0.355,0.735,0.795,0.735h4.361
		c0.44,0,0.796-0.33,0.796-0.735v-5.202C46.436,19.426,46.08,19.098,45.64,19.098z M45.773,23.416c0,0.501-0.354,0.908-0.795,0.908
		H41.94c-0.44,0-0.797-0.407-0.797-0.908v-1.965c0-0.501,0.356-0.908,0.797-0.908h3.038c0.44,0,0.795,0.406,0.795,0.908V23.416z"/>
	<path fill="#FFFFFF" d="M40.549,6.37h-4.36c-0.44,0-0.797,0.33-0.797,0.737v5.203c0,0.405,0.356,0.734,0.797,0.734h4.36
		c0.438,0,0.794-0.33,0.794-0.734V7.107C41.343,6.7,40.986,6.37,40.549,6.37z M40.682,10.689c0,0.5-0.356,0.909-0.794,0.909h-3.039
		c-0.439,0-0.796-0.409-0.796-0.909V8.727c0-0.503,0.356-0.91,0.796-0.91h3.039c0.438,0,0.794,0.407,0.794,0.91V10.689z"/>
	<path fill="#FFFFFF" d="M27.362,0.5H23c-0.438,0-0.794,0.328-0.794,0.736v5.201c0,0.407,0.355,0.736,0.794,0.736h4.362
		c0.438,0,0.795-0.329,0.795-0.736V1.236C28.157,0.828,27.801,0.5,27.362,0.5z M27.496,4.818c0,0.501-0.356,0.908-0.796,0.908
		h-3.039c-0.438,0-0.794-0.407-0.794-0.908V2.854c0-0.502,0.356-0.909,0.794-0.909H26.7c0.439,0,0.796,0.407,0.796,0.909V4.818z"/>
	<rect x="24.585" y="6.852" fill="#FFFFFF" width="0.954" height="12.203"/>
	
		<rect x="18.147" y="9.724" transform="matrix(0.695 -0.719 0.719 0.695 -5.6983 18.2188)" fill="#FFFFFF" width="0.954" height="12.204"/>
	
		<rect x="31.22" y="22.749" transform="matrix(0.6952 -0.7188 0.7188 0.6952 -11.0767 31.576)" fill="#FFFFFF" width="0.954" height="12.202"/>
	
		<rect x="15.276" y="16.26" transform="matrix(-0.0062 -1 1 -0.0062 -6.5128 38.2527)" fill="#FFFFFF" width="0.953" height="12.205"/>
	<rect x="27.775" y="21.933" fill="#FFFFFF" width="12.946" height="0.955"/>
	
		<rect x="31.344" y="9.498" transform="matrix(-0.6971 -0.717 0.717 -0.6971 42.5524 49.9205)" fill="#FFFFFF" width="0.955" height="12.946"/>
	
		<rect x="18.668" y="22.077" transform="matrix(-0.6978 -0.7163 0.7163 -0.6978 12.0561 62.1871)" fill="#FFFFFF" width="0.954" height="12.947"/>
	<path fill="#FFFFFF" d="M28.284,22.991c-0.665-2.658-0.764-4.583-3.245-4.6c-2.591-0.02-2.972,1.543-3.637,4.516
		c-0.844,3.771-2.569,11.38-3.899,17.247c1.438,0.689,2.982,1.191,4.604,1.472v2.064c0,0.405,0.356,0.734,0.794,0.734h4.362
		c0.439,0,0.795-0.329,0.795-0.734v-2.045c1.59-0.262,3.107-0.74,4.523-1.397C31.101,34.288,29.169,26.523,28.284,22.991z
		 M24.942,20.401c1.013,0,1.833,0.82,1.833,1.833s-0.821,1.835-1.833,1.835s-1.835-0.822-1.835-1.835S23.929,20.401,24.942,20.401z
		 M27.494,42.043c0,0.502-0.356,0.908-0.794,0.908h-3.039c-0.439,0-0.796-0.406-0.796-0.908v-1.965c0-0.502,0.356-0.909,0.796-0.909
		H26.7c0.438,0,0.794,0.407,0.794,0.909V42.043z"/>
	<path fill="#FFFFFF" d="M45.419,48.063c-1.336,0-10.895,0-10.895,0s-0.659-2.656-1.565-6.301c-1.177,0.523-2.414,0.934-3.698,1.213
		v1.651c0,0.572-0.501,1.038-1.121,1.038h-6.152c-0.619,0-1.121-0.466-1.121-1.038v-1.687c-1.292-0.293-2.532-0.715-3.71-1.254
		c-0.838,3.691-1.449,6.377-1.449,6.377s-9.607,0-11.142,0c-1.287,0-1.382,1.438,0,1.438c1.089,0,40.014,0,40.954,0
		C46.651,49.5,46.805,48.063,45.419,48.063z"/>
	<path fill="#FFFFFF" d="M25.042,3.364c-10.607,0-19.208,8.599-19.208,19.208c0,9.829,7.385,17.934,16.909,19.069v-1.543
		c-8.676-1.128-15.375-8.543-15.375-17.526c0-9.762,7.913-17.675,17.674-17.675c9.76,0,17.673,7.914,17.673,17.675
		c0,8.868-6.527,16.207-15.04,17.478V41.6c9.361-1.284,16.576-9.313,16.576-19.027C44.252,11.963,35.65,3.364,25.042,3.364z"/>
</g>
</svg>
