<?xml version="1.0" encoding="utf-8"?>
<!-- Generator: Adobe Illustrator 16.0.0, SVG Export Plug-In . SVG Version: 6.00 Build 0)  -->
<!DOCTYPE svg PUBLIC "-//W3C//DTD SVG 1.1//EN" "http://www.w3.org/Graphics/SVG/1.1/DTD/svg11.dtd">
<svg version="1.1" id="Layer_1" xmlns="http://www.w3.org/2000/svg" xmlns:xlink="http://www.w3.org/1999/xlink" x="0px" y="0px"
	 width="50px" height="50px" viewBox="0 0 50 50" enable-background="new 0 0 50 50" xml:space="preserve">
<g>
	<path fill-rule="evenodd" clip-rule="evenodd" fill="#FFFFFF" d="M9.022,12.452c-0.625,1.047-1.189,1.821-1.562,2.679
		c-0.312,0.71-0.754,1.71-0.476,2.232c0.267,0.503,1.379,0.769,2.122,0.772c12.155,0.045,24.312,0.03,36.469,0.03
		c0.492,0,0.983,0,1.57,0c0,1.89,0,3.72,0,5.704c-0.441,0-0.883,0-1.32,0c-3.888,0-7.775-0.012-11.662,0.003
		c-4.813,0.019-8.587,3.799-8.578,8.572c0.01,4.706,3.766,8.501,8.5,8.534c3.887,0.031,7.774,0.008,11.66,0.008
		c0.447,0,0.894,0,1.485,0c0,2.349,0.052,4.612-0.051,6.867c-0.018,0.375-0.658,0.788-1.09,1.053
		c-0.24,0.148-0.646,0.034-0.976,0.034c-13.479,0-26.958-0.041-40.438,0.04c-2.288,0.014-4.21-1.221-4.174-4.14
		c0.114-9.428,0.042-18.854,0.042-28.282c0-2.896,1.225-4.101,4.161-4.108C6.063,12.449,7.42,12.452,9.022,12.452z"/>
	<path fill-rule="evenodd" clip-rule="evenodd" fill="#FFFFFF" d="M10.503,15.897c1.007-1.761,1.913-3.363,2.832-4.957
		c1.712-2.967,3.423-5.933,5.146-8.893c0.689-1.182,1.112-1.289,2.292-0.621c0.541,0.304,1.076,0.613,1.608,0.926
		c0.068,0.041,0.114,0.118,0.276,0.29c-1.008,1.753-2.043,3.561-3.082,5.363c-1.36,2.36-2.708,4.727-4.111,7.062
		c-0.215,0.36-0.684,0.76-1.063,0.792C13.182,15.961,11.948,15.897,10.503,15.897z"/>
	<path fill-rule="evenodd" clip-rule="evenodd" fill="#FFFFFF" d="M46.759,26.16c-4.009-0.012-8.016-0.022-12.026,0.001
		c-3.72,0.024-6.433,2.681-6.437,6.252c-0.008,3.567,2.703,6.222,6.426,6.27c1.983,0.023,3.967,0.004,5.951,0.004
		c2.108,0,4.216,0.024,6.323-0.007c1.712-0.025,2.486-0.831,2.498-2.532c0.009-2.438,0.007-4.876,0-7.315
		C49.487,26.919,48.722,26.164,46.759,26.16z M34.084,34.131c-0.931-0.03-1.746-0.892-1.685-1.791
		c0.058-0.922,0.941-1.734,1.852-1.621c0.982,0.121,1.574,0.676,1.57,1.725C35.818,33.439,35.066,34.161,34.084,34.131z"/>
	<path fill-rule="evenodd" clip-rule="evenodd" fill="#FFFFFF" d="M18.849,15.897c0,0,22.92,0,24.28,0
		c1.358,0,2.958-0.304,3.637-1.721c0.679-1.418,1.233-1.727-0.491-2.773c-1.726-1.047-16.32-9.541-17.28-10.07
		c-0.96-0.528-1.68-0.123-2.12,0.629C26.435,2.714,18.849,15.897,18.849,15.897z"/>
</g>
</svg>
