<?xml version="1.0" encoding="utf-8"?>
<!-- Generator: Adobe Illustrator 16.0.0, SVG Export Plug-In . SVG Version: 6.00 Build 0)  -->
<!DOCTYPE svg PUBLIC "-//W3C//DTD SVG 1.1//EN" "http://www.w3.org/Graphics/SVG/1.1/DTD/svg11.dtd">
<svg version="1.1" id="Layer_1" xmlns="http://www.w3.org/2000/svg" xmlns:xlink="http://www.w3.org/1999/xlink" x="0px" y="0px"
	 width="50px" height="50px" viewBox="0 0 50 50" enable-background="new 0 0 50 50" xml:space="preserve">
<g>
	<path fill="#FFFFFF" d="M47.428,25.756H2.575c-1.147,0-2.075,0.578-2.075,1.289v1.376c0,0.713,0.928,1.289,2.075,1.289h44.853
		c1.147,0,2.072-0.576,2.072-1.289v-1.376C49.5,26.334,48.575,25.756,47.428,25.756z"/>
	<path fill="#FFFFFF" d="M15.648,16.174c0.057,0.199,0.132,0.393,0.206,0.594c0.086,0.192,0.187,0.379,0.287,0.569
		c0.207,0.368,0.416,0.677,0.64,1.025c0.225,0.327,0.45,0.655,0.67,0.976c0.108,0.157,0.215,0.311,0.32,0.465
		c0.097,0.152,0.196,0.302,0.284,0.445c0.178,0.292,0.301,0.562,0.387,0.825c0.065,0.258,0.096,0.513,0.057,0.76
		c-0.031,0.248-0.104,0.487-0.19,0.701c-0.083,0.211-0.185,0.395-0.253,0.554c-0.171,0.301-0.26,0.49-0.26,0.49
		s0.183-0.111,0.489-0.335c0.139-0.123,0.327-0.261,0.501-0.461c0.182-0.194,0.374-0.434,0.519-0.744
		c0.152-0.309,0.228-0.689,0.219-1.092c-0.032-0.393-0.136-0.797-0.298-1.164c-0.317-0.746-0.768-1.416-1.2-2.079
		c-0.221-0.325-0.439-0.65-0.656-0.969c-0.094-0.149-0.185-0.297-0.275-0.442c-0.075-0.15-0.148-0.298-0.219-0.443
		c-0.05-0.147-0.111-0.292-0.155-0.436c-0.023-0.144-0.081-0.288-0.083-0.426c-0.016-0.14-0.031-0.276-0.016-0.406
		c-0.005-0.137,0.027-0.263,0.05-0.388c0.017-0.127,0.073-0.239,0.102-0.357c0.051-0.108,0.088-0.222,0.146-0.317
		c0.11-0.194,0.223-0.37,0.333-0.502c0.216-0.272,0.379-0.413,0.379-0.413s-0.054,0.011-0.154,0.043
		c-0.096,0.037-0.245,0.085-0.415,0.18c-0.175,0.09-0.381,0.215-0.585,0.399c-0.107,0.088-0.2,0.197-0.313,0.31
		c-0.09,0.123-0.197,0.25-0.276,0.401c-0.081,0.15-0.164,0.31-0.214,0.486c-0.07,0.175-0.094,0.359-0.121,0.554
		c-0.04,0.194-0.006,0.389-0.008,0.593C15.557,15.77,15.61,15.968,15.648,16.174z"/>
	<path fill="#FFFFFF" d="M24.014,10.592c0.055,0.267,0.122,0.539,0.188,0.813c0.082,0.269,0.177,0.538,0.272,0.81
		c0.199,0.531,0.418,1.026,0.642,1.546c0.231,0.506,0.46,1.013,0.687,1.511c0.109,0.244,0.22,0.487,0.324,0.728
		c0.096,0.239,0.208,0.475,0.289,0.706c0.19,0.462,0.305,0.906,0.396,1.333c0.026,0.211,0.071,0.42,0.069,0.623
		c0.004,0.102,0.009,0.204,0.013,0.301c-0.006,0.1-0.013,0.198-0.021,0.292c-0.001,0.194-0.053,0.375-0.075,0.552
		c-0.019,0.18-0.075,0.344-0.111,0.505c-0.036,0.159-0.084,0.306-0.132,0.442c-0.044,0.138-0.083,0.266-0.122,0.38
		c-0.175,0.451-0.268,0.721-0.268,0.721s0.05-0.054,0.142-0.155c0.088-0.104,0.227-0.253,0.385-0.453
		c0.141-0.209,0.351-0.447,0.513-0.763c0.183-0.306,0.364-0.673,0.487-1.101c0.146-0.424,0.203-0.912,0.205-1.428
		c-0.024-0.507-0.094-1.049-0.25-1.568c-0.284-1.053-0.744-2.082-1.186-3.099c-0.226-0.505-0.45-1.009-0.672-1.505
		c-0.1-0.239-0.195-0.477-0.291-0.713c-0.076-0.238-0.151-0.473-0.232-0.706c-0.058-0.234-0.112-0.466-0.168-0.692
		c-0.031-0.228-0.063-0.452-0.096-0.67c-0.028-0.436-0.046-0.857,0.006-1.239c0.012-0.096,0.024-0.19,0.034-0.283
		c0.021-0.091,0.042-0.179,0.06-0.266c0.028-0.177,0.085-0.337,0.132-0.492c0.105-0.305,0.219-0.572,0.338-0.781
		c0.232-0.423,0.431-0.644,0.431-0.644s-0.069,0.032-0.188,0.111c-0.118,0.08-0.291,0.201-0.479,0.385
		c-0.099,0.089-0.191,0.2-0.302,0.317c-0.098,0.123-0.206,0.257-0.303,0.41c-0.196,0.305-0.404,0.667-0.533,1.092
		c-0.151,0.421-0.238,0.894-0.278,1.398c-0.017,0.252-0.002,0.509-0.004,0.776C23.942,10.051,23.979,10.318,24.014,10.592z"/>
	<path fill="#FFFFFF" d="M33.299,16.32c0.056,0.198,0.133,0.393,0.206,0.594c0.084,0.192,0.187,0.378,0.287,0.568
		c0.205,0.369,0.415,0.68,0.638,1.026c0.227,0.326,0.45,0.653,0.672,0.976c0.108,0.156,0.215,0.313,0.319,0.466
		c0.096,0.15,0.198,0.3,0.283,0.443c0.179,0.291,0.302,0.564,0.389,0.826c0.064,0.258,0.095,0.513,0.057,0.761
		c-0.033,0.248-0.106,0.487-0.191,0.699c-0.084,0.212-0.184,0.396-0.254,0.554c-0.169,0.302-0.258,0.491-0.258,0.491
		s0.182-0.113,0.488-0.336c0.139-0.122,0.328-0.259,0.501-0.46c0.182-0.193,0.374-0.434,0.52-0.744
		c0.153-0.308,0.228-0.69,0.219-1.092c-0.034-0.394-0.138-0.798-0.298-1.164c-0.316-0.745-0.768-1.416-1.202-2.079
		c-0.22-0.325-0.439-0.651-0.653-0.971c-0.093-0.148-0.187-0.296-0.278-0.442c-0.073-0.149-0.147-0.297-0.22-0.443
		c-0.046-0.146-0.11-0.292-0.151-0.436c-0.025-0.142-0.081-0.286-0.083-0.425c-0.017-0.138-0.03-0.275-0.017-0.406
		c-0.004-0.137,0.026-0.261,0.049-0.386c0.016-0.129,0.073-0.24,0.102-0.358c0.051-0.107,0.089-0.223,0.148-0.318
		c0.109-0.193,0.222-0.368,0.33-0.501c0.218-0.272,0.382-0.413,0.382-0.413s-0.055,0.01-0.154,0.044
		c-0.099,0.034-0.248,0.084-0.418,0.179c-0.173,0.092-0.379,0.216-0.583,0.398c-0.109,0.087-0.202,0.2-0.311,0.311
		c-0.092,0.122-0.2,0.251-0.278,0.402c-0.083,0.148-0.166,0.308-0.215,0.484c-0.068,0.175-0.095,0.361-0.12,0.554
		c-0.04,0.195-0.008,0.389-0.01,0.594C33.208,15.916,33.261,16.114,33.299,16.32z"/>
	<path fill="#FFFFFF" d="M14.177,41.808c-1.611,1.67,0.417,2.894,0.417,2.894h20.645c2.341-0.89,0.573-3.003,0.573-3.003
		c9.309-3.283,10.245-10.07,10.245-10.07H3.671C6.739,40.196,14.177,41.808,14.177,41.808z"/>
</g>
</svg>
