<?xml version="1.0" encoding="utf-8"?>
<!-- Generator: Adobe Illustrator 16.0.0, SVG Export Plug-In . SVG Version: 6.00 Build 0)  -->
<!DOCTYPE svg PUBLIC "-//W3C//DTD SVG 1.1//EN" "http://www.w3.org/Graphics/SVG/1.1/DTD/svg11.dtd">
<svg version="1.1" id="Layer_1" xmlns="http://www.w3.org/2000/svg" xmlns:xlink="http://www.w3.org/1999/xlink" x="0px" y="0px"
	 width="50px" height="50px" viewBox="0 0 50 50" enable-background="new 0 0 50 50" xml:space="preserve">
<g>
	<path fill="#FFFFFF" d="M0.5,46.263h49V13.449h-49V46.263z M8.005,18.451h33.844v5.298H8.005V18.451z M8.005,26.544h33.844v13.832
		H8.005V26.544z"/>
	<path fill="#FFFFFF" d="M0.5,3.737v8.24h49v-8.24H0.5z M15.51,9.476H4.621V6.385H15.51V9.476z M26.988,10.213
		c-1.3,0-2.355-1.055-2.355-2.355c0-1.3,1.056-2.354,2.355-2.354c1.299,0,2.354,1.055,2.354,2.354
		C29.343,9.158,28.287,10.213,26.988,10.213z M38.464,10.213c-1.299,0-2.354-1.055-2.354-2.355c0-1.3,1.056-2.354,2.354-2.354
		c1.302,0,2.355,1.055,2.355,2.354C40.819,9.158,39.766,10.213,38.464,10.213z"/>
</g>
</svg>
