<?xml version="1.0" encoding="utf-8"?>
<!-- Generator: Adobe Illustrator 16.0.0, SVG Export Plug-In . SVG Version: 6.00 Build 0)  -->
<!DOCTYPE svg PUBLIC "-//W3C//DTD SVG 1.1//EN" "http://www.w3.org/Graphics/SVG/1.1/DTD/svg11.dtd">
<svg version="1.1" id="Layer_1" xmlns="http://www.w3.org/2000/svg" xmlns:xlink="http://www.w3.org/1999/xlink" x="0px" y="0px"
	 width="50px" height="50px" viewBox="0 0 50 50" enable-background="new 0 0 50 50" xml:space="preserve">
<g>
	<path fill="#FFFFFF" d="M39.557,31.325c-0.469-4.114-2.523-11.146-3.761-13.127c-1.911-3.054-2.345-3.308-2.11,0.414
		c0.108,1.707,0.135,2.491-0.197,3.304c-0.853,2.088-0.971-0.522-1.123-2.532c-0.178-2.344-1.219-4.727-1.979-7.258
		c-1.41-4.701-4.467-7.641-7.054-10.383c-2.586-2.744-2.822-0.392-2.587,1.762c0.236,2.155,0.471,4.115-0.705,7.446
		c-1.176,3.33-4.72,8.22-6.373,11.243c-2.24,4.097-5.487,15.282-1.387,20.69c3.384,4.465,7.528,5.898,10.304,6.331
		c-1.979-0.394-4.709-1.496-6.969-4.478c-2.952-3.893-0.614-11.945,0.999-14.896c1.19-2.176,2.331-3.133,3.459-5.448
		c0.738-1.512,1.884-3.198,2.397-5.16c0.398-1.522,0.704-3.647,2.566-1.672c1.863,1.975,2.481,3.822,2.967,5.179
		c0.541,1.514,1.122,2.799,1.851,4.625c0,0,1.622,3.613,1.451,0.935c-0.169-2.681,1.277,0.982,1.783,2.532
		c0.509,1.552,1.826,2.62,2.165,5.582c0.338,2.962-0.17,8.887-3.386,11.425c-0.96,0.758-1.632,1.187-2.127,1.418
		c0.778,0.283,1.413,0.856,5.114-2.063C39.322,43.667,40.028,35.439,39.557,31.325z"/>
	<path fill="#FFFFFF" d="M32.064,40.147c-0.228-1.982-1.475-5.29-1.813-6.328c-0.341-1.04-0.907-1.605-0.795,0.188
		c0.114,1.794-1.247,2.834-1.247,2.834c0.341-1.039,0.113-3.685-0.567-5.951c-0.68-2.268-2.154-3.685-3.401-5.006
		c-1.247-1.323-1.361-0.19-1.248,0.85c0.114,1.039,0.228,1.983-0.339,3.589s-2.276,3.966-3.072,5.423
		c-1.081,1.976-2.646,7.369-0.67,9.977c2.721,3.589,6.463,3.117,6.463,3.117s1.134-0.095,1.7-0.095c0.567,0,0.567,0.756,2.723-0.945
		C31.951,46.1,32.291,42.132,32.064,40.147z"/>
</g>
</svg>
