<?xml version="1.0" encoding="utf-8"?>
<!-- Generator: Adobe Illustrator 16.0.0, SVG Export Plug-In . SVG Version: 6.00 Build 0)  -->
<!DOCTYPE svg PUBLIC "-//W3C//DTD SVG 1.1//EN" "http://www.w3.org/Graphics/SVG/1.1/DTD/svg11.dtd">
<svg version="1.1" id="Layer_1" xmlns="http://www.w3.org/2000/svg" xmlns:xlink="http://www.w3.org/1999/xlink" x="0px" y="0px"
	 width="50px" height="50px" viewBox="0 0 50 50" enable-background="new 0 0 50 50" xml:space="preserve">
<g>
	<path fill="#FFFFFF" d="M8.517,11.024l12.287,0.213V8.368c0,0-3.948-3.604-6.676-5.838c-2.729-2.231-6.604-0.097-4.115,2.383
		C12.392,7.279,5.142,8.547,8.517,11.024z"/>
	<path fill="#FFFFFF" d="M41.475,4.913c2.947-1.912-1.387-4.614-4.116-2.383c-2.728,2.233-6.674,5.794-6.674,5.794v2.912
		l12.445-0.213C44.642,6.98,36.207,8.325,41.475,4.913z"/>
	<path fill="#FFFFFF" d="M30.223,10.01V9.098c0-0.671-0.621-1.215-1.387-1.215h-0.439l0.465-0.823
		c0.233-0.41,0.009-0.975-0.503-1.264l-0.693-0.394c-0.51-0.289-1.112-0.191-1.343,0.219l-0.472,0.83l-0.635-0.984
		c-0.255-0.396-0.862-0.458-1.354-0.141l-0.67,0.432c-0.492,0.318-0.685,0.896-0.431,1.292l0.537,0.833h-0.453
		c-0.768,0-1.389,0.544-1.389,1.215v0.912c0,0.671,0.621,1.216,1.389,1.216h5.991C29.602,11.227,30.223,10.682,30.223,10.01z"/>
	<path fill="#FFFFFF" d="M2.562,47.05c0,0.75,0.607,1.358,1.357,1.358h18.694V22.04H2.562V47.05z"/>
	<path fill="#FFFFFF" d="M28.501,48.408h17.941c0.75,0,1.359-0.608,1.359-1.358V22.04H28.501V48.408z"/>
	<path fill="#FFFFFF" d="M0.5,13.662v7.544h22.114v-8.901H1.857C1.107,12.305,0.5,12.912,0.5,13.662z"/>
	<path fill="#FFFFFF" d="M48.141,12.305h-19.64v8.901H49.5v-7.544C49.5,12.912,48.891,12.305,48.141,12.305z"/>
</g>
</svg>
