<?xml version="1.0" encoding="utf-8"?>
<!-- Generator: Adobe Illustrator 16.0.0, SVG Export Plug-In . SVG Version: 6.00 Build 0)  -->
<!DOCTYPE svg PUBLIC "-//W3C//DTD SVG 1.1//EN" "http://www.w3.org/Graphics/SVG/1.1/DTD/svg11.dtd">
<svg version="1.1" id="Layer_1" xmlns="http://www.w3.org/2000/svg" xmlns:xlink="http://www.w3.org/1999/xlink" x="0px" y="0px"
	 width="50px" height="50px" viewBox="0 0 50 50" enable-background="new 0 0 50 50" xml:space="preserve">
<g>
	<path fill="#FFFFFF" d="M39.974,27.868C40.129,27.898,40.114,27.892,39.974,27.868L39.974,27.868z"/>
	<path fill="#FFFFFF" d="M24.999,0.5C11.468,0.5,0.5,11.468,0.5,25.001C0.5,38.532,11.468,49.5,24.999,49.5
		C38.532,49.5,49.5,38.532,49.5,25.001C49.5,11.468,38.532,0.5,24.999,0.5z M36.989,42.619c-2.502,1.563-7.715,4.17-13.136,3.546
		c-5.421-0.626-9.488-1.668-12.511-5.109c-3.023-3.44-6.151-5.837-3.755-7.819c2.398-1.98,1.774-2.607,0.105-3.337
		c-1.669-0.729-1.251,2.086-1.772,2.607c-0.522,0.522-1.564-0.521-1.773-2.189c-0.207-1.667-0.938-5.004-0.625-6.257
		c0.314-1.249,0.105-0.833,2.19-2.084c2.084-1.251,2.815-2.711,1.355-3.023c-1.461-0.313-2.815-0.521-2.815-0.521
		s0.835-2.711,1.46-3.024c0.624-0.313,2.606,0.625,3.44-0.627c0.833-1.25,0.208-2.084,1.771-3.231
		c1.563-1.146,3.44-3.024,2.398-3.024s-2.293-0.417-0.521-1.25c1.772-0.834,4.378-3.44,11.155-3.649
		c6.777-0.209,8.132,1.042,9.279,1.458c1.147,0.418,0.749,1.253-0.521,1.669c-1.821,0.596-5.942,1.354-7.298,2.189
		c-1.356,0.834-1.876,2.293-0.313,2.189c1.563-0.104,2.295-0.521,1.877,1.147c-0.417,1.667-1.251,2.293-2.293,1.564
		c-1.044-0.729-1.565-1.773-3.649-0.834c-2.086,0.938-3.546,1.147-3.337,1.981c0.209,0.833,2.293,1.979,1.147,1.877
		c-1.147-0.105-2.712,0.625-1.251,1.146c1.458,0.521,2.396,0,3.023-1.354c0.624-1.355,1.354-1.564,2.501-0.418
		c1.146,1.147,1.46,1.564,2.92,2.92c1.458,1.354,2.814,1.771,2.918,0.104c0.105-1.667,0.938-3.544,2.086-3.231
		c1.147,0.313,2.605,0.313,1.354,1.564c-1.251,1.251-2.084,0.938-1.251,1.251c0.835,0.313,0.729,1.251-0.313,1.979
		c-1.042,0.731-3.126,1.042-3.961,1.773c-0.834,0.729-1.46-0.521-3.232-1.147c-1.773-0.626-3.44-1.251-6.151-1.251
		c-2.71,0-4.379,1.46-4.273,3.232c0.104,1.771-1.251,4.17,0.313,5.317c1.563,1.146,3.961,2.293,6.15,2.814
		c2.188,0.521,3.232,0.417,3.858,2.397c0.625,1.981-0.313,3.441,0.937,4.691c1.253,1.251,2.399,0.834,1.981,2.295
		c-0.416,1.46,1.982,3.127,3.024,0.104c1.042-3.024,4.273-0.417,4.273-3.337c0-2.919-1.877-3.335,0.73-6.046
		c2.381-2.476,3.457-3.903,4.818-3.896c-0.937-0.104-2.525-0.202-3.671,0.142c-2.086,0.626-4.588-1.356-2.711-1.876
		c1.876-0.521,6.151-0.417,7.193-2.711c1.042-2.293,4.065-1.251,4.065,0.625c0,1.877-2.085,1.669-1.563,2.502
		c0.521,0.835,1.877,1.67,2.295,2.398c0.416,0.729,0.104,2.919-1.044,5.733C42.725,37.407,39.491,41.056,36.989,42.619z"/>
</g>
</svg>
