<?xml version="1.0" encoding="utf-8"?>
<!-- Generator: Adobe Illustrator 16.0.0, SVG Export Plug-In . SVG Version: 6.00 Build 0)  -->
<!DOCTYPE svg PUBLIC "-//W3C//DTD SVG 1.1//EN" "http://www.w3.org/Graphics/SVG/1.1/DTD/svg11.dtd">
<svg version="1.1" id="Layer_1" xmlns="http://www.w3.org/2000/svg" xmlns:xlink="http://www.w3.org/1999/xlink" x="0px" y="0px"
	 width="50px" height="50px" viewBox="0 0 50 50" enable-background="new 0 0 50 50" xml:space="preserve">
<g>
	<g>
		<polygon fill="#FFFFFF" points="46.3,33.616 37.164,33.616 33.963,40.742 49.5,40.742 		"/>
		<polygon fill="#FFFFFF" points="20.432,33.616 17.232,40.742 32.77,40.742 29.568,33.616 		"/>
		<polygon fill="#FFFFFF" points="24.869,32.691 40.407,32.691 37.207,25.566 28.071,25.566 		"/>
		<polygon fill="#FFFFFF" points="28.644,17.516 19.509,17.516 16.308,24.642 31.845,24.642 		"/>
		<polygon fill="#FFFFFF" points="20.475,25.566 11.339,25.566 8.139,32.691 23.677,32.691 		"/>
		<polygon fill="#FFFFFF" points="3.7,33.616 0.5,40.742 16.037,40.742 12.836,33.616 		"/>
	</g>
	<polygon fill="#FFFFFF" points="36.021,16.833 37.663,18.708 39.869,17.64 38.078,19.361 39.099,21.674 37.456,19.796 
		35.251,20.865 37.041,19.144 	"/>
	<polygon fill="#FFFFFF" points="2.438,28.104 3.863,29.73 5.775,28.803 4.223,30.296 5.106,32.3 3.682,30.674 1.77,31.6 
		3.322,30.107 	"/>
	<polygon fill="#FFFFFF" points="11.439,18.339 12.864,19.965 14.776,19.038 13.225,20.53 14.109,22.534 12.684,20.908 
		10.771,21.835 12.324,20.342 	"/>
	<polygon fill="#FFFFFF" points="25.503,9.258 27.576,11.624 30.358,10.275 28.1,12.448 29.386,15.364 27.313,12.996 24.531,14.345 
		26.789,12.174 	"/>
	<polygon fill="#FFFFFF" points="41.493,25.396 43.477,27.66 46.14,26.371 43.979,28.449 45.211,31.241 43.226,28.975 
		40.563,30.266 42.724,28.186 	"/>
</g>
</svg>
