<?xml version="1.0" encoding="utf-8"?>
<!-- Generator: Adobe Illustrator 16.0.0, SVG Export Plug-In . SVG Version: 6.00 Build 0)  -->
<!DOCTYPE svg PUBLIC "-//W3C//DTD SVG 1.1//EN" "http://www.w3.org/Graphics/SVG/1.1/DTD/svg11.dtd">
<svg version="1.1" id="Layer_1" xmlns="http://www.w3.org/2000/svg" xmlns:xlink="http://www.w3.org/1999/xlink" x="0px" y="0px"
	 width="50px" height="50px" viewBox="0 0 50 50" enable-background="new 0 0 50 50" xml:space="preserve">
<g>
	<g>
		<path fill="#FFFFFF" d="M38.001,45.953c0.899-0.682,2.457-1.442,3.271-2.266c1.475-1.478,2.559-2.287,3.567-4.004L25.242,27.78
			L38.001,45.953z"/>
		<path fill="#FFFFFF" d="M42.994,8.342L26.678,25.136l22.42-4.87C48.261,15.832,46.361,11.822,42.994,8.342z"/>
		<path fill="#FFFFFF" d="M40.942,6.48C33.85,0.198,23.921-1.136,15.623,2.486l9.276,21.441L40.942,6.48z"/>
		<g>
			<path fill="#FFFFFF" d="M27.483,26.862l18.789,10.35c2.596-4.438,3.605-8.957,3.103-13.917L27.483,26.862z"/>
		</g>
		<path fill="#FFFFFF" d="M2.806,35.014c1.159,2.704,2.811,5.247,5.012,7.45c7.571,7.576,18.716,8.855,27.364,4.698L22.637,28.069
			L2.806,35.014z"/>
		<path fill="#FFFFFF" d="M1.743,32.522l20.968-7.33L13.235,3.688c-2.071,1.087-4.032,2.729-5.772,4.474
			c-6.582,6.591-8.492,16.08-5.756,24.364L1.743,32.522z"/>
	</g>
</g>
</svg>
