<?xml version="1.0" encoding="utf-8"?>
<!-- Generator: Adobe Illustrator 16.0.0, SVG Export Plug-In . SVG Version: 6.00 Build 0)  -->
<!DOCTYPE svg PUBLIC "-//W3C//DTD SVG 1.1//EN" "http://www.w3.org/Graphics/SVG/1.1/DTD/svg11.dtd">
<svg version="1.1" id="Layer_1" xmlns="http://www.w3.org/2000/svg" xmlns:xlink="http://www.w3.org/1999/xlink" x="0px" y="0px"
	 width="50px" height="50px" viewBox="0 0 50 50" enable-background="new 0 0 50 50" xml:space="preserve">
<g>
	<path fill-rule="evenodd" clip-rule="evenodd" fill="#FFFFFF" d="M40.718,37.802c-2.298-1.438-4.8-2.324-7.51-2.579
		c-2.683-0.253-5.486,1.324-6.675,3.753c-1.206,2.463-0.716,5.244,1.138,7.361c1.152,1.315,2.606,2.051,4.312,2.043
		c2.009-0.009,3.845-0.255,5.054-0.615c1.5-0.448,2.896-1.149,4.179-2.059c1.202-0.853,2.206-1.866,2.585-3.356
		c0-0.29,0-0.581,0-0.871C43.35,39.77,42.135,38.688,40.718,37.802z"/>
	<path fill-rule="evenodd" clip-rule="evenodd" fill="#FFFFFF" d="M24.98,41.229c0.208-2.421,1.471-4.204,3.571-5.487
		c-1.116-2.075-2.237-4.091-4.706-4.813c-0.29,0-0.581,0-0.871,0c-1.96,0.479-3.099,1.921-4.057,3.534
		c-1.192,2.007-2.085,4.16-2.253,6.503c-0.074,1.044,0.06,2.301,0.153,2.655c0.707,2.658,2.945,4.597,5.688,4.944
		c0.094,0.011,0.183,0.05,0.274,0.075c0.42,0,0.838,0,1.259,0c0.707-0.197,1.427-0.361,2.118-0.607
		c0.434-0.154,0.821-0.434,1.286-0.688C25.644,45.662,24.773,43.641,24.98,41.229z"/>
	<path fill-rule="evenodd" clip-rule="evenodd" fill="#FFFFFF" d="M20.852,29.993c0-4.588,0-9.243,0-11.721
		c0-1.92-2.594-5.166-4.087-8.229c-0.486-1-0.784-2.673-0.784-3.851c0-0.014,0-0.026,0-0.04c0.955-0.002,1.727-0.776,1.727-1.73
		V3.091c0-0.956-0.773-1.731-1.729-1.731H5.294c-0.956,0-1.729,0.775-1.729,1.731v1.331c0,0.953,0.769,1.724,1.719,1.73
		C5.289,6.217,5.292,6.284,5.292,6.35c0,1.021,0.08,2.75-0.471,3.613C0.657,16.485,0.5,16.397,0.5,18.272c0,5.95,0,24.452,0,24.452
		c0,1.219,0.987,2.206,2.207,2.206H15.35c-0.309-1.162-0.481-2.386-0.481-3.656C14.869,36.43,17.283,32.211,20.852,29.993z
		 M2.86,32.049h1.268v1.37H2.86V32.049z M10.005,36.182H4.38l5.625,1.42v1.389L4.38,40.403h5.625v1.339H2.86v-2.158l4.874-1.297
		L2.86,37.006v-2.163h7.146V36.182z M10.005,33.419H4.831v-1.37h5.175V33.419z M10.005,30.646H2.86v-1.369h7.146V30.646z
		 M10.005,24.613L7.68,25.914l0.668,0.64h1.657v1.368H2.86v-1.368h3.791l-1.82-1.605v-1.686l1.89,1.769l3.285-1.896V24.613z"/>
	<path fill-rule="evenodd" clip-rule="evenodd" fill="#FFFFFF" d="M49.373,25.015c-0.094-0.441-0.234-0.886-0.436-1.287
		c-1.705-3.398-4.74-5.148-8.104-6.472c-0.138-0.054-0.432,0.093-0.55,0.232c-0.648,0.761-1.239,1.575-1.902,2.322
		c-0.87,0.987-1.771,1.951-2.706,2.875c-0.203,0.203-0.608,0.199-0.922,0.291c-0.065-0.294-0.216-0.599-0.179-0.879
		c0.176-1.368,0.81-2.547,1.642-3.621c0.757-0.977,1.669-1.761,2.962-2.026c-1.716-2.241-6.373-1.922-7.699,0.458
		c-0.961,1.725-2.08,3.362-3.179,5.006c-0.359,0.538-0.823,1.039-1.336,1.438c-0.59,0.459-1.147,0.145-1.121-0.603
		c0.018-0.492,0.096-1.009,0.277-1.464c0.941-2.389,2.115-4.615,4.472-5.943c-0.92-1.043-2.305-1.363-3.652-0.785
		c-1.039,0.448-2.061,0.943-3.073,1.452c-0.229,0.115-0.413,0.356-0.559,0.58c-0.234,0.364-0.462,0.733-0.688,1.101v12.17
		c4.989,0.473,9.996,0.615,15.008,0.56c3.603-0.04,7.229-0.129,10.578-1.772c0.269-0.244,0.535-0.491,0.805-0.736
		C49.579,27.002,49.582,26.014,49.373,25.015z"/>
</g>
</svg>
