<?xml version="1.0" encoding="utf-8"?>
<!-- Generator: Adobe Illustrator 16.0.0, SVG Export Plug-In . SVG Version: 6.00 Build 0)  -->
<!DOCTYPE svg PUBLIC "-//W3C//DTD SVG 1.1//EN" "http://www.w3.org/Graphics/SVG/1.1/DTD/svg11.dtd">
<svg version="1.1" id="Layer_1" xmlns="http://www.w3.org/2000/svg" xmlns:xlink="http://www.w3.org/1999/xlink" x="0px" y="0px"
	 width="50px" height="50px" viewBox="0 0 50 50" enable-background="new 0 0 50 50" xml:space="preserve">
<g>
	<path fill="#FFFFFF" d="M36.486,3.657c-5.808,0-9.534,4.021-11.487,7.643c-1.953-3.621-5.679-7.643-11.483-7.643
		C6.15,3.657,0.5,9.633,0.5,17.56c0,2.069,0.415,3.979,1.176,5.814h10.952l2.476-4.95c0.486-0.973,2.077-0.973,2.567,0l4.46,8.915
		l1.587-3.171c0.488-0.975,2.078-0.975,2.567,0l1.586,3.171l4.46-8.915c0.488-0.973,2.079-0.973,2.567,0l2.475,4.95h10.951
		c0.761-1.835,1.176-3.745,1.176-5.814C49.5,9.633,43.85,3.657,36.486,3.657L36.486,3.657z"/>
	<path fill="#FFFFFF" d="M35.2,25.452l-1.585-3.176l-4.46,8.916c-0.244,0.487-0.742,0.793-1.284,0.793s-1.038-0.306-1.284-0.793
		l-1.588-3.172l-1.588,3.172c-0.486,0.974-2.078,0.974-2.566,0l-4.46-8.916L14.8,25.452c-0.244,0.484-0.742,0.791-1.284,0.791H3.183
		c2.954,4.649,8.276,9.066,14.931,14.683c1.87,1.579,3.858,3.257,5.946,5.069c0.27,0.229,0.604,0.348,0.938,0.348
		s0.671-0.118,0.941-0.348c2.087-1.813,4.076-3.49,5.945-5.069c6.654-5.616,11.977-10.033,14.932-14.683H36.486
		C35.94,26.243,35.444,25.937,35.2,25.452L35.2,25.452z"/>
</g>
</svg>
