<?xml version="1.0" encoding="utf-8"?>
<!-- Generator: Adobe Illustrator 16.0.0, SVG Export Plug-In . SVG Version: 6.00 Build 0)  -->
<!DOCTYPE svg PUBLIC "-//W3C//DTD SVG 1.1//EN" "http://www.w3.org/Graphics/SVG/1.1/DTD/svg11.dtd">
<svg version="1.1" id="Layer_1" xmlns="http://www.w3.org/2000/svg" xmlns:xlink="http://www.w3.org/1999/xlink" x="0px" y="0px"
	 width="50px" height="50px" viewBox="0 0 50 50" enable-background="new 0 0 50 50" xml:space="preserve">
<g>
	<rect x="35.652" y="21.145" fill="#FFFFFF" width="1.786" height="5.151"/>
	<rect x="33.138" y="21.072" fill="#FFFFFF" width="1.786" height="5.151"/>
	<rect x="41.359" y="34.145" fill="#FFFFFF" width="1.787" height="5.152"/>
	<rect x="38.846" y="34.074" fill="#FFFFFF" width="1.785" height="5.148"/>
	<rect x="30.177" y="34.145" fill="#FFFFFF" width="1.786" height="5.152"/>
	<rect x="27.662" y="34.074" fill="#FFFFFF" width="1.784" height="5.148"/>
	<g>
		<path fill="#FFFFFF" d="M6.779,28.766v12.742h5.604V28.766H6.779z M8.512,35.047c0-2.387,0.527-4.322,1.181-4.322
			s1.183,1.936,1.183,4.322s-0.529,4.322-1.183,4.322S8.512,37.434,8.512,35.047z"/>
		<path fill="#FFFFFF" d="M18.565,28.766h-5.604v12.742h5.604V28.766z M17.158,35.047c0,2.387-0.528,4.322-1.181,4.322
			c-0.653,0-1.182-1.936-1.182-4.322s0.528-4.322,1.182-4.322C16.63,30.725,17.158,32.66,17.158,35.047z"/>
	</g>
	<path fill="#FFFFFF" d="M0.5,16.053v7.797h0.486v4.914h1.648v1.176H0.986v0.428h0.507v1.178H0.986v0.516h1.648v1.176H0.986v0.602
		h0.507v1.178H0.986v0.557h1.648v1.178H0.986v0.428h0.507v1.176H0.986v0.516h1.648v1.176H0.986v0.604h0.507v1.176H0.986v0.848H47.23
		V23.534h-1.036L35.369,10.936L24.193,23.534h-0.141v-6.26l2.784,0.027l8.275-8.601l13.772,15.502l0.615-0.707L35.137,7.328
		l-8.636,8.976L0.5,16.053z M4.315,37.178h1.747v1.176H4.315V37.178z M4.919,38.869v1.176H3.173v-1.176H4.919z M3.173,36.75v-1.178
		h1.746v1.178H3.173z M4.315,33.838h1.747v1.178H4.315V33.838z M3.173,33.236v-1.176h1.746v1.176H3.173z M4.315,30.367h1.747v1.178
		H4.315V30.367z M3.173,29.939v-1.176h1.746v1.176H3.173z M5.105,23.534H3.742v-6.455l1.363,0.013V23.534z M7.362,23.534H5.999
		v-6.434l1.363,0.014V23.534z M9.62,23.534H8.255v-6.411l1.365,0.012V23.534z M11.876,23.534h-1.363v-6.39l1.363,0.013V23.534z
		 M14.132,23.534h-1.361v-6.368l1.361,0.013V23.534z M16.39,23.534h-1.363v-6.346l1.363,0.013V23.534z M18.646,23.534h-1.364V17.21
		l1.364,0.013V23.534z M20.903,23.534H19.54V17.23l1.363,0.015V23.534z M23.16,23.534h-1.363v-6.281l1.363,0.014V23.534z
		 M23.191,29.939h-1.747v-1.176h1.747V29.939z M25.477,33.236H23.73v-1.176h1.746V33.236z M24.874,31.545v-1.178h1.746v1.178H24.874
		z M22.589,31.545v-1.178h1.748v1.178H22.589z M22.589,35.016v-1.178h1.748v1.178H22.589z M25.477,35.572v1.178H23.73v-1.178H25.477
		z M26.62,33.838v1.178h-1.746v-1.178H26.62z M26.62,37.178v1.176h-1.746v-1.176H26.62z M25.477,40.045H23.73v-1.176h1.746V40.045z
		 M22.589,38.354v-1.176h1.748v1.176H22.589z M23.191,40.045h-1.747v-1.176h1.747V40.045z M20.305,38.354v-1.176h1.746v1.176H20.305
		z M21.444,35.572h1.747v1.178h-1.747V35.572z M20.305,35.016v-1.178h1.746v1.178H20.305z M21.444,32.061h1.747v1.176h-1.747V32.061
		z M20.305,31.545v-1.178h1.746v1.178H20.305z M25.477,29.939H23.73v-1.176h1.746V29.939z M27.762,29.939h-1.748v-1.176h1.748
		V29.939z M30.046,29.939h-1.748v-1.176h1.748V29.939z M32.33,29.939h-1.748v-1.176h1.748V29.939z M35.76,30.367v1.178h-1.748
		v-1.178H35.76z M32.867,29.939v-1.176h1.748v1.176H32.867z M34.012,35.016v-1.178h1.748v1.178H34.012z M36.899,35.572v1.178h-1.748
		v-1.178H36.899z M35.151,32.061h1.748v1.176h-1.748V32.061z M35.151,28.764h1.748v1.176h-1.748V28.764z M38.042,30.367v1.178
		h-1.746v-1.178H38.042z M38.042,33.838v1.178h-1.746v-1.178H38.042z M38.042,37.178v1.176h-1.746v-1.176H38.042z M36.899,40.045
		h-1.748v-1.176h1.748V40.045z M34.012,38.354v-1.176h1.748v1.176H34.012z M34.615,40.045h-1.748v-1.176h1.748V40.045z
		 M32.867,36.75v-1.178h1.748v1.178H32.867z M32.867,33.236v-1.176h1.748v1.176H32.867z M31.728,31.545v-1.178h1.746v1.178H31.728z
		 M38.086,26.863h-5.644v-6.24c0,0,0.532-2.225,2.809-2.225c2.261,0,2.835,2.225,2.835,2.225V26.863z M39.184,29.939h-1.748v-1.176
		h1.748V29.939z M41.467,29.939h-1.746v-1.176h1.746V29.939z M43.753,29.939h-1.748v-1.176h1.748V29.939z M43.149,31.545v-1.178
		h1.747v1.178H43.149z M46.037,32.061v1.176H44.29v-1.176H46.037z M46.037,29.939H44.29v-1.176h1.747V29.939z M47.181,31.545h-1.747
		v-1.178h1.747V31.545z M47.181,35.016h-1.747v-1.178h1.747V35.016z M46.037,35.572v1.178H44.29v-1.178H46.037z M47.181,38.354
		h-1.747v-1.176h1.747V38.354z M46.037,38.869v1.176H44.29v-1.176H46.037z M45.434,40.648h1.747v1.176h-1.747V40.648z
		 M43.149,40.648h1.747v1.176h-1.747V40.648z M40.865,40.648h1.746v1.176h-1.746V40.648z M38.58,40.648h1.747v1.176H38.58V40.648z
		 M38.151,33.621c0,0,0.377-1.582,1.863-2.076H38.58v-1.178h1.747v1.096c0.167-0.035,0.347-0.055,0.538-0.061v-1.035h1.746v1.178
		h-0.713c1.486,0.494,1.896,2.076,1.896,2.076v3.557h1.102v1.176h-1.102v1.51h-5.644V33.621z M36.296,40.648h1.746v1.176h-1.746
		V40.648z M34.012,40.648h1.748v1.176h-1.748V40.648z M31.728,40.648h1.746v1.176h-1.746V40.648z M29.442,40.648h1.747v1.176h-1.747
		V40.648z M27.158,40.648h1.746v1.176h-1.746V40.648z M26.967,33.621c0,0,0.038-0.154,0.135-0.385h-1.088v-1.176h1.748v0.164
		c0.268-0.277,0.616-0.529,1.069-0.68h-1.673v-1.178h1.746v1.156c0.167-0.051,0.345-0.086,0.538-0.107v-1.049h1.747v1.178h-0.475
		c1.486,0.494,1.896,2.076,1.896,2.076v6.242h-5.645V33.621z M24.874,40.648h1.746v1.176h-1.746V40.648z M22.589,40.648h1.748v1.176
		h-1.748V40.648z M20.305,40.648h1.746v1.176h-1.746V40.648z M19.16,38.869h1.746v1.176H19.16V38.869z M19.16,35.572h1.746v1.178
		H19.16V35.572z M19.16,32.061h1.746v1.176H19.16V32.061z M19.16,28.764h1.746v1.176H19.16V28.764z M6.165,28.295h12.902v13.596
		H6.165V28.295z M4.315,40.648h1.747v1.176H4.315V40.648z M3.777,40.648v1.176H2.031v-1.176H3.777z M3.777,37.178v1.176H2.031
		v-1.176H3.777z M3.777,33.838v1.178H2.031v-1.178H3.777z M3.777,30.367v1.178H2.031v-1.178H3.777z M1.375,17.056L2.85,17.07v6.464
		H1.375V17.056z"/>
</g>
</svg>
