<?xml version="1.0" encoding="utf-8"?>
<!-- Generator: Adobe Illustrator 16.0.0, SVG Export Plug-In . SVG Version: 6.00 Build 0)  -->
<!DOCTYPE svg PUBLIC "-//W3C//DTD SVG 1.1//EN" "http://www.w3.org/Graphics/SVG/1.1/DTD/svg11.dtd">
<svg version="1.1" id="Layer_1" xmlns="http://www.w3.org/2000/svg" xmlns:xlink="http://www.w3.org/1999/xlink" x="0px" y="0px"
	 width="50px" height="50px" viewBox="0 0 50 50" enable-background="new 0 0 50 50" xml:space="preserve">
<g>
	<path fill="#FFFFFF" d="M23.709,23.105c0,0,7.324-7.337,11.322-11.201c3.996-3.863,9.68-5.792,9.68-5.792L34.12,18.43
		L23.709,23.105z"/>
	<path fill="#FFFFFF" d="M46.645,17.562c3.192-1.75,2.845-4.71,2.845-4.71l-28.51,12.944l-1.626-0.187c0,0-0.346,0.171-0.627,1.476
		c-0.281,1.304,0.795,1.307,1.561,2.18c1.393,1.589,2.505,1.104,3.023,0.911C23.83,29.982,43.452,19.312,46.645,17.562z
		 M23.373,28.488c-0.56,0.273-1.236,0.043-1.511-0.518c-0.274-0.56-0.044-1.236,0.516-1.512c0.563-0.274,1.237-0.043,1.513,0.518
		C24.164,27.537,23.933,28.212,23.373,28.488z"/>
	<path fill="#FFFFFF" d="M7.984,43.342c1.254,0.955,3.715,0.57,5.892-0.498c2.177-1.067,3.918-3.272,4.919-5.236
		c0.742-1.458,0.062-2.706,1.089-3.909c0.695-0.814,3.163-1.185,4.328-1.938c1.163-0.756,1.469-2.011,1.469-2.011l-0.906,0.474
		l-1.149,0.621c-0.619,0.487-2.348,1.065-2.839,0.815c-0.49-0.249-1.371-1.169-1.371-1.169c-1.53,0.383-2.195,0.653-5.04,1.736
		c-3.359,1.279-4.521,2.381-6.724,4.621C6,38.526,5.729,41.624,7.984,43.342z M8.26,39.031c0.206-0.96,2.381-2.72,4.122-3.985
		c1.041-0.757,2.052-0.945,3.04-1.186c0.986-0.238,1.968,0.385,2.032,1.643s-0.587,2.805-2.302,4.566
		c-1.713,1.761-3.938,2.06-5.439,1.752C8.213,41.516,8.058,39.991,8.26,39.031z"/>
	<path fill="#FFFFFF" d="M17.192,27.839l0.093-2.318c0,0-2.155,0.021-2.838-0.018c-1.377-0.078-1.889-0.497-1.889-0.497
		C11.957,23.031,9.65,21.103,6.44,21.4c-2.791,0.261-6.659,2.627-5.825,5.671c1.183,4.325,6.012,3.248,8.035,2.869
		c0.945-0.176,3.05-1.061,4.833-1.512C15.519,27.913,17.192,27.839,17.192,27.839z M10.143,25.847
		c-0.29,0.958-0.736,1.598-1.688,2.066C7.5,28.38,5.725,28.55,4.212,28.221c-1.512-0.327-1.824-1.134-2.033-1.96
		c-0.208-0.826,0.581-1.862,1.162-2.344c0.579-0.48,2.121-1.032,3.602-0.979c0.803,0.03,1.097,0.167,2.065,0.593
		C9.976,23.957,10.433,24.887,10.143,25.847z"/>
</g>
</svg>
