<?xml version="1.0" encoding="utf-8"?>
<!-- Generator: Adobe Illustrator 16.0.0, SVG Export Plug-In . SVG Version: 6.00 Build 0)  -->
<!DOCTYPE svg PUBLIC "-//W3C//DTD SVG 1.1//EN" "http://www.w3.org/Graphics/SVG/1.1/DTD/svg11.dtd">
<svg version="1.1" id="Layer_1" xmlns="http://www.w3.org/2000/svg" xmlns:xlink="http://www.w3.org/1999/xlink" x="0px" y="0px"
	 width="50px" height="50px" viewBox="0 0 50 50" enable-background="new 0 0 50 50" xml:space="preserve">
<g>
	<g>
		<path fill="#FFFFFF" d="M22.906,15.101v0.922h-0.749v-0.898c-0.693-0.003-1.34-0.131-1.935-0.386v-1.182
			c0.194,0.134,0.49,0.257,0.885,0.37c0.392,0.115,0.743,0.18,1.05,0.193v-1.544c-0.799-0.249-1.347-0.516-1.637-0.803
			c-0.293-0.289-0.438-0.641-0.438-1.056c0-0.445,0.188-0.823,0.567-1.137c0.382-0.314,0.882-0.498,1.508-0.545V8.241h0.749v0.773
			c0.72,0.029,1.261,0.126,1.614,0.292v1.15c-0.479-0.246-1.021-0.392-1.614-0.442v1.613c0.746,0.223,1.282,0.477,1.608,0.764
			c0.324,0.287,0.486,0.638,0.486,1.048c0,0.472-0.178,0.85-0.54,1.137C24.096,14.863,23.581,15.039,22.906,15.101z M22.157,11.378
			V10.03c-0.476,0.068-0.712,0.274-0.712,0.616C21.445,10.936,21.682,11.182,22.157,11.378z M22.906,12.817v1.29
			c0.486-0.063,0.734-0.265,0.734-0.607C23.641,13.219,23.393,12.996,22.906,12.817z"/>
	</g>
	<g>
		<path fill="#FFFFFF" d="M21.065,49.422c0.892-0.19,1.491-0.4,2.641-1.261c1.37-1.028,4.454-4.231,4.454-4.231
			c0.327-0.268,1.462-1.036,2.357-1.036c1.861,0,4.18-0.712,5.103-2.706c0.336-0.714,0.482-1.301,0.548-1.69
			c0.789-0.336,2.383-1.169,3.214-2.751c0.717-1.367,0.488-2.709,0.273-3.425c0.499-0.517,1.346-1.539,1.654-2.856
			c0.327-1.395-0.333-3.054-1.085-4.007c-0.182-0.231-0.372-0.424-0.566-0.579c0.59-0.833,1.325-2.236,1.029-3.718
			c-0.058-0.292-0.101-0.582-0.134-0.852c-0.127-0.903-0.261-1.833-1.043-2.284c-0.65-0.378-1.555-0.293-2.934,0.265
			c-2.663,1.081-5.4,1.309-7.229,1.309c-0.154,0-0.337-0.006-0.548-0.013c-1.613-0.07-4.614-0.188-6.543,2.129
			c-1.958,2.35-6.676,5.239-6.771,5.393l0.012,1.574c0.024-0.036,5.988-3.758,7.881-6.033c1.474-1.766,3.904-1.664,5.363-1.606
			c0.23,0.011,0.437,0.019,0.605,0.019c1.956,0,4.896-0.25,7.779-1.418c1.263-0.512,1.598-0.383,1.653-0.353
			c0.165,0.093,0.258,0.747,0.322,1.222c0.04,0.295,0.083,0.609,0.15,0.937c0.309,1.538-1.259,3.172-1.272,3.19l-1.209,1.241h1.727
			c0.052,0.001,0.305,0.108,0.645,0.571c0.595,0.804,0.914,1.955,0.742,2.678c-0.323,1.388-1.54,2.42-1.554,2.432l-0.436,0.366
			l0.25,0.514c0.022,0.05,0.612,1.34-0.059,2.621c-0.82,1.564-2.798,2.201-2.816,2.209l-0.515,0.162v0.539l0,0
			c0,0-0.016,0.639-0.461,1.597c-0.82,1.768-3.29,1.86-3.778,1.86c-1.579,0-3.15,1.257-3.323,1.401c0,0-2.823,3.717-4.967,5.246
			c-1.149,0.823-2.442,0.964-2.663,1.312C19.474,49.531,20.534,49.531,21.065,49.422z"/>
		<path fill="#FFFFFF" d="M9.137,43.58c1.257-0.419,2.363-1.097,2.784-2.474c0.394-1.268,6.53-20.551,6.701-21.224l-0.843-1.685
			c-0.041,0.166-6.874,21.243-7.254,22.479c-0.139,0.453-0.273,0.952-0.715,1.394c-0.419,0.42-0.893,0.644-1.565,1.063
			c-0.562,0.351-1.782,0.612-1.761,0.753C6.513,44.056,8.394,43.828,9.137,43.58z"/>
		<path fill="#FFFFFF" d="M23.829,42.018c0.616-0.478,3.293-2.844,4.298-4.553c0.971-1.648,2.095-5.694,1.298-8.289
			c1.263-0.231,3.606-0.743,5.934-1.635c3.493-1.334,3.894-2.608,3.956-2.701l-0.231-1.35c-0.014,0.018-1.218,1.531-4.246,2.688
			c-3.192,1.219-6.532,1.71-6.565,1.712l-1.118,0.162l0.605,0.954c1.112,1.753,0.087,6.052-0.893,7.715
			c-0.596,1.017-2.454,3.345-3.678,4.653c-1.229,1.311-2.78,1.748-2.767,1.762C20.844,43.507,22.616,42.958,23.829,42.018z"/>
		<path fill="#FFFFFF" d="M30.931,34.188c1.546,0,3.128-0.198,4.219-0.335l0.234-0.03c1.642-0.204,3.718-1.086,3.803-1.126
			l-0.574-1.342c-0.021,0.007-1.974,0.838-3.41,1.018l-0.237,0.03c-1.545,0.193-4.134,0.521-5.967,0.174l-0.276,1.436
			C29.407,34.143,30.166,34.188,30.931,34.188z"/>
		<path fill="#FFFFFF" d="M31.652,38.834c1.92,0,3.649-0.061,3.78-0.067l-0.049-1.461c-0.063,0.002-6.196,0.217-8.14-0.151
			l-0.272,1.438C27.977,38.779,29.896,38.834,31.652,38.834z"/>
		<path fill="#FFFFFF" d="M29.149,42.919c0.657,0,1.118-0.078,1.173-0.088l-0.258-1.438l0.129,0.718l-0.126-0.719
			c-0.027,0.003-3.065,0.502-4.287-1.4l-1.231,0.789C25.718,42.603,27.828,42.919,29.149,42.919z"/>
		<polygon fill="#FFFFFF" points="36.081,2.2 30.266,1.776 32.621,19.792 33.937,19.636 		"/>
		<polygon fill="#FFFFFF" points="40.441,6.196 37.289,4.85 35.027,19.353 36.149,18.883 		"/>
		<polygon fill="#FFFFFF" points="43.517,9.086 41.514,7.757 36.985,19.071 38.573,18.418 		"/>
		<path fill="#FFFFFF" d="M10.59,6.202l9.953,17.486c0,0,1.927-2.026,5.495-3.278C27.375,19.94,31.64,19.5,31.64,19.5l-3.362-19
			L10.59,6.202z M17.106,11.911c0-3,2.43-5.426,5.429-5.426s5.427,2.426,5.427,5.426c0,2.996-2.428,5.428-5.427,5.428
			S17.106,14.906,17.106,11.911z"/>
	</g>
</g>
</svg>
