<?xml version="1.0" encoding="utf-8"?>
<!-- Generator: Adobe Illustrator 16.0.0, SVG Export Plug-In . SVG Version: 6.00 Build 0)  -->
<!DOCTYPE svg PUBLIC "-//W3C//DTD SVG 1.1//EN" "http://www.w3.org/Graphics/SVG/1.1/DTD/svg11.dtd">
<svg version="1.1" id="Layer_1" xmlns="http://www.w3.org/2000/svg" xmlns:xlink="http://www.w3.org/1999/xlink" x="0px" y="0px"
	 width="50px" height="50px" viewBox="0 0 50 50" enable-background="new 0 0 50 50" xml:space="preserve">
<g>
	<path fill="#FFFFFF" d="M40.894,15.649c0.036-0.248,0.056-0.5,0.056-0.756c0-4.238-4.961-7.673-11.08-7.673
		c-4.732,0-8.768,2.056-10.356,4.949c-1.022-0.462-2.191-0.723-3.435-0.723c-4.005,0-7.251,2.712-7.251,6.059
		c0,0.305,0.028,0.604,0.08,0.897C4.043,19.656,0.5,23.522,0.5,28.1c0,5.594,5.292,10.129,11.822,10.129
		c1.824,0,3.548-0.356,5.09-0.988c1.389,0.665,3.034,1.051,4.798,1.051c1.02,0,0.92,0.24,1.833,0.003l-5.286-19.995l26.682,13.564
		l-7.577,3.63c0,0,1.988,2.366,2.365,2.268c5.358-1.412,9.272-5.87,9.272-11.153C49.5,21.546,45.906,17.244,40.894,15.649z"/>
	<polygon fill="#FFFFFF" points="21.833,22.174 27.957,41.859 31.472,37.123 36.137,42.78 39.272,40.079 34.527,34.335 
		40.512,31.785 	"/>
</g>
</svg>
