<?xml version="1.0" encoding="utf-8"?>
<!-- Generator: Adobe Illustrator 16.0.0, SVG Export Plug-In . SVG Version: 6.00 Build 0)  -->
<!DOCTYPE svg PUBLIC "-//W3C//DTD SVG 1.1//EN" "http://www.w3.org/Graphics/SVG/1.1/DTD/svg11.dtd">
<svg version="1.1" id="Layer_1" xmlns="http://www.w3.org/2000/svg" xmlns:xlink="http://www.w3.org/1999/xlink" x="0px" y="0px"
	 width="50px" height="50px" viewBox="0 0 50 50" enable-background="new 0 0 50 50" xml:space="preserve">
<g>
	<path fill-rule="evenodd" clip-rule="evenodd" fill="#FFFFFF" d="M32.171,14.567c0.99-1.085,1.967-2.153,2.93-3.206
		c7.643,4.054,11.891,13.788,9.786,22.291C42.571,43.014,34.419,49.5,24.97,49.5c-9.227,0-17.596-6.466-19.772-15.277
		c-2.249-9.108,1.752-18.642,9.651-22.865c0.963,1.052,1.943,2.121,2.933,3.202c-9.006,5.139-9.919,14.028-8.034,19.591
		c2.244,6.621,8.367,10.958,15.453,10.906c6.805-0.052,12.876-4.517,15.038-11C42.129,28.375,40.915,19.498,32.171,14.567z"/>
	<path fill-rule="evenodd" clip-rule="evenodd" fill="#FFFFFF" d="M20.43,6.368c3.102,0,6.013,0,9.095,0
		c-1.509,4.142-2.982,8.189-4.547,12.482C23.417,14.577,21.954,10.551,20.43,6.368z"/>
	<path fill-rule="evenodd" clip-rule="evenodd" fill="#FFFFFF" d="M37.167,6.323c-3.166,3.477-6.107,6.706-9.051,9.938
		c-0.062-0.036-0.126-0.065-0.189-0.095c0.248-0.708,0.487-1.418,0.743-2.123c0.836-2.293,1.654-4.596,2.541-6.872
		c0.134-0.346,0.579-0.793,0.901-0.81C33.679,6.277,35.257,6.323,37.167,6.323z"/>
	<path fill-rule="evenodd" clip-rule="evenodd" fill="#FFFFFF" d="M12.791,6.323c1.895,0,3.433-0.023,4.971,0.02
		c0.296,0.006,0.766,0.19,0.849,0.41c1.178,3.119,2.303,6.257,3.25,9.511C18.908,13.029,15.955,9.794,12.791,6.323z"/>
	<path fill-rule="evenodd" clip-rule="evenodd" fill="#FFFFFF" d="M21.307,4.363c1.344-1.276,2.514-2.384,3.705-3.511
		c1.084,1.098,2.233,2.257,3.471,3.511C26.135,4.363,23.862,4.363,21.307,4.363z"/>
	<path fill-rule="evenodd" clip-rule="evenodd" fill="#FFFFFF" d="M19.021,3.428c-0.516-0.68-1.292-1.701-2.18-2.87
		c1.925,0,3.689,0,5.464,0C21.235,1.494,20.139,2.449,19.021,3.428z"/>
	<path fill-rule="evenodd" clip-rule="evenodd" fill="#FFFFFF" d="M27.371,0.5c1.986,0,3.698,0,5.632,0
		c-0.86,1.16-1.616,2.176-2.338,3.148C29.587,2.617,28.571,1.647,27.371,0.5z"/>
	<path fill-rule="evenodd" clip-rule="evenodd" fill="#FFFFFF" d="M34.745,1.235c0.817,1.075,1.561,2.05,2.405,3.16
		c-1.642,0-3.099,0-4.753,0C33.203,3.311,33.93,2.33,34.745,1.235z"/>
	<path fill-rule="evenodd" clip-rule="evenodd" fill="#FFFFFF" d="M12.797,4.37c0.786-1.069,1.497-2.031,2.28-3.093
		c0.803,1.046,1.531,2.001,2.366,3.093C15.866,4.37,14.444,4.37,12.797,4.37z"/>
</g>
</svg>
