<?xml version="1.0" encoding="utf-8"?>
<!-- Generator: Adobe Illustrator 16.0.0, SVG Export Plug-In . SVG Version: 6.00 Build 0)  -->
<!DOCTYPE svg PUBLIC "-//W3C//DTD SVG 1.1//EN" "http://www.w3.org/Graphics/SVG/1.1/DTD/svg11.dtd">
<svg version="1.1" id="Layer_1" xmlns="http://www.w3.org/2000/svg" xmlns:xlink="http://www.w3.org/1999/xlink" x="0px" y="0px"
	 width="50px" height="50px" viewBox="0 0 50 50" enable-background="new 0 0 50 50" xml:space="preserve">
<g>
	<g>
		<path fill="#FFFFFF" d="M34.066,2.485h-5.896c0.116-0.344,0.316-0.94,0.393-1.274C28.677,0.724,28.602,0.5,27.518,0.5
			c-1.086,0-1.423,0.298-1.235,0.673c0.141,0.28,0.342,0.975,0.435,1.312h-5.712c0,0-1.869,0.336-2.097,2.132h17.216
			C36.124,4.617,35.563,2.596,34.066,2.485z"/>
		<path fill="#FFFFFF" d="M18.871,6.361c0,0,0,5.015,0,6.024s0.375,2.283,2.245,2.283c1.872,0,11.079-0.074,12.8-0.074
			c1.723,0,2.246-0.936,2.246-2.62c0-1.685-0.076-5.614-0.076-5.614s0.9-0.149,1.274,0.149c0.374,0.3,0.823,0.711,1.271,0.711
			c0.449,0,0.784-0.373,0.784-0.787c0-0.412-0.034-0.973-0.635-1.01c-0.598-0.037-21.556,0.037-22.08,0.037
			s-1.011,0.037-0.972,0.824c0.036,0.786,0.261,0.972,0.822,0.899c0.561-0.076,0.674-0.487,1.012-0.638
			C17.9,6.398,18.535,6.361,18.871,6.361z"/>
	</g>
	<g>
		<path fill="#FFFFFF" d="M6.019,49.5h37.963V24.075H6.019V49.5z M11.831,27.951h26.225v4.105H11.831V27.951z M11.831,34.221h26.225
			v10.719H11.831V34.221z"/>
		<path fill="#FFFFFF" d="M6.019,16.551v6.386h37.963v-6.386H6.019z M17.648,20.998H9.212v-2.395h8.437V20.998z M26.541,21.568
			c-1.008,0-1.825-0.817-1.825-1.824c0-1.008,0.817-1.824,1.825-1.824c1.006,0,1.823,0.816,1.823,1.824
			C28.364,20.751,27.547,21.568,26.541,21.568z M35.432,21.568c-1.008,0-1.824-0.817-1.824-1.824c0-1.008,0.816-1.824,1.824-1.824
			c1.009,0,1.824,0.816,1.824,1.824C37.256,20.751,36.44,21.568,35.432,21.568z"/>
	</g>
</g>
</svg>
