<?xml version="1.0" encoding="utf-8"?>
<!-- Generator: Adobe Illustrator 16.0.0, SVG Export Plug-In . SVG Version: 6.00 Build 0)  -->
<!DOCTYPE svg PUBLIC "-//W3C//DTD SVG 1.1//EN" "http://www.w3.org/Graphics/SVG/1.1/DTD/svg11.dtd">
<svg version="1.1" id="Layer_1" xmlns="http://www.w3.org/2000/svg" xmlns:xlink="http://www.w3.org/1999/xlink" x="0px" y="0px"
	 width="50px" height="50px" viewBox="0 0 50 50" enable-background="new 0 0 50 50" xml:space="preserve">
<g>
	<path fill-rule="evenodd" clip-rule="evenodd" fill="#FFFFFF" d="M25.055,37.06c0.239-3.48,1.182-4.594,4.786-5.738
		c-0.323-1.648-0.323-1.648-1.989-1.648c-5.014,0-10.029,0-15.042,0c-0.434,0-0.864,0-1.408,0c0-1.191,0.015-2.252-0.003-3.311
		c-0.021-1.212-0.552-1.787-1.745-1.801c-2.211-0.028-4.423-0.01-6.636-0.006c-0.876,0-1.646,0.375-1.679,1.263
		c-0.093,2.375-0.032,4.755-0.032,7.365c1.89-1.667,3.848-2.327,6.02-1.298c2.107,0.996,3.077,2.765,2.956,5.174
		C15.208,37.06,20.091,37.06,25.055,37.06z"/>
	<path fill-rule="evenodd" clip-rule="evenodd" fill="#FFFFFF" d="M12.467,26.189c0,0.838,0,1.817,0,2.848c2.688,0,5.319,0,7.948,0
		c0.117-1.589-0.734-2.57-2.27-2.6c-1.508-0.029-3.018,0.009-4.526-0.019C13.23,26.413,12.844,26.269,12.467,26.189z"/>
	<path fill-rule="evenodd" clip-rule="evenodd" fill="#FFFFFF" d="M5.593,23.995c0.39,0,0.702,0,1.114,0c0-0.925,0-1.824,0-2.722
		c0.068-0.011,0.137-0.021,0.203-0.033c0.199,0.608,0.437,1.205,0.585,1.825c0.182,0.765,0.593,1.338,1.42,1.261
		c0.883-0.083,2.672,0.627,3.709,1.225c-0.573-1.644-2.143-5.05-2.903-6.896c-0.429-1.046-1.539-1.121-3.023-0.354
		c0-2.496-0.052-4.288,0.025-6.739c0.036-1.132,0.751-1.653,1.935-1.657c3.835-0.009,7.667-0.003,11.502-0.002
		c1.581,0,1.994,0.304,2.503,1.909c1.199,3.785,2.388,6.91,3.578,10.696c0.375,1.193,0.745,2.385,1.142,3.648
		c-0.282,0.209-0.789,0.615-1.135,0.872c-1.18-1.295-2.313-2.538-3.521-3.864c0.479-0.451,1.166-1.058,1.595-1.498
		c0.505-0.515,0.713-0.958,0.445-1.275c-0.209-0.248-0.413-0.11-0.45-0.141l-5.029,4.611c-0.099,0.134,0.045,0.348,0.102,0.419
		c0.265,0.328,0.866,0.165,1.426-0.351c0.321-0.298,0.912-0.752,1.354-1.144c1.144,1.26,2.269,2.499,3.401,3.747
		c-0.384,0.439-0.998,1.012-1.482,1.566c2.038,0,3.894,0,5.718,0c0.117,0.163,0.212,0.239,0.233,0.333
		c0.287,1.275,0.791,2.255,2.297,2.527c0.648,0.116,1.197,0.781,1.91,1.281c0-1.561,0.047-3.084-0.039-4.6
		c-0.017-0.304-0.497-0.659-0.842-0.842c-0.296-0.157-0.705-0.102-1.106-0.145c0-0.034,0-0.064,0-0.097c0-0.558,0-0.756,0-0.764
		c0-0.048,0-0.096,0-0.149c5.763,0,11.469,0,17.175,0c0.022-0.159,0.046-0.315,0.068-0.475c-1.218-0.254-2.433-0.704-3.654-0.729
		c-4.492-0.088-8.985-0.034-13.608-0.034c0-3.249,0-12.209,0-15.466c-0.92,0-1.714,0-2.702,0c0,0.094,0,0.138,0,0.157
		c0,0.011,0,0.015,0,0.015c0,0.021,0,0.071,0,0.179c0,5.456,0.006,10.912-0.015,16.368c-0.001,0.348-0.209,0.695-0.318,1.043
		c-0.219-0.294-0.536-0.556-0.643-0.884c-1.794-5.563-3.558-10.473-5.34-16.041c-0.604-1.888-0.99-2.162-2.916-2.162
		c-4.057-0.001-8.111-0.002-12.166,0.002C6.239,8.621,5.6,9.24,5.597,11.121C5.586,15.613,5.593,19.44,5.593,23.995z M30.5,10.509
		c0.101-0.055,0.768-0.236,0.773,0.019c0.038,2.132,0.038,14.417,0,16.551c-0.003,0.247-0.209,0.046-0.373,0.287
		c-0.102-0.056-0.301,0.331-0.4,0.275V10.509z"/>
	<path fill-rule="evenodd" clip-rule="evenodd" fill="#FFFFFF" d="M23.104,16.64c0.164-0.784-0.11-2.729-0.767-3.147
		c-0.249-0.157-0.989,0.237-1.017,0.541c-0.07,0.746,0.925,2.475,1.301,3.004C22.715,17.169,23.006,17.106,23.104,16.64z"/>
	<polygon fill-rule="evenodd" clip-rule="evenodd" fill="#FFFFFF" points="22.632,14.434 24.568,15.041 24.68,15.648 23.075,15.76 	
		"/>
	<g>
		<path fill="#FFFFFF" d="M33.13,11.059v13.966h15.325V11.059H33.13z M34.593,12.777h12.399v10.529H34.593V12.777z"/>
		<polygon fill="#FFFFFF" points="47.41,13.563 36.335,23.837 34.42,23.88 34.106,22.522 45.703,12.035 47.618,12.077 		"/>
		<rect x="34.036" y="15.049" fill="#FFFFFF" width="13.305" height="0.637"/>
		<rect x="34.036" y="17.554" fill="#FFFFFF" width="13.305" height="0.638"/>
		<rect x="34.036" y="20.441" fill="#FFFFFF" width="13.305" height="0.636"/>
	</g>
	<path fill-rule="evenodd" clip-rule="evenodd" fill="#FFFFFF" d="M30.244,32.229c-2.527,0-4.577,2.049-4.577,4.578
		c0,2.526,2.05,4.577,4.577,4.577s4.577-2.051,4.577-4.577C34.821,34.277,32.771,32.229,30.244,32.229z M30.341,39.034
		c-1.268,0.036-2.29-0.898-2.33-2.125c-0.039-1.185,0.986-2.285,2.17-2.332c1.209-0.047,2.253,0.939,2.297,2.169
		C32.523,38.015,31.602,38.998,30.341,39.034z"/>
	<path fill-rule="evenodd" clip-rule="evenodd" fill="#FFFFFF" d="M5.077,32.229c-2.527,0-4.577,2.049-4.577,4.578
		c0,2.526,2.05,4.577,4.577,4.577s4.577-2.051,4.577-4.577C9.654,34.277,7.604,32.229,5.077,32.229z M5.174,39.034
		c-1.268,0.036-2.29-0.898-2.33-2.125c-0.038-1.185,0.986-2.285,2.17-2.332c1.209-0.047,2.253,0.939,2.297,2.169
		C7.357,38.015,6.435,38.998,5.174,39.034z"/>
</g>
</svg>
