<?xml version="1.0" encoding="utf-8"?>
<!-- Generator: Adobe Illustrator 16.0.0, SVG Export Plug-In . SVG Version: 6.00 Build 0)  -->
<!DOCTYPE svg PUBLIC "-//W3C//DTD SVG 1.1//EN" "http://www.w3.org/Graphics/SVG/1.1/DTD/svg11.dtd">
<svg version="1.1" id="Layer_1" xmlns="http://www.w3.org/2000/svg" xmlns:xlink="http://www.w3.org/1999/xlink" x="0px" y="0px"
	 width="50px" height="50px" viewBox="0 0 50 50" enable-background="new 0 0 50 50" xml:space="preserve">
<path fill="#FFFFFF" d="M43.151,17.736h-2.547C40.355,8.168,33.536,0.5,25.154,0.5c-8.381,0-15.199,7.668-15.45,17.236H6.849
	c-1.012,0-1.831,0.653-1.831,1.457v28.854c0,0.803,0.819,1.453,1.831,1.453h36.303c1.011,0,1.831-0.65,1.831-1.453V19.193
	C44.982,18.39,44.162,17.736,43.151,17.736z M25.154,6.461c5.518,0,10.018,5.002,10.265,11.275H14.89
	C15.135,11.463,19.638,6.461,25.154,6.461z M27.129,38.839v3.859c0,1.124-0.863,2.036-1.926,2.036h-0.406
	c-1.064,0-1.924-0.912-1.924-2.036v-3.859c-1.362-0.795-2.285-2.326-2.285-4.088c0-2.575,1.976-4.663,4.411-4.663
	c2.438,0,4.415,2.088,4.415,4.663C29.414,36.513,28.489,38.044,27.129,38.839z"/>
</svg>
