<?xml version="1.0" encoding="utf-8"?>
<!-- Generator: Adobe Illustrator 16.0.0, SVG Export Plug-In . SVG Version: 6.00 Build 0)  -->
<!DOCTYPE svg PUBLIC "-//W3C//DTD SVG 1.1//EN" "http://www.w3.org/Graphics/SVG/1.1/DTD/svg11.dtd">
<svg version="1.1" id="Layer_1" xmlns="http://www.w3.org/2000/svg" xmlns:xlink="http://www.w3.org/1999/xlink" x="0px" y="0px"
	 width="50px" height="50px" viewBox="0 0 50 50" enable-background="new 0 0 50 50" xml:space="preserve">
<g>
	<path fill-rule="evenodd" clip-rule="evenodd" fill="#FFFFFF" d="M49.497,16.725c-16.326,0-32.654,0-48.981,0
		c0-1.183,0-1.196,0-2.377c0.603-1.475,1.79-1.923,3.245-1.922c3.969,0.002,7.938,0.001,12.063,0.001c0-1.561-0.002-3.061,0-4.562
		c0.005-1.62,0.558-2.049,2.17-2.181c5.385-0.441,10.278-0.387,14.537,0c1.616,0.146,2.129,0.534,2.134,2.201
		c0.004,1.467,0,2.936,0,4.541c0.503,0,0.893,0,1.28,0c3.315,0.001,6.633,0.022,9.948-0.008c1.746-0.018,3.047,0.573,3.604,2.373
		C49.497,15.824,49.497,15.69,49.497,16.725z M18.795,12.328c4.13,0,8.961,0,12.949,0c0-1.145,0-3.193,0-4.216
		c-3.599-0.533-9.112-0.606-12.949,0C18.795,9.222,18.795,11.243,18.795,12.328z"/>
	<g>
		<path fill-rule="evenodd" clip-rule="evenodd" fill="#FFFFFF" d="M27.602,22.835c-1.817,0-3.447,0-5.255,0c0,1.821,0,3.554,0,5.47
			c-1.957,0-3.739,0-5.542,0c0,1.865,0,3.542,0,5.412c1.872,0,3.648,0,5.605,0c0,1.922,0,3.65,0,5.421c1.819,0,3.445,0,5.307,0
			c0-1.847,0-3.618,0-5.474c1.934,0,3.633,0,5.48,0c0-1.888,0-3.562,0-5.446c-1.871,0-3.644,0-5.596,0
			C27.602,26.282,27.602,24.556,27.602,22.835z"/>
		<path fill-rule="evenodd" clip-rule="evenodd" fill="#FFFFFF" d="M49.497,17.348H0.505c0,0.014-0.005,0.025-0.005,0.04v24.702
			c0,1.401,1.138,2.538,2.538,2.538h43.926c1.399,0,2.536-1.137,2.536-2.538V17.387C49.5,17.373,49.497,17.361,49.497,17.348z
			 M25,41.833c-5.988,0-10.845-4.856-10.845-10.846c0-5.991,4.856-10.846,10.845-10.846c5.99,0,10.847,4.855,10.847,10.846
			C35.847,36.977,30.99,41.833,25,41.833z"/>
	</g>
</g>
</svg>
