<?xml version="1.0" encoding="utf-8"?>
<!-- Generator: Adobe Illustrator 16.0.0, SVG Export Plug-In . SVG Version: 6.00 Build 0)  -->
<!DOCTYPE svg PUBLIC "-//W3C//DTD SVG 1.1//EN" "http://www.w3.org/Graphics/SVG/1.1/DTD/svg11.dtd">
<svg version="1.1" id="Layer_1" xmlns="http://www.w3.org/2000/svg" xmlns:xlink="http://www.w3.org/1999/xlink" x="0px" y="0px"
	 width="50px" height="50px" viewBox="0 0 50 50" enable-background="new 0 0 50 50" xml:space="preserve">
<g>
	<path fill="#FFFFFF" d="M35.836,7.878l-14.054,3.591l3.911,15.307l14.054-3.59c4.158-1.062,6.666-5.294,5.604-9.452l-0.064-0.251
		C44.225,9.325,39.993,6.815,35.836,7.878z M32.412,10.621c5.464-1.674,7.614-0.681,9.608,0.989
		C38.923,10.463,35.312,10.229,32.412,10.621z"/>
	<path fill="#FFFFFF" d="M6.349,15.412c-4.158,1.063-6.667,5.294-5.605,9.453l0.064,0.25c1.062,4.158,5.293,6.669,9.452,5.606
		l14.053-3.591l-3.911-15.31L6.349,15.412z M12.761,27.101c-3.174,0.737-4.358,0.088-5.427-0.941
		C9.051,26.933,11.096,27.21,12.761,27.101z M3.9,26.738c3.011,1.361,6.597,1.846,9.517,1.654C7.85,29.685,5.774,28.545,3.9,26.738z
		"/>
	<g>
		<path fill="#FFFFFF" d="M34.242,38.212c-6.986,0-12.949-1.555-15.305-3.742c-0.004,0.003-0.007,0.006-0.012,0.013v4.132
			c2.349,2.192,8.318,3.752,15.316,3.752c6.941,0,12.87-1.532,15.258-3.697v-4.158C47.112,36.676,41.185,38.212,34.242,38.212z"/>
		<path fill="#FFFFFF" d="M34.242,28.297c-6.787,0-12.521,1.325-14.383,3.146H48.61v0.594H19.4
			c-0.116,0.222-0.178,0.449-0.178,0.682c0,2.442,6.725,4.423,15.02,4.423c8.296,0,15.021-1.98,15.021-4.423
			C49.263,30.275,42.538,28.297,34.242,28.297z"/>
	</g>
</g>
</svg>
