<?xml version="1.0" encoding="utf-8"?>
<!-- Generator: Adobe Illustrator 16.0.0, SVG Export Plug-In . SVG Version: 6.00 Build 0)  -->
<!DOCTYPE svg PUBLIC "-//W3C//DTD SVG 1.1//EN" "http://www.w3.org/Graphics/SVG/1.1/DTD/svg11.dtd">
<svg version="1.1" id="Layer_1" xmlns="http://www.w3.org/2000/svg" xmlns:xlink="http://www.w3.org/1999/xlink" x="0px" y="0px"
	 width="50px" height="50px" viewBox="0 0 50 50" enable-background="new 0 0 50 50" xml:space="preserve">
<path fill="#FFFFFF" d="M31.849,10.264c-0.547-1.124-0.883-3.004-0.883-4.33c0-0.016,0-0.03,0.001-0.044
	c1.074-0.002,1.942-0.874,1.942-1.947V2.447c0-1.076-0.872-1.947-1.947-1.947H18.949c-1.075,0-1.946,0.871-1.946,1.947v1.496
	c0,1.071,0.865,1.939,1.934,1.947c0.005,0.073,0.01,0.146,0.01,0.221c0,1.149,0.092,3.093-0.528,4.065
	c-4.685,7.334-4.861,7.235-4.861,9.344c0,6.692,0,27.499,0,27.499c0,1.37,1.111,2.481,2.482,2.481h17.924
	c1.369,0,2.48-1.111,2.48-2.481c0,0,0-20.807,0-27.499C36.443,17.361,33.527,13.71,31.849,10.264z M16.21,35.015h1.426v1.539H16.21
	V35.015z M24.246,39.662H17.92l6.326,1.595v1.563l-6.326,1.589h6.326v1.507H16.21v-2.428l5.48-1.458l-5.48-1.44v-2.435h8.036V39.662
	z M24.246,36.554h-5.82v-1.539h5.82V36.554z M24.246,33.436H16.21v-1.54h8.036V33.436z M24.246,26.651l-2.614,1.463l0.751,0.719
	h1.863v1.539H16.21v-1.539h4.264l-2.048-1.804v-1.896l2.126,1.989l3.694-2.132V26.651z M32.732,46.054h-1.414V24.227h1.414V46.054z"
	/>
</svg>
