<?xml version="1.0" encoding="utf-8"?>
<!-- Generator: Adobe Illustrator 16.0.0, SVG Export Plug-In . SVG Version: 6.00 Build 0)  -->
<!DOCTYPE svg PUBLIC "-//W3C//DTD SVG 1.1//EN" "http://www.w3.org/Graphics/SVG/1.1/DTD/svg11.dtd">
<svg version="1.1" id="Layer_1" xmlns="http://www.w3.org/2000/svg" xmlns:xlink="http://www.w3.org/1999/xlink" x="0px" y="0px"
	 width="50px" height="50px" viewBox="0 0 50 50" enable-background="new 0 0 50 50" xml:space="preserve">
<g>
	<path fill="#FFFFFF" d="M35.116,0.5H14.884c-1.332,0-2.411,1.059-2.411,2.368v44.264c0,1.308,1.079,2.368,2.411,2.368h20.232
		c1.332,0,2.411-1.061,2.411-2.368V2.868C37.527,1.559,36.448,0.5,35.116,0.5z M22.651,2.158h4.697c0.33,0,0.599,0.268,0.599,0.6
		c0,0.33-0.269,0.597-0.599,0.597h-4.697c-0.332,0-0.599-0.267-0.599-0.597C22.053,2.426,22.319,2.158,22.651,2.158z M24.999,48.303
		c-0.966,0-1.749-0.784-1.749-1.751s0.783-1.75,1.749-1.75c0.968,0,1.751,0.783,1.751,1.75S25.967,48.303,24.999,48.303z
		 M36.237,43.808H13.762V4.567h22.476V43.808z"/>
	<path fill="#FFFFFF" d="M16.755,12.744h3.073c0.389,0,0.704-0.315,0.704-0.705V8.794c0-0.389-0.315-0.704-0.704-0.704h-3.073
		c-0.389,0-0.705,0.315-0.705,0.704v3.246C16.05,12.429,16.366,12.744,16.755,12.744z"/>
	<path fill="#FFFFFF" d="M23.226,12.744h3.073c0.388,0,0.704-0.315,0.704-0.705V8.794c0-0.389-0.316-0.704-0.704-0.704h-3.073
		c-0.39,0-0.704,0.315-0.704,0.704v3.246C22.521,12.429,22.836,12.744,23.226,12.744z"/>
	<path fill="#FFFFFF" d="M29.695,12.744h3.073c0.39,0,0.705-0.315,0.705-0.705V8.794c0-0.389-0.315-0.704-0.705-0.704h-3.073
		c-0.389,0-0.704,0.315-0.704,0.704v3.246C28.991,12.429,29.307,12.744,29.695,12.744z"/>
	<path fill="#FFFFFF" d="M16.755,20.61h3.073c0.389,0,0.704-0.315,0.704-0.704v-3.246c0-0.39-0.315-0.704-0.704-0.704h-3.073
		c-0.389,0-0.705,0.314-0.705,0.704v3.246C16.05,20.295,16.366,20.61,16.755,20.61z"/>
	<path fill="#FFFFFF" d="M23.226,20.61h3.073c0.388,0,0.704-0.315,0.704-0.704v-3.246c0-0.39-0.316-0.704-0.704-0.704h-3.073
		c-0.39,0-0.704,0.314-0.704,0.704v3.246C22.521,20.295,22.836,20.61,23.226,20.61z"/>
	<path fill="#FFFFFF" d="M29.695,20.61h3.073c0.39,0,0.705-0.315,0.705-0.704v-3.246c0-0.39-0.315-0.704-0.705-0.704h-3.073
		c-0.389,0-0.704,0.314-0.704,0.704v3.246C28.991,20.295,29.307,20.61,29.695,20.61z"/>
	<path fill="#FFFFFF" d="M16.755,28.478h3.073c0.389,0,0.704-0.315,0.704-0.705v-3.245c0-0.39-0.315-0.704-0.704-0.704h-3.073
		c-0.389,0-0.705,0.314-0.705,0.704v3.245C16.05,28.162,16.366,28.478,16.755,28.478z"/>
	<path fill="#FFFFFF" d="M23.226,28.478h3.073c0.388,0,0.704-0.315,0.704-0.705v-3.245c0-0.39-0.316-0.704-0.704-0.704h-3.073
		c-0.39,0-0.704,0.314-0.704,0.704v3.245C22.521,28.162,22.836,28.478,23.226,28.478z"/>
	<path fill="#FFFFFF" d="M29.695,28.478h3.073c0.39,0,0.705-0.315,0.705-0.705v-3.245c0-0.39-0.315-0.704-0.705-0.704h-3.073
		c-0.389,0-0.704,0.314-0.704,0.704v3.245C28.991,28.162,29.307,28.478,29.695,28.478z"/>
	<path fill="#FFFFFF" d="M16.755,36.344h3.073c0.389,0,0.704-0.315,0.704-0.704v-3.246c0-0.389-0.315-0.704-0.704-0.704h-3.073
		c-0.389,0-0.705,0.315-0.705,0.704v3.246C16.05,36.028,16.366,36.344,16.755,36.344z"/>
	<path fill="#FFFFFF" d="M23.226,36.344h3.073c0.388,0,0.704-0.315,0.704-0.704v-3.246c0-0.389-0.316-0.704-0.704-0.704h-3.073
		c-0.39,0-0.704,0.315-0.704,0.704v3.246C22.521,36.028,22.836,36.344,23.226,36.344z"/>
	<path fill="#FFFFFF" d="M29.695,36.344h3.073c0.39,0,0.705-0.315,0.705-0.704v-3.246c0-0.389-0.315-0.704-0.705-0.704h-3.073
		c-0.389,0-0.704,0.315-0.704,0.704v3.246C28.991,36.028,29.307,36.344,29.695,36.344z"/>
</g>
</svg>
