<?xml version="1.0" encoding="utf-8"?>
<!-- Generator: Adobe Illustrator 16.0.0, SVG Export Plug-In . SVG Version: 6.00 Build 0)  -->
<!DOCTYPE svg PUBLIC "-//W3C//DTD SVG 1.1//EN" "http://www.w3.org/Graphics/SVG/1.1/DTD/svg11.dtd">
<svg version="1.1" id="Layer_1" xmlns="http://www.w3.org/2000/svg" xmlns:xlink="http://www.w3.org/1999/xlink" x="0px" y="0px"
	 width="50px" height="50px" viewBox="0 0 50 50" enable-background="new 0 0 50 50" xml:space="preserve">
<g>
	<path fill="#FFFFFF" d="M49.342,13.912C48.723,13.468,20.369,2.417,20.369,2.417l-2.454,6.212L8.413,6.743L0.5,47.583
		l47.405-31.813c0,0,1.284-0.765,1.341-1.071C49.484,14.426,49.628,14.118,49.342,13.912z M42.457,17.817l-30.603-5.759
		L6.141,42.345l-1.561,0.873l5.978-31.405l-2.37-0.446l0.242-1.291l2.376,0.449l0.499-2.631l1.291,0.241l-0.497,2.635l31.961,6.031
		L42.457,17.817z M47.32,14.463L19.912,9.026l0.893-2.439l25.614,7.459c0,0,0.678,0.149,1.283,0.386
		C47.494,14.448,47.32,14.463,47.32,14.463z"/>
</g>
</svg>
