<?xml version="1.0" encoding="utf-8"?>
<!-- Generator: Adobe Illustrator 16.0.0, SVG Export Plug-In . SVG Version: 6.00 Build 0)  -->
<!DOCTYPE svg PUBLIC "-//W3C//DTD SVG 1.1//EN" "http://www.w3.org/Graphics/SVG/1.1/DTD/svg11.dtd">
<svg version="1.1" id="Layer_1" xmlns="http://www.w3.org/2000/svg" xmlns:xlink="http://www.w3.org/1999/xlink" x="0px" y="0px"
	 width="50px" height="50px" viewBox="0 0 50 50" enable-background="new 0 0 50 50" xml:space="preserve">
<g>
	<path fill="#FFFFFF" d="M41.146,8.926l6.741,19.921c0,0,0.109,0.509-1.404,0.984c-1.238,0.393-1.454-0.018-1.454-0.018
		l-6.74-19.921l-2.237,0.756l6.746,19.939c0.3,0.886,2.033,1.1,3.872,0.479c1.839-0.623,3.085-1.845,2.786-2.73L42.71,8.396
		L41.146,8.926z"/>
	
		<rect x="39.19" y="8.762" transform="matrix(-0.9472 0.3205 -0.3205 -0.9472 82.8562 5.2435)" fill="#FFFFFF" width="3.613" height="1.359"/>
	<path fill="#FFFFFF" d="M37.212,7.062L0.5,19.729c0,0,6.278,19.588,6.854,21.069c0.578,1.479,1.735,2.718,4.383,1.857
		c2.648-0.862,33.771-11.307,33.771-11.307L37.212,7.062z M30.245,17.217c-0.1-0.065-0.252-0.1-0.451-0.107
		c-0.137-0.001-0.439,0.012-0.91,0.046c-0.604,0.043-1.056-0.001-1.351-0.138c-0.416-0.19-0.697-0.5-0.84-0.926
		c-0.094-0.273-0.106-0.558-0.04-0.846c0.067-0.29,0.221-0.544,0.457-0.764s0.553-0.397,0.948-0.531
		c0.645-0.217,1.18-0.233,1.606-0.046c0.427,0.187,0.731,0.524,0.916,1.015l-1.021,0.398c-0.139-0.262-0.301-0.43-0.487-0.501
		c-0.188-0.073-0.428-0.06-0.719,0.04c-0.303,0.101-0.517,0.247-0.643,0.434c-0.082,0.121-0.099,0.251-0.052,0.391
		c0.043,0.127,0.131,0.22,0.266,0.275c0.169,0.071,0.527,0.083,1.074,0.039c0.548-0.046,0.966-0.043,1.251,0.01
		c0.288,0.051,0.539,0.169,0.754,0.355c0.216,0.186,0.381,0.449,0.497,0.791c0.104,0.309,0.12,0.626,0.047,0.952
		c-0.071,0.326-0.235,0.605-0.49,0.836c-0.254,0.232-0.604,0.424-1.052,0.575c-0.648,0.22-1.201,0.23-1.655,0.033
		c-0.454-0.198-0.819-0.586-1.091-1.167l0.974-0.446c0.183,0.335,0.395,0.556,0.637,0.66c0.241,0.104,0.52,0.103,0.837-0.004
		c0.333-0.113,0.561-0.272,0.68-0.478c0.119-0.207,0.145-0.409,0.077-0.608C30.421,17.38,30.348,17.282,30.245,17.217z
		 M20.082,16.753l2.028,3.446l-0.314-4.025l1.232-0.417l2.176,3.466l-0.484-4.037l1.043-0.354l0.578,5.82l-1.099,0.371l-2.389-3.688
		l0.345,4.379l-1.125,0.38l-3.053-4.98L20.082,16.753z M14.729,18.565l3.81-1.29l0.309,0.914l-2.771,0.938l0.404,1.195l2.579-0.872
		l0.308,0.909l-2.579,0.873l0.496,1.468l2.871-0.97l0.308,0.908l-3.907,1.322L14.729,18.565z M9.556,20.315l1.009-0.342l3.321,2.892
		l-1.219-3.603l0.965-0.327l1.825,5.397l-1.039,0.351l-3.264-2.816l1.19,3.518l-0.964,0.327L9.556,20.315z M3.599,23.739l4.07-1.376
		l0.271,0.803l-4.07,1.376L3.599,23.739z M4.367,26.013l4.071-1.378l0.271,0.803l-4.071,1.378L4.367,26.013z M26.839,35.016
		l-16.794,5.683l-0.182-0.534l16.795-5.683L26.839,35.016z M26.093,32.81L9.298,38.492l-0.181-0.534l16.795-5.682L26.093,32.81z
		 M25.235,30.272L8.44,35.955L8.258,35.42l16.796-5.683L25.235,30.272z M24.488,28.066L7.694,33.749l-0.182-0.535l16.795-5.683
		L24.488,28.066z M42.229,30.628l-11.705,3.961l-2.984-8.821l11.705-3.96L42.229,30.628z M39.121,19.764L6.04,30.956l-0.271-0.8
		l33.082-11.193L39.121,19.764z M37.72,15.622l-4.071,1.376l-0.271-0.801l4.07-1.378L37.72,15.622z M36.951,13.351l-4.072,1.376
		l-0.271-0.803l4.071-1.376L36.951,13.351z"/>
</g>
</svg>
