<?xml version="1.0" encoding="utf-8"?>
<!-- Generator: Adobe Illustrator 16.0.0, SVG Export Plug-In . SVG Version: 6.00 Build 0)  -->
<!DOCTYPE svg PUBLIC "-//W3C//DTD SVG 1.1//EN" "http://www.w3.org/Graphics/SVG/1.1/DTD/svg11.dtd">
<svg version="1.1" id="Layer_1" xmlns="http://www.w3.org/2000/svg" xmlns:xlink="http://www.w3.org/1999/xlink" x="0px" y="0px"
	 width="50px" height="50px" viewBox="0 0 50 50" enable-background="new 0 0 50 50" xml:space="preserve">
<g>
	<path fill="#FFFFFF" d="M25.271,17.731c-2.852,0-5.173-2.509-5.173-5.593s2.321-5.592,5.173-5.592c2.853,0,5.174,2.508,5.174,5.592
		S28.123,17.731,25.271,17.731z M25.271,7.317c-2.428,0-4.401,2.162-4.401,4.821c0,2.659,1.974,4.822,4.401,4.822
		s4.402-2.163,4.402-4.822C29.673,9.479,27.698,7.317,25.271,7.317z"/>
	<path fill="#FFFFFF" d="M35.216,26.75H15.399c0,0,1.213-9.466,9.721-9.255C33.629,17.705,35.216,26.75,35.216,26.75z"/>
	<path fill="#FFFFFF" d="M23.909,17.95c0,0.281,0.69,1.125,0.69,1.125l-1.33,5.271l1.739,1.79l1.513-1.853l-1.077-5.157l0.559-1.117
		L23.909,17.95z"/>
	<rect x="2.257" y="47.193" fill="#FFFFFF" width="45.486" height="1.156"/>
	<rect x="3.883" y="46.068" fill="#FFFFFF" width="42.019" height="1.242"/>
	<polygon fill="#FFFFFF" points="0.612,29.801 5.613,26.396 6.127,26.523 2.026,29.801 	"/>
	<polygon fill="#FFFFFF" points="49.144,29.801 44.175,26.287 43.661,26.417 47.697,29.801 	"/>
	<g>
		<path fill="#FFFFFF" d="M7.738,18.643c0.141,0,0.257,0.115,0.257,0.257v9.317c0,0.143-0.116,0.258-0.257,0.258H5.987
			c-0.143,0-0.258-0.115-0.258-0.258V18.9c0-0.142,0.115-0.257,0.258-0.257H7.738z"/>
		<path fill="#FFFFFF" d="M10.597,18.643c0.143,0,0.258,0.115,0.258,0.257v9.317c0,0.143-0.115,0.258-0.258,0.258H8.846
			c-0.143,0-0.257-0.115-0.257-0.258V18.9c0-0.142,0.114-0.257,0.257-0.257H10.597z"/>
		<path fill="#FFFFFF" d="M13.456,18.643c0.142,0,0.257,0.115,0.257,0.257v9.317c0,0.143-0.115,0.258-0.257,0.258h-1.751
			c-0.143,0-0.257-0.115-0.257-0.258V18.9c0-0.142,0.114-0.257,0.257-0.257H13.456z"/>
	</g>
	<g>
		<path fill="#FFFFFF" d="M37.396,18.643c0.141,0,0.257,0.115,0.257,0.257v9.317c0,0.143-0.116,0.258-0.257,0.258h-1.752
			c-0.142,0-0.257-0.115-0.257-0.258V18.9c0-0.142,0.115-0.257,0.257-0.257H37.396z"/>
		<path fill="#FFFFFF" d="M40.255,18.643c0.143,0,0.258,0.115,0.258,0.257v9.317c0,0.143-0.115,0.258-0.258,0.258h-1.751
			c-0.143,0-0.257-0.115-0.257-0.258V18.9c0-0.142,0.114-0.257,0.257-0.257H40.255z"/>
		<path fill="#FFFFFF" d="M43.114,18.643c0.142,0,0.256,0.115,0.256,0.257v9.317c0,0.143-0.114,0.258-0.256,0.258h-1.751
			c-0.143,0-0.258-0.115-0.258-0.258V18.9c0-0.142,0.115-0.257,0.258-0.257H43.114z"/>
	</g>
	<path fill="#FFFFFF" d="M0.5,30.179v2.227h49v-2.227H0.5z M48.515,31.549c0,0.143-0.115,0.257-0.257,0.257H2.342
		c-0.142,0-0.257-0.114-0.257-0.257v-0.086c0-0.141,0.115-0.256,0.257-0.256h45.916c0.142,0,0.257,0.115,0.257,0.256V31.549z"/>
	<path fill="#FFFFFF" d="M5.126,31.98v15.934h39.748V31.98H5.126z M18.318,44.945c0,0.385-0.345,0.695-0.771,0.695h-7.71
		c-0.426,0-0.771-0.311-0.771-0.695v-9.08c0-0.385,0.346-0.695,0.771-0.695h7.71c0.426,0,0.771,0.311,0.771,0.695V44.945z
		 M22.333,45.111c0,0.338-0.308,0.613-0.686,0.613s-0.685-0.275-0.685-0.613v-9.328c0-0.338,0.307-0.613,0.685-0.613
		s0.686,0.275,0.686,0.613V45.111z M25.599,45.111c0,0.338-0.308,0.613-0.686,0.613c-0.379,0-0.686-0.275-0.686-0.613v-9.328
		c0-0.338,0.307-0.613,0.686-0.613c0.378,0,0.686,0.275,0.686,0.613V45.111z M28.863,45.111c0,0.338-0.306,0.613-0.686,0.613
		c-0.378,0-0.686-0.275-0.686-0.613v-9.328c0-0.338,0.308-0.613,0.686-0.613c0.38,0,0.686,0.275,0.686,0.613V45.111z M40.506,44.945
		c0,0.385-0.346,0.695-0.771,0.695h-7.71c-0.426,0-0.771-0.311-0.771-0.695v-9.08c0-0.385,0.345-0.695,0.771-0.695h7.71
		c0.426,0,0.771,0.311,0.771,0.695V44.945z"/>
	<g>
		<polygon fill="#FFFFFF" points="11.229,8.433 7.81,6.431 8.037,6.04 11.341,7.973 14.624,7.789 14.648,8.24 		"/>
		<circle fill="#FFFFFF" cx="11.285" cy="8.204" r="0.578"/>
		<path fill="#FFFFFF" d="M7.38,5.527L6.718,5.169L6.555,5.467l0.646,0.348C7.258,5.718,7.316,5.62,7.38,5.527z"/>
		<path fill="#FFFFFF" d="M9.204,3.96L8.837,3.315l-0.293,0.17l0.362,0.634C9.003,4.063,9.103,4.011,9.204,3.96z"/>
		<path fill="#FFFFFF" d="M11.285,3.435c0.057,0,0.112,0.007,0.17,0.009l0.002-0.748h-0.339l-0.003,0.748
			C11.172,3.441,11.228,3.435,11.285,3.435z"/>
		<path fill="#FFFFFF" d="M15.334,5.781l0.636-0.354l-0.164-0.296l-0.653,0.364C15.216,5.588,15.275,5.684,15.334,5.781z"/>
		<path fill="#FFFFFF" d="M13.58,4.047l0.354-0.648l-0.296-0.166l-0.362,0.662C13.378,3.944,13.481,3.992,13.58,4.047z"/>
		<path fill="#FFFFFF" d="M6.577,7.676L5.812,7.662v0.339l0.744,0.014C6.56,7.901,6.564,7.787,6.577,7.676z"/>
		<path fill="#FFFFFF" d="M8.722,12.118l-0.365,0.647l0.296,0.165l0.36-0.636C8.913,12.238,8.816,12.18,8.722,12.118z"/>
		<path fill="#FFFFFF" d="M15.479,10.322l0.635,0.354l0.163-0.297l-0.65-0.362C15.582,10.121,15.53,10.221,15.479,10.322z"/>
		<path fill="#FFFFFF" d="M15.964,7.676c0.013,0.111,0.016,0.225,0.021,0.339l0.729-0.006v-0.34L15.964,7.676z"/>
		<path fill="#FFFFFF" d="M11.271,12.912c-0.058,0-0.113-0.006-0.17-0.009l0.003,0.731h0.339l-0.003-0.731
			C11.384,12.906,11.327,12.912,11.271,12.912z"/>
		<path fill="#FFFFFF" d="M13.667,12.276l0.363,0.625l0.294-0.171l-0.368-0.634C13.862,12.162,13.766,12.219,13.667,12.276z"/>
		<path fill="#FFFFFF" d="M6.948,10.085l-0.652,0.359l0.165,0.296l0.635-0.349C7.043,10.292,6.992,10.19,6.948,10.085z"/>
		<path fill="#FFFFFF" d="M11.285,14.756c-3.613,0-6.553-2.939-6.553-6.553c0-3.614,2.939-6.554,6.553-6.554s6.554,2.94,6.554,6.554
			C17.839,11.817,14.898,14.756,11.285,14.756z M11.285,2.328c-3.24,0-5.875,2.635-5.875,5.876c0,3.24,2.635,5.875,5.875,5.875
			s5.875-2.635,5.875-5.875C17.16,4.963,14.525,2.328,11.285,2.328z"/>
	</g>
	<path fill="#FFFFFF" d="M29.811,12.021c0,0-0.04,1.182-0.169,0.695c-0.474-1.78-1.676-3.705-3.179-1.756
		c-0.615,0.802-1.938,0.482-2.478-0.183c-1.405-1.728-3.037,0.375-3.09,1.89c-0.03,0.875-0.208-0.862-0.208-0.862
		s-0.093-2.666,1.512-3.606c1.605-0.939,1.997-1.605,3.799-1.134C27.8,7.534,28.112,7.847,28.7,8.709
		C29.287,9.571,29.811,12.021,29.811,12.021z"/>
</g>
</svg>
