<?xml version="1.0" encoding="utf-8"?>
<!-- Generator: Adobe Illustrator 16.0.0, SVG Export Plug-In . SVG Version: 6.00 Build 0)  -->
<!DOCTYPE svg PUBLIC "-//W3C//DTD SVG 1.1//EN" "http://www.w3.org/Graphics/SVG/1.1/DTD/svg11.dtd">
<svg version="1.1" id="Layer_1" xmlns="http://www.w3.org/2000/svg" xmlns:xlink="http://www.w3.org/1999/xlink" x="0px" y="0px"
	 width="50px" height="50px" viewBox="0 0 50 50" enable-background="new 0 0 50 50" xml:space="preserve">
<g>
	<path fill="#FFFFFF" d="M21.018,19.807c0.403-0.115,0.898-0.247,1.456-0.421c0.558-0.173,1.188-0.367,1.871-0.593
		c1.366-0.448,2.953-1,4.644-1.623c0.844-0.319,1.72-0.634,2.602-0.985c0.881-0.351,1.775-0.704,2.671-1.081
		c0.452-0.19,0.879-0.388,1.318-0.566c0.438-0.183,0.877-0.354,1.315-0.516c0.879-0.317,1.744-0.624,2.594-0.861
		c0.852-0.236,1.679-0.446,2.468-0.583c0.793-0.134,1.546-0.222,2.242-0.242c0.695-0.018,1.335,0.022,1.893,0.12
		c0.56,0.1,1.036,0.25,1.421,0.408c0.378,0.174,0.67,0.338,0.858,0.469c0.188,0.133,0.289,0.204,0.289,0.204
		s-0.091-0.088-0.259-0.254c-0.173-0.16-0.441-0.379-0.813-0.608c-0.374-0.218-0.852-0.446-1.424-0.611
		c-0.571-0.17-1.232-0.289-1.958-0.33c-0.724-0.046-1.511-0.025-2.335,0.068c-0.824,0.089-1.688,0.242-2.566,0.458
		c-0.88,0.219-1.783,0.472-2.683,0.797c-0.449,0.159-0.9,0.33-1.351,0.509c-0.45,0.178-0.903,0.379-1.341,0.559
		c-0.876,0.382-1.767,0.746-2.641,1.107c-0.877,0.354-1.735,0.723-2.566,1.067c-0.837,0.339-1.638,0.686-2.4,1.009
		c-0.764,0.316-1.483,0.628-2.146,0.917c-1.326,0.57-2.432,1.047-3.206,1.381c-0.387,0.172-0.697,0.291-0.906,0.375
		c-0.211,0.083-0.322,0.128-0.322,0.128s0.115-0.025,0.335-0.073C20.293,19.985,20.616,19.93,21.018,19.807z"/>
	<path fill="#FFFFFF" d="M21.182,19.38c0.392-0.147,0.866-0.334,1.404-0.561c0.539-0.223,1.143-0.486,1.798-0.782
		c0.659-0.289,1.367-0.618,2.112-0.971c0.749-0.346,1.532-0.725,2.34-1.121c0.404-0.197,0.816-0.397,1.232-0.6
		c0.414-0.208,0.834-0.417,1.257-0.63c0.844-0.422,1.704-0.847,2.557-1.256c0.859-0.405,1.729-0.778,2.596-1.116
		c0.862-0.348,1.72-0.657,2.56-0.919c0.837-0.262,1.652-0.493,2.436-0.656c0.782-0.161,1.527-0.286,2.217-0.333
		c0.691-0.045,1.327-0.044,1.885,0.027c0.56,0.069,1.041,0.186,1.426,0.331c0.384,0.147,0.676,0.301,0.866,0.422
		c0.098,0.06,0.169,0.11,0.217,0.144c0.049,0.033,0.074,0.051,0.074,0.051s-0.022-0.021-0.066-0.063
		c-0.044-0.042-0.107-0.105-0.197-0.179c-0.179-0.148-0.449-0.358-0.83-0.559c-0.379-0.198-0.862-0.395-1.437-0.525
		c-0.572-0.133-1.231-0.22-1.949-0.225c-0.719-0.006-1.496,0.037-2.31,0.163c-0.812,0.124-1.663,0.293-2.531,0.53
		c-0.865,0.236-1.753,0.52-2.643,0.842c-0.888,0.333-1.778,0.703-2.659,1.105c-0.885,0.4-1.734,0.853-2.58,1.284
		c-0.844,0.432-1.668,0.871-2.464,1.302c-0.795,0.426-1.563,0.84-2.289,1.244c-0.726,0.399-1.412,0.777-2.041,1.136
		c-1.264,0.708-2.314,1.298-3.051,1.712c-0.371,0.2-0.662,0.36-0.864,0.46c-0.199,0.099-0.313,0.139-0.313,0.139
		s0.115-0.019,0.33-0.081C20.479,19.631,20.792,19.529,21.182,19.38z"/>
	<path fill="#FFFFFF" d="M37.493,26.934c-0.129-0.282-0.296-0.518-0.503-0.709c-0.208-0.19-0.467-0.343-0.777-0.456
		c-0.164-0.058-0.493-0.127-0.986-0.207l-0.287-3.124c0.318,0.035,0.577,0.155,0.777,0.361s0.349,0.52,0.444,0.937l0.973-0.283
		c-0.147-0.676-0.448-1.187-0.903-1.531c-0.354-0.271-0.812-0.404-1.374-0.398l-0.047-0.518l-0.563,0.066l0.047,0.518
		c-0.629,0.146-1.088,0.399-1.382,0.758c-0.439,0.534-0.623,1.187-0.552,1.957c0.04,0.434,0.158,0.811,0.354,1.133
		s0.456,0.561,0.777,0.718c0.435,0.213,0.854,0.339,1.254,0.377l0.315,3.449c-0.38,0-0.722-0.178-1.025-0.53
		c-0.214-0.251-0.384-0.664-0.511-1.237l-0.944,0.318c0.087,0.558,0.258,1.018,0.511,1.382c0.255,0.363,0.538,0.614,0.854,0.755
		c0.313,0.139,0.715,0.215,1.2,0.228l0.099,1.083l0.563-0.066l-0.101-1.096c0.667-0.114,1.188-0.447,1.564-0.998
		c0.375-0.551,0.53-1.202,0.46-1.952C37.7,27.524,37.62,27.214,37.493,26.934z M33.667,25.001c-0.206-0.227-0.324-0.524-0.359-0.895
		c-0.033-0.373,0.044-0.708,0.233-1.006s0.469-0.501,0.834-0.609l0.274,2.997C34.2,25.392,33.872,25.229,33.667,25.001z
		 M36.496,29.258c-0.214,0.341-0.505,0.561-0.873,0.656l-0.3-3.299c0.53,0.129,0.893,0.302,1.086,0.521
		c0.194,0.218,0.308,0.524,0.344,0.917C36.796,28.516,36.711,28.916,36.496,29.258z"/>
	<g>
		<polygon fill="#FFFFFF" points="0.5,27.818 4.102,26.652 7.22,39.011 3.728,40.141 		"/>
		<path fill="#FFFFFF" d="M5.412,27.164c0,0,5.8-2.277,7.391-3.46s4.319-3.002,5.474-3.107c1.153-0.105,6.538,0.796,8.379,1.537
			c1.839,0.742-0.805,4.434-0.805,4.434s-3.77-0.509-4.331-0.604c-0.908-0.151-1.887,0.477-2.994,1.236
			c-1.107,0.759-1.56,3.178-0.094,3.371c0.589,0.078,1.401-0.003,2.245-0.146c1.259-0.212,2.585-0.561,3.322-0.719
			c1.23-0.265,4.226,0.371,4.851,2.842c0.622,2.472-2.419,2.119-4.057,2.648c-0.877,0.283-2.129,0.957-3.544,1.644
			c-1.227,0.595-2.577,1.2-3.908,1.569c-2.87,0.795-5.849-2.118-7.547-1.836c-1.7,0.283-2.044,0.795-2.044,0.795L5.412,27.164z"/>
	</g>
	<path fill="#FFFFFF" d="M49.074,18.222c0,0-0.453-2.195-5.143-2.633c-3.949-0.368-9.457,1.304-12.581,2.202
		c-0.836,0.24-1.965,0.529-3.187,0.826c0.267-0.078,0.535-0.157,0.808-0.238c0.859-0.265,1.75-0.521,2.647-0.815
		c0.896-0.294,1.809-0.587,2.721-0.906c0.461-0.161,0.898-0.329,1.346-0.479c0.446-0.154,0.894-0.296,1.339-0.43
		c0.893-0.261,1.772-0.51,2.634-0.691c0.86-0.18,1.696-0.336,2.493-0.421c0.797-0.083,1.555-0.121,2.25-0.097
		c0.695,0.028,1.332,0.109,1.885,0.244c0.554,0.136,1.021,0.316,1.397,0.5c0.368,0.197,0.651,0.379,0.831,0.523
		c0.183,0.146,0.279,0.223,0.279,0.223s-0.086-0.094-0.245-0.271c-0.165-0.172-0.422-0.408-0.78-0.661
		c-0.364-0.24-0.827-0.5-1.392-0.703c-0.561-0.206-1.215-0.368-1.938-0.456c-0.72-0.092-1.506-0.124-2.333-0.083
		c-0.829,0.034-1.697,0.132-2.588,0.291c-0.888,0.161-1.803,0.356-2.717,0.622c-0.457,0.13-0.916,0.271-1.374,0.421
		c-0.459,0.147-0.921,0.318-1.366,0.47c-0.895,0.325-1.804,0.631-2.694,0.935c-0.893,0.297-1.767,0.609-2.616,0.899
		c-0.852,0.284-1.67,0.579-2.447,0.852c-0.778,0.266-1.512,0.53-2.189,0.775c-1.215,0.436-2.247,0.805-3.017,1.081
		c-0.474,0.095-0.816,0.157-0.968,0.177c-0.085,0.011-0.349,0.096-0.349,0.096l0.016,0.174c-0.134,0.043-0.205,0.066-0.205,0.066
		s0.073-0.012,0.209-0.032l0.859,9.049c1.247-0.213,2.55-0.555,3.28-0.711c1.231-0.266,5.132,0.825,5.8,3.281
		c0.88,3.242-3.099,3.128-4.735,3.657c-0.866,0.281-2.3,0.787-3.696,1.466l0.075,0.832c0,0,0.67-0.265,1.137-0.367
		c5.365-1.171,22.749-4.291,24.785-3.248c2.038,1.042,2.016,1.44,2.159-0.336C49.607,32.529,49.283,20.024,49.074,18.222z
		 M40.615,28.32c-0.984,3.481-4.275,5.402-7.35,4.288c-3.077-1.115-4.772-4.841-3.788-8.323c0.983-3.481,4.276-5.401,7.352-4.287
		C39.905,21.111,41.601,24.838,40.615,28.32z"/>
</g>
</svg>
