<?xml version="1.0" encoding="utf-8"?>
<!-- Generator: Adobe Illustrator 16.0.0, SVG Export Plug-In . SVG Version: 6.00 Build 0)  -->
<!DOCTYPE svg PUBLIC "-//W3C//DTD SVG 1.1//EN" "http://www.w3.org/Graphics/SVG/1.1/DTD/svg11.dtd">
<svg version="1.1" id="Layer_1" xmlns="http://www.w3.org/2000/svg" xmlns:xlink="http://www.w3.org/1999/xlink" x="0px" y="0px"
	 width="50px" height="50px" viewBox="0 0 50 50" enable-background="new 0 0 50 50" xml:space="preserve">
<g>
	<path fill="#FFFFFF" d="M40.791,28.707c-0.652-0.643-2.102-0.986-4.304-1.014c-1.493-0.017-3.288,0.116-5.179,0.382
		c-0.845-0.49-1.718-1.022-2.4-1.66c-1.841-1.72-3.377-4.104-4.335-6.729c0.063-0.244,0.116-0.462,0.164-0.682
		c0,0,1.037-5.889,0.764-7.878c-0.038-0.271-0.061-0.352-0.136-0.565l-0.09-0.231c-0.281-0.649-0.834-1.337-1.701-1.301
		l-0.508-0.015h-0.015c-0.967,0-1.754,0.491-1.961,1.232c-0.629,2.316,0.02,5.784,1.195,10.275l-0.302,0.731
		c-0.842,2.05-1.896,4.118-2.825,5.94l-0.121,0.237c-0.98,1.915-1.87,3.544-2.673,4.92l-0.834,0.441
		c-0.058,0.03-1.483,0.783-1.817,0.986c-2.836,1.694-4.716,3.615-5.025,5.142c-0.101,0.487-0.026,1.108,0.478,1.397l0.803,0.403
		c0.352,0.177,0.72,0.262,1.097,0.262c2.017,0,4.361-2.512,7.592-8.15c3.729-1.214,7.976-2.223,11.697-2.778
		c2.835,1.594,6.323,2.705,8.525,2.705c0.39,0,0.727-0.036,1.001-0.11c0.422-0.112,0.776-0.354,0.995-0.679
		c0.427-0.641,0.513-1.528,0.397-2.434C41.237,29.267,41.022,28.935,40.791,28.707z M10.626,39.454c0.369-1.007,1.826-3,3.981-4.766
		c0.137-0.107,0.471-0.424,0.775-0.713C13.129,37.572,11.618,39.005,10.626,39.454z M23.392,10.055c0.651,0,1.02,1.636,1.05,3.169
		c0.031,1.534-0.328,2.612-0.773,3.409c-0.368-1.181-0.545-3.041-0.545-4.255C23.123,12.378,23.097,10.055,23.392,10.055z
		 M19.584,31.006c0.453-0.811,0.925-1.665,1.404-2.572c1.172-2.215,1.912-3.947,2.463-5.374c1.097,1.995,2.463,3.69,4.068,5.05
		c0.198,0.169,0.41,0.34,0.634,0.51C24.889,29.265,22.069,30.051,19.584,31.006z M40.164,30.822
		c-0.199,0.126-0.767,0.195-1.136,0.195c-1.18,0-2.644-0.539-4.695-1.421c0.789-0.058,1.511-0.088,2.159-0.088
		c1.186,0,1.537-0.004,2.698,0.289C40.348,30.097,40.362,30.696,40.164,30.822z M43.729,10.042l-6.834-6.836
		c-1.489-1.49-4.43-2.706-6.535-2.706H7.391c-2.107,0-3.829,1.72-3.829,3.826v41.347c0,2.106,1.722,3.827,3.829,3.827h35.219
		c2.104,0,3.829-1.721,3.829-3.827V16.579C46.438,14.472,45.219,11.532,43.729,10.042z M41.563,12.207
		c0.149,0.15,0.301,0.334,0.444,0.542h-7.82V4.927c0.207,0.145,0.39,0.297,0.541,0.444L41.563,12.207z M43.375,45.673
		c0,0.416-0.352,0.766-0.766,0.766H7.391c-0.415,0-0.766-0.35-0.766-0.766V4.326c0-0.413,0.351-0.765,0.766-0.765h22.969
		c0.23,0,0.49,0.03,0.765,0.081v12.169h12.168c0.053,0.276,0.083,0.536,0.083,0.768V45.673z"/>
</g>
</svg>
