<?xml version="1.0" encoding="utf-8"?>
<!-- Generator: Adobe Illustrator 16.0.0, SVG Export Plug-In . SVG Version: 6.00 Build 0)  -->
<!DOCTYPE svg PUBLIC "-//W3C//DTD SVG 1.1//EN" "http://www.w3.org/Graphics/SVG/1.1/DTD/svg11.dtd">
<svg version="1.1" id="Layer_1" xmlns="http://www.w3.org/2000/svg" xmlns:xlink="http://www.w3.org/1999/xlink" x="0px" y="0px"
	 width="50px" height="50px" viewBox="0 0 50 50" enable-background="new 0 0 50 50" xml:space="preserve">
<g>
	<path fill="#FFFFFF" d="M12.874,9.271h-3.45c-1.361,0-2.466,1.312-2.466,2.929v25.312c0,1.617,1.104,2.932,2.466,2.932h3.45
		c1.361,0,2.467-1.314,2.467-2.932V12.199C15.341,10.582,14.235,9.271,12.874,9.271z"/>
	<path fill="#FFFFFF" d="M46.411,5.44H3.589C1.883,5.44,0.5,6.823,0.5,8.53v32.941c0,1.705,1.383,3.088,3.089,3.088h42.822
		c1.706,0,3.089-1.383,3.089-3.088V8.53C49.5,6.823,48.117,5.44,46.411,5.44z M18.63,14c0,0.998-0.475,1.884-1.213,2.449v17.191
		c0.738,0.564,1.213,1.45,1.213,2.45v2.971c0,1.705-1.381,3.087-3.088,3.087h-8.04c-1.706,0-3.089-1.382-3.089-3.087v-2.971
		c0-0.896,0.385-1.7,0.991-2.262V16.264C4.798,15.699,4.413,14.895,4.413,14v-2.971c0-1.705,1.383-3.089,3.089-3.089h8.04
		c1.707,0,3.088,1.384,3.088,3.089V14z M22.377,8.206h21.822v5.95H22.377V8.206z M38.249,30.292v-3.195h5.84v3.195H38.249z
		 M44.089,31.946v3.195h-5.84v-3.195H44.089z M38.249,25.442v-3.196h5.84v3.196H38.249z M38.249,20.594v-3.197h5.84v3.197H38.249z
		 M30.368,30.292v-3.195h5.842v3.195H30.368z M36.21,31.946v3.195h-5.842v-3.195H36.21z M30.368,25.442v-3.196h5.842v3.196H30.368z
		 M30.368,20.594v-3.197h5.842v3.197H30.368z M22.488,30.292v-3.195h5.842v3.195H22.488z M28.33,31.946v3.195h-5.842v-3.195H28.33z
		 M22.488,25.442v-3.196h5.842v3.196H22.488z M22.488,20.594v-3.197h5.842v3.197H22.488z M31.745,40.762h-9.257v-2.424h9.257V40.762
		z M44.287,40.762H35.03v-2.424h9.257V40.762z"/>
</g>
</svg>
