<?xml version="1.0" encoding="utf-8"?>
<!-- Generator: Adobe Illustrator 16.0.0, SVG Export Plug-In . SVG Version: 6.00 Build 0)  -->
<!DOCTYPE svg PUBLIC "-//W3C//DTD SVG 1.1//EN" "http://www.w3.org/Graphics/SVG/1.1/DTD/svg11.dtd">
<svg version="1.1" id="Layer_1" xmlns="http://www.w3.org/2000/svg" xmlns:xlink="http://www.w3.org/1999/xlink" x="0px" y="0px"
	 width="50px" height="50px" viewBox="0 0 50 50" enable-background="new 0 0 50 50" xml:space="preserve">
<g>
	<g>
		<path fill="#FFFFFF" d="M0.5,26.654c0,0,13.476-6.518,26.475-1.368c0,0-6.358-5.845-14.331-4.504
			C4.673,22.122,2.278,25.144,0.5,26.654z"/>
		<path fill="#FFFFFF" d="M18.317,26.753c0,0,20.208-3.792,31.183-1.831c0,0-7.028-6.236-15-4.896S20.095,25.242,18.317,26.753z"/>
		<path fill="#FFFFFF" d="M15.834,8.087c-0.21-1.467-1.521-2.597-3.112-2.597S9.819,6.621,9.609,8.087
			c-1.121,0.46-1.906,1.523-1.906,2.764c0,1.661,1.408,3.007,3.145,3.007c0.385,0,0.751-0.068,1.09-0.189l-0.593,7.558h2.19
			l-0.403-7.716c0.437,0.222,0.935,0.348,1.464,0.348c1.736,0,3.145-1.346,3.145-3.007C17.74,9.61,16.955,8.546,15.834,8.087z"/>
		<path fill="#FFFFFF" d="M24.642,14.022c-0.141-0.979-1.016-1.733-2.078-1.733s-1.938,0.755-2.078,1.733
			c-0.748,0.308-1.272,1.019-1.272,1.846c0,1.108,0.94,2.008,2.1,2.008c0.256,0,0.501-0.045,0.728-0.126l-0.396,5.044h1.462
			l-0.27-5.151c0.292,0.148,0.624,0.233,0.978,0.233c1.159,0,2.099-0.899,2.099-2.008C25.913,15.041,25.39,14.33,24.642,14.022z"/>
		<path fill="#FFFFFF" d="M47.533,13.72c-0.141-0.979-1.016-1.733-2.079-1.733c-1.061,0-1.937,0.756-2.077,1.733
			c-0.748,0.308-1.272,1.019-1.272,1.846c0,1.109,0.94,2.008,2.1,2.008c0.257,0,0.501-0.046,0.729-0.127l-0.396,5.045h1.462
			l-0.27-5.15c0.292,0.148,0.625,0.232,0.978,0.232c1.159,0,2.099-0.898,2.099-2.008C48.805,14.738,48.281,14.027,47.533,13.72z"/>
	</g>
	<path fill="#FFFFFF" d="M6.15,44.416c0,0,5.647-16.955,39.394-14.335l-0.05,0.947c0,0-22.427-1.472-30.244,13.481L6.15,44.416z"/>
</g>
</svg>
