<?xml version="1.0" encoding="utf-8"?>
<!-- Generator: Adobe Illustrator 16.0.0, SVG Export Plug-In . SVG Version: 6.00 Build 0)  -->
<!DOCTYPE svg PUBLIC "-//W3C//DTD SVG 1.1//EN" "http://www.w3.org/Graphics/SVG/1.1/DTD/svg11.dtd">
<svg version="1.1" id="Layer_1" xmlns="http://www.w3.org/2000/svg" xmlns:xlink="http://www.w3.org/1999/xlink" x="0px" y="0px"
	 width="50px" height="50px" viewBox="0 0 50 50" enable-background="new 0 0 50 50" xml:space="preserve">
<g>
	<path fill="#FFFFFF" d="M38.435,14.449H26.238c0.244-0.709,0.658-1.942,0.817-2.633c0.231-1.006,0.077-1.47-2.168-1.47
		c-2.244,0-2.941,0.619-2.555,1.393c0.289,0.578,0.707,2.016,0.9,2.71H11.419c0,0-3.87,0.696-4.335,4.413h35.607
		C42.691,18.861,41.53,14.681,38.435,14.449z"/>
	<path fill="#FFFFFF" d="M7.006,22.469c0,0,0,10.372,0,12.464c0,2.089,0.774,4.722,4.645,4.722c3.871,0,22.914-0.155,26.475-0.155
		s4.644-1.936,4.644-5.419s-0.154-11.611-0.154-11.611s1.858-0.31,2.632,0.311c0.774,0.619,1.703,1.47,2.632,1.47
		c0.93,0,1.622-0.773,1.622-1.625s-0.074-2.013-1.313-2.091c-1.237-0.076-44.587,0.078-45.671,0.078
		c-1.083,0-2.09,0.076-2.012,1.702s0.542,2.013,1.703,1.858c1.161-0.155,1.394-1.007,2.091-1.315
		C4.994,22.547,6.31,22.469,7.006,22.469z"/>
</g>
</svg>
