<?xml version="1.0" encoding="utf-8"?>
<!-- Generator: Adobe Illustrator 16.0.0, SVG Export Plug-In . SVG Version: 6.00 Build 0)  -->
<!DOCTYPE svg PUBLIC "-//W3C//DTD SVG 1.1//EN" "http://www.w3.org/Graphics/SVG/1.1/DTD/svg11.dtd">
<svg version="1.1" id="Layer_1" xmlns="http://www.w3.org/2000/svg" xmlns:xlink="http://www.w3.org/1999/xlink" x="0px" y="0px"
	 width="50px" height="50px" viewBox="0 0 50 50" enable-background="new 0 0 50 50" xml:space="preserve">
<g>
	<path fill-rule="evenodd" clip-rule="evenodd" fill="#FFFFFF" d="M43.943,20.813c-1.221,0.073-2.45,0.014-3.78,0.014
		c-0.249-5.016,0.071-9.921-0.176-14.88c-9.63,0-20.342,0-30.019,0c-0.244,4.916,0.078,9.792-0.174,14.88c-0.628,0-1.258,0-1.889,0
		c-0.763,0-1.523,0.027-2.284-0.006c-2.631-0.112-4.315,1.104-5.122,3.588c0,5.371,0,10.743,0,16.115
		c0.638,1.597,1.526,2.96,3.354,3.346c0.56,0.119,1.148,0.142,1.723,0.142c12.769,0.008,25.535-0.039,38.302,0.043
		c2.766,0.018,4.681-0.866,5.621-3.53c0-5.372,0-10.744,0-16.115C48.641,21.678,46.7,20.647,43.943,20.813z M4.218,30.74
		c-0.545,0-0.988-0.443-0.988-0.989s0.443-0.988,0.988-0.988c0.546,0,0.987,0.442,0.987,0.988S4.764,30.74,4.218,30.74z
		 M7.093,30.74c-0.548,0-0.989-0.443-0.989-0.989s0.441-0.988,0.989-0.988c0.544,0,0.985,0.442,0.985,0.988S7.637,30.74,7.093,30.74
		z M39.474,41.533c-9.94,0-19.826,0-29.773,0c0-1.625,0-3.204,0-4.864c9.888,0,19.774,0,29.773,0
		C39.474,38.309,39.474,39.889,39.474,41.533z M40.998,25.777c-10.662,0.017-21.325,0.017-31.989,0c-0.697,0-1.777,0.326-1.81-0.797
		c-0.035-1.152,1.047-0.824,1.748-0.859c1.508-0.071,1.499,0.373,1.579-1.611c0.196-4.998-0.105-9.995,0.103-14.993
		c0.027-0.651,0.233-0.865,0.897-0.863c8.558,0.018,18.245,0.026,26.805-0.009c0.933-0.003,0.971,0.493,0.999,1.145
		c0.163,3.731-0.236,7.46-0.063,11.192c0.078,1.661,0.178,3.324,0.275,5.132c0.539,0,0.974-0.037,1.398,0.008
		c0.723,0.078,1.869-0.358,1.859,0.857C42.795,26.1,41.695,25.777,40.998,25.777z"/>
	<rect x="13.209" y="10.439" fill-rule="evenodd" clip-rule="evenodd" fill="#FFFFFF" width="23.183" height="0.983"/>
	<rect x="13.209" y="13.733" fill-rule="evenodd" clip-rule="evenodd" fill="#FFFFFF" width="23.183" height="0.979"/>
	<rect x="13.209" y="17.025" fill-rule="evenodd" clip-rule="evenodd" fill="#FFFFFF" width="23.183" height="0.98"/>
	<rect x="13.209" y="20.316" fill-rule="evenodd" clip-rule="evenodd" fill="#FFFFFF" width="23.183" height="0.979"/>
</g>
</svg>
