<?xml version="1.0" encoding="utf-8"?>
<!-- Generator: Adobe Illustrator 16.0.0, SVG Export Plug-In . SVG Version: 6.00 Build 0)  -->
<!DOCTYPE svg PUBLIC "-//W3C//DTD SVG 1.1//EN" "http://www.w3.org/Graphics/SVG/1.1/DTD/svg11.dtd">
<svg version="1.1" id="Layer_1" xmlns="http://www.w3.org/2000/svg" xmlns:xlink="http://www.w3.org/1999/xlink" x="0px" y="0px"
	 width="50px" height="50px" viewBox="0 0 50 50" enable-background="new 0 0 50 50" xml:space="preserve">
<g>
	<path fill-rule="evenodd" clip-rule="evenodd" fill="#FFFFFF" d="M43.337,14.185c-4.436-3.02-8.9-5.994-13.372-8.994
		c-4.341,2.905-8.635,5.816-12.972,8.661c-0.8,0.524-1.117,1.068-1.111,2.036c0.035,10.707,0.02,21.414,0.02,32.122
		c0,0.479,0,0.956,0,1.463c3.381,0,6.579,0,9.925,0c0-3.818,0-7.555,0-11.305c2.843,0,5.539,0,8.372,0c0,3.859,0,7.596,0,11.274
		c3.346,0,6.542,0,9.71,0c0.055-0.204,0.096-0.285,0.096-0.369c0.007-11.246,0.021-22.491-0.012-33.733
		C43.992,14.947,43.676,14.413,43.337,14.185z M20.172,16.698c1.607,0,3.113,0,4.719,0c0,1.585,0,3.159,0,4.808
		c-1.565,0-3.098,0-4.719,0C20.172,19.919,20.172,18.381,20.172,16.698z M24.921,36.34c-1.553,0-3.12,0-4.758,0
		c0-1.565,0-3.107,0-4.799c1.616,0,3.152,0,4.758,0C24.921,33.145,24.921,34.688,24.921,36.34z M24.927,28.976
		c-1.582,0-3.114,0-4.741,0c0-1.6,0-3.179,0-4.874c1.513,0,3.043,0,4.741,0C24.927,25.732,24.927,27.311,24.927,28.976z
		 M27.503,16.698c1.703,0,3.254,0,4.903,0c0,1.584,0,3.122,0,4.771c-1.601,0-3.209,0-4.903,0
		C27.503,19.893,27.503,18.355,27.503,16.698z M27.485,24.107c1.642,0,3.253,0,4.938,0c0,1.625,0,3.203,0,4.863
		c-1.63,0-3.209,0-4.938,0C27.485,27.313,27.485,25.768,27.485,24.107z M32.431,36.356c-1.653,0-3.233,0-4.912,0
		c0-1.588,0-3.132,0-4.777c1.589,0,3.175,0,4.912,0C32.431,33.178,32.431,34.719,32.431,36.356z M35.032,16.721
		c1.559,0,3.095,0,4.729,0c0,1.577,0,3.115,0,4.804c-1.603,0-3.115,0-4.729,0C35.032,19.949,35.032,18.373,35.032,16.721z
		 M39.754,36.408c-1.637,0-3.146,0-4.744,0c0-1.617,0-3.198,0-4.855c1.566,0,3.107,0,4.744,0
		C39.754,33.143,39.754,34.717,39.754,36.408z M39.773,28.973c-1.584,0-3.119,0-4.752,0c0-1.587,0-3.171,0-4.871
		c1.537,0,3.104,0,4.752,0C39.773,25.728,39.773,27.311,39.773,28.973z"/>
	<path fill-rule="evenodd" clip-rule="evenodd" fill="#FFFFFF" d="M49.017,13.04c-6.149-4.262-12.32-8.385-18.525-12.453
		C30.2,0.395,29.49,0.55,29.127,0.784c-3.375,2.189-6.721,4.428-10.071,6.657c-2.737,1.822-5.467,3.655-8.307,5.555
		c3.012,0.527,4.021,0.334,6.167-1.101c3.903-2.612,7.816-5.203,11.694-7.852c0.94-0.642,1.712-0.678,2.671-0.023
		c4.102,2.798,8.284,5.469,12.335,8.338C45.403,13.621,47.194,12.992,49.017,13.04z"/>
	<path fill-rule="evenodd" clip-rule="evenodd" fill="#FFFFFF" d="M0.983,16.365c0,0.449,0,0.896,0,1.344c4.584,0,7.88,0,12.565,0
		c-0.037-0.548-0.06-0.921-0.089-1.344C8.801,16.365,5.539,16.365,0.983,16.365z"/>
	<path fill-rule="evenodd" clip-rule="evenodd" fill="#FFFFFF" d="M1.064,49.5c4.16,0,8.224,0,12.365,0c0-6.94,0-23.192,0-29.983
		c-4.186,0-8.27,0-12.365,0C1.064,26.416,1.064,42.666,1.064,49.5z M9.674,36.371c-1.589,0-3.133,0-4.777,0c0-1.597,0-3.17,0-4.82
		c1.563,0,3.106,0,4.777,0C9.674,33.198,9.674,34.745,9.674,36.371z M4.894,24.272c1.564,0,3.104,0,4.78,0c0,1.647,0,3.194,0,4.818
		c-1.594,0-3.133,0-4.78,0C4.894,27.497,4.894,25.923,4.894,24.272z M4.869,38.815c1.674,0,3.18,0,4.773,0c0,1.638,0,3.221,0,4.905
		c-1.557,0-3.123,0-4.773,0C4.869,42.089,4.869,40.507,4.869,38.815z"/>
</g>
</svg>
