<?xml version="1.0" encoding="utf-8"?>
<!-- Generator: Adobe Illustrator 16.0.0, SVG Export Plug-In . SVG Version: 6.00 Build 0)  -->
<!DOCTYPE svg PUBLIC "-//W3C//DTD SVG 1.1//EN" "http://www.w3.org/Graphics/SVG/1.1/DTD/svg11.dtd">
<svg version="1.1" id="Layer_1" xmlns="http://www.w3.org/2000/svg" xmlns:xlink="http://www.w3.org/1999/xlink" x="0px" y="0px"
	 width="50px" height="50px" viewBox="0 0 50 50" enable-background="new 0 0 50 50" xml:space="preserve">
<g>
	<g>
		<path fill="#FFFFFF" d="M36.689,14.255c-0.072-0.255-0.347-0.589-0.572-0.625c-0.227-0.035-0.591,0.204-0.732,0.426
			c-0.16,0.247-0.148,0.61-0.193,0.924c-0.561,3.703-1.11,7.407-1.68,11.106c-0.092,0.586,0.02,1.515-0.897,1.391
			c-1.039-0.139-0.582-1.049-0.495-1.65c0.516-3.587,1.067-7.17,1.606-10.755c0.035-0.236,0.155-0.501,0.088-0.704
			c-0.142-0.422-0.383-0.81-0.581-1.211c-0.272,0.327-0.729,0.624-0.787,0.985c-0.619,3.813-1.176,7.637-1.753,11.458
			c-0.048,0.314-0.022,0.684-0.184,0.926c-0.166,0.251-0.548,0.551-0.781,0.51c-0.23-0.041-0.479-0.457-0.554-0.75
			C29.1,26,29.232,25.66,29.279,25.345c0.564-3.741,1.149-7.481,1.658-11.231c0.058-0.429-0.222-1.241-0.493-1.313
			c-0.764-0.202-0.808,0.529-0.89,1.079c-0.569,3.782-1.137,7.563-1.71,11.345c-0.054,0.352-0.059,0.751-0.236,1.033
			c-0.134,0.211-0.52,0.375-0.777,0.355c-0.188-0.016-0.445-0.342-0.495-0.569c-0.067-0.294,0.035-0.629,0.081-0.943
			c0.538-3.585,1.078-7.169,1.617-10.753c0.034-0.237,0.15-0.498,0.088-0.704c-0.136-0.46-0.363-0.894-0.554-1.34
			c-0.28,0.363-0.738,0.692-0.812,1.092c-0.378,2.077-0.658,4.17-0.972,6.257c-0.367,2.443-0.735,4.885-1.102,7.328
			c-0.351,2.333,0.358,3.155,2.53,4.205c-0.857,5.694-1.714,11.4-2.572,17.105l3.803,0.571c0.938-6.237,1.674-11.094,2.566-17.031
			c2.635-0.622,3.246-1.018,3.66-3.754c0.644-4.294,1.29-8.587,1.936-12.881C36.652,14.881,36.771,14.539,36.689,14.255z"/>
		<path fill="#FFFFFF" d="M13.197,19.419c1.626,6.86,3.362,13.693,5.081,20.531c0.065,0.255,0.422,0.438,0.646,0.647
			c0.416,0.382,1.701,0.535,1.832,0.993c0.706,2.485,0.969,3.651,1.644,6.374l3.534-0.877c-2.814-11.346-5.678-22.894-8.479-34.197
			C14.522,13.479,12.503,16.483,13.197,19.419z"/>
	</g>
	<path fill="#FFFFFF" d="M25,49.5C11.49,49.5,0.5,38.51,0.5,25C0.5,11.491,11.49,0.5,25,0.5S49.5,11.491,49.5,25
		C49.5,38.51,38.51,49.5,25,49.5z M25,2.694C12.701,2.694,2.694,12.7,2.694,25S12.701,47.306,25,47.306S47.306,37.3,47.306,25
		S37.299,2.694,25,2.694z"/>
</g>
</svg>
