<?xml version="1.0" encoding="utf-8"?>
<!-- Generator: Adobe Illustrator 16.0.0, SVG Export Plug-In . SVG Version: 6.00 Build 0)  -->
<!DOCTYPE svg PUBLIC "-//W3C//DTD SVG 1.1//EN" "http://www.w3.org/Graphics/SVG/1.1/DTD/svg11.dtd">
<svg version="1.1" id="Layer_1" xmlns="http://www.w3.org/2000/svg" xmlns:xlink="http://www.w3.org/1999/xlink" x="0px" y="0px"
	 width="50px" height="50px" viewBox="0 0 50 50" enable-background="new 0 0 50 50" xml:space="preserve">
<g>
	<path fill="#FFFFFF" d="M0.5,32.023c0,6.121,4.963,11.084,11.085,11.084s11.084-4.963,11.084-11.084
		c0-6.122-4.962-11.086-11.084-11.086c-2.068,0-4.005,0.568-5.661,1.556C5.866,22.528,6.435,9.915,6.496,9.904
		c1.194-0.212,3.209-0.465,6.416-0.587c2.588-0.099,4.825,0.074,6.219,0.236c0.074,0.009,1.917,10.476,1.852,10.473
		c-0.793-0.027-1.255-0.044-1.255-0.044l-0.005,0.632l-2.264-2.003l1.27-1.339l-0.426-0.403l-2.831,2.986l0.425,0.403l1.158-1.223
		l2.664,2.356l-0.011,1.543c2.496,2.233,4.067,5.477,4.067,9.089c0,1.384-0.233,2.712-0.658,3.951l9.79,0.38l5.089-6.796
		c0,0,2.755-0.176,4.642-0.263v0.569c-0.357,0.158-0.615,0.462-0.661,0.825c-2.871,0.579-5.031,3.113-5.031,6.154
		c0,3.467,2.811,6.277,6.277,6.277s6.277-2.811,6.277-6.277c0-3.074-2.211-5.632-5.129-6.171c-0.053-0.363-0.316-0.666-0.679-0.817
		v-0.601c0.151-0.004,0.283-0.007,0.387-0.007c1.236,0,1.751-0.206,1.751-1.441c0-1.236-0.104-4.428-0.104-5.457
		c0-1.03-0.409-1.514-1.75-1.545c-1.259-0.029-16.589-0.559-22.203-0.753L19.874,9.648c0.562,0.081,0.872,0.143,0.872,0.143
		s-0.039-1.269-0.055-1.757c-0.014-0.485-0.403-0.609-0.933-0.695c-4.265-0.683-9.578-0.611-13.272,0.229
		C5.688,7.751,5.015,8.072,5.015,8.487c0,0.434-0.007,1.769-0.007,1.769s0.21-0.082,0.729-0.201L5.158,22.993
		C2.34,25.004,0.5,28.297,0.5,32.023z M43.223,39.301c1.356,0,2.456-1.1,2.456-2.456c0-0.938-0.525-1.751-1.297-2.165v-2.763
		c2.236,0.524,3.904,2.53,3.904,4.928c0,2.796-2.269,5.063-5.063,5.063c-2.797,0-5.063-2.267-5.063-5.063
		c0-2.363,1.618-4.349,3.809-4.906v2.797c-0.719,0.429-1.203,1.212-1.203,2.109C40.766,38.201,41.866,39.301,43.223,39.301z
		 M43.218,36.039c0.439,0,0.795,0.355,0.795,0.794c0,0.438-0.355,0.792-0.795,0.792c-0.437,0-0.792-0.354-0.792-0.792
		C42.426,36.395,42.781,36.039,43.218,36.039z M25.591,22.324h12.435l-0.056,5.002l-3.828,4.08h-8.551V22.324z M1.942,32.022
		c0-5.325,4.316-9.643,9.643-9.643s9.643,4.317,9.643,9.643s-4.316,9.644-9.643,9.644S1.942,37.348,1.942,32.022z"/>
	<circle fill="#FFFFFF" cx="11.597" cy="32.029" r="4.144"/>
	<circle fill="#FFFFFF" cx="7.738" cy="26.499" r="1.257"/>
	<circle fill="#FFFFFF" cx="16.148" cy="37.689" r="0.485"/>
	<circle fill="#FFFFFF" cx="47.144" cy="36.785" r="0.404"/>
	<circle fill="#FFFFFF" cx="39.231" cy="36.812" r="0.55"/>
	<rect x="34.312" y="23.865" fill="#FFFFFF" width="0.427" height="5.407"/>
	<rect x="33.193" y="23.865" fill="#FFFFFF" width="0.426" height="5.407"/>
	<rect x="32.074" y="23.865" fill="#FFFFFF" width="0.427" height="5.407"/>
	<rect x="30.956" y="23.865" fill="#FFFFFF" width="0.426" height="5.407"/>
	<rect x="29.838" y="23.865" fill="#FFFFFF" width="0.426" height="5.407"/>
	<rect x="28.719" y="23.865" fill="#FFFFFF" width="0.426" height="5.407"/>
	<rect x="27.601" y="23.865" fill="#FFFFFF" width="0.426" height="5.407"/>
	<polygon fill="#FFFFFF" points="9.306,14.093 11.508,20.234 8.654,20.358 8.166,14.093 	"/>
</g>
</svg>
