<?xml version="1.0" encoding="utf-8"?>
<!-- Generator: Adobe Illustrator 16.0.0, SVG Export Plug-In . SVG Version: 6.00 Build 0)  -->
<!DOCTYPE svg PUBLIC "-//W3C//DTD SVG 1.1//EN" "http://www.w3.org/Graphics/SVG/1.1/DTD/svg11.dtd">
<svg version="1.1" id="Layer_1" xmlns="http://www.w3.org/2000/svg" xmlns:xlink="http://www.w3.org/1999/xlink" x="0px" y="0px"
	 width="50px" height="50px" viewBox="0 0 50 50" enable-background="new 0 0 50 50" xml:space="preserve">
<g>
	<path fill="#FFFFFF" d="M2.747,19.724c0.642-0.191,1.434-0.411,2.324-0.698c0.89-0.284,1.895-0.602,2.982-0.97
		c2.178-0.731,4.705-1.623,7.394-2.625c1.342-0.514,2.735-1.019,4.136-1.579c1.4-0.562,2.823-1.123,4.244-1.721
		c0.718-0.301,1.396-0.611,2.093-0.896c0.695-0.289,1.395-0.562,2.092-0.822c1.396-0.512,2.775-1.006,4.133-1.403
		c1.358-0.394,2.678-0.748,3.946-0.995c1.27-0.245,2.478-0.42,3.6-0.497c1.121-0.072,2.155-0.057,3.062,0.044
		c0.907,0.106,1.686,0.286,2.315,0.486c0.62,0.223,1.099,0.436,1.411,0.61c0.312,0.177,0.478,0.272,0.478,0.272
		s-0.149-0.12-0.433-0.344c-0.288-0.217-0.732-0.511-1.345-0.814c-0.617-0.282-1.4-0.577-2.334-0.774
		c-0.931-0.204-2.006-0.329-3.177-0.337c-1.171-0.017-2.438,0.065-3.762,0.254c-1.326,0.181-2.707,0.458-4.114,0.827
		c-1.405,0.37-2.846,0.792-4.276,1.315c-0.717,0.258-1.435,0.53-2.148,0.817c-0.717,0.283-1.434,0.599-2.13,0.885
		c-1.39,0.604-2.806,1.182-4.193,1.755c-1.394,0.564-2.754,1.148-4.078,1.695c-1.326,0.539-2.599,1.088-3.81,1.6
		c-1.214,0.501-2.354,0.993-3.407,1.448c-2.105,0.903-3.86,1.657-5.089,2.185c-0.613,0.27-1.106,0.462-1.44,0.595
		c-0.334,0.134-0.513,0.204-0.513,0.204s0.186-0.043,0.534-0.127C1.591,20.027,2.107,19.925,2.747,19.724z"/>
	<path fill="#FFFFFF" d="M2.987,19.105c0.624-0.235,1.376-0.533,2.229-0.894c0.857-0.354,1.816-0.77,2.857-1.234
		c1.043-0.457,2.163-0.974,3.347-1.525c1.187-0.543,2.427-1.136,3.706-1.755c0.642-0.309,1.293-0.621,1.953-0.938
		c0.656-0.324,1.318-0.652,1.987-0.982c1.337-0.659,2.702-1.32,4.053-1.962c1.36-0.635,2.742-1.225,4.117-1.765
		c1.37-0.552,2.735-1.052,4.073-1.481c1.337-0.43,2.64-0.812,3.891-1.098c1.254-0.284,2.444-0.51,3.558-0.625
		c1.11-0.111,2.137-0.154,3.042-0.09c0.903,0.063,1.687,0.196,2.316,0.377c0.629,0.181,1.107,0.383,1.423,0.543
		c0.16,0.078,0.278,0.145,0.358,0.189c0.08,0.045,0.122,0.068,0.122,0.068s-0.037-0.029-0.11-0.085
		c-0.072-0.057-0.179-0.144-0.329-0.242c-0.295-0.2-0.746-0.48-1.371-0.74c-0.625-0.256-1.415-0.504-2.348-0.652
		c-0.932-0.15-2.001-0.228-3.158-0.188c-1.159,0.039-2.412,0.154-3.715,0.387c-1.304,0.231-2.668,0.53-4.052,0.926
		C29.554,5.735,28.141,6.2,26.724,6.72c-1.41,0.532-2.825,1.12-4.221,1.753c-1.404,0.628-2.75,1.333-4.086,2.003
		s-2.639,1.351-3.895,2.019c-1.259,0.659-2.475,1.305-3.619,1.929c-1.147,0.616-2.23,1.201-3.226,1.753
		c-1.994,1.095-3.656,2.007-4.819,2.645c-0.587,0.312-1.046,0.56-1.365,0.715c-0.317,0.154-0.499,0.219-0.499,0.219
		s0.186-0.034,0.53-0.139C1.866,19.508,2.365,19.344,2.987,19.105z"/>
	<path fill="#FFFFFF" d="M49.491,38.464c0.127-2.541-1.144-20.334-1.585-22.888c0,0-0.862-3.097-8.451-3.403
		c-6.393-0.26-15.177,2.493-20.162,3.983c-1.334,0.4-3.138,0.888-5.089,1.393c0.424-0.13,0.854-0.26,1.289-0.395
		c1.368-0.436,2.789-0.859,4.219-1.34c1.43-0.479,2.883-0.958,4.335-1.475c0.734-0.26,1.429-0.53,2.143-0.774
		c0.711-0.248,1.424-0.48,2.135-0.7c1.423-0.432,2.828-0.847,4.207-1.165c1.377-0.314,2.716-0.592,3.997-0.766
		c1.28-0.173,2.497-0.277,3.622-0.29c1.123-0.006,2.153,0.068,3.054,0.22c0.899,0.158,1.667,0.383,2.283,0.619
		c0.605,0.258,1.071,0.498,1.372,0.69c0.303,0.195,0.463,0.298,0.463,0.298s-0.143-0.127-0.412-0.369
		c-0.275-0.232-0.702-0.552-1.296-0.888c-0.6-0.32-1.365-0.658-2.285-0.908c-0.918-0.256-1.984-0.443-3.151-0.52
		c-1.17-0.083-2.44-0.075-3.772,0.039c-1.333,0.105-2.729,0.302-4.154,0.59c-1.424,0.288-2.887,0.627-4.345,1.068
		c-0.73,0.217-1.463,0.447-2.193,0.692c-0.729,0.242-1.465,0.516-2.175,0.762c-1.424,0.523-2.87,1.02-4.288,1.512
		c-1.424,0.484-2.815,0.987-4.168,1.459c-1.355,0.462-2.657,0.937-3.896,1.377c-1.24,0.431-2.406,0.858-3.484,1.252
		C5.768,19.239,4.125,19.834,2.9,20.28c-0.758,0.167-1.308,0.28-1.552,0.318c-0.135,0.021-0.557,0.159-0.557,0.159l0.036,0.246
		C0.615,21.074,0.5,21.113,0.5,21.113s0.118-0.021,0.335-0.06l3.601,24.93c0,0,1.065-0.423,1.813-0.601
		c8.581-2.03,36.435-7.646,39.783-6.298C49.379,40.433,49.367,41.003,49.491,38.464z M23.263,37.136
		c-5.027-1.38-7.983-6.573-6.604-11.602c1.38-5.026,6.574-7.983,11.601-6.604s7.983,6.575,6.604,11.602
		C33.482,35.561,28.288,38.517,23.263,37.136z"/>
	<path fill="#FFFFFF" d="M29.744,28.767c-0.223-0.392-0.508-0.718-0.853-0.975c-0.346-0.258-0.774-0.456-1.282-0.599
		c-0.266-0.071-0.801-0.146-1.604-0.228l-0.646-4.432c0.516,0.029,0.94,0.185,1.275,0.464c0.334,0.278,0.592,0.715,0.771,1.304
		l1.554-0.47c-0.28-0.954-0.796-1.66-1.549-2.12c-0.588-0.362-1.334-0.521-2.241-0.476l-0.106-0.733l-0.905,0.131l0.107,0.735
		c-1.004,0.25-1.731,0.642-2.184,1.172c-0.676,0.791-0.933,1.733-0.773,2.826c0.09,0.614,0.303,1.144,0.639,1.59
		c0.335,0.445,0.766,0.768,1.296,0.971c0.715,0.273,1.396,0.424,2.045,0.451l0.715,4.894c-0.613,0.023-1.176-0.204-1.688-0.688
		c-0.356-0.343-0.657-0.919-0.896-1.728l-1.503,0.517c0.172,0.788,0.476,1.434,0.906,1.935c0.43,0.501,0.904,0.84,1.421,1.018
		c0.518,0.178,1.168,0.258,1.95,0.243l0.224,1.537l0.906-0.133l-0.228-1.554c1.068-0.208,1.89-0.717,2.463-1.528
		s0.782-1.747,0.627-2.813C30.113,29.595,29.967,29.158,29.744,28.767z M23.46,26.273c-0.346-0.31-0.556-0.726-0.632-1.25
		c-0.078-0.529,0.026-1.014,0.315-1.451c0.288-0.437,0.725-0.744,1.308-0.923l0.622,4.252C24.342,26.793,23.804,26.585,23.46,26.273
		z M28.274,32.146c-0.324,0.503-0.78,0.833-1.368,0.994l-0.683-4.68c0.865,0.148,1.46,0.37,1.785,0.668
		c0.325,0.3,0.529,0.728,0.609,1.285C28.714,31.067,28.6,31.646,28.274,32.146z"/>
</g>
</svg>
