<?xml version="1.0" encoding="utf-8"?>
<!-- Generator: Adobe Illustrator 16.0.0, SVG Export Plug-In . SVG Version: 6.00 Build 0)  -->
<!DOCTYPE svg PUBLIC "-//W3C//DTD SVG 1.1//EN" "http://www.w3.org/Graphics/SVG/1.1/DTD/svg11.dtd">
<svg version="1.1" id="Layer_1" xmlns="http://www.w3.org/2000/svg" xmlns:xlink="http://www.w3.org/1999/xlink" x="0px" y="0px"
	 width="50px" height="50px" viewBox="0 0 50 50" enable-background="new 0 0 50 50" xml:space="preserve">
<g>
	<g>
		<path fill="#FFFFFF" d="M26.166,32.414c0.352-0.402,0.529-0.899,0.529-1.491c0-0.503-0.126-0.91-0.376-1.216
			c-0.249-0.307-0.747-0.58-1.494-0.822v4.231C25.367,33.05,25.813,32.815,26.166,32.414z"/>
		<path fill="#FFFFFF" d="M37.215,15.377c0-2.212-1.792-4.005-4.005-4.005h-5.483l-0.078-0.132
			c-0.105-0.301-0.205-0.587-0.247-0.945c-0.015-0.129-0.01-0.263,0.003-0.397c0.2-0.019,0.355-0.096,0.404-0.229l1.155-3.148
			c0.046-0.124-0.008-0.272-0.134-0.409c0.029-0.094,0.061-0.193,0.09-0.295l0.059-0.192c0.024-0.081,0.047-0.16,0.07-0.24
			c0.374-0.425,0.829-0.687,1.381-0.794c0.83-0.163,1.77,0.041,2.668,0.397c-0.174,0.282-0.349,0.559-0.518,0.824
			c-1.052,1.652-1.958,3.079-1.517,3.957c0.188,0.377,0.581,0.588,1.163,0.631c4.395,0.317,5.532-0.864,5.818-1.597
			c0.295-0.752-0.044-1.611-0.903-2.3c-0.601-0.481-1.665-1.266-2.894-1.878c0.669-1.17,1.089-2.228,0.778-3.025
			c-0.178-0.451-0.562-0.759-1.145-0.914C30.171-0.308,28.959,2.93,28.329,5c-0.135,0.169-0.259,0.356-0.373,0.56
			c-0.027,0.049-0.05,0.093-0.076,0.14c-0.257-0.006-0.461,0.075-0.52,0.233L26.205,9.08c-0.022,0.063-0.021,0.131,0.002,0.2
			c-0.293,0.261-0.653,0.44-1.044,0.491c-1.427,0.184-2.193,0.84-2.587,1.358l-0.15,0.242h-6.171c-2.21,0-4.006,1.793-4.006,4.005
			L6.911,45.496c0,2.212,1.794,4.004,4.006,4.004h27.634c2.211,0,4.538-1.792,4.538-4.004L37.215,15.377z M36.643,7.128
			c0.572,0.457,0.816,0.973,0.657,1.382c-0.269,0.683-1.727,1.327-5.015,1.089c-0.159-0.011-0.436-0.052-0.506-0.191
			c-0.237-0.471,0.752-2.03,1.477-3.167c0.198-0.312,0.394-0.621,0.581-0.923C35.09,5.935,36.174,6.752,36.643,7.128z M33.676,1.458
			c0.486,0.13,0.574,0.356,0.604,0.431c0.198,0.507-0.21,1.43-0.765,2.4c-0.81-0.332-1.659-0.558-2.478-0.558
			c-0.257,0-0.513,0.023-0.762,0.072c-0.273,0.054-0.534,0.138-0.774,0.251C30.241,2.157,31.323,0.83,33.676,1.458z M25.268,10.566
			c0.49-0.064,0.944-0.26,1.323-0.552c-0.003,0.124,0,0.249,0.015,0.373c0.046,0.386,0.145,0.703,0.242,0.985h-3.417
			C23.866,10.944,24.493,10.665,25.268,10.566z M24.734,13.642c0.589,0,1.124,0.234,1.518,0.613
			c-1.141,0.786-2.24,0.702-2.857,0.058l-0.115-0.116C23.666,13.853,24.174,13.642,24.734,13.642z M22.76,14.882
			c0.003-0.008,0.003-0.031,0.012-0.026c0.027,0.013,0.047,0.014,0.052,0.02c0.01,0.011,0.02,0.021,0.027,0.031
			c0.444,0.48,1.032,0.703,1.714,0.703c0.671,0,1.416-0.234,2.155-0.702c0.132,0.282,0.208,0.596,0.208,0.928
			c0,1.212-0.983,2.194-2.193,2.194c-1.213,0-2.194-0.982-2.194-2.194C22.54,15.494,22.618,15.171,22.76,14.882z M22.254,28.027
			c-0.443-0.247-0.785-0.589-1.024-1.027c-0.239-0.438-0.357-0.935-0.357-1.49c0-0.988,0.35-1.789,1.05-2.402
			c0.469-0.412,1.163-0.664,2.085-0.757v-0.664h0.818v0.664c0.809,0.078,1.448,0.314,1.924,0.711
			c0.606,0.505,0.973,1.196,1.097,2.077l-1.438,0.216c-0.081-0.545-0.254-0.963-0.513-1.255c-0.262-0.29-0.616-0.481-1.07-0.574
			v4.009c0.701,0.174,1.163,0.311,1.39,0.408c0.433,0.19,0.786,0.423,1.058,0.695c0.273,0.273,0.483,0.597,0.632,0.973
			c0.146,0.376,0.218,0.783,0.218,1.221c0,0.962-0.306,1.766-0.919,2.409c-0.612,0.645-1.405,0.988-2.378,1.035v1.405h-0.818v-1.39
			c-0.695-0.088-1.26-0.244-1.694-0.468c-0.437-0.224-0.813-0.586-1.128-1.085c-0.317-0.499-0.502-1.109-0.554-1.83l1.398-0.263
			c0.108,0.746,0.299,1.294,0.572,1.644c0.391,0.495,0.859,0.771,1.405,0.827v-4.425C23.436,28.584,22.851,28.362,22.254,28.027z
			 M34.363,45.607H16.057v-6.053h18.307V45.607z"/>
		<path fill="#FFFFFF" d="M24.007,23.509c-0.541,0.083-0.967,0.299-1.278,0.649c-0.313,0.35-0.467,0.765-0.467,1.244
			c0,0.474,0.132,0.869,0.397,1.188c0.265,0.32,0.714,0.574,1.348,0.765V23.509z"/>
		<rect x="17.337" y="40.614" fill="#FFFFFF" width="0.454" height="3.782"/>
		<rect x="18.851" y="40.614" fill="#FFFFFF" width="0.454" height="3.782"/>
		<rect x="20.364" y="40.614" fill="#FFFFFF" width="0.454" height="3.782"/>
		<rect x="21.876" y="40.614" fill="#FFFFFF" width="0.454" height="3.782"/>
		<rect x="23.39" y="40.614" fill="#FFFFFF" width="0.454" height="3.782"/>
		<rect x="24.903" y="40.614" fill="#FFFFFF" width="0.452" height="3.782"/>
		<rect x="26.415" y="40.614" fill="#FFFFFF" width="0.454" height="3.782"/>
		<rect x="27.929" y="40.614" fill="#FFFFFF" width="0.454" height="3.782"/>
		<rect x="29.442" y="40.614" fill="#FFFFFF" width="0.452" height="3.782"/>
		<rect x="30.954" y="40.614" fill="#FFFFFF" width="0.454" height="3.782"/>
		<rect x="32.468" y="40.614" fill="#FFFFFF" width="0.454" height="3.782"/>
	</g>
</g>
</svg>
