<?xml version="1.0" encoding="utf-8"?>
<!-- Generator: Adobe Illustrator 16.0.0, SVG Export Plug-In . SVG Version: 6.00 Build 0)  -->
<!DOCTYPE svg PUBLIC "-//W3C//DTD SVG 1.1//EN" "http://www.w3.org/Graphics/SVG/1.1/DTD/svg11.dtd">
<svg version="1.1" id="Layer_1" xmlns="http://www.w3.org/2000/svg" xmlns:xlink="http://www.w3.org/1999/xlink" x="0px" y="0px"
	 width="50px" height="50px" viewBox="0 0 50 50" enable-background="new 0 0 50 50" xml:space="preserve">
<g>
	<path fill="#FFFFFF" d="M33.243,12.02c0,0,3.817-6.844,4.777-9.357c0.956-2.514-4.122,1.559-6.563,2.679
		c0,0-0.402,0.396-1.12-0.201S26.658,0.5,25.619,0.5c-1.199,0-3.481,5.12-4.802,4.96c-1.844-0.224-6.141-4.165-7.721-3.159
		c-1.321,0.841,4.702,9.841,4.702,9.841L33.243,12.02z"/>
	<path fill="#FFFFFF" d="M23.519,29.379c0,0.705,0.478,1.296,1.433,1.772V27.88C23.996,28.054,23.519,28.551,23.519,29.379z"/>
	<path fill="#FFFFFF" d="M26.455,34.632v3.121c0.982-0.151,1.473-0.643,1.473-1.472C27.928,35.606,27.438,35.057,26.455,34.632z"/>
	<path fill="#FFFFFF" d="M42.584,26.511c-3.831-6.11-9.341-12.813-9.341-12.813H17.681c0,0-7.234,7.244-11.421,14.263
		c-2.67,4.476-3.458,11.632,0.525,15.429c4.735,4.518,8.143,5.027,12.93,5.628c4.789,0.597,9.699,0.597,12.811,0.239
		c3.113-0.359,7.783-1.437,11.255-5.387C47.252,39.918,46.415,32.613,42.584,26.511z M29.577,38.894
		c-0.728,0.695-1.77,1.12-3.122,1.271v2.234h-1.504v-2.174c-1.396-0.007-2.694-0.323-3.895-0.945v-2.854
		c0.397,0.321,0.993,0.618,1.781,0.896c0.789,0.274,1.495,0.432,2.113,0.473v-3.749c-1.608-0.598-2.705-1.246-3.293-1.942
		c-0.586-0.695-0.88-1.548-0.88-2.552c0-1.075,0.38-1.995,1.144-2.756c0.762-0.756,1.772-1.198,3.029-1.322v-1.917h1.504v1.872
		c1.448,0.07,2.531,0.306,3.245,0.706v2.778c-0.963-0.58-2.044-0.938-3.245-1.07v3.906c1.504,0.541,2.582,1.159,3.234,1.858
		c0.652,0.697,0.979,1.54,0.979,2.53C30.668,37.276,30.304,38.194,29.577,38.894z"/>
</g>
</svg>
