<?xml version="1.0" encoding="utf-8"?>
<!-- Generator: Adobe Illustrator 16.0.0, SVG Export Plug-In . SVG Version: 6.00 Build 0)  -->
<!DOCTYPE svg PUBLIC "-//W3C//DTD SVG 1.1//EN" "http://www.w3.org/Graphics/SVG/1.1/DTD/svg11.dtd">
<svg version="1.1" id="Layer_1" xmlns="http://www.w3.org/2000/svg" xmlns:xlink="http://www.w3.org/1999/xlink" x="0px" y="0px"
	 width="50px" height="50px" viewBox="0 0 50 50" enable-background="new 0 0 50 50" xml:space="preserve">
<path fill="#FFFFFF" d="M2.846,33.027c0.272,0.009,0.698,0.028,1.226,0.055c-0.149,0.523-0.257,1.067-0.257,1.639
	c0,3.295,2.673,5.967,5.968,5.967s5.965-2.672,5.965-5.967c0-0.225-0.041-0.437-0.065-0.655l0.348,0.61c0,0,15.758,0,17.141-0.065
	c1.383-0.066,2.373-1.451,2.373-1.451l0.196,1.253c0,0,0.397,0.329,1.32-0.329c0.151-0.108,0.366-0.211,0.604-0.31
	c-0.052,0.311-0.096,0.622-0.096,0.947c0,3.295,2.67,5.967,5.965,5.967c3.296,0,5.967-2.672,5.967-5.967
	c0-1.596-0.635-3.036-1.655-4.106c0.14-0.057,0.224-0.092,0.224-0.092s0.789-0.33,0.99-0.659c0.195-0.329,0.526-0.79,0.064-1.581
	c-0.462-0.792-1.12-2.044-2.835-2.835c-1.714-0.792-3.427-0.726-3.427-0.726s0.065-0.725,0.065-1.647
	c0-0.924-0.462-0.924-1.582-0.989c-1.124-0.066-1.452-0.066-1.716-0.396c-0.262-0.329-0.856-2.044-1.515-3.692
	c-0.66-1.647-1.647-3.757-1.647-3.757s1.911,0.462,2.175,0.066c0.265-0.396,0.462-1.122,0.196-3.297
	c-0.263-2.175-0.724-1.714-2.042-1.516c-1.319,0.198-2.109,0.856-2.109,0.856l-1.977,0.924v0.857c0,0-1.318,0.13-2.572,0.461
	c-1.253,0.33-0.856,1.055-0.134,0.989c0.726-0.065,3.101-0.33,3.101-0.33l0.262,0.727c0,0-0.79,0.658-1.384,1.119
	c-0.591,0.461-0.132,1.055,0.396,0.726c0.528-0.33,1.451-0.792,1.451-0.792s0.33,1.055,0.924,2.967
	c0.592,1.911,0.986,3.297,1.186,4.615c0.198,1.317-0.33,3.493-1.317,5.273c-0.988,1.779-2.507,2.11-3.495,2.242
	c-0.988,0.133-5.407,0.064-6.395,0c-0.988-0.065-2.041-1.386-2.308-2.9c-0.262-1.517,1.582-3.561,2.375-4.418
	c0.389-0.42,0.457-0.729,0.311-0.935c0.806-0.012,0.744-0.309,0.809-1.031c0.065-0.738-0.132-1.548-0.199-2.286
	c-0.064-0.738-1.317-1.359-2.105-1.286c-1.383,0.13-6.223,0.965-11.341-0.263c-3.297-0.792-4.812,0.295-5.274,0.737
	c-0.461,0.442,0,3.392,0.463,3.835c0.041,0.04,0.111,0.076,0.204,0.106c-0.168,0.104-0.361,0.238-0.558,0.386
	c-0.416-0.664-0.938-1.691-0.899-3.614c0.065-3.229-5.406-3.033-5.537-0.066c-0.029,0.648-0.923,5.472,1.713,5.274
	c0.224-0.017,0.443-0.026,0.66-0.031l-1.715,1.547c0,0-0.396,1.978,0,2.177c0.396,0.196,0.727,0.593,0.727,0.593
	s-0.66,1.911-1.318,3.23C0.076,32.499,0.802,32.962,2.846,33.027z M41.33,32.755c0.52-0.125,1.038-0.252,1.531-0.387
	c0.48-0.131,1.007-0.297,1.531-0.473c1.218,0.371,2.108,1.487,2.108,2.825c0,1.639-1.328,2.967-2.968,2.967
	c-1.638,0-2.967-1.328-2.967-2.967C40.566,33.963,40.859,33.278,41.33,32.755z M7.217,33.255c1.775,0.103,3.726,0.218,5.3,0.313
	c0.148,0.355,0.23,0.744,0.23,1.152c0,1.639-1.326,2.967-2.965,2.967c-1.64,0-2.967-1.328-2.967-2.967
	C6.815,34.185,6.969,33.689,7.217,33.255z"/>
</svg>
