<?xml version="1.0" encoding="utf-8"?>
<!-- Generator: Adobe Illustrator 16.0.0, SVG Export Plug-In . SVG Version: 6.00 Build 0)  -->
<!DOCTYPE svg PUBLIC "-//W3C//DTD SVG 1.1//EN" "http://www.w3.org/Graphics/SVG/1.1/DTD/svg11.dtd">
<svg version="1.1" id="Layer_1" xmlns="http://www.w3.org/2000/svg" xmlns:xlink="http://www.w3.org/1999/xlink" x="0px" y="0px"
	 width="50px" height="50px" viewBox="0 0 50 50" enable-background="new 0 0 50 50" xml:space="preserve">
<path fill-rule="evenodd" clip-rule="evenodd" fill="#FFFFFF" d="M48.264,42.297l-9.511-9.494c-0.056-0.059-0.122-0.097-0.186-0.155
	c2.156-3.268,3.415-7.188,3.415-11.399c0-11.451-9.286-20.741-20.739-20.741C9.788,0.507,0.5,9.797,0.5,21.248
	c0,11.458,9.288,20.745,20.743,20.745c4.209,0,8.123-1.261,11.396-3.416c0.057,0.058,0.096,0.127,0.152,0.186l9.509,9.495
	c1.647,1.646,4.315,1.646,5.963,0C49.912,46.613,49.912,43.94,48.264,42.297L48.264,42.297z M21.246,38.323
	c-9.354,0-16.932-7.646-16.932-17.084c0-9.433,7.577-17.081,16.932-17.081c9.345,0,16.927,7.647,16.927,17.081
	C38.173,30.678,30.591,38.323,21.246,38.323L21.246,38.323z M21.243,34.8"/>
</svg>
