<?xml version="1.0" encoding="utf-8"?>
<!-- Generator: Adobe Illustrator 16.0.0, SVG Export Plug-In . SVG Version: 6.00 Build 0)  -->
<!DOCTYPE svg PUBLIC "-//W3C//DTD SVG 1.1//EN" "http://www.w3.org/Graphics/SVG/1.1/DTD/svg11.dtd">
<svg version="1.1" id="Layer_1" xmlns="http://www.w3.org/2000/svg" xmlns:xlink="http://www.w3.org/1999/xlink" x="0px" y="0px"
	 width="50px" height="50px" viewBox="0 0 50 50" enable-background="new 0 0 50 50" xml:space="preserve">
<g>
	<g>
		<circle fill="#FFFFFF" cx="35.646" cy="5.712" r="5.213"/>
		<path fill="#FFFFFF" d="M45.732,19.154c-0.393-4.658-4.756-8.326-10.086-8.326c-5.326,0-9.692,3.668-10.084,8.326
			c0,0,2.711,3.599,9.913,3.428C43.328,22.392,45.732,19.154,45.732,19.154z"/>
	</g>
	<g>
		<path fill="#FFFFFF" d="M42.471,32.627c0,2.879-2.334,5.211-5.213,5.211s-5.213-2.332-5.213-5.211
			c0-2.882,2.334-5.213,5.213-5.213S42.471,29.745,42.471,32.627z"/>
		<path fill="#FFFFFF" d="M47.344,46.067c-0.393-4.658-4.758-8.327-10.086-8.327s-9.691,3.669-10.086,8.327
			c0,0,2.713,3.601,9.914,3.427C44.939,49.306,47.344,46.067,47.344,46.067z"/>
	</g>
	<g>
		<circle fill="#FFFFFF" cx="12.742" cy="19.577" r="5.212"/>
		<path fill="#FFFFFF" d="M22.828,33.018c-0.394-4.657-4.759-8.327-10.087-8.327c-5.326,0-9.69,3.67-10.084,8.327
			c0,0,2.713,3.599,9.914,3.428C20.423,36.256,22.828,33.018,22.828,33.018z"/>
	</g>
	<g>
		<g>
			<circle fill-rule="evenodd" clip-rule="evenodd" fill="#FFFFFF" cx="35.305" cy="16.412" r="4.75"/>
			<path fill="#FFFFFF" d="M35.305,22.414c-3.311,0-6.004-2.692-6.004-6.002c0-3.312,2.693-6.005,6.004-6.005
				s6.002,2.693,6.002,6.005C41.307,19.722,38.615,22.414,35.305,22.414z M35.305,12.916c-1.926,0-3.496,1.569-3.496,3.497
				c0,1.926,1.57,3.494,3.496,3.494c1.928,0,3.494-1.568,3.494-3.494C38.799,14.484,37.232,12.916,35.305,12.916z"/>
		</g>
		<g>
			<circle fill-rule="evenodd" clip-rule="evenodd" fill="#FFFFFF" cx="13.039" cy="30.267" r="4.749"/>
			<path fill="#FFFFFF" d="M13.038,36.27c-3.311,0-6.002-2.692-6.002-6.003c0-3.31,2.691-6.002,6.002-6.002s6.005,2.692,6.005,6.002
				C19.042,33.577,16.348,36.27,13.038,36.27z M13.038,26.772c-1.927,0-3.494,1.567-3.494,3.494c0,1.928,1.567,3.495,3.494,3.495
				c1.928,0,3.497-1.567,3.497-3.495C16.535,28.34,14.965,26.772,13.038,26.772z"/>
		</g>
		<g>
			<circle fill-rule="evenodd" clip-rule="evenodd" fill="#FFFFFF" cx="35.062" cy="43.096" r="4.749"/>
			<path fill="#FFFFFF" d="M35.063,49.099c-3.311,0-6.006-2.693-6.006-6.003c0-3.312,2.695-6.005,6.006-6.005
				c3.309,0,6.004,2.693,6.004,6.005C41.066,46.405,38.371,49.099,35.063,49.099z M35.063,39.599c-1.928,0-3.496,1.569-3.496,3.497
				c0,1.926,1.568,3.495,3.496,3.495s3.494-1.569,3.494-3.495C38.557,41.168,36.99,39.599,35.063,39.599z"/>
		</g>
		<g>
			<line fill="#FFFFFF" x1="31.281" y1="18.863" x2="17.001" y2="27.576"/>
			
				<rect x="22.888" y="14.856" transform="matrix(0.521 0.8536 -0.8536 0.521 31.3834 -9.484)" fill="#FFFFFF" width="2.508" height="16.728"/>
		</g>
		<g>
			<line fill="#FFFFFF" x1="16.882" y1="33.266" x2="30.736" y2="40.946"/>
			
				<rect x="15.888" y="35.851" transform="matrix(0.8746 0.4849 -0.4849 0.8746 20.9774 -6.8908)" fill="#FFFFFF" width="15.843" height="2.509"/>
		</g>
	</g>
</g>
</svg>
