<?xml version="1.0" encoding="utf-8"?>
<!-- Generator: Adobe Illustrator 16.0.0, SVG Export Plug-In . SVG Version: 6.00 Build 0)  -->
<!DOCTYPE svg PUBLIC "-//W3C//DTD SVG 1.1//EN" "http://www.w3.org/Graphics/SVG/1.1/DTD/svg11.dtd">
<svg version="1.1" id="Layer_1" xmlns="http://www.w3.org/2000/svg" xmlns:xlink="http://www.w3.org/1999/xlink" x="0px" y="0px"
	 width="50px" height="50px" viewBox="0 0 50 50" enable-background="new 0 0 50 50" xml:space="preserve">
<g>
	<path fill="#FFFFFF" d="M23.305,35.41c-2.369,0-4.294,1.927-4.294,4.294s1.925,4.294,4.294,4.294c2.368,0,4.293-1.927,4.293-4.294
		S25.673,35.41,23.305,35.41z M23.305,41.509c-0.994,0-1.805-0.811-1.805-1.805s0.811-1.805,1.805-1.805s1.806,0.811,1.806,1.805
		S24.299,41.509,23.305,41.509z"/>
	<path fill="#FFFFFF" d="M49.138,12.65c-0.349-0.48-0.91-0.763-1.506-0.763H21.854c-1.029,0-1.864,0.835-1.864,1.867
		c0,1.03,0.835,1.866,1.864,1.866h23.23l-4.507,14.232H18.666L12.459,7.769c-0.22-0.773-0.905-1.32-1.706-1.359L2.458,6.004
		C1.402,5.95,0.553,6.749,0.502,7.777c-0.051,1.03,0.744,1.906,1.773,1.956l6.952,0.339l6.227,22.151
		c0.225,0.806,0.961,1.362,1.797,1.362h24.694c0.814,0,1.534-0.528,1.78-1.304l5.687-17.965C49.593,13.75,49.49,13.131,49.138,12.65
		z"/>
	<path fill="#FFFFFF" d="M22.799,21.329h13.512c1.03,0,1.866-0.835,1.866-1.866s-0.836-1.867-1.866-1.867H22.799
		c-1.029,0-1.865,0.836-1.865,1.867S21.77,21.329,22.799,21.329z"/>
	<path fill="#FFFFFF" d="M22.799,27.626h13.112c1.03,0,1.868-0.836,1.868-1.867c0-1.031-0.838-1.867-1.868-1.867H22.799
		c-1.029,0-1.865,0.836-1.865,1.867C20.934,26.79,21.77,27.626,22.799,27.626z"/>
	<path fill="#FFFFFF" d="M36.588,35.41c-2.369,0-4.294,1.927-4.294,4.294s1.925,4.294,4.294,4.294c2.366,0,4.294-1.927,4.294-4.294
		S38.954,35.41,36.588,35.41z M36.588,41.509c-0.994,0-1.806-0.811-1.806-1.805s0.812-1.805,1.806-1.805s1.805,0.811,1.805,1.805
		S37.582,41.509,36.588,41.509z"/>
</g>
</svg>
