<?xml version="1.0" encoding="utf-8"?>
<!-- Generator: Adobe Illustrator 16.0.0, SVG Export Plug-In . SVG Version: 6.00 Build 0)  -->
<!DOCTYPE svg PUBLIC "-//W3C//DTD SVG 1.1//EN" "http://www.w3.org/Graphics/SVG/1.1/DTD/svg11.dtd">
<svg version="1.1" id="Layer_1" xmlns="http://www.w3.org/2000/svg" xmlns:xlink="http://www.w3.org/1999/xlink" x="0px" y="0px"
	 width="50px" height="50px" viewBox="0 0 50 50" enable-background="new 0 0 50 50" xml:space="preserve">
<path fill="#FFFFFF" d="M45.47,19.96H26.75c-0.038-0.092-0.067-0.186-0.119-0.271L18.825,5.771
	c-0.679-1.208-2.272-1.674-3.563-1.041c-1.29,0.634-1.793,2.125-1.113,3.334l6.674,11.896H4.531c-2.227,0-4.031,1.712-4.031,3.824
	c0,1.9,1.461,3.472,3.374,3.771l2.871,14.103c0,2.149,1.866,3.895,4.166,3.895h28.404c2.299,0,4.165-1.745,4.165-3.895l2.984-14.171
	c1.745-0.421,3.035-1.917,3.035-3.703C49.5,21.673,47.696,19.96,45.47,19.96z M16.634,40.984h-1.189
	c-0.653,0-1.188-0.458-1.188-1.021l-2.38-8.502c0-0.564,0.532-1.023,1.19-1.023h2.306c0.656,0,1.188,0.459,1.188,1.023l1.265,8.502
	C17.825,40.526,17.291,40.984,16.634,40.984z M24.928,22.398c1.082,0,1.965,0.823,1.965,1.839c0,1.013-0.883,1.837-1.965,1.837
	c-1.087,0-1.968-0.824-1.968-1.837C22.96,23.222,23.841,22.398,24.928,22.398z M27.045,39.851c0,0.612-0.53,1.111-1.189,1.111
	h-1.637c-0.656,0-1.189-0.499-1.189-1.111v-8.274c0-0.618,0.533-1.114,1.189-1.114h1.637c0.659,0,1.189,0.496,1.189,1.114V39.851z
	 M35.968,39.964c0,0.563-0.532,1.021-1.189,1.021h-1.189c-0.657,0-1.19-0.458-1.19-1.021l1.266-8.502
	c0-0.564,0.532-1.023,1.188-1.023h2.306c0.657,0,1.19,0.459,1.19,1.023L35.968,39.964z"/>
</svg>
