<?xml version="1.0" encoding="utf-8"?>
<!-- Generator: Adobe Illustrator 16.0.0, SVG Export Plug-In . SVG Version: 6.00 Build 0)  -->
<!DOCTYPE svg PUBLIC "-//W3C//DTD SVG 1.1//EN" "http://www.w3.org/Graphics/SVG/1.1/DTD/svg11.dtd">
<svg version="1.1" id="Layer_1" xmlns="http://www.w3.org/2000/svg" xmlns:xlink="http://www.w3.org/1999/xlink" x="0px" y="0px"
	 width="50px" height="50px" viewBox="0 0 50 50" enable-background="new 0 0 50 50" xml:space="preserve">
<g>
	<g>
		<path fill="#FFFFFF" d="M36.999,25.873c-3.487-1.55-8.009-2.971-8.009-2.971l0.726,5.035l-4.472-2.323l-4.675,2.048l0.343-5.158
			c0,0-9.929,3.283-10.315,4.059c-0.388,0.774,1.662,0.456,1.662,0.456L24.917,30.8l14.22-3.945
			C39.137,26.854,40.485,27.423,36.999,25.873z"/>
		<path fill="#FFFFFF" d="M16.127,15.904c0.325,1.3,1.625,1.056,1.625,1.056s1.381,2.519,3.412,5.12
			c2.031,2.599,6.256,1.462,7.718,0.162s3.82-5.444,3.82-5.444s0.73,0.162,1.623-2.112c0.895-2.274-0.406-1.95-0.406-1.95
			s0.813-3.25,0.488-5.769c-0.325-2.519-2.438-4.712-7.068-6.093c-4.631-1.382-8.206,1.3-10.48,4.144
			c-2.275,2.842-0.406,7.555-0.406,7.555C15.883,12.085,15.802,14.604,16.127,15.904z M24.982,10.298
			c2.275-2.762,4.55-3.819,4.55-3.819s0.812,3.737,3.006,5.525c0,0-1.3,6.581-4.063,9.018c-2.761,2.438-5.28,1.463-6.823-0.73
			c-1.545-2.194-3.25-6.419-3.738-8.369C17.914,11.923,22.708,13.061,24.982,10.298z"/>
	</g>
	<g>
		<polygon fill="#FFFFFF" points="7.442,43.812 21.313,48.354 21.313,33.791 7.442,29.337 		"/>
		<polygon fill="#FFFFFF" points="28.688,33.657 28.688,48.222 42.558,43.679 42.558,29.204 		"/>
		<rect x="22.266" y="33.863" fill="#FFFFFF" width="5.473" height="14.547"/>
		<path fill="#FFFFFF" d="M24.98,49.5c1.381,0,2.512-0.358,2.631-0.814h-5.263C22.468,49.142,23.6,49.5,24.98,49.5z"/>
		<path fill="#FFFFFF" d="M41.431,28.753c0,0-0.981,0.174-2.43,0.484c-0.363,0.08-0.753,0.164-1.169,0.254
			c-0.409,0.1-0.841,0.201-1.288,0.308c-0.443,0.114-0.907,0.224-1.367,0.351c-0.455,0.125-0.948,0.253-1.397,0.391
			c-0.905,0.267-1.862,0.536-2.667,0.842c-0.41,0.15-0.79,0.309-1.144,0.463c-0.361,0.152-0.686,0.306-0.988,0.447
			c-0.298,0.146-0.571,0.276-0.803,0.402c-0.236,0.124-0.435,0.235-0.597,0.329c-0.15,0.088-0.267,0.158-0.35,0.211
			c-0.118-0.07-0.263-0.136-0.43-0.193c0.004-0.002,0.008-0.005,0.011-0.007l-3.72-0.007c-0.034-0.021-0.062-0.04-0.101-0.063
			c-0.154-0.095-0.345-0.206-0.568-0.328c-0.221-0.127-0.485-0.26-0.767-0.404c-0.289-0.141-0.6-0.295-0.942-0.445
			c-0.338-0.154-0.703-0.313-1.093-0.463c-0.768-0.307-1.683-0.575-2.549-0.842c-0.431-0.138-0.899-0.266-1.333-0.392
			c-0.439-0.126-0.884-0.236-1.307-0.35c-0.427-0.106-0.839-0.211-1.229-0.309c-0.396-0.089-0.772-0.176-1.116-0.254
			c-1.381-0.311-2.321-0.484-2.321-0.484l-0.045,0.069c0,0,0.218,0.066,0.601,0.182c0.381,0.119,0.929,0.287,1.582,0.489
			c0.646,0.21,1.398,0.454,2.206,0.716c0.394,0.137,0.813,0.271,1.224,0.422c0.413,0.151,0.815,0.291,1.228,0.459
			c0.416,0.158,0.824,0.322,1.211,0.489c0.393,0.161,0.781,0.321,1.174,0.465c0.778,0.286,1.536,0.529,2.189,0.735
			c0.646,0.197,1.193,0.354,1.596,0.453c-0.241,0.122-0.397,0.264-0.436,0.417h5.26c-0.021-0.087-0.079-0.17-0.17-0.248
			c0.111-0.024,0.261-0.059,0.443-0.104c0.423-0.101,1.009-0.26,1.699-0.458c0.684-0.206,1.474-0.45,2.29-0.736
			c0.41-0.145,0.817-0.303,1.229-0.464c0.404-0.167,0.833-0.331,1.269-0.491c0.432-0.165,0.853-0.307,1.288-0.458
			c0.427-0.149,0.864-0.284,1.278-0.421c0.844-0.263,1.633-0.507,2.31-0.717c0.686-0.201,1.257-0.371,1.657-0.487
			c0.401-0.117,0.631-0.184,0.631-0.184L41.431,28.753z"/>
	</g>
</g>
</svg>
