<?xml version="1.0" encoding="utf-8"?>
<!-- Generator: Adobe Illustrator 16.0.0, SVG Export Plug-In . SVG Version: 6.00 Build 0)  -->
<!DOCTYPE svg PUBLIC "-//W3C//DTD SVG 1.1//EN" "http://www.w3.org/Graphics/SVG/1.1/DTD/svg11.dtd">
<svg version="1.1" id="Layer_1" xmlns="http://www.w3.org/2000/svg" xmlns:xlink="http://www.w3.org/1999/xlink" x="0px" y="0px"
	 width="50px" height="50px" viewBox="0 0 50 50" enable-background="new 0 0 50 50" xml:space="preserve">
<g>
	<path fill="#FFFFFF" d="M37.762,26.676c0,0-0.365-2.505,0.463-4.416c0.829-1.91,1.134-4.267,1.221-5.4
		c0.088-1.135,0.706-3.119,0.793-5.821c0.088-2.706,0.953-3.383,0.778-4.125c-0.175-0.741-0.392-0.365-1.178,0.072
		c-0.784,0.436-2.617,0.713-5.277,0.8c-2.662,0.087-2.53,0.22-5.018-0.437c-2.485-0.653-2.958-0.221-4.798,1.18
		c-1.52,1.155-4.021-0.791-3.795,0.741c0.146,0.997-2.312,0.263-3.49-0.042c-1.178-0.307-1.701,1.046-2.704,1.046
		s-1.875,0.567-3.402,0.438c-1.526-0.132-2.05-1.223-1.788-0.089c0.262,1.135,0.872,1.091,1.091,2.749s0.96,2.965,1.177,4.056
		c0.219,1.091,0.654,5.977,0.654,7.067c0,1.091,0.132,2.225,0.132,2.225s6.603,0.117,11.962,0.354
		C30.507,27.329,37.762,26.676,37.762,26.676z"/>
	<path fill="#FFFFFF" d="M49.439,30.832H0.509L0.5,30.844v12.664h49V30.906L49.439,30.832z M46.134,32.526
		c0.434,0,0.785,0.351,0.785,0.782c0,0.431-0.352,0.78-0.785,0.78c-0.431,0-0.78-0.35-0.78-0.78
		C45.354,32.877,45.703,32.526,46.134,32.526z M9.902,34.469c0.433,0,0.783,0.35,0.783,0.782c0,0.431-0.351,0.78-0.783,0.78
		c-0.432,0-0.782-0.35-0.782-0.78C9.12,34.818,9.471,34.469,9.902,34.469z M3.716,42.427c-0.597,0-1.082-0.484-1.082-1.082
		s0.485-1.083,1.082-1.083c0.598,0,1.084,0.485,1.084,1.083S4.313,42.427,3.716,42.427z M4.288,34.363
		c-0.521,0-0.944-0.423-0.944-0.945c0-0.523,0.424-0.945,0.944-0.945c0.524,0,0.946,0.422,0.946,0.945
		C5.234,33.94,4.813,34.363,4.288,34.363z M5.868,38.122c-0.431,0-0.782-0.352-0.782-0.782s0.352-0.782,0.782-0.782
		c0.433,0,0.783,0.352,0.783,0.782S6.301,38.122,5.868,38.122z M9.526,41.826c-0.706,0-1.278-0.572-1.278-1.28
		c0-0.706,0.572-1.28,1.278-1.28c0.708,0,1.281,0.574,1.281,1.28C10.808,41.254,10.234,41.826,9.526,41.826z M14.896,37.014
		c0-0.433,0.35-0.782,0.781-0.782s0.783,0.35,0.783,0.782c0,0.431-0.352,0.78-0.783,0.78S14.896,37.444,14.896,37.014z
		 M16.44,42.209c-0.431,0-0.783-0.35-0.783-0.782c0-0.432,0.353-0.782,0.783-0.782c0.432,0,0.782,0.351,0.782,0.782
		C17.223,41.859,16.872,42.209,16.44,42.209z M19.746,35.015c0-0.663,0.537-1.201,1.2-1.201s1.2,0.538,1.2,1.201
		c0,0.662-0.537,1.2-1.2,1.2S19.746,35.677,19.746,35.015z M22.743,42.168c-0.432,0-0.782-0.35-0.782-0.782s0.351-0.782,0.782-0.782
		s0.781,0.35,0.781,0.782S23.175,42.168,22.743,42.168z M26.573,38.56c-0.431,0-0.781-0.352-0.781-0.784s0.351-0.782,0.781-0.782
		c0.432,0,0.784,0.35,0.784,0.782S27.005,38.56,26.573,38.56z M31.695,42.235c-0.748,0-1.354-0.606-1.354-1.354
		c0-0.746,0.605-1.353,1.354-1.353s1.356,0.606,1.356,1.353C33.052,41.629,32.443,42.235,31.695,42.235z M33.656,35.261
		c-0.747,0-1.353-0.605-1.353-1.353c0-0.748,0.605-1.355,1.353-1.355c0.749,0,1.356,0.607,1.356,1.355
		C35.013,34.655,34.405,35.261,33.656,35.261z M37.363,39.211c-0.431,0-0.781-0.35-0.781-0.78c0-0.433,0.351-0.782,0.781-0.782
		c0.432,0,0.782,0.35,0.782,0.782C38.146,38.861,37.795,39.211,37.363,39.211z M41.286,36.543c-0.431,0-0.782-0.352-0.782-0.782
		s0.352-0.783,0.782-0.783c0.432,0,0.782,0.353,0.782,0.783S41.718,36.543,41.286,36.543z M45.535,41.883
		c-0.854,0-1.546-0.695-1.546-1.546c0-0.855,0.692-1.548,1.546-1.548s1.548,0.692,1.548,1.548
		C47.083,41.188,46.389,41.883,45.535,41.883z"/>
	<path fill="#FFFFFF" d="M42.781,22.26l-3.826-0.065c-0.075,0.488-0.425,2.627-0.49,3.955c1.458,0.122,2.051,0.335,2.021,0.488
		c-0.148,0.746-6.982,1.596-15.464,1.596c-8.482,0-15.188-0.85-15.25-1.596c-0.013-0.157,0.629-0.28,2.104-0.402
		c-0.073-1.337-0.212-3.412-0.249-3.954L7.478,22.26l-6.805,8.288h48.612L42.781,22.26z M9.367,23.226
		c0.323,0,0.585,0.094,0.585,0.211c0,0.115-0.262,0.21-0.585,0.21c-0.322,0-0.585-0.095-0.585-0.21
		C8.782,23.319,9.045,23.226,9.367,23.226z M4.633,29.612c-0.597,0-1.08-0.173-1.08-0.388c0-0.214,0.483-0.389,1.08-0.389
		c0.598,0,1.084,0.175,1.084,0.389C5.717,29.439,5.23,29.612,4.633,29.612z M6.823,27.482c-0.52,0-0.945-0.153-0.945-0.342
		c0-0.187,0.426-0.34,0.945-0.34c0.524,0,0.946,0.153,0.946,0.34C7.77,27.329,7.348,27.482,6.823,27.482z M7.676,25.427
		c-0.431,0-0.781-0.126-0.781-0.282c0-0.153,0.351-0.28,0.781-0.28c0.434,0,0.784,0.127,0.784,0.28
		C8.46,25.301,8.109,25.427,7.676,25.427z M10.472,29.298c-0.956,0-1.733-0.279-1.733-0.624s0.777-0.624,1.733-0.624
		c0.96,0,1.738,0.279,1.738,0.624S11.432,29.298,10.472,29.298z M16.331,29.666c-0.431,0-0.782-0.126-0.782-0.281
		s0.352-0.28,0.782-0.28c0.432,0,0.782,0.125,0.782,0.28S16.763,29.666,16.331,29.666z M23.705,29.593
		c-0.432,0-0.782-0.125-0.782-0.28s0.351-0.282,0.782-0.282s0.782,0.127,0.782,0.282S24.137,29.593,23.705,29.593z M27.391,30.002
		c-0.431,0-0.781-0.127-0.781-0.28c0-0.157,0.351-0.282,0.781-0.282c0.433,0,0.785,0.125,0.785,0.282
		C28.176,29.875,27.823,30.002,27.391,30.002z M31.532,29.763c-0.748,0-1.354-0.218-1.354-0.486c0-0.27,0.605-0.487,1.354-0.487
		c0.747,0,1.355,0.218,1.355,0.487C32.888,29.545,32.279,29.763,31.532,29.763z M40.414,28.522c-0.431,0-0.781-0.128-0.781-0.281
		c0-0.156,0.351-0.282,0.781-0.282c0.432,0,0.784,0.126,0.784,0.282C41.198,28.395,40.846,28.522,40.414,28.522z M41.16,23.652
		c-0.32,0-0.58-0.094-0.58-0.211c0-0.113,0.26-0.208,0.58-0.208s0.582,0.095,0.582,0.208C41.742,23.559,41.48,23.652,41.16,23.652z
		 M41.924,25.664c0-0.156,0.353-0.282,0.783-0.282c0.432,0,0.782,0.126,0.782,0.282c0,0.155-0.351,0.28-0.782,0.28
		C42.276,25.944,41.924,25.819,41.924,25.664z M44.445,29.341c-1.018,0-1.844-0.299-1.844-0.664c0-0.366,0.826-0.665,1.844-0.665
		c1.019,0,1.846,0.299,1.846,0.665C46.291,29.042,45.464,29.341,44.445,29.341z"/>
</g>
</svg>
