<?xml version="1.0" encoding="utf-8"?>
<!-- Generator: Adobe Illustrator 16.0.0, SVG Export Plug-In . SVG Version: 6.00 Build 0)  -->
<!DOCTYPE svg PUBLIC "-//W3C//DTD SVG 1.1//EN" "http://www.w3.org/Graphics/SVG/1.1/DTD/svg11.dtd">
<svg version="1.1" id="Layer_1" xmlns="http://www.w3.org/2000/svg" xmlns:xlink="http://www.w3.org/1999/xlink" x="0px" y="0px"
	 width="50px" height="50px" viewBox="0 0 50 50" enable-background="new 0 0 50 50" xml:space="preserve">
<g>
	<ellipse fill="#FFFFFF" cx="32.104" cy="8.344" rx="1.665" ry="1.617"/>
	<g>
		<path fill="#FFFFFF" d="M7.342,34.787c2.053-0.087,4.451-0.171,7.021-0.216c1.284-0.027,2.615-0.055,3.963-0.082
			c1.361,0,2.744,0,4.128,0.002l0.518-0.003h0.133l0.063-0.002h0.033h0.017l0.052,0.005l0.256,0.021l1.021,0.081l1.019,0.081
			c0.346,0.045,0.697,0.104,1.048,0.154c1.417,0.17,2.736,0.525,4.019,0.867c1.243,0.458,2.465,0.856,3.532,1.433
			c0.54,0.273,1.075,0.516,1.572,0.789c0.483,0.295,0.953,0.579,1.402,0.851c0.911,0.521,1.666,1.128,2.353,1.626
			c0.334,0.259,0.655,0.49,0.938,0.723c0.274,0.244,0.526,0.47,0.755,0.673c0.905,0.814,1.391,1.307,1.391,1.307l-0.129,0.177
			c0,0-0.64-0.287-1.704-0.834c-0.53-0.277-1.169-0.614-1.924-0.954c-0.752-0.351-1.57-0.787-2.506-1.169
			c-0.461-0.202-0.938-0.411-1.436-0.63c-0.493-0.217-1.023-0.4-1.553-0.61c-1.06-0.44-2.215-0.773-3.379-1.201
			c-1.193-0.335-2.415-0.754-3.661-1.018c-0.313-0.074-0.62-0.157-0.944-0.226l-1.01-0.153l-1.013-0.152l-0.252-0.039l-0.22-0.015
			l-0.505-0.031c-1.353-0.083-2.706-0.164-4.04-0.243c-1.342-0.054-2.668-0.106-3.946-0.155c-2.564-0.101-4.957-0.194-7.01-0.274
			C3.238,35.404,0.5,35.296,0.5,35.296v-0.22C0.5,35.076,3.235,34.931,7.342,34.787z"/>
		<path fill="#FFFFFF" d="M41.411,35.065c-0.32-0.101-0.644-0.199-0.971-0.301c-0.327-0.089-0.667-0.146-1-0.221
			c-0.669-0.134-1.331-0.299-1.991-0.403c-0.664-0.077-1.318-0.152-1.952-0.227c-0.631-0.098-1.237-0.095-1.813-0.105
			c-0.571-0.015-1.109-0.025-1.609-0.037c-0.499-0.008-0.99,0.059-1.407,0.078c-0.423,0.03-0.791,0.058-1.095,0.078
			c-0.606,0.044-0.952,0.068-0.952,0.068l-0.05-2.191c0,0,0.349,0.009,0.958,0.024c0.302,0.009,0.672,0.02,1.095,0.03
			c0.429,0.022,0.893,0.002,1.433,0.063c0.539,0.064,1.122,0.133,1.743,0.207c0.614,0.072,1.265,0.136,1.912,0.302
			c0.651,0.141,1.323,0.288,2.004,0.438c0.675,0.176,1.348,0.415,2.022,0.621c0.335,0.111,0.676,0.203,1.005,0.33
			c0.323,0.136,0.648,0.271,0.969,0.406c0.318,0.134,0.637,0.266,0.95,0.397c0.156,0.066,0.312,0.132,0.467,0.197
			c0.149,0.072,0.296,0.152,0.44,0.229c0.583,0.308,1.145,0.605,1.678,0.887c0.529,0.287,0.993,0.622,1.438,0.897
			c0.438,0.293,0.859,0.521,1.187,0.797c0.337,0.259,0.63,0.484,0.872,0.67c0.48,0.37,0.758,0.583,0.758,0.583
			s-0.297-0.184-0.813-0.507c-0.258-0.158-0.571-0.354-0.928-0.577c-0.349-0.239-0.791-0.425-1.249-0.67
			c-0.464-0.228-0.949-0.512-1.495-0.741c-0.547-0.223-1.122-0.458-1.722-0.7c-0.15-0.061-0.299-0.127-0.452-0.182
			c-0.156-0.048-0.313-0.097-0.473-0.146C42.055,35.263,41.735,35.164,41.411,35.065z"/>
	</g>
	<path fill="#FFFFFF" d="M19.185,34.043"/>
	<path fill="#FFFFFF" d="M1.548,30.525c0.099,1.169,0.074,2.502,0.074,3.477c0,0.974,0.439,0.971,1.902,0.971
		s30.984,0.292,34.493,0.194c3.507-0.098,5.164-2.144,5.749-3.896c0.585-1.756-0.107-4.642-0.4-7.662
		c-0.292-3.021-1.354-9.879-1.842-11.145c-0.486-1.267-1.655-2.534-3.408-2.631c-0.344-0.019-0.937-0.027-1.675-0.026
		c0.406-0.12,0.702-0.482,0.702-0.916c0-0.531-0.441-0.96-0.987-0.96c-0.547,0-0.991,0.429-0.991,0.96
		c0,0.437,0.302,0.8,0.714,0.918c-2.072,0.012-4.974,0.081-7.101,0.169c0.335-0.154,0.571-0.483,0.571-0.868
		c0-0.53-0.445-0.96-0.99-0.96c-0.547,0-0.991,0.431-0.991,0.96c0,0.416,0.274,0.767,0.653,0.901
		c-0.753,0.036-1.351,0.074-1.696,0.113c-1.754,0.195-2.632,0.584-3.605,2.144c-0.976,1.559-2.046,3.994-3.218,6.139
		c-1.169,2.145-7.794,7.21-10.717,8.38c-2.923,1.169-5.9,1.667-6.649,2.055C1.739,29.045,1.452,29.356,1.548,30.525z M37.446,26.784
		c0-0.303,0.244-0.548,0.546-0.548h2.674c0.304,0,0.548,0.245,0.548,0.548v1.302c0,0.302-0.244,0.548-0.548,0.548h-2.674
		c-0.302,0-0.546-0.246-0.546-0.548V26.784z M33.148,13.562l5.664-0.001c0.313,0,0.568,0.313,0.568,0.698l0.308,3.169
		c0,0.384-0.256,0.695-0.568,0.695l-5.972,0.065V13.562z M27.958,26.784c0-0.303,0.244-0.548,0.546-0.548h2.674
		c0.302,0,0.547,0.245,0.547,0.548v1.302c0,0.302-0.245,0.548-0.547,0.548h-2.674c-0.302,0-0.546-0.246-0.546-0.548V26.784z
		 M26.175,17.56l0.041-3.301c0-0.384,0.252-0.695,0.565-0.695l5.934-0.002v4.631l-5.973,0.063
		C26.43,18.255,26.175,17.943,26.175,17.56z M23.057,15.686c0,0,1.304,11.356,0.549,17.196L23.057,15.686z M17.938,22.92
		c0.047-0.7,0.187-1.026,0.746-1.493c0.557-0.467,1.213-1.491,1.677-1.911c0.467-0.421,0.7-0.421,0.747,0.185
		c0.046,0.608-0.047,3.312-0.047,4.244c0,0.934,0.093,2.005-0.934,2.472s-2.003,1.353-2.05,0.047S17.892,23.618,17.938,22.92z
		 M13.975,28.469c0-0.7,0.045-1.072,0.045-1.771c0-0.7-0.042-1.121,0.551-1.603c0.59-0.479,1.046-0.814,1.293-1.025
		c0.647-0.56,0.758-0.056,0.758-0.056c0,0.373,0.055,2.208,0.055,2.953c0,0.746-0.25,0.901-0.623,1.183
		c-0.373,0.279-1.24,1.019-1.661,1.111C13.975,29.354,13.975,29.168,13.975,28.469z M10.49,30.008c0-0.615,0.041-0.942,0.041-1.557
		s-0.039-0.984,0.479-1.407c0.521-0.421,0.922-0.713,1.137-0.9c0.571-0.49,0.667-0.049,0.667-0.049c0,0.328,0.049,1.939,0.049,2.594
		c0,0.655-0.223,0.792-0.549,1.037c-0.326,0.246-1.09,0.896-1.457,0.978S10.49,30.621,10.49,30.008z M7.213,29.534
		c0-0.615-0.003-1.078,0.255-1.243c0.396-0.247,0.815-0.487,1.082-0.599c0.691-0.291,0.713-0.092,0.727,0.095
		c0.022,0.326,0.045,1.346,0.045,2.001c0,0.656-0.075,0.648-0.432,0.851c-0.376,0.214-0.752,0.368-0.933,0.446
		c-0.347,0.147-0.729,0.348-0.729-0.267C7.229,30.205,7.213,30.147,7.213,29.534z M4.661,30.073c0-0.547-0.003-0.963,0.227-1.107
		c0.352-0.221,0.617-0.297,0.939-0.389c0.645-0.185,0.614,0.01,0.626,0.176c0.019,0.291,0.129,1.045,0.129,1.629
		c0,0.583-0.141,0.688-0.459,0.867c-0.334,0.191-0.502,0.138-0.798,0.206c-0.33,0.075-0.648,0.312-0.648-0.237
		C4.677,30.67,4.661,30.621,4.661,30.073z M2.676,29.262c0.338-0.067,0.706-0.127,0.958-0.159c0.549-0.068,0.447,0.313,0.459,0.479
		c0.019,0.292,0.044,0.657,0.044,1.242c0,0.584-0.08,0.72-0.435,0.813c-0.343,0.092-0.524,0.138-0.751,0.138
		c-0.338,0-0.503,0.113-0.503-0.435c0-0.547-0.003-0.4-0.003-0.947C2.445,29.846,2.333,29.331,2.676,29.262z"/>
	<line fill="#FFFFFF" x1="39.228" y1="30.689" x2="29.771" y2="30.689"/>
	<line fill="#FFFFFF" x1="38.952" y1="32.059" x2="29.771" y2="32.059"/>
</g>
</svg>
