<?xml version="1.0" encoding="utf-8"?>
<!-- Generator: Adobe Illustrator 16.0.0, SVG Export Plug-In . SVG Version: 6.00 Build 0)  -->
<!DOCTYPE svg PUBLIC "-//W3C//DTD SVG 1.1//EN" "http://www.w3.org/Graphics/SVG/1.1/DTD/svg11.dtd">
<svg version="1.1" id="Layer_1" xmlns="http://www.w3.org/2000/svg" xmlns:xlink="http://www.w3.org/1999/xlink" x="0px" y="0px"
	 width="50px" height="50px" viewBox="0 0 50 50" enable-background="new 0 0 50 50" xml:space="preserve">
<g>
	<rect x="37.158" y="12.375" fill="#FFFFFF" width="1.127" height="7.905"/>
	<polygon fill="#FFFFFF" points="45.478,15.944 38.876,15.944 38.876,12.388 43.009,12.388 	"/>
	<g>
		<ellipse fill="#FFFFFF" cx="43.389" cy="34.376" rx="1.097" ry="1.135"/>
		<path fill="#FFFFFF" d="M40.25,34.376c0,1.794,1.404,3.249,3.139,3.249c1.733,0,3.138-1.455,3.138-3.249s-1.404-3.248-3.138-3.248
			C41.654,31.128,40.25,32.582,40.25,34.376z M41.597,34.376c0-1.024,0.802-1.856,1.792-1.856c0.989,0,1.792,0.832,1.792,1.856
			c0,1.025-0.803,1.855-1.792,1.855C42.398,36.231,41.597,35.401,41.597,34.376z"/>
	</g>
	<g>
		<ellipse fill="#FFFFFF" cx="15.908" cy="34.376" rx="1.097" ry="1.135"/>
		<path fill="#FFFFFF" d="M12.77,34.376c0,1.794,1.405,3.249,3.138,3.249c1.733,0,3.138-1.455,3.138-3.249s-1.404-3.248-3.138-3.248
			C14.175,31.128,12.77,32.582,12.77,34.376z M14.116,34.376c0-1.024,0.802-1.856,1.792-1.856c0.989,0,1.792,0.832,1.792,1.856
			c0,1.025-0.803,1.855-1.792,1.855C14.917,36.231,14.116,35.401,14.116,34.376z"/>
	</g>
	<g>
		<ellipse fill="#FFFFFF" cx="7.643" cy="34.376" rx="1.097" ry="1.135"/>
		<path fill="#FFFFFF" d="M4.505,34.376c0,1.794,1.403,3.249,3.137,3.249s3.138-1.455,3.138-3.249s-1.404-3.248-3.138-3.248
			S4.505,32.582,4.505,34.376z M5.85,34.376c0-1.024,0.803-1.856,1.792-1.856c0.99,0,1.792,0.832,1.792,1.856
			c0,1.025-0.802,1.855-1.792,1.855C6.653,36.231,5.85,35.401,5.85,34.376z"/>
	</g>
	<polygon fill="#FFFFFF" points="1.519,20.946 1.519,21.836 36.567,21.836 36.567,20.946 37.48,20.946 37.48,28.56 0.5,28.56 
		0.5,20.946 	"/>
	<g>
		<rect x="0.854" y="32.84" fill="#FFFFFF" width="2.978" height="1.389"/>
		<rect x="11.043" y="32.84" fill="#FFFFFF" width="1.438" height="1.389"/>
		<path fill="#FFFFFF" d="M0.929,31.895h3.565c0.663-1.037,1.8-1.723,3.091-1.723s2.427,0.686,3.089,1.723h2.14
			c0.663-1.037,1.799-1.723,3.091-1.723c1.29,0,2.425,0.686,3.09,1.723h2.062v0.974h-1.693v1.39h1.693v0.026h5.958h12.345h0.39
			c-0.007-0.092-0.014-0.184-0.014-0.277c0-2.118,1.658-3.835,3.704-3.835c2.045,0,3.703,1.717,3.703,3.835
			c0,0.094-0.007,0.186-0.014,0.277h0.335h1.986v-9.842c0,0,0.167-0.962-0.103-1.441c-1.572-2.802-3.172-6.39-3.923-6.39
			c-0.752,0-7.191,0-7.191,0v12.782H0.929V31.895z M47.571,27.781h1.127v2.446h-1.127V27.781z M40.164,17.668l4.884,0.166
			l3.05,5.669h-7.934V17.668z M36.621,31.505h1.343v1.557h-1.343V31.505z M28.303,30.672h1.181v1.557h-1.181V30.672z M22.022,31.672
			h4.885v1.223h-4.885V31.672z"/>
	</g>
</g>
</svg>
