<?xml version="1.0" encoding="utf-8"?>
<!-- Generator: Adobe Illustrator 16.0.0, SVG Export Plug-In . SVG Version: 6.00 Build 0)  -->
<!DOCTYPE svg PUBLIC "-//W3C//DTD SVG 1.1//EN" "http://www.w3.org/Graphics/SVG/1.1/DTD/svg11.dtd">
<svg version="1.1" id="Layer_1" xmlns="http://www.w3.org/2000/svg" xmlns:xlink="http://www.w3.org/1999/xlink" x="0px" y="0px"
	 width="50px" height="50px" viewBox="0 0 50 50" enable-background="new 0 0 50 50" xml:space="preserve">
<g>
	<path fill="#FFFFFF" d="M7.494,0.5v49h35.012v-49H7.494z M41.947,48.942H8.052V1.058h33.896V48.942z"/>
	<rect x="10.717" y="41.126" fill="#FFFFFF" width="1.399" height="4.013"/>
	<rect x="13.406" y="41.126" fill="#FFFFFF" width="1.398" height="4.013"/>
	<rect x="19.84" y="41.126" fill="#FFFFFF" width="1.399" height="4.013"/>
	<rect x="24.741" y="41.126" fill="#FFFFFF" width="1.398" height="4.013"/>
	<rect x="31.141" y="41.126" fill="#FFFFFF" width="1.397" height="4.013"/>
	<rect x="35.94" y="41.126" fill="#FFFFFF" width="1.398" height="4.013"/>
	<rect x="15.892" y="41.126" fill="#FFFFFF" width="0.699" height="4.013"/>
	<rect x="18.002" y="41.126" fill="#FFFFFF" width="0.699" height="4.013"/>
	<rect x="22.598" y="41.126" fill="#FFFFFF" width="0.699" height="4.013"/>
	<rect x="27.465" y="41.126" fill="#FFFFFF" width="0.698" height="4.013"/>
	<rect x="29.438" y="41.126" fill="#FFFFFF" width="0.699" height="4.013"/>
	<rect x="33.83" y="41.126" fill="#FFFFFF" width="0.699" height="4.013"/>
	<rect x="38.526" y="41.126" fill="#FFFFFF" width="0.699" height="4.013"/>
	<path fill="#FFFFFF" d="M10.766,7.994c0.094,0.114,0.22,0.208,0.379,0.278c0.16,0.071,0.395,0.108,0.705,0.108
		c0.255,0,0.463-0.033,0.622-0.099c0.16-0.065,0.287-0.154,0.382-0.264c0.095-0.111,0.16-0.247,0.196-0.408
		c0.034-0.16,0.053-0.436,0.053-0.825V5.084h-0.654v1.793c0,0.255-0.01,0.439-0.029,0.549c-0.019,0.111-0.075,0.205-0.171,0.281
		c-0.095,0.076-0.233,0.113-0.419,0.113c-0.184,0-0.327-0.04-0.433-0.121c-0.104-0.08-0.173-0.186-0.2-0.318
		c-0.017-0.083-0.023-0.265-0.023-0.542V5.084h-0.654v1.729c0,0.362,0.021,0.636,0.063,0.823C10.612,7.761,10.673,7.88,10.766,7.994
		z"/>
	<polygon fill="#FFFFFF" points="14.521,8.325 15.175,8.325 15.175,5.632 16.136,5.632 16.136,5.084 13.56,5.084 13.56,5.632 
		14.521,5.632 	"/>
	<rect x="16.537" y="5.084" fill="#FFFFFF" width="0.654" height="3.241"/>
	<polygon fill="#FFFFFF" points="20.113,7.778 18.486,7.778 18.486,5.111 17.833,5.111 17.833,8.325 20.113,8.325 	"/>
	<rect x="20.561" y="5.084" fill="#FFFFFF" width="0.654" height="3.241"/>
	<polygon fill="#FFFFFF" points="22.567,8.325 23.222,8.325 23.222,5.632 24.181,5.632 24.181,5.084 21.606,5.084 21.606,5.632 
		22.567,5.632 	"/>
	<polygon fill="#FFFFFF" points="25.454,8.325 26.105,8.325 26.105,6.966 27.297,5.084 26.544,5.084 25.798,6.367 25.035,5.084 
		24.268,5.084 25.454,6.96 	"/>
	<path fill="#FFFFFF" d="M15.839,33.296c-0.204-0.242-0.589-0.441-1.152-0.595v-1.377c0.229,0.099,0.369,0.287,0.423,0.565
		l0.892-0.118c-0.061-0.352-0.202-0.634-0.423-0.844s-0.519-0.337-0.892-0.382v-0.35h-0.511v0.35
		c-0.404,0.039-0.728,0.189-0.971,0.453c-0.244,0.262-0.366,0.585-0.366,0.971c0,0.381,0.109,0.704,0.323,0.97
		c0.215,0.269,0.554,0.467,1.014,0.599v1.477c-0.128-0.062-0.242-0.16-0.347-0.296c-0.102-0.137-0.173-0.299-0.211-0.486
		l-0.919,0.099c0.07,0.462,0.232,0.821,0.485,1.075c0.254,0.253,0.585,0.404,0.991,0.454v0.642h0.511v-0.66
		c0.458-0.065,0.816-0.244,1.073-0.535c0.258-0.291,0.386-0.649,0.386-1.074C16.146,33.851,16.043,33.539,15.839,33.296z
		 M14.176,32.533c-0.153-0.066-0.267-0.151-0.342-0.259s-0.112-0.224-0.112-0.347c0-0.137,0.041-0.261,0.122-0.374
		c0.083-0.113,0.193-0.192,0.332-0.239V32.533z M15.117,34.819c-0.111,0.13-0.253,0.211-0.431,0.244V33.69
		c0.212,0.061,0.363,0.147,0.456,0.261c0.094,0.115,0.139,0.25,0.139,0.407C15.281,34.535,15.227,34.688,15.117,34.819z"/>
	<path fill="#FFFFFF" d="M14.755,20.821c-0.062,0.02-0.108,0.054-0.144,0.104c-0.037,0.049-0.056,0.103-0.056,0.162
		c0,0.054,0.018,0.105,0.05,0.15c0.034,0.047,0.083,0.085,0.149,0.113V20.821z"/>
	<path fill="#FFFFFF" d="M15.237,22.146c0-0.068-0.021-0.128-0.061-0.177c-0.041-0.05-0.106-0.087-0.199-0.114v0.598
		c0.076-0.014,0.14-0.049,0.188-0.106C15.213,22.291,15.237,22.224,15.237,22.146z"/>
	<path fill="#FFFFFF" d="M10.565,23.523h8.593v-3.633h-8.593V23.523z M14.313,21.529c-0.094-0.116-0.141-0.257-0.141-0.423
		c0-0.168,0.053-0.31,0.159-0.423s0.246-0.18,0.423-0.197v-0.153h0.223v0.153c0.163,0.02,0.292,0.075,0.388,0.166
		c0.096,0.093,0.158,0.215,0.186,0.368l-0.39,0.051c-0.023-0.121-0.084-0.203-0.184-0.246v0.601
		c0.245,0.066,0.413,0.153,0.501,0.258c0.091,0.106,0.135,0.243,0.135,0.409c0,0.185-0.057,0.341-0.169,0.467
		c-0.111,0.128-0.268,0.204-0.467,0.233v0.287h-0.223V22.8c-0.177-0.021-0.321-0.086-0.432-0.197
		c-0.11-0.11-0.181-0.266-0.212-0.469l0.402-0.041c0.016,0.081,0.047,0.151,0.091,0.211c0.045,0.059,0.095,0.102,0.15,0.128V21.79
		C14.555,21.732,14.407,21.646,14.313,21.529z"/>
	<path fill="#FFFFFF" d="M25.498,22.146c0-0.068-0.02-0.128-0.06-0.177c-0.04-0.05-0.106-0.087-0.199-0.114v0.598
		c0.077-0.014,0.14-0.049,0.187-0.106C25.476,22.29,25.498,22.224,25.498,22.146z"/>
	<path fill="#FFFFFF" d="M20.827,23.523h8.595v-3.633h-8.595V23.523z M24.575,21.529c-0.093-0.116-0.14-0.257-0.14-0.423
		c0-0.168,0.053-0.31,0.159-0.423c0.105-0.113,0.246-0.18,0.422-0.197v-0.153h0.223v0.153c0.164,0.02,0.292,0.075,0.389,0.166
		c0.096,0.093,0.158,0.215,0.184,0.368l-0.388,0.051c-0.023-0.121-0.085-0.203-0.185-0.246v0.601
		c0.245,0.066,0.413,0.153,0.503,0.258c0.088,0.106,0.132,0.242,0.132,0.408c0,0.186-0.056,0.34-0.168,0.468
		c-0.111,0.128-0.268,0.204-0.467,0.233v0.287h-0.223V22.8c-0.177-0.021-0.32-0.086-0.432-0.197
		c-0.109-0.11-0.181-0.266-0.211-0.469l0.4-0.042c0.017,0.081,0.047,0.152,0.092,0.212c0.046,0.059,0.095,0.102,0.15,0.128v-0.643
		C24.816,21.731,24.669,21.646,24.575,21.529z"/>
	<path fill="#FFFFFF" d="M25.017,20.821c-0.06,0.02-0.107,0.054-0.145,0.104c-0.034,0.049-0.054,0.103-0.054,0.162
		c0,0.054,0.017,0.105,0.05,0.15c0.032,0.047,0.082,0.084,0.148,0.113V20.821z"/>
	<path fill="#FFFFFF" d="M35.502,21.855v0.598c0.076-0.014,0.139-0.049,0.187-0.106c0.048-0.057,0.072-0.123,0.072-0.2
		c0-0.068-0.02-0.128-0.061-0.177C35.659,21.92,35.594,21.883,35.502,21.855z"/>
	<path fill="#FFFFFF" d="M39.683,19.891h-8.592v3.633h8.592V19.891z M35.969,22.56c-0.112,0.128-0.268,0.204-0.467,0.233v0.287
		h-0.223V22.8c-0.177-0.021-0.321-0.086-0.432-0.197c-0.111-0.11-0.181-0.266-0.212-0.469l0.401-0.042
		c0.016,0.081,0.046,0.152,0.092,0.212c0.045,0.059,0.095,0.102,0.15,0.128v-0.643c-0.2-0.058-0.348-0.144-0.442-0.26
		c-0.093-0.116-0.14-0.257-0.14-0.423c0-0.168,0.054-0.31,0.158-0.423c0.106-0.113,0.248-0.18,0.424-0.197v-0.153h0.223v0.153
		c0.162,0.02,0.292,0.075,0.388,0.166c0.097,0.093,0.157,0.215,0.184,0.368l-0.387,0.051c-0.024-0.121-0.086-0.203-0.185-0.246
		v0.601c0.245,0.066,0.412,0.153,0.502,0.258c0.088,0.106,0.134,0.242,0.134,0.408C36.138,22.277,36.081,22.432,35.969,22.56z"/>
	<path fill="#FFFFFF" d="M35.136,20.926c-0.037,0.049-0.054,0.103-0.054,0.162c0,0.054,0.016,0.105,0.048,0.15
		c0.033,0.047,0.084,0.084,0.149,0.113v-0.53C35.22,20.841,35.171,20.875,35.136,20.926z"/>
	<rect x="33.104" y="4.803" fill="#FFFFFF" width="6.8" height="0.56"/>
	<rect x="33.104" y="6.853" fill="#FFFFFF" width="6.8" height="0.558"/>
	<rect x="20.252" y="32.278" fill="#FFFFFF" width="18.72" height="0.559"/>
	<rect x="10.565" y="17.935" fill="#FFFFFF" width="5.903" height="0.56"/>
	<rect x="20.827" y="17.935" fill="#FFFFFF" width="6.197" height="0.56"/>
	<rect x="31.091" y="17.935" fill="#FFFFFF" width="6.004" height="0.56"/>
	<rect x="20.252" y="34.327" fill="#FFFFFF" width="18.72" height="0.559"/>
	<rect x="33.104" y="8.807" fill="#FFFFFF" width="6.8" height="0.56"/>
</g>
</svg>
