<?xml version="1.0" encoding="utf-8"?>
<!-- Generator: Adobe Illustrator 16.0.0, SVG Export Plug-In . SVG Version: 6.00 Build 0)  -->
<!DOCTYPE svg PUBLIC "-//W3C//DTD SVG 1.1//EN" "http://www.w3.org/Graphics/SVG/1.1/DTD/svg11.dtd">
<svg version="1.1" id="Layer_1" xmlns="http://www.w3.org/2000/svg" xmlns:xlink="http://www.w3.org/1999/xlink" x="0px" y="0px"
	 width="50px" height="50px" viewBox="0 0 50 50" enable-background="new 0 0 50 50" xml:space="preserve">
<g>
	<path fill="#FFFFFF" d="M40.729,40.456l-17.241-0.15c0,0-0.277-1.857-1.682-2.711c-1.406-0.854-3.974-1.339-5.68-1.339
		c-1.707,0-6.769-0.268-6.769-0.268s-0.281-1.266-1.729-2.666c-1.215-1.179-3.264-2.188-3.944-2.684
		c-1.492-1.087-2.069,0.161-1.417,0.813c0.251,0.252,3.124,2.508,4.573,4.486c-0.403,0,0.218,0-0.215,0
		c-0.753,0-1.003,1.354,0.15,1.354c0.637,0,0.363,0,1.053,0c2.056,2.824,4.138,5.723,4.138,5.723L9.106,49.5h2.26l0.659-1.666
		h24.968l0.144-0.026l0.83,1.692h2.31l-2.533-5.495c1.822,0.024,3.033,0.04,3.211,0.04c0.878,0,1.028-0.628,1.028-1.029
		c0-0.402,0-0.954,0-1.556C41.982,40.857,41.782,40.456,40.729,40.456z M10.361,37.444c0,0,4.405,0.049,5.977,0.182
		c1.734,0.146,3.436,0.621,5.093,2.729c0,0-2.592,0.043-7.503-0.921C12.254,39.105,10.361,37.444,10.361,37.444z M12.442,46.78
		l1.232-3.112c0,0,13.573,0.193,21.579,0.303l1.379,2.81H12.442z"/>
	<g>
		<path fill="#FFFFFF" d="M27.504,8.173c0,0,1.417-3.865,9.38-2.469c0,0,0.457,0.309,1.313,0.615c0,0-4.187-5.663-9.297-4.053
			c-4.187,1.321-5.467,4.91-5.467,4.91s-0.667-5.781-4.772-6.602c0,0-4.473-0.616-6.402,1.724c0,0,6.227,1.685,7.185,4.958
			c0,0,0.359,0.998-0.24,0.599c-0.599-0.4-4.189-2.235-6.863-0.838c-2.675,1.397-4.91,3.792-6.027,5.986
			c0,0,2.714-1.317,6.784-1.796c4.07-0.478,5.069,0.36,5.069,0.36s-6.545,2.354-3.752,13.009c0,0,2.554-8.979,6.266-9.658
			c0,0,0.319,0.559,0.918,0.758c0,0,1.757,17.561,4.071,21.392h4.948c0,0-3.432-7.623-4.271-11.973
			c-0.836-4.351-1.077-9.499-1.077-9.499s0.092-1.009,0.913-1.522c1.622-1.013,4.914,1.118,7.39,5.145
			c0.544-7.355-5.438-7.088-6.387-7.094c0,0,7.302-0.359,11.294,4.469C38.479,16.594,39.317,5.899,27.504,8.173z"/>
	</g>
	<g>
		<path fill="#FFFFFF" d="M39.162,23.923c0,0-0.591-1.611-3.91-1.029c0,0-0.189,0.129-0.548,0.256c0,0,1.746-2.36,3.877-1.688
			c1.745,0.55,2.278,2.046,2.278,2.046s0.279-2.411,1.989-2.752c0,0,1.865-0.257,2.67,0.718c0,0-2.595,0.703-2.995,2.067
			c0,0-0.149,0.416,0.101,0.25c0.249-0.167,1.746-0.932,2.861-0.35c1.114,0.582,2.046,1.58,2.512,2.496c0,0-1.132-0.55-2.828-0.749
			c-1.697-0.2-2.113,0.15-2.113,0.15s2.729,0.981,1.563,5.424c0,0-1.063-3.744-2.611-4.027c0,0-0.133,0.233-0.383,0.316
			c0,0-0.731,7.32-1.696,8.918h-2.063c0,0,1.431-3.178,1.78-4.991c0.349-1.814,0.449-3.96,0.449-3.96s-0.038-0.421-0.381-0.635
			c-0.677-0.422-2.049,0.467-3.081,2.145c-0.227-3.065,2.268-2.954,2.663-2.957c0,0-3.045-0.15-4.709,1.862
			C34.587,27.433,34.237,22.975,39.162,23.923z"/>
	</g>
</g>
</svg>
