<?xml version="1.0" encoding="utf-8"?>
<!-- Generator: Adobe Illustrator 16.0.0, SVG Export Plug-In . SVG Version: 6.00 Build 0)  -->
<!DOCTYPE svg PUBLIC "-//W3C//DTD SVG 1.1//EN" "http://www.w3.org/Graphics/SVG/1.1/DTD/svg11.dtd">
<svg version="1.1" id="Layer_1" xmlns="http://www.w3.org/2000/svg" xmlns:xlink="http://www.w3.org/1999/xlink" x="0px" y="0px"
	 width="50px" height="50px" viewBox="0 0 50 50" enable-background="new 0 0 50 50" xml:space="preserve">
<g>
	<path fill="#FFFFFF" d="M15.106,30.25h11.691V15.96H15.106V30.25z M23.393,24.299c0-0.107,0.995-0.372,1.66-0.372
		c0.663,0,1.166,0.265,1.166,0.372c0,0.106-0.537,0.346-1.201,0.346C24.353,24.645,23.393,24.406,23.393,24.299z M15.766,17.194
		c0-0.407,0.465-0.736,1.037-0.736h8.312c0.573,0,1.037,0.329,1.037,0.736v4.565c0,0.406-0.464,0.735-1.037,0.735h-8.312
		c-0.572,0-1.037-0.329-1.037-0.735V17.194z"/>
	<path fill="#FFFFFF" d="M1.15,31.225c0.437,0.061,1.13-0.023,1.642,0.022c0.436,0.04,1.773-0.029,2.41,0.013l0.063,0.004
		c0.245-2.183,2.095-3.879,4.344-3.879c2.398,0,4.345,1.934,4.37,4.326l0.332,0.018l1.452,0.017c-0.346,0-0.625,0.218-0.625,0.486
		s0.279,0.486,0.625,0.486l18.03,0.11c0.344,0,0.623-0.218,0.623-0.486c0-0.094-0.035-0.18-0.093-0.254l1.272,0.023
		c-0.01-0.117-0.019-0.234-0.019-0.353c0-0.369,0.051-0.726,0.138-1.067h-7.37l-0.04-15l0.158-0.002c0,0,2.208-0.029,3.007-0.042
		c0.011,0,0.411,0.03,0.422,0.029c0.649-0.012,1.554,0.461,3.287,1.482c2.691,1.582,4.479,3.23,4.497,3.248l0.111,0.146v6.629h-0.4
		v-6.486c-0.313-0.279-2.016-1.755-4.426-3.173c-1.65-0.97-2.638-1.466-3.419-1.466c-0.009,0-0.018,0-0.027,0
		c-0.669,0.011-2.249,0.032-2.77,0.039v14.176h7.062c0.579-1.734,2.214-2.89,4.144-2.89c2.416,0,4.373,1.958,4.373,4.374
		c0,0.148-0.009,0.295-0.021,0.439c0.407,0.012,2.637,0.047,3.625-0.453c0.871-0.439,1.559-0.575,1.559-1.513
		c0-0.936,0.152-2.409-0.566-2.378c0,0,0.084-1.873,0.043-2.34c-0.043-0.469-0.595-1.447-1.831-2.172
		c-1.234-0.723-2.299-1.106-3.362-1.446c-1.064-0.34-1.51-0.476-1.894-0.773c-0.383-0.298-3.317-2.795-5.527-4.359
		c-1.253-0.886-2.173-1.786-4.606-1.964c-2.709-0.198-27.23-0.106-27.23-0.106c-1.021,0.043-1.886,0.536-2.133,1.358
		c-0.807,2.687-0.924,5.247-1.261,7.029c-0.128,0.666-0.13,4.848-0.13,4.848S0.88,28.58,0.811,28.65
		C0.286,29.169,0.443,31.127,1.15,31.225z M47.428,29.552c0-0.213,0.513-0.386,1.143-0.386s0.63,0.772,0,0.772
		S47.428,29.766,47.428,29.552z M44.934,24.399c0,0,1.087-1.039,1.914-0.622c0.826,0.419,1.298,1.092,1.798,2.02
		c0,0-0.037,0.261-0.864,0.308c-0.827,0.046-1.611-0.525-1.611-0.525L44.934,24.399z M44.296,22.6
		c0.438,0.163,1.394,0.53,1.394,0.53s-1.035,0.65-1.155,0.65c0,0-1.113-0.871-1.233-1.263C43.182,22.125,43.857,22.437,44.296,22.6z
		 M29.579,24.299c0-0.107,0.574-0.372,1.238-0.372s1.503,0.265,1.503,0.372c0,0.106-0.875,0.346-1.538,0.346
		C30.118,24.645,29.579,24.406,29.579,24.299z M38.979,22.468c0,0-1.517-0.017-3.236-0.035l0.884-1.493
		c0.128-0.219,0.056-0.5-0.163-0.629s-0.501-0.057-0.629,0.161l-1.149,1.949c-1.745-0.02-3.429-0.036-3.749-0.036
		c-0.703,0-1.992-1.548-1.992-2.307c0-0.758,0.013-3.572,0.013-3.572s2.513-0.133,3.079-0.049c0.821,0.123,4.017,2.263,5.559,3.39
		c0.841,0.614,1.391,0.864,1.417,1.456C39.049,22.192,38.979,22.468,38.979,22.468z M14.713,15.563h12.491v15.091H14.713V15.563z
		 M3.397,25.175h11.074v0.39H3.397V25.175z M3.397,24.279h11.074v0.383H3.397V24.279z M3.051,21.714l0.835-4.566
		c0-0.406,0.456-0.734,1.019-0.734h8.166c0.562,0,1.019,0.328,1.019,0.734v4.566c0,0.405-0.457,0.735-1.019,0.735H4.069
		C3.507,22.45,3.051,22.12,3.051,21.714z"/>
	<path fill="#FFFFFF" d="M36.382,31.759c0,1.971,1.598,3.569,3.569,3.569s3.57-1.599,3.57-3.569c0-1.973-1.599-3.57-3.57-3.57
		S36.382,29.786,36.382,31.759z M41.763,32.631c-0.218-0.237-0.582-0.54-1.043-0.862c0.469-0.311,0.843-0.605,1.067-0.836
		c0.113,0.253,0.178,0.531,0.178,0.826C41.965,32.071,41.892,32.366,41.763,32.631z M40.179,33.758
		c0.08-0.298,0.141-0.749,0.171-1.281c0.469,0.26,0.88,0.444,1.176,0.537C41.2,33.419,40.723,33.696,40.179,33.758z M40.179,29.759
		c0.563,0.063,1.053,0.358,1.377,0.787c-0.302,0.084-0.724,0.262-1.205,0.514C40.321,30.519,40.259,30.062,40.179,29.759z
		 M39.724,29.758c-0.08,0.3-0.14,0.75-0.17,1.282c-0.467-0.26-0.88-0.446-1.175-0.536C38.702,30.097,39.181,29.82,39.724,29.758z
		 M38.347,32.971c0.303-0.085,0.725-0.262,1.207-0.514c0.028,0.54,0.09,0.998,0.17,1.301C39.162,33.695,38.671,33.398,38.347,32.971
		z M37.938,31.759c0-0.313,0.073-0.609,0.2-0.873c0.219,0.235,0.585,0.54,1.044,0.862c-0.469,0.311-0.842,0.605-1.067,0.835
		C38.003,32.331,37.938,32.053,37.938,31.759z"/>
	<path fill="#FFFFFF" d="M6.127,31.759c0,1.971,1.6,3.569,3.57,3.569c1.973,0,3.57-1.599,3.57-3.569c0-1.973-1.598-3.57-3.57-3.57
		C7.727,28.188,6.127,29.786,6.127,31.759z M11.51,32.631c-0.218-0.237-0.582-0.54-1.045-0.862c0.47-0.311,0.843-0.605,1.067-0.836
		c0.113,0.253,0.18,0.531,0.18,0.826C11.712,32.071,11.638,32.366,11.51,32.631z M9.925,33.758c0.08-0.298,0.142-0.749,0.171-1.281
		c0.468,0.26,0.88,0.444,1.175,0.537C10.946,33.419,10.469,33.696,9.925,33.758z M9.925,29.759c0.563,0.063,1.054,0.358,1.377,0.787
		C11,30.63,10.577,30.808,10.097,31.06C10.067,30.519,10.005,30.062,9.925,29.759z M9.47,29.758c-0.078,0.3-0.141,0.75-0.169,1.282
		c-0.469-0.26-0.881-0.446-1.176-0.536C8.449,30.097,8.927,29.82,9.47,29.758z M8.092,32.971c0.303-0.085,0.725-0.262,1.208-0.514
		c0.028,0.54,0.089,0.998,0.17,1.301C8.909,33.695,8.417,33.398,8.092,32.971z M7.685,31.759c0-0.313,0.074-0.609,0.2-0.873
		c0.22,0.235,0.584,0.54,1.044,0.862c-0.469,0.311-0.843,0.605-1.066,0.835C7.749,32.331,7.685,32.053,7.685,31.759z"/>
</g>
</svg>
