<?xml version="1.0" encoding="utf-8"?>
<!-- Generator: Adobe Illustrator 16.0.0, SVG Export Plug-In . SVG Version: 6.00 Build 0)  -->
<!DOCTYPE svg PUBLIC "-//W3C//DTD SVG 1.1//EN" "http://www.w3.org/Graphics/SVG/1.1/DTD/svg11.dtd">
<svg version="1.1" id="Layer_1" xmlns="http://www.w3.org/2000/svg" xmlns:xlink="http://www.w3.org/1999/xlink" x="0px" y="0px"
	 width="50px" height="50px" viewBox="0 0 50 50" enable-background="new 0 0 50 50" xml:space="preserve">
<g>
	<path fill="#FFFFFF" d="M41.026,21.655c-1.303,0.379-2.608,0.789-3.924,1.126c-0.586,0.148-0.729,0.537-0.627,1.194
		c0.105,0.675,0.422,0.978,0.967,0.84c0.886-0.223,1.774-0.428,2.647-0.71C41.303,23.712,41.449,23.309,41.026,21.655z"/>
	<path fill="#FFFFFF" d="M14.935,38.35c-0.469,0.66-0.777,1.371-1.273,1.737c-1.421,1.046-9.005,2.908-12.779-1.485
		c-0.938,1.814,0.061,3.451,0.757,3.936c1.205,0.624,2.511,1.052,3.803,1.271c2.476,0.42,4.964,0.373,7.38-0.589
		c1.139-0.451,2.133-1.186,2.662-2.61C15.914,39.454,15.62,38.653,14.935,38.35z"/>
	<path fill="#FFFFFF" d="M1.574,4.155c0,3.032-0.004,5.941,0.002,8.853c0.003,2.233,0.225,2.625,1.979,3.268
		c2.473,0.904,4.981,0.904,7.495,0.316c2.376-0.557,2.478-0.667,2.391-3.641c-0.037-1.289,0.403-1.812,1.328-2.08
		c4.591-1.332,13.396-4.113,14.859-4.614c0.658-0.225,1.118-0.713,0.827-1.691c-0.493-1.647-2.055-2.738-3.464-2.346
		c-3.405,0.948-11.211,3.34-13.41,3.984c-0.056-0.268-0.083-0.418-0.117-0.565c-0.042-0.172-0.087-0.341-0.123-0.476
		C12.134,2.242,3.736,1.408,1.556,4.09C1.6,4.134,1.65,4.175,1.695,4.219C1.655,4.196,1.614,4.177,1.574,4.155z"/>
	<path fill="#FFFFFF" d="M41.864,19.397c0.308-1.492,0.121-3.01-0.535-4.139c-0.976,0.633-1.811,1.318-2.725,1.738
		c-1.27,0.583-2.576,1.106-3.902,1.415c-5.466,1.27-10.939,2.483-16.42,3.643c-1.748,0.371-3.522,0.636-5.291,0.724
		c-1.445,0.069-0.938-0.986,0.301-0.921c0.387,0.018,0.782,0.007,1.163-0.069c5.075-1.021,10.163-1.96,15.218-3.125
		c3.042-0.702,6.039-1.736,9.043-2.687c0.543-0.171,1.023-0.658,1.532-1c-0.299-0.365-0.511-0.484-0.717-0.474
		c-1.384,0.077-2.774,0.099-4.15,0.291c-6.623,0.929-13.24,1.916-19.862,2.834c-0.464,0.064-0.958-0.283-1.445-0.415
		c-0.326-0.088-0.707-0.3-0.98-0.176c-2.138,0.979-4.336,1.38-6.584,0.972c-1.639-0.299-3.253-0.832-4.902-1.267
		c0.011-0.055-0.026,0.056-0.026,0.165c-0.002,6.758-0.02,13.515,0.022,20.27c0.004,0.489,0.375,1.158,0.678,1.414
		c1.949,1.639,6.338,2.383,10.706,0.829c0.355-0.126,0.73-0.681,0.788-1.039c0.397-2.456-0.264-4.765,0.657-6.95
		c-0.086-0.079-0.174-0.159-0.26-0.239c-0.856,1.138-1.025,2.063-1.392,3.021c0.045-0.86-0.015-1.437,0.12-2.153
		c0.404-2.133,1.802-1.974,3.388-2.695c3.032-1.381,6.087-2.71,9.19-3.805c4.972-1.755,9.997-3.283,14.985-4.969
		C40.994,20.407,41.758,19.92,41.864,19.397z"/>
	<path fill="#FFFFFF" d="M37.447,26.536c0.018-0.392,0.02-0.721,0.016-0.954c-0.002-0.23-0.01-0.363-0.01-0.363
		s-0.047,0.122-0.112,0.338c-0.064,0.217-0.154,0.525-0.244,0.902c-0.189,0.752-0.382,1.763-0.528,2.786
		c-0.143,1.025-0.238,2.059-0.266,2.847c-0.018,0.39-0.019,0.72-0.015,0.952c0.002,0.231,0.011,0.363,0.011,0.363
		s0.045-0.121,0.11-0.338c0.065-0.216,0.156-0.526,0.245-0.903c0.191-0.748,0.384-1.762,0.527-2.785S37.42,27.321,37.447,26.536z"/>
	<path fill="#FFFFFF" d="M38.938,29.934c-0.028-0.211-0.05-0.332-0.05-0.332s-0.031,0.119-0.072,0.326
		c-0.043,0.207-0.1,0.503-0.146,0.858c-0.107,0.711-0.191,1.662-0.227,2.615c-0.031,0.955-0.017,1.911,0.041,2.631
		c0.024,0.36,0.06,0.661,0.087,0.871c0.025,0.211,0.05,0.33,0.05,0.33s0.032-0.115,0.074-0.323c0.042-0.207,0.098-0.503,0.146-0.858
		c0.108-0.711,0.191-1.662,0.227-2.616c0.03-0.954,0.015-1.91-0.041-2.631C38.999,30.444,38.967,30.145,38.938,29.934z"/>
	<path fill="#FFFFFF" d="M42.261,40.058c-0.063-0.639-0.118-1.302-0.194-1.971c-0.071-0.67-0.142-1.352-0.216-2.034
		c-0.079-0.679-0.157-1.359-0.236-2.028c-0.076-0.67-0.167-1.327-0.246-1.963c-0.078-0.636-0.166-1.249-0.246-1.832
		c-0.078-0.582-0.161-1.132-0.237-1.64c-0.3-2.028-0.556-3.371-0.556-3.371s0.049,1.377,0.203,3.433
		c0.037,0.515,0.079,1.069,0.132,1.658c0.049,0.586,0.099,1.206,0.162,1.845c0.064,0.639,0.119,1.303,0.194,1.973
		c0.07,0.672,0.143,1.353,0.215,2.032c0.078,0.681,0.159,1.361,0.237,2.03c0.074,0.671,0.166,1.326,0.244,1.962
		c0.166,1.272,0.331,2.458,0.484,3.473c0.3,2.028,0.556,3.371,0.556,3.371s-0.049-1.38-0.201-3.435
		C42.481,42.535,42.381,41.339,42.261,40.058z"/>
	<path fill="#FFFFFF" d="M41.996,25.135c-0.084-0.162-0.139-0.253-0.139-0.253s0.004,0.112,0.025,0.306
		c0.017,0.195,0.049,0.466,0.103,0.789c0.1,0.645,0.289,1.479,0.524,2.294c0.235,0.814,0.519,1.608,0.773,2.183
		c0.123,0.29,0.239,0.524,0.323,0.689c0.086,0.161,0.141,0.252,0.141,0.252s-0.005-0.113-0.024-0.306s-0.049-0.467-0.104-0.787
		c-0.099-0.646-0.289-1.481-0.524-2.296c-0.236-0.813-0.52-1.607-0.774-2.182C42.198,25.535,42.082,25.298,41.996,25.135z"/>
	<path fill="#FFFFFF" d="M43.563,38.007c-0.041-0.437-0.104-0.942-0.18-1.483c-0.078-0.539-0.173-1.111-0.279-1.679
		c-0.106-0.568-0.226-1.135-0.349-1.661c-0.124-0.525-0.249-1.014-0.367-1.427c-0.116-0.418-0.228-0.761-0.307-0.999
		c-0.081-0.238-0.134-0.373-0.134-0.373s0.001,0.148,0.013,0.409c0.014,0.257,0.035,0.627,0.081,1.063
		c0.04,0.438,0.103,0.943,0.18,1.483c0.076,0.541,0.171,1.113,0.277,1.682c0.107,0.567,0.225,1.133,0.348,1.659
		c0.125,0.525,0.248,1.015,0.368,1.43c0.115,0.417,0.227,0.758,0.308,0.997c0.081,0.238,0.134,0.373,0.134,0.373
		s-0.001-0.15-0.015-0.408C43.629,38.813,43.607,38.444,43.563,38.007z"/>
	<path fill="#FFFFFF" d="M40.116,39.283c-0.052-0.651-0.106-1.259-0.169-1.779c-0.057-0.52-0.119-0.953-0.166-1.254
		c-0.047-0.305-0.08-0.476-0.08-0.476s-0.021,0.176-0.043,0.482s-0.05,0.745-0.064,1.271c-0.021,0.524-0.025,1.136-0.025,1.791
		c0.003,0.655,0.018,1.352,0.045,2.049c0.028,0.694,0.069,1.391,0.118,2.042c0.052,0.652,0.106,1.26,0.169,1.779
		c0.058,0.521,0.12,0.952,0.167,1.256c0.048,0.301,0.082,0.476,0.082,0.476s0.021-0.176,0.043-0.485
		c0.022-0.305,0.051-0.743,0.064-1.27c0.021-0.524,0.028-1.134,0.027-1.789c-0.005-0.657-0.021-1.353-0.049-2.05
		C40.206,40.632,40.167,39.935,40.116,39.283z"/>
	<path fill="#FFFFFF" d="M39.168,25.555c-0.032-0.112-0.056-0.177-0.056-0.177s-0.028,0.061-0.067,0.17
		c-0.04,0.108-0.089,0.262-0.135,0.45c-0.094,0.373-0.166,0.874-0.185,1.379c-0.019,0.504,0.014,1.012,0.079,1.395
		c0.031,0.19,0.07,0.351,0.102,0.465c0.03,0.112,0.055,0.176,0.055,0.176s0.029-0.063,0.067-0.17c0.04-0.108,0.09-0.262,0.136-0.45
		c0.094-0.373,0.164-0.875,0.184-1.38c0.02-0.503-0.014-1.011-0.08-1.394C39.237,25.828,39.198,25.667,39.168,25.555z"/>
	<path fill="#FFFFFF" d="M46.771,43.821c-0.129-0.647-0.293-1.396-0.484-2.195c-0.096-0.396-0.19-0.811-0.298-1.226
		s-0.216-0.837-0.325-1.259c-0.115-0.419-0.232-0.838-0.346-1.251c-0.111-0.414-0.235-0.814-0.351-1.205
		c-0.111-0.391-0.23-0.764-0.342-1.12c-0.109-0.357-0.22-0.689-0.322-0.997c-0.203-0.618-0.386-1.126-0.517-1.479
		c-0.132-0.354-0.214-0.555-0.214-0.555s0.031,0.221,0.097,0.604c0.066,0.38,0.162,0.924,0.296,1.569
		c0.066,0.323,0.137,0.672,0.22,1.039s0.165,0.758,0.266,1.154c0.097,0.396,0.188,0.812,0.3,1.227
		c0.105,0.416,0.213,0.837,0.322,1.259c0.115,0.419,0.229,0.838,0.344,1.251c0.113,0.413,0.237,0.815,0.349,1.206
		c0.232,0.779,0.461,1.502,0.667,2.119c0.203,0.616,0.387,1.123,0.518,1.478c0.131,0.354,0.213,0.554,0.213,0.554
		s-0.03-0.221-0.095-0.603C47.002,45.009,46.906,44.464,46.771,43.821z"/>
	<path fill="#FFFFFF" d="M44.904,43.559c-0.147-0.898-0.34-1.784-0.532-2.438c-0.091-0.328-0.181-0.597-0.244-0.785
		c-0.068-0.187-0.112-0.293-0.112-0.293s-0.008,0.119-0.01,0.323c-0.002,0.206-0.001,0.498,0.018,0.844
		c0.029,0.695,0.127,1.604,0.271,2.504c0.146,0.897,0.342,1.786,0.532,2.438c0.092,0.329,0.182,0.597,0.248,0.785
		c0.065,0.188,0.111,0.293,0.111,0.293s0.007-0.118,0.009-0.324c0.003-0.204,0.001-0.496-0.017-0.843
		C45.149,45.367,45.05,44.457,44.904,43.559z"/>
	<path fill="#FFFFFF" d="M40.576,34.986c-0.037-0.607-0.087-1.213-0.144-1.779c-0.061-0.566-0.124-1.096-0.192-1.546
		c-0.064-0.453-0.132-0.828-0.183-1.091c-0.052-0.262-0.088-0.41-0.088-0.41s-0.018,0.154-0.035,0.423
		c-0.02,0.269-0.04,0.651-0.049,1.11c-0.014,0.46-0.011,0.993-0.002,1.565c0.011,0.571,0.036,1.179,0.073,1.785
		c0.039,0.606,0.087,1.214,0.145,1.78c0.061,0.567,0.122,1.096,0.192,1.546c0.064,0.452,0.133,0.827,0.184,1.091
		c0.05,0.261,0.087,0.41,0.087,0.41s0.019-0.153,0.037-0.423c0.018-0.27,0.041-0.653,0.047-1.112
		c0.016-0.459,0.011-0.993,0.004-1.564C40.641,36.201,40.614,35.593,40.576,34.986z"/>
	<path fill="#FFFFFF" d="M36.486,35.079c-0.078,0.345-0.187,0.837-0.298,1.432c-0.058,0.297-0.119,0.62-0.176,0.962
		c-0.058,0.342-0.124,0.701-0.177,1.076c-0.056,0.375-0.122,0.76-0.174,1.154c-0.053,0.396-0.106,0.794-0.16,1.195
		c-0.047,0.402-0.095,0.804-0.142,1.2c-0.046,0.396-0.078,0.786-0.118,1.163c-0.072,0.758-0.126,1.466-0.163,2.076
		c-0.04,0.608-0.058,1.119-0.068,1.477c-0.01,0.357-0.008,0.564-0.008,0.564s0.053-0.195,0.131-0.54
		c0.079-0.343,0.188-0.836,0.299-1.433c0.115-0.594,0.235-1.289,0.352-2.038c0.056-0.374,0.121-0.76,0.174-1.154
		c0.053-0.393,0.104-0.793,0.159-1.193c0.047-0.403,0.093-0.806,0.139-1.202c0.049-0.395,0.08-0.786,0.119-1.164
		c0.04-0.377,0.066-0.744,0.094-1.093c0.032-0.347,0.053-0.676,0.07-0.982c0.039-0.608,0.058-1.118,0.068-1.476
		c0.01-0.359,0.008-0.564,0.008-0.564S36.563,34.735,36.486,35.079z"/>
	<path fill="#FFFFFF" d="M37.399,38.903c-0.021-0.204-0.037-0.32-0.037-0.32s-0.035,0.11-0.083,0.306
		c-0.05,0.194-0.116,0.477-0.179,0.813c-0.132,0.675-0.25,1.581-0.317,2.494s-0.085,1.831-0.054,2.524
		c0.01,0.348,0.036,0.637,0.055,0.84c0.021,0.203,0.039,0.322,0.039,0.322s0.035-0.111,0.085-0.309
		c0.049-0.194,0.115-0.475,0.177-0.813c0.134-0.675,0.25-1.582,0.318-2.494c0.066-0.912,0.084-1.83,0.053-2.524
		C37.444,39.396,37.42,39.107,37.399,38.903z"/>
	<path fill="#FFFFFF" d="M48.851,42.813c-0.208-0.747-0.462-1.61-0.747-2.527c-0.146-0.459-0.286-0.938-0.446-1.414
		c-0.158-0.479-0.317-0.965-0.478-1.451c-0.165-0.482-0.332-0.965-0.496-1.439c-0.161-0.477-0.336-0.938-0.497-1.386
		c-0.159-0.452-0.324-0.881-0.478-1.29s-0.305-0.793-0.445-1.147c-0.557-1.415-0.978-2.334-0.978-2.334s0.229,1.019,0.65,2.507
		c0.104,0.372,0.217,0.775,0.345,1.199c0.127,0.423,0.256,0.873,0.401,1.33c0.146,0.456,0.287,0.936,0.447,1.413
		c0.156,0.477,0.316,0.965,0.477,1.45c0.166,0.482,0.331,0.965,0.496,1.44c0.161,0.476,0.335,0.936,0.495,1.386
		c0.326,0.898,0.642,1.729,0.923,2.438c0.557,1.416,0.979,2.334,0.979,2.334S49.272,44.302,48.851,42.813z"/>
	<path fill="#FFFFFF" d="M38.313,42.641c-0.028-0.153-0.052-0.241-0.052-0.241s-0.03,0.084-0.073,0.232
		c-0.04,0.146-0.093,0.356-0.145,0.609c-0.102,0.507-0.183,1.187-0.212,1.868c-0.028,0.683-0.005,1.369,0.051,1.886
		c0.028,0.259,0.063,0.474,0.093,0.627c0.027,0.15,0.051,0.237,0.051,0.237s0.031-0.083,0.073-0.23
		c0.041-0.146,0.091-0.356,0.144-0.61c0.101-0.506,0.182-1.185,0.212-1.867c0.029-0.682,0.007-1.369-0.051-1.886
		C38.376,43.007,38.342,42.79,38.313,42.641z"/>
	<path fill="#FFFFFF" d="M41.811,26.693c-0.16-0.677-0.372-1.334-0.568-1.815c-0.098-0.24-0.189-0.437-0.259-0.572
		c-0.067-0.136-0.115-0.21-0.115-0.21s-0.005,0.095-0.004,0.253c0.001,0.163,0.013,0.388,0.033,0.657
		c0.046,0.536,0.156,1.232,0.317,1.906c0.159,0.679,0.37,1.337,0.566,1.819c0.101,0.238,0.19,0.436,0.26,0.57
		c0.068,0.136,0.115,0.21,0.115,0.21s0.005-0.094,0.004-0.254c-0.001-0.161-0.011-0.387-0.032-0.656
		C42.082,28.065,41.972,27.371,41.811,26.693z"/>
	<path fill="#FFFFFF" d="M38.762,37.526c-0.028-0.131-0.051-0.204-0.051-0.204s-0.032,0.069-0.073,0.193
		c-0.042,0.123-0.096,0.3-0.148,0.517c-0.104,0.43-0.188,1.007-0.224,1.59c-0.033,0.581-0.016,1.168,0.038,1.611
		c0.027,0.222,0.06,0.407,0.088,0.539c0.026,0.129,0.05,0.205,0.05,0.205s0.03-0.07,0.075-0.193c0.04-0.126,0.094-0.304,0.146-0.519
		c0.104-0.429,0.188-1.007,0.223-1.588c0.034-0.583,0.017-1.17-0.038-1.614C38.821,37.842,38.789,37.657,38.762,37.526z"/>
	<path fill="#FFFFFF" d="M38.168,33.168c0.056-1.015,0.061-2.032,0.021-2.799c-0.016-0.383-0.042-0.703-0.065-0.927
		c-0.021-0.225-0.042-0.354-0.042-0.354s-0.034,0.125-0.08,0.344c-0.046,0.218-0.108,0.53-0.166,0.908
		c-0.127,0.752-0.231,1.761-0.288,2.773s-0.063,2.032-0.023,2.797c0.015,0.384,0.044,0.704,0.064,0.93
		c0.024,0.224,0.044,0.352,0.044,0.352s0.035-0.124,0.081-0.342c0.048-0.219,0.111-0.531,0.168-0.907
		C38.006,35.188,38.109,34.181,38.168,33.168z"/>
</g>
</svg>
