<?xml version="1.0" encoding="utf-8"?>
<!-- Generator: Adobe Illustrator 16.0.0, SVG Export Plug-In . SVG Version: 6.00 Build 0)  -->
<!DOCTYPE svg PUBLIC "-//W3C//DTD SVG 1.1//EN" "http://www.w3.org/Graphics/SVG/1.1/DTD/svg11.dtd">
<svg version="1.1" id="Layer_1" xmlns="http://www.w3.org/2000/svg" xmlns:xlink="http://www.w3.org/1999/xlink" x="0px" y="0px"
	 width="21px" height="22px" viewBox="0 0 21 22" enable-background="new 0 0 21 22" xml:space="preserve">
<path fill-rule="evenodd" clip-rule="evenodd" fill="#046938" d="M15.898,0.247c0.935,0.2,1.784,0.557,2.446,1.283
	c1.451,1.591,1.388,3.979-0.179,5.553c-3.191,3.205-6.394,6.4-9.592,9.599c-0.428,0.428-0.84,0.874-1.294,1.273
	c-0.998,0.878-2.407,0.812-3.31-0.13c-0.863-0.901-0.877-2.36,0.035-3.278c3.704-3.729,7.426-7.44,11.143-11.157
	c0.021-0.021,0.053-0.032,0.049-0.03c0.363,0.358,0.72,0.71,1.1,1.085c-0.072,0.077-0.175,0.192-0.283,0.302
	c-3.547,3.549-7.094,7.097-10.64,10.646c-0.112,0.112-0.237,0.218-0.324,0.349c-0.23,0.348-0.214,0.699,0.075,1.002
	c0.291,0.305,0.642,0.325,0.999,0.119c0.108-0.063,0.199-0.159,0.289-0.248C9.96,13.066,13.508,9.519,17.055,5.97
	c0.732-0.733,0.968-1.609,0.605-2.58c-0.354-0.948-1.074-1.48-2.096-1.55c-0.685-0.047-1.295,0.167-1.781,0.653
	c-3.665,3.656-7.342,7.3-10.976,10.986c-1.508,1.53-1.448,3.956,0.03,5.479c1.49,1.533,3.85,1.63,5.479,0.222
	c0.156-0.136,0.303-0.282,0.449-0.429c3.526-3.524,7.052-7.049,10.574-10.577c0.122-0.122,0.205-0.284,0.292-0.407
	c0.441,0.44,0.797,0.796,1.236,1.234c-0.104,0.07-0.256,0.142-0.367,0.253c-3.281,3.273-6.577,6.532-9.826,9.838
	c-1.261,1.283-2.556,2.437-4.432,2.661c-0.382,0-0.765,0-1.147,0c-0.088-0.028-0.175-0.07-0.266-0.083
	c-1.084-0.16-2.037-0.607-2.842-1.346c-2.414-2.213-2.49-5.767-0.158-8.111C5.189,8.838,8.575,5.49,11.923,2.105
	c0.866-0.876,1.759-1.65,3.02-1.858C15.262,0.247,15.58,0.247,15.898,0.247z"/>
</svg>
