<?xml version="1.0" encoding="utf-8"?>
<!-- Generator: Adobe Illustrator 16.0.0, SVG Export Plug-In . SVG Version: 6.00 Build 0)  -->
<!DOCTYPE svg PUBLIC "-//W3C//DTD SVG 1.1//EN" "http://www.w3.org/Graphics/SVG/1.1/DTD/svg11.dtd">
<svg version="1.1" id="Layer_1" xmlns="http://www.w3.org/2000/svg" xmlns:xlink="http://www.w3.org/1999/xlink" x="0px" y="0px"
	 width="28px" height="28px" viewBox="0 0 28 28" enable-background="new 0 0 28 28" xml:space="preserve">
<g>
	<path fill="#A7A8B4" d="M5.809,2.434C5.647,2.23,5.362,2.206,5.174,2.382c-3.582,3.364-5.28,8.528-4.478,13.606
		c0.024,0.175,0.137,0.318,0.287,0.381c0.152,0.06,0.323,0.029,0.446-0.084c0.125-0.114,0.185-0.293,0.154-0.464
		C0.836,11.084,2.418,6.264,5.761,3.125C5.949,2.95,5.971,2.638,5.809,2.434L5.809,2.434z M5.809,2.434"/>
	<path fill="#A7A8B4" d="M8.562,24.401c-0.075,0.892,0.412,1.724,1.187,2.026c0.772,0.302,1.634-0.005,2.096-0.744L8.562,24.401z
		 M8.562,24.401"/>
	<path fill="#A7A8B4" d="M18.862,23.76c-0.014-0.184-0.025-0.362-0.031-0.55c-0.055-1.558,0.167-3.11,0.652-4.578l2.238-6.797
		c0.551-1.683,0.527-3.529-0.077-5.192c-0.006-0.01-0.011-0.02-0.015-0.032c-0.059-0.166-0.104-0.283-0.155-0.4
		c-0.523-1.188-1.321-2.207-2.32-2.949c-0.233-0.17-0.478-0.327-0.729-0.462c-0.76-0.417-1.582-0.677-2.426-0.771
		c-1.334-0.136-2.673,0.163-3.848,0.86c-1.461,0.863-2.578,2.281-3.14,3.984l-2.236,6.797c-0.481,1.47-1.219,2.824-2.17,3.992
		c-0.107,0.136-0.223,0.268-0.34,0.4l-0.054,0.057L1.85,20.739L19.164,27.5L18.862,23.76z M18.862,23.76"/>
	<path fill="#A7A8B4" d="M16.798,1.169c0.138,0.03,0.273,0.064,0.406,0.098c0.066,0.019,0.132,0.037,0.196,0.059
		c0.162,0.046,0.324,0.101,0.484,0.162c0.02,0.009,0.042,0.014,0.062,0.022c0.022,0.008,0.044,0.02,0.063,0.028
		c0.159,0.061,0.316,0.132,0.472,0.21c0.06,0.028,0.12,0.058,0.177,0.088c0.13,0.069,0.256,0.136,0.381,0.211
		c0.033,0.018,0.069,0.037,0.103,0.056c0.055-0.666-0.313-1.29-0.89-1.516c-0.576-0.225-1.224,0.003-1.568,0.557
		C16.721,1.147,16.758,1.16,16.798,1.169L16.798,1.169z M16.798,1.169"/>
	<path fill="#A7A8B4" d="M3.549,15.051c0.145,0.056,0.307,0.026,0.43-0.078c0.12-0.104,0.185-0.271,0.167-0.434
		C3.998,12.958,4.184,11.36,4.68,9.866c0.489-1.497,1.279-2.857,2.313-3.982c0.178-0.188,0.178-0.5,0-0.694
		C6.818,5,6.533,5,6.359,5.19C5.23,6.417,4.368,7.902,3.833,9.536c-0.545,1.629-0.743,3.377-0.58,5.102
		C3.271,14.826,3.386,14.985,3.549,15.051L3.549,15.051z M3.549,15.051"/>
	<path fill="#A7A8B4" d="M27.305,11.023c-0.045-0.262-0.277-0.44-0.52-0.393c-0.245,0.043-0.409,0.296-0.367,0.561
		c0.747,4.737-0.84,9.556-4.179,12.696c-0.126,0.115-0.184,0.291-0.153,0.466c0.03,0.172,0.143,0.313,0.295,0.372
		c0.154,0.058,0.322,0.022,0.444-0.095C26.406,21.267,28.106,16.102,27.305,11.023L27.305,11.023z M27.305,11.023"/>
	<path fill="#A7A8B4" d="M24.262,11.933c-0.25,0.029-0.429,0.267-0.404,0.538c0.143,1.584-0.039,3.181-0.539,4.673
		c-0.485,1.5-1.277,2.857-2.312,3.976c-0.127,0.122-0.18,0.307-0.142,0.485c0.04,0.18,0.164,0.319,0.326,0.362
		c0.163,0.043,0.336-0.013,0.444-0.15c1.135-1.222,2-2.704,2.531-4.34c0.542-1.631,0.741-3.373,0.584-5.103
		C24.729,12.106,24.508,11.909,24.262,11.933L24.262,11.933z M24.262,11.933"/>
</g>
</svg>
