<?xml version="1.0" encoding="utf-8"?>
<!-- Generator: Adobe Illustrator 16.0.0, SVG Export Plug-In . SVG Version: 6.00 Build 0)  -->
<!DOCTYPE svg PUBLIC "-//W3C//DTD SVG 1.1//EN" "http://www.w3.org/Graphics/SVG/1.1/DTD/svg11.dtd">
<svg version="1.1" id="Layer_1" xmlns="http://www.w3.org/2000/svg" xmlns:xlink="http://www.w3.org/1999/xlink" x="0px" y="0px"
	 width="28px" height="28px" viewBox="0 0 28 28" enable-background="new 0 0 28 28" xml:space="preserve">
<g>
	<path fill-rule="evenodd" clip-rule="evenodd" fill="#A7A8B4" d="M27.5,5.159c0,7.447,0,14.892,0,22.341c-8.995,0-17.991,0-27,0
		c0-7.935,0-15.871,0-23.806C1.78,3.71,3.059,3.73,4.353,3.749c0,0.303,0,0.582,0,0.862c0.004,0.913,0.349,1.672,1.052,2.274
		c0.997,0.853,2.61,0.872,3.633,0.046c0.743-0.6,1.099-1.373,1.106-2.311c0.003-0.287,0-0.572,0-0.866
		c0.087-0.006,0.142-0.016,0.2-0.016c2.436,0,4.871,0.003,7.305-0.004c0.187,0,0.216,0.068,0.216,0.226
		c0.006,0.402-0.003,0.81,0.051,1.205c0.208,1.537,1.827,2.648,3.366,2.33c1.418-0.29,2.361-1.429,2.367-2.855
		c0-0.293,0-0.584,0-0.882c0.049-0.009,0.075-0.018,0.104-0.018c1.181-0.002,2.364,0.001,3.545-0.005
		c0.156,0,0.177,0.07,0.177,0.198C27.479,4.342,27.491,4.75,27.5,5.159z M13.999,10.387c-3.755,0-7.51,0-11.266,0
		c-0.302,0-0.302,0-0.302,0.287c0,4.888,0.001,9.774-0.003,14.662c-0.001,0.219,0.058,0.275,0.28,0.275
		c7.524-0.006,15.049-0.004,22.575-0.004c0.29,0,0.292,0,0.292-0.279c0-4.885,0-9.772,0-14.66c0-0.281-0.002-0.281-0.288-0.281
		C21.524,10.387,17.761,10.387,13.999,10.387z"/>
	<path fill-rule="evenodd" clip-rule="evenodd" fill="#A7A8B4" d="M7.501,0.5c0.284,0.124,0.591,0.211,0.843,0.379
		c0.508,0.341,0.759,0.852,0.77,1.449c0.013,0.747,0.029,1.496-0.028,2.239C8.997,5.695,7.79,6.445,6.688,6.117
		C5.987,5.909,5.332,5.279,5.327,4.3C5.324,3.598,5.331,2.894,5.353,2.191c0.026-0.782,0.669-1.477,1.478-1.649
		C6.879,0.531,6.928,0.516,6.976,0.5C7.151,0.5,7.326,0.5,7.501,0.5z"/>
	<path fill-rule="evenodd" clip-rule="evenodd" fill="#A7A8B4" d="M20.979,0.5c0.29,0.124,0.61,0.209,0.867,0.382
		c0.532,0.361,0.771,0.899,0.771,1.532c0,0.696,0.01,1.393-0.021,2.088c-0.045,0.979-0.978,1.779-2.021,1.681
		c-0.993-0.093-1.683-0.774-1.736-1.755c-0.038-0.722-0.036-1.451,0.001-2.174c0.046-0.881,0.637-1.52,1.513-1.715
		c0.034-0.009,0.068-0.026,0.1-0.039C20.63,0.5,20.807,0.5,20.979,0.5z"/>
	<path fill-rule="evenodd" clip-rule="evenodd" fill="#A7A8B4" d="M8.333,23.95c-0.996,0-1.985,0-2.99,0
		c-0.006-0.072-0.02-0.132-0.02-0.196c0-0.748,0.004-1.495-0.002-2.243c-0.002-0.16,0.047-0.209,0.211-0.207
		c0.881,0.006,1.764,0.004,2.646,0c0.124,0,0.188,0.026,0.186,0.166c-0.005,0.783-0.003,1.566-0.004,2.351
		C8.36,23.861,8.344,23.9,8.333,23.95z"/>
	<path fill-rule="evenodd" clip-rule="evenodd" fill="#A7A8B4" d="M10.17,23.94c-0.007-0.064-0.015-0.128-0.015-0.19
		c-0.001-0.747,0.004-1.495-0.006-2.243c0-0.163,0.053-0.207,0.213-0.203c0.869,0.006,1.735,0.006,2.603,0
		c0.164,0,0.234,0.03,0.23,0.211c-0.01,0.748-0.005,1.495-0.004,2.243c0.002,0.118-0.003,0.205-0.168,0.203
		c-0.918-0.006-1.836-0.002-2.755-0.004C10.239,23.957,10.212,23.95,10.17,23.94z"/>
	<path fill-rule="evenodd" clip-rule="evenodd" fill="#A7A8B4" d="M15.079,23.946c0-0.878,0-1.742,0-2.624c1.002,0,1.994,0,3.01,0
		c0.008,0.072,0.017,0.14,0.017,0.207c0,0.731-0.005,1.466,0.002,2.196c0.004,0.17-0.03,0.241-0.224,0.237
		c-0.864-0.01-1.733-0.004-2.6-0.004C15.221,23.959,15.158,23.95,15.079,23.946z"/>
	<path fill-rule="evenodd" clip-rule="evenodd" fill="#A7A8B4" d="M22.641,21.326c0,0.876,0,1.742,0,2.633c-0.107,0-0.199,0-0.292,0
		c-0.828,0-1.661-0.004-2.491,0.002c-0.173,0.004-0.241-0.035-0.239-0.224c0.01-0.746,0.006-1.492,0.002-2.239
		c0-0.13,0.028-0.194,0.179-0.194c0.919,0.006,1.838,0.004,2.756,0.004C22.575,21.308,22.596,21.316,22.641,21.326z"/>
	<path fill-rule="evenodd" clip-rule="evenodd" fill="#A7A8B4" d="M5.347,16.85c1,0,1.993,0,3.017,0c0,0.104,0,0.192,0,0.284
		c0,0.712-0.004,1.422,0.003,2.132c0,0.158-0.045,0.211-0.209,0.211c-0.881-0.007-1.764-0.006-2.645-0.002
		c-0.12,0-0.191-0.021-0.191-0.162c0.005-0.789,0.002-1.58,0.005-2.369C5.327,16.917,5.338,16.889,5.347,16.85z"/>
	<path fill-rule="evenodd" clip-rule="evenodd" fill="#A7A8B4" d="M10.154,15.081c0-0.213,0-0.399,0-0.582
		c0-0.619,0.005-1.238-0.003-1.855c-0.002-0.158,0.044-0.213,0.208-0.212c0.876,0.008,1.75,0.008,2.627,0
		c0.167-0.001,0.21,0.061,0.209,0.216c-0.006,0.747-0.004,1.493-0.004,2.24c0,0.095,0.018,0.194-0.132,0.194
		C12.105,15.079,11.15,15.081,10.154,15.081z"/>
	<path fill-rule="evenodd" clip-rule="evenodd" fill="#A7A8B4" d="M16.567,15.081c-0.432,0-0.861-0.006-1.29,0.004
		c-0.156,0.002-0.217-0.034-0.217-0.202c0.009-0.745,0.009-1.494,0-2.239c0-0.158,0.047-0.213,0.212-0.212
		c0.88,0.008,1.76,0.005,2.644,0.002c0.137-0.002,0.191,0.04,0.191,0.184c-0.004,0.76-0.004,1.521,0,2.282
		c0,0.142-0.043,0.188-0.187,0.187C17.469,15.077,17.018,15.081,16.567,15.081z"/>
	<path fill-rule="evenodd" clip-rule="evenodd" fill="#A7A8B4" d="M22.638,12.462c0,0.863,0,1.728,0,2.604
		c-0.05,0.007-0.091,0.015-0.132,0.015c-0.896,0-1.793-0.002-2.689,0.002c-0.132,0.002-0.198-0.026-0.196-0.177
		c0.006-0.76,0.004-1.521,0-2.284c0-0.116,0.022-0.189,0.166-0.188c0.927,0.005,1.851,0.002,2.775,0.005
		C22.583,12.439,22.604,12.451,22.638,12.462z"/>
	<path fill-rule="evenodd" clip-rule="evenodd" fill="#A7A8B4" d="M15.073,19.452c0-0.87,0-1.723,0-2.597c1.008,0,2.006,0,3.032,0
		c0,0.199,0,0.392,0,0.584c0,0.609,0,1.22,0.002,1.832c0,0.121-0.007,0.205-0.169,0.203c-0.919-0.005-1.839-0.004-2.756-0.004
		C15.152,19.471,15.126,19.462,15.073,19.452z"/>
	<path fill-rule="evenodd" clip-rule="evenodd" fill="#A7A8B4" d="M10.154,16.854c1.023,0,2.018,0,3.036,0c0,0.195,0,0.382,0,0.566
		c0,0.61-0.002,1.221,0.004,1.831c0.001,0.16-0.035,0.226-0.217,0.226c-0.875-0.009-1.749-0.004-2.622-0.002
		c-0.105,0-0.203,0.01-0.203-0.146C10.155,18.509,10.154,17.691,10.154,16.854z"/>
	<path fill-rule="evenodd" clip-rule="evenodd" fill="#A7A8B4" d="M22.641,16.859c0,0.868,0,1.727,0,2.597
		c-0.062,0.008-0.108,0.017-0.158,0.017c-0.883,0.002-1.765,0.002-2.647,0c-0.098,0-0.215,0.025-0.215-0.137
		c0.004-0.819,0.004-1.639,0.004-2.477C20.63,16.859,21.624,16.859,22.641,16.859z"/>
</g>
</svg>
