<?xml version="1.0" encoding="utf-8"?>
<!-- Generator: Adobe Illustrator 16.0.0, SVG Export Plug-In . SVG Version: 6.00 Build 0)  -->
<!DOCTYPE svg PUBLIC "-//W3C//DTD SVG 1.1//EN" "http://www.w3.org/Graphics/SVG/1.1/DTD/svg11.dtd">
<svg version="1.1" id="Layer_1" xmlns="http://www.w3.org/2000/svg" xmlns:xlink="http://www.w3.org/1999/xlink" x="0px" y="0px"
	 width="24px" height="22.4px" viewBox="0 0 24 22.4" enable-background="new 0 0 24 22.4" xml:space="preserve">
<g>
	<g>
		<path fill="none" stroke="#EB2227" stroke-width="1.25" stroke-miterlimit="10" d="M22.492,11.2c0,5.8-4.697,10.5-10.498,10.5
			c-4.191-0.002-7.809-2.457-9.492-6.007"/>
		<path fill="none" stroke="#EB2227" stroke-width="1.25" stroke-miterlimit="10" d="M1.496,11.2
			c0-5.798,4.699-10.498,10.498-10.498c4.234-0.001,7.883,2.504,9.543,6.114"/>
		<circle fill="#EB2227" cx="1.551" cy="11.03" r="1.551"/>
		<circle fill="#EB2227" cx="22.4" cy="11.137" r="1.549"/>
	</g>
	<g>
		<g>
			<path fill="#EB2227" d="M9.705,6.443l1.355,2.044c0.354,0.53,0.647,1.023,0.965,1.554h0.057c0.315-0.571,0.631-1.063,0.945-1.574
				l1.338-2.024h1.866l-3.245,4.601l3.346,4.917h-1.967l-1.397-2.144c-0.374-0.55-0.688-1.083-1.022-1.653h-0.04
				c-0.313,0.57-0.647,1.082-1.001,1.653l-1.378,2.144H7.619l3.382-4.859L7.777,6.443H9.705z"/>
		</g>
	</g>
	<g>
		<path fill="none" stroke="#808184" stroke-width="1.25" stroke-miterlimit="10" d="M22.492,11.2c0,5.8-4.697,10.5-10.498,10.5
			c-4.191-0.002-7.809-2.457-9.492-6.007"/>
		<path fill="none" stroke="#808184" stroke-width="1.25" stroke-miterlimit="10" d="M1.496,11.2
			c0-5.798,4.699-10.498,10.498-10.498c4.234-0.001,7.883,2.504,9.543,6.114"/>
		<circle fill="#808184" cx="1.551" cy="11.03" r="1.551"/>
		<circle fill="#808184" cx="22.4" cy="11.137" r="1.549"/>
	</g>
	<g>
		<g>
			<path fill="#808184" d="M9.705,6.443l1.355,2.044c0.354,0.532,0.647,1.024,0.965,1.555h0.057
				c0.315-0.572,0.631-1.063,0.945-1.574l1.338-2.025h1.866l-3.245,4.601l3.346,4.917h-1.967l-1.397-2.144
				c-0.374-0.55-0.688-1.083-1.022-1.653h-0.04c-0.313,0.57-0.647,1.084-1.001,1.653l-1.378,2.144H7.619l3.382-4.859L7.777,6.443
				H9.705z"/>
		</g>
	</g>
</g>
</svg>
