<?xml version="1.0" encoding="utf-8"?>
<!-- Generator: Adobe Illustrator 16.0.0, SVG Export Plug-In . SVG Version: 6.00 Build 0)  -->
<!DOCTYPE svg PUBLIC "-//W3C//DTD SVG 1.1//EN" "http://www.w3.org/Graphics/SVG/1.1/DTD/svg11.dtd">
<svg version="1.1" id="Layer_1" xmlns="http://www.w3.org/2000/svg" xmlns:xlink="http://www.w3.org/1999/xlink" x="0px" y="0px"
	 width="30px" height="27px" viewBox="0 0 30 27" enable-background="new 0 0 30 27" xml:space="preserve">
<g>
	<g>
		<g>
			<g>
				<polyline fill="none" stroke="#FFFFFF" stroke-width="1.2" stroke-miterlimit="10" points="4.375,10.017 8.49,8.142 
					10.71,10.208 13.022,7.445 				"/>
				<g>
					<polygon fill="#FFFFFF" points="13.646,10.163 12.547,8.014 10.237,7.312 15.321,4.698 					"/>
				</g>
			</g>
		</g>
	</g>
	<g>
		
			<path fill-rule="evenodd" clip-rule="evenodd" fill="none" stroke="#FFFFFF" stroke-width="1.2" stroke-linecap="round" stroke-linejoin="round" stroke-miterlimit="10" d="
			M20.857,7.675c0,1.064,0.025,2.145-0.008,3.225c-0.021,0.663,0.13,1.231,0.513,1.78c0.639,0.922,1.218,1.883,1.82,2.823
			c-1.392,0.933-3.385,0.758-4.77-0.384c-1.438-1.188-1.907-3.208-1.202-4.95C17.845,8.603,19.724,7.431,20.857,7.675z"/>
		
			<path fill-rule="evenodd" clip-rule="evenodd" fill="none" stroke="#FFFFFF" stroke-width="1.2" stroke-linecap="round" stroke-linejoin="round" stroke-miterlimit="10" d="
			M24.561,15.247c-0.744-1.153-1.465-2.268-2.2-3.407c1.156-0.867,2.282-1.711,3.409-2.557
			C27.036,11.094,26.466,13.944,24.561,15.247z"/>
		
			<path fill-rule="evenodd" clip-rule="evenodd" fill="none" stroke="#FFFFFF" stroke-width="1.2" stroke-linecap="round" stroke-linejoin="round" stroke-miterlimit="10" d="
			M22.109,6.023c1.349,0.126,2.379,0.73,3.265,1.78c-1.088,0.82-2.14,1.612-3.265,2.459C22.109,8.824,22.109,7.473,22.109,6.023z"/>
		<path fill-rule="evenodd" clip-rule="evenodd" fill="none" stroke="#FFFFFF" stroke-width="1.2" stroke-miterlimit="10" d="
			M28.601,19.474c0,0.624-0.505,1.129-1.128,1.129H2.729c-0.623,0-1.129-0.505-1.129-1.129V3.513c0-0.624,0.506-1.129,1.129-1.129
			h24.743c0.623,0,1.128,0.506,1.128,1.129V19.474z"/>
		
			<path fill-rule="evenodd" clip-rule="evenodd" fill="none" stroke="#FFFFFF" stroke-width="1.2" stroke-linecap="round" stroke-linejoin="round" stroke-miterlimit="10" d="
			M19.48,25.286H9.936c0,0,1.624-1.54,1.805-2.092c0.208-0.631,0.574-2.538,0.574-2.538h4.582c0,0,0.307,1.926,0.55,2.547
			C17.648,23.712,19.48,25.286,19.48,25.286z"/>
	</g>
	<line fill="none" stroke="#FFFFFF" stroke-width="1.2" stroke-miterlimit="10" x1="4.896" y1="11.736" x2="4.896" y2="16.592"/>
	<line fill="none" stroke="#FFFFFF" stroke-width="1.2" stroke-miterlimit="10" x1="6.591" y1="10.951" x2="6.591" y2="16.592"/>
	<line fill="none" stroke="#FFFFFF" stroke-width="1.2" stroke-miterlimit="10" x1="8.289" y1="10.951" x2="8.289" y2="16.592"/>
	<line fill="none" stroke="#FFFFFF" stroke-width="1.2" stroke-miterlimit="10" x1="9.984" y1="12.521" x2="9.984" y2="16.592"/>
	<line fill="none" stroke="#FFFFFF" stroke-width="1.2" stroke-miterlimit="10" x1="11.679" y1="12.521" x2="11.679" y2="16.592"/>
	<line fill="none" stroke="#FFFFFF" stroke-width="1.2" stroke-miterlimit="10" x1="13.375" y1="10.951" x2="13.375" y2="16.592"/>
</g>
</svg>
