<?xml version="1.0" encoding="utf-8"?>
<!-- Generator: Adobe Illustrator 16.0.0, SVG Export Plug-In . SVG Version: 6.00 Build 0)  -->
<!DOCTYPE svg PUBLIC "-//W3C//DTD SVG 1.1//EN" "http://www.w3.org/Graphics/SVG/1.1/DTD/svg11.dtd">
<svg version="1.1" id="Layer_1" xmlns="http://www.w3.org/2000/svg" xmlns:xlink="http://www.w3.org/1999/xlink" x="0px" y="0px"
	 width="28px" height="28px" viewBox="0 0 28 28" enable-background="new 0 0 28 28" xml:space="preserve">
<g>
	<path fill="none" stroke="#A7A8B4" stroke-miterlimit="10" d="M25.02,17.127v7.607c0,1.24-0.991,2.244-2.212,2.244H2.974
		c-1.223,0-2.212-1.004-2.212-2.244V6.04c0-1.24,0.989-2.246,2.212-2.246h7.658"/>
	<path fill="none" stroke="#A7A8B4" stroke-miterlimit="10" d="M9.713,13.731l-1.675,6.112l5.857-1.694
		c0,0,10.873-11.043,12.042-12.232c1.171-1.19,1.171-2.122-0.501-3.821c-1.508-1.532-2.845-1.359-3.933-0.255
		C20.42,2.943,9.713,13.731,9.713,13.731z"/>
	<line fill="none" stroke="#A7A8B4" stroke-miterlimit="10" x1="20.667" y1="3.027" x2="24.769" y2="7.191"/>
	<line fill="none" stroke="#A7A8B4" stroke-miterlimit="10" x1="9.794" y1="13.815" x2="13.724" y2="18.314"/>
</g>
</svg>
