<?xml version="1.0" encoding="utf-8"?>
<!-- Generator: Adobe Illustrator 16.0.0, SVG Export Plug-In . SVG Version: 6.00 Build 0)  -->
<!DOCTYPE svg PUBLIC "-//W3C//DTD SVG 1.1//EN" "http://www.w3.org/Graphics/SVG/1.1/DTD/svg11.dtd">
<svg version="1.1" id="Layer_1" xmlns="http://www.w3.org/2000/svg" xmlns:xlink="http://www.w3.org/1999/xlink" x="0px" y="0px"
	 width="28px" height="28px" viewBox="0 0 28 28" enable-background="new 0 0 28 28" xml:space="preserve">
<g>
	<g>
		<path fill="#A7A8B4" d="M21.164,25.546c0.496-0.375,1.354-0.796,1.803-1.249c0.813-0.814,1.41-1.26,1.965-2.206l-10.797-6.56
			L21.164,25.546z"/>
		<path fill="#A7A8B4" d="M23.916,4.821l-8.99,9.253l12.354-2.683C26.818,8.947,25.771,6.739,23.916,4.821z"/>
		<path fill="#A7A8B4" d="M22.785,3.796c-3.908-3.462-9.379-4.197-13.952-2.202l5.111,11.815L22.785,3.796z"/>
		<g>
			<path fill="#A7A8B4" d="M15.369,15.025l10.354,5.703c1.43-2.445,1.986-4.935,1.708-7.668L15.369,15.025z"/>
		</g>
		<path fill="#A7A8B4" d="M1.771,19.518c0.64,1.491,1.549,2.891,2.762,4.105c4.172,4.174,10.313,4.88,15.079,2.588L12.7,15.692
			L1.771,19.518z"/>
		<path fill="#A7A8B4" d="M1.185,18.145l11.555-4.039L7.517,2.256c-1.141,0.6-2.22,1.504-3.179,2.465
			C0.71,8.354-0.342,13.582,1.166,18.147L1.185,18.145z"/>
	</g>
</g>
</svg>
