<?xml version="1.0" encoding="utf-8"?>
<!-- Generator: Adobe Illustrator 16.0.0, SVG Export Plug-In . SVG Version: 6.00 Build 0)  -->
<!DOCTYPE svg PUBLIC "-//W3C//DTD SVG 1.1//EN" "http://www.w3.org/Graphics/SVG/1.1/DTD/svg11.dtd">
<svg version="1.1" id="Layer_1" xmlns="http://www.w3.org/2000/svg" xmlns:xlink="http://www.w3.org/1999/xlink" x="0px" y="0px"
	 width="28px" height="28px" viewBox="0 0 28 28" enable-background="new 0 0 28 28" xml:space="preserve">
<g>
	<path fill="none" stroke="#F99D1C" stroke-width="1.2" stroke-miterlimit="10" d="M21.946,9.581h4.845c0,0,0-2.163,0-5.536
		c0-1.668-1.542-2.7-3.104-2.82c-1.597-0.121-3.212,0.718-3.212,2.82c0,4.154,0,22.23,0,22.23h-1.902c0,0,0.068-1.767-1.574-1.767
		c-1.644,0-1.54,1.767-1.54,1.767H12.69c0,0-0.044-2.003-1.558-1.99c-1.436,0.013-1.556,1.903-1.556,1.903H7.068
		c0,0,0.007-1.968-1.725-1.963c-1.453,0.006-1.562,2.135-1.562,2.135H1.791c0,0,0-16.866,0-20.412c0-3.547,0.864-4.585,4.151-4.585
		h15.687"/>
	<line fill="none" stroke="#F99D1C" stroke-width="1.2" stroke-miterlimit="10" x1="4.689" y1="18.014" x2="17.606" y2="18.014"/>
	<line fill="none" stroke="#F99D1C" stroke-width="1.2" stroke-miterlimit="10" x1="4.689" y1="14.974" x2="17.606" y2="14.974"/>
	<line fill="none" stroke="#F99D1C" stroke-width="1.2" stroke-miterlimit="10" x1="4.689" y1="11.938" x2="17.606" y2="11.938"/>
	<line fill="none" stroke="#F99D1C" stroke-width="1.2" stroke-miterlimit="10" x1="4.689" y1="8.899" x2="17.606" y2="8.899"/>
	<g>
		<circle fill="#F7941E" stroke="#F7941E" stroke-width="0.25" stroke-miterlimit="10" cx="5.274" cy="5.728" r="0.631"/>
		<circle fill="#F7941E" stroke="#F7941E" stroke-width="0.25" stroke-miterlimit="10" cx="7.568" cy="5.728" r="0.633"/>
		<circle fill="#F7941E" stroke="#F7941E" stroke-width="0.25" stroke-miterlimit="10" cx="9.861" cy="5.728" r="0.632"/>
		<circle fill="#F7941E" stroke="#F7941E" stroke-width="0.25" stroke-miterlimit="10" cx="12.155" cy="5.728" r="0.632"/>
		<circle fill="#F7941E" stroke="#F7941E" stroke-width="0.25" stroke-miterlimit="10" cx="14.448" cy="5.728" r="0.632"/>
		<circle fill="#F7941E" stroke="#F7941E" stroke-width="0.25" stroke-miterlimit="10" cx="16.742" cy="5.728" r="0.632"/>
	</g>
	<g>
		<circle fill="#F7941E" stroke="#F7941E" stroke-width="0.25" stroke-miterlimit="10" cx="5.274" cy="21.043" r="0.631"/>
		<circle fill="#F7941E" stroke="#F7941E" stroke-width="0.25" stroke-miterlimit="10" cx="7.568" cy="21.043" r="0.633"/>
		<circle fill="#F7941E" stroke="#F7941E" stroke-width="0.25" stroke-miterlimit="10" cx="9.861" cy="21.043" r="0.632"/>
		<circle fill="#F7941E" stroke="#F7941E" stroke-width="0.25" stroke-miterlimit="10" cx="12.155" cy="21.043" r="0.632"/>
		<circle fill="#F7941E" stroke="#F7941E" stroke-width="0.25" stroke-miterlimit="10" cx="14.448" cy="21.043" r="0.632"/>
		<circle fill="#F7941E" stroke="#F7941E" stroke-width="0.25" stroke-miterlimit="10" cx="16.742" cy="21.043" r="0.632"/>
	</g>
</g>
</svg>
