<?xml version="1.0" encoding="utf-8"?>
<!-- Generator: Adobe Illustrator 16.0.0, SVG Export Plug-In . SVG Version: 6.00 Build 0)  -->
<!DOCTYPE svg PUBLIC "-//W3C//DTD SVG 1.1//EN" "http://www.w3.org/Graphics/SVG/1.1/DTD/svg11.dtd">
<svg version="1.1" id="Layer_1" xmlns="http://www.w3.org/2000/svg" xmlns:xlink="http://www.w3.org/1999/xlink" x="0px" y="0px"
	 width="21.7px" height="25.8px" viewBox="0 0 21.7 25.8" enable-background="new 0 0 21.7 25.8" xml:space="preserve">
<g>
	<path fill="#F15A29" stroke="#F15A29" stroke-width="0.5" stroke-miterlimit="10" d="M21.466,12.939
		c-0.006-4.338-2.832-8.206-7.057-9.657l-0.541,1.484c3.846,1.316,6.287,4.982,5.936,8.917c-0.354,3.934-3.41,7.139-7.434,7.793
		l1.66-2.785l-1.41-0.787l-2.441,4.098c-0.226,0.375-0.092,0.857,0.297,1.074l4.232,2.365l0.814-1.367l-2.137-1.195
		C18.12,21.761,21.456,17.657,21.466,12.939L21.466,12.939z M21.466,12.939"/>
	<path fill="#F15A29" stroke="#F15A29" stroke-width="0.5" stroke-miterlimit="10" d="M9.146,7.978l2.443-4.098
		c0.223-0.377,0.09-0.858-0.299-1.074L7.057,0.44L6.243,1.806L8.38,3.001C3.832,4.069,0.548,7.903,0.313,12.43
		c-0.237,4.522,2.627,8.659,7.042,10.168l0.541-1.486c-3.847-1.314-6.288-4.982-5.934-8.914c0.352-3.934,3.41-7.139,7.432-7.794
		L7.736,7.191L9.146,7.978z M9.146,7.978"/>
</g>
</svg>
