<?xml version="1.0" encoding="utf-8"?>
<!-- Generator: Adobe Illustrator 16.0.0, SVG Export Plug-In . SVG Version: 6.00 Build 0)  -->
<!DOCTYPE svg PUBLIC "-//W3C//DTD SVG 1.1//EN" "http://www.w3.org/Graphics/SVG/1.1/DTD/svg11.dtd">
<svg version="1.1" id="Layer_1" xmlns="http://www.w3.org/2000/svg" xmlns:xlink="http://www.w3.org/1999/xlink" x="0px" y="0px"
	 width="26px" height="26px" viewBox="0 0 26 26" enable-background="new 0 0 26 26" xml:space="preserve">
<g>
	<g>
		<path fill="#A7A9B5" d="M22.026,16.434v5.709H3.968v-5.709H0.5v7.389c0,0.926,0.775,1.678,1.738,1.678h21.523
			c0.959,0,1.738-0.752,1.738-1.678v-7.389H22.026z"/>
		<path fill="#A7A9B5" d="M22.026,16.434"/>
		<path fill="#A7A9B5" d="M12.684,15.868l-4.968-5.811c0,0-0.759-0.688,0.064-0.688h2.799V0.912c0,0-0.115-0.412,0.528-0.412h3.941
			c0.463,0,0.454,0.347,0.454,0.347v8.347h2.585c0.994,0,0.243,0.723,0.243,0.723s-4.226,5.43-4.819,5.999
			C13.085,16.327,12.684,15.868,12.684,15.868L12.684,15.868z"/>
		<path fill="#A7A9B5" d="M12.684,15.868"/>
	</g>
</g>
</svg>
