<?xml version="1.0" encoding="utf-8"?>
<!-- Generator: Adobe Illustrator 16.0.0, SVG Export Plug-In . SVG Version: 6.00 Build 0)  -->
<!DOCTYPE svg PUBLIC "-//W3C//DTD SVG 1.1//EN" "http://www.w3.org/Graphics/SVG/1.1/DTD/svg11.dtd">
<svg version="1.1" id="Layer_1" xmlns="http://www.w3.org/2000/svg" xmlns:xlink="http://www.w3.org/1999/xlink" x="0px" y="0px"
	 width="65px" height="65px" viewBox="0 0 65 65" enable-background="new 0 0 65 65" xml:space="preserve">
<g>
	
		<polyline fill-rule="evenodd" clip-rule="evenodd" fill="none" stroke="#F15A29" stroke-width="1.5" stroke-miterlimit="10" points="
		47.178,5.88 38.662,5.88 38.662,59.586 47.178,59.586 	"/>
	<path fill-rule="evenodd" clip-rule="evenodd" fill="#F15A29" d="M26.164,42.669c0,1.221-0.99,2.212-2.212,2.212H4.129
		c-1.221,0-2.212-0.991-2.212-2.212V22.845c0-1.222,0.991-2.211,2.212-2.211h19.823c1.222,0,2.212,0.989,2.212,2.211V42.669z"/>
	<circle fill-rule="evenodd" clip-rule="evenodd" fill="#F15A29" cx="56.83" cy="6.341" r="6.253"/>
	<circle fill-rule="evenodd" clip-rule="evenodd" fill="#F15A29" cx="56.83" cy="23.781" r="6.253"/>
	<circle fill-rule="evenodd" clip-rule="evenodd" fill="#F15A29" cx="56.83" cy="41.22" r="6.253"/>
	<circle fill-rule="evenodd" clip-rule="evenodd" fill="#F15A29" cx="56.83" cy="58.661" r="6.253"/>
	<line fill="none" stroke="#F15A29" stroke-width="1.5" stroke-miterlimit="10" x1="38.695" y1="24.107" x2="47.178" y2="24.107"/>
	<line fill="none" stroke="#F15A29" stroke-width="1.5" stroke-miterlimit="10" x1="38.695" y1="42.062" x2="47.178" y2="42.062"/>
	<line fill="none" stroke="#F15A29" stroke-width="1.5" stroke-miterlimit="10" x1="38.695" y1="32.239" x2="29.453" y2="32.239"/>
</g>
<g>
	<path fill="#00A650" d="M178.721,35.099c-2.911,0-5.523,1.219-7.382,3.175l-21.712-10.628c0.078-0.502,0.126-1.003,0.126-1.524
		c0-0.507-0.048-1.001-0.12-1.485l21.677-10.514c1.858,1.967,4.488,3.203,7.411,3.203c5.635,0,10.201-4.565,10.201-10.195
		c0-5.635-4.566-10.202-10.201-10.202c-5.631,0-10.196,4.567-10.196,10.202c0,0.502,0.048,1,0.119,1.482l-21.683,10.513
		c-1.857-1.966-4.481-3.204-7.404-3.204c-5.637,0-10.201,4.567-10.201,10.2c0,5.634,4.564,10.196,10.201,10.196
		c2.904,0,5.521-1.223,7.382-3.173l21.711,10.626c-0.077,0.498-0.125,1.006-0.125,1.524c0,5.636,4.565,10.203,10.196,10.203
		c5.635,0,10.201-4.567,10.201-10.203C188.922,39.667,184.355,35.099,178.721,35.099L178.721,35.099z M178.721,35.099"/>
</g>
<g>
	<path fill="#D18834" d="M165.293-66.636c0.34-3.685,1.646-7.077,3.661-9.953c-1.646-7.456-8.29-13.05-16.228-13.05
		c-9.158,0-16.613,7.456-16.613,16.621c0,7.972,5.643,14.646,13.154,16.243C153.037-61.922,158.73-65.557,165.293-66.636
		L165.293-66.636z M146.08-69.064c0-0.603,0.461-1.073,1.072-1.073h3.408v-0.793l-0.469-0.802h-2.939
		c-0.611,0-1.072-0.461-1.072-1.072c0-0.603,0.461-1.073,1.072-1.073h1.676l-3.628-5.956c-0.19-0.335-0.384-0.747-0.384-1.131
		c0-1.512,1.406-2.001,2.365-2.001c1.15,0,1.675,0.901,1.867,1.285l3.686,7.006l3.676-7.006c0.191-0.384,0.717-1.285,1.866-1.285
		c0.96,0,2.365,0.489,2.365,2.001c0,0.384-0.19,0.796-0.384,1.131l-3.627,5.956h1.676c0.603,0,1.064,0.47,1.064,1.073
		c0,0.611-0.462,1.072-1.064,1.072h-2.939l-0.469,0.802v0.793h3.408c0.603,0,1.071,0.47,1.071,1.073s-0.469,1.073-1.071,1.073
		h-3.408v2.719c0,1.314-0.797,2.194-2.164,2.194c-1.379,0-2.174-0.88-2.174-2.194v-2.719h-3.408
		C146.541-67.992,146.08-68.461,146.08-69.064L146.08-69.064z M146.08-69.064"/>
	<path fill="#D18834" d="M185.966-81.333c-8.392,0-15.327,6.257-16.442,14.342c3.166,0.03,6.191,0.652,8.98,1.762
		c0.178-0.428,0.562-0.697,1.158-0.697h0.574c-0.574-0.823-0.822-1.866-0.822-2.938c0-3.4,3.017-5.794,6.893-5.794
		c4.813,0,7.143,2.584,7.143,4.722c0,1.241-0.853,1.923-2.059,1.923c-2.414,0-0.938-3.35-4.644-3.35
		c-1.618,0-3.159,0.965-3.159,2.746c0,0.938,0.469,1.868,0.908,2.691h2.996c1.123,0,1.704,0.418,1.704,1.32
		c0,0.909-0.581,1.321-1.704,1.321h-2.172c0.084,0.221,0.135,0.413,0.135,0.661c0,0.439-0.107,0.881-0.277,1.313
		c0.895,0.738,1.726,1.561,2.514,2.421c0.76,0.156,1.441,0.334,2.243,0.334c0.468,0,1.598-0.305,2.03-0.305
		c1.016,0,1.598,0.765,1.598,1.751c0,1.556-1.392,2.23-2.818,2.323c0.951,1.59,1.739,3.28,2.321,5.069
		c5.616-2.662,9.514-8.378,9.514-15.001C202.579-73.877,195.125-81.333,185.966-81.333L185.966-81.333z M185.966-81.333"/>
	<path fill="#D18834" d="M170.446-40.091v6.795c2.06-0.135,4.224-1.094,4.224-3.366C174.67-38.997,172.299-39.679,170.446-40.091
		L170.446-40.091z M170.446-40.091"/>
	<path fill="#D18834" d="M164.54-48.234c0,1.725,1.271,2.712,3.848,3.23v-6.148C166.045-51.081,164.54-49.71,164.54-48.234
		L164.54-48.234z M164.54-48.234"/>
	<path fill="#D18834" d="M169.346-62.844c-11.452,0-20.773,9.321-20.773,20.773c0,11.452,9.321,20.773,20.773,20.773
		s20.773-9.322,20.773-20.773C190.119-53.523,180.798-62.844,169.346-62.844L169.346-62.844z M170.446-29.789v2.13
		c0,0.582-0.447,1.165-1.028,1.165c-0.584,0-1.03-0.583-1.03-1.165v-2.13c-5.802-0.135-8.688-3.606-8.688-6.319
		c0-1.37,0.823-2.166,2.127-2.166c3.842,0,0.854,4.743,6.562,4.984v-7.178c-5.091-0.93-8.172-3.159-8.172-6.972
		c0-4.671,3.877-7.078,8.172-7.213v-1.832c0-0.583,0.446-1.164,1.03-1.164c0.581,0,1.028,0.581,1.028,1.164v1.832
		c2.677,0.071,8.171,1.747,8.171,5.119c0,1.335-1,2.123-2.164,2.123c-2.23,0-2.201-3.671-6.007-3.742v6.524
		c4.536,0.966,8.548,2.3,8.548,7.597C178.994-32.43,175.558-30.095,170.446-29.789L170.446-29.789z M170.446-29.789"/>
</g>
<g>
	<path fill="#ED1C24" d="M218.205,2.348v-7.719c0-1.066,0.863-1.93,1.932-1.93c1.066,0,1.93,0.863,1.93,1.93v7.719
		c0,1.067-0.863,1.931-1.93,1.931C219.068,4.279,218.205,3.416,218.205,2.348L218.205,2.348z M251.015,4.279
		c1.066,0,1.93-0.863,1.93-1.931v-7.719c0-1.066-0.863-1.93-1.93-1.93s-1.93,0.863-1.93,1.93v7.719
		C249.085,3.416,249.948,4.279,251.015,4.279L251.015,4.279z M272.243,39.017c0,8.525-6.914,15.44-15.439,15.44
		s-15.439-6.915-15.439-15.44s6.914-15.44,15.439-15.44S272.243,30.492,272.243,39.017L272.243,39.017z M268.382,39.017
		c0-6.385-5.193-11.581-11.578-11.581s-11.58,5.196-11.58,11.581s5.195,11.578,11.58,11.578S268.382,45.402,268.382,39.017
		L268.382,39.017z M225.926,15.858h-7.721v7.719h7.721V15.858z M218.205,35.158h7.721v-7.721h-7.721V35.158z M229.785,23.577h7.719
		v-7.719h-7.719V23.577z M229.785,35.158h7.719v-7.721h-7.719V35.158z M214.346,38.632V11.998h42.458v7.72h3.859V4.663
		c0-2.344-1.869-4.244-4.18-4.244h-1.609v1.93c0,2.127-1.73,3.861-3.859,3.861c-2.131,0-3.861-1.734-3.861-3.861v-1.93h-23.157v1.93
		c0,2.127-1.73,3.861-3.859,3.861c-2.131,0-3.861-1.734-3.861-3.861v-1.93h-1.605c-2.313,0-4.184,1.9-4.184,4.244v33.97
		c0,2.338,1.871,4.244,4.184,4.244h22.834v-3.859H214.67C214.494,39.017,214.346,38.835,214.346,38.632L214.346,38.632z
		 M249.085,23.577v-7.719h-7.721v7.719H249.085z M262.593,39.017h-5.789v-5.789c0-1.068-0.863-1.932-1.93-1.932
		s-1.93,0.863-1.93,1.932v7.719c0,1.066,0.863,1.93,1.93,1.93h7.719c1.066,0,1.93-0.863,1.93-1.93S263.659,39.017,262.593,39.017
		L262.593,39.017z M262.593,39.017"/>
</g>
<circle fill="#A7A9B5" cx="102.334" cy="35.333" r="13.5"/>
</svg>
