<?xml version="1.0" encoding="utf-8"?>
<!-- Generator: Adobe Illustrator 16.0.0, SVG Export Plug-In . SVG Version: 6.00 Build 0)  -->
<!DOCTYPE svg PUBLIC "-//W3C//DTD SVG 1.1//EN" "http://www.w3.org/Graphics/SVG/1.1/DTD/svg11.dtd">
<svg version="1.1" id="Layer_1" xmlns="http://www.w3.org/2000/svg" xmlns:xlink="http://www.w3.org/1999/xlink" x="0px" y="0px"
	 width="65px" height="65px" viewBox="0 0 65 65" enable-background="new 0 0 65 65" xml:space="preserve">
<g>
	<path fill="#D18834" d="M165.293-66.636c0.34-3.685,1.646-7.077,3.661-9.953c-1.646-7.456-8.29-13.05-16.228-13.05
		c-9.158,0-16.613,7.456-16.613,16.621c0,7.972,5.643,14.646,13.154,16.243C153.037-61.922,158.73-65.557,165.293-66.636
		L165.293-66.636z M146.08-69.064c0-0.603,0.461-1.073,1.072-1.073h3.408v-0.793l-0.469-0.802h-2.939
		c-0.611,0-1.072-0.461-1.072-1.072c0-0.603,0.461-1.073,1.072-1.073h1.676l-3.628-5.956c-0.19-0.335-0.384-0.747-0.384-1.131
		c0-1.512,1.406-2.001,2.365-2.001c1.15,0,1.675,0.901,1.867,1.285l3.686,7.006l3.676-7.006c0.191-0.384,0.717-1.285,1.866-1.285
		c0.96,0,2.365,0.489,2.365,2.001c0,0.384-0.19,0.796-0.384,1.131l-3.627,5.956h1.676c0.603,0,1.064,0.47,1.064,1.073
		c0,0.611-0.462,1.072-1.064,1.072h-2.939l-0.469,0.802v0.793h3.408c0.603,0,1.071,0.47,1.071,1.073s-0.469,1.073-1.071,1.073
		h-3.408v2.719c0,1.314-0.797,2.194-2.164,2.194c-1.379,0-2.174-0.88-2.174-2.194v-2.719h-3.408
		C146.541-67.992,146.08-68.461,146.08-69.064L146.08-69.064z M146.08-69.064"/>
	<path fill="#D18834" d="M185.966-81.333c-8.392,0-15.327,6.257-16.442,14.342c3.166,0.03,6.191,0.652,8.98,1.762
		c0.178-0.428,0.562-0.697,1.158-0.697h0.574c-0.574-0.823-0.822-1.866-0.822-2.938c0-3.4,3.017-5.794,6.893-5.794
		c4.813,0,7.143,2.584,7.143,4.722c0,1.241-0.853,1.923-2.059,1.923c-2.414,0-0.938-3.35-4.644-3.35
		c-1.618,0-3.159,0.965-3.159,2.746c0,0.938,0.469,1.868,0.908,2.691h2.996c1.123,0,1.704,0.418,1.704,1.32
		c0,0.909-0.581,1.321-1.704,1.321h-2.172c0.084,0.221,0.135,0.413,0.135,0.661c0,0.439-0.107,0.881-0.277,1.313
		c0.895,0.738,1.726,1.561,2.514,2.421c0.76,0.156,1.441,0.334,2.243,0.334c0.468,0,1.598-0.305,2.03-0.305
		c1.016,0,1.598,0.765,1.598,1.751c0,1.556-1.392,2.23-2.818,2.323c0.951,1.59,1.739,3.28,2.321,5.069
		c5.616-2.662,9.514-8.378,9.514-15.001C202.579-73.877,195.125-81.333,185.966-81.333L185.966-81.333z M185.966-81.333"/>
	<path fill="#D18834" d="M170.446-40.091v6.795c2.06-0.135,4.224-1.094,4.224-3.366C174.67-38.997,172.299-39.679,170.446-40.091
		L170.446-40.091z M170.446-40.091"/>
	<path fill="#D18834" d="M164.54-48.234c0,1.725,1.271,2.712,3.848,3.23v-6.148C166.045-51.081,164.54-49.71,164.54-48.234
		L164.54-48.234z M164.54-48.234"/>
	<path fill="#D18834" d="M169.346-62.844c-11.452,0-20.773,9.321-20.773,20.773c0,11.452,9.321,20.773,20.773,20.773
		s20.773-9.322,20.773-20.773C190.119-53.523,180.798-62.844,169.346-62.844L169.346-62.844z M170.446-29.789v2.13
		c0,0.582-0.447,1.165-1.028,1.165c-0.584,0-1.03-0.583-1.03-1.165v-2.13c-5.802-0.135-8.688-3.606-8.688-6.319
		c0-1.37,0.823-2.166,2.127-2.166c3.842,0,0.854,4.743,6.562,4.984v-7.178c-5.091-0.93-8.172-3.159-8.172-6.972
		c0-4.671,3.877-7.078,8.172-7.213v-1.832c0-0.583,0.446-1.164,1.03-1.164c0.581,0,1.028,0.581,1.028,1.164v1.832
		c2.677,0.071,8.171,1.747,8.171,5.119c0,1.335-1,2.123-2.164,2.123c-2.23,0-2.201-3.671-6.007-3.742v6.524
		c4.536,0.966,8.548,2.3,8.548,7.597C178.994-32.43,175.558-30.095,170.446-29.789L170.446-29.789z M170.446-29.789"/>
</g>
<g>
	<path fill="#A7A9B5" d="M8.355,10.366V2.32c0-1.112,0.9-2.012,2.014-2.012c1.112,0,2.012,0.9,2.012,2.012v8.046
		c0,1.114-0.899,2.013-2.012,2.013C9.255,12.379,8.355,11.48,8.355,10.366L8.355,10.366z M42.561,12.379
		c1.11,0,2.012-0.899,2.012-2.013V2.32c0-1.112-0.901-2.012-2.012-2.012c-1.113,0-2.013,0.9-2.013,2.012v8.046
		C40.548,11.48,41.447,12.379,42.561,12.379L42.561,12.379z M64.692,48.595c0,8.887-7.209,16.096-16.098,16.096
		c-8.888,0-16.096-7.209-16.096-16.096c0-8.888,7.208-16.097,16.096-16.097C57.483,32.498,64.692,39.708,64.692,48.595
		L64.692,48.595z M60.665,48.595c0-6.656-5.414-12.073-12.07-12.073s-12.072,5.417-12.072,12.073
		c0,6.655,5.416,12.069,12.072,12.069S60.665,55.25,60.665,48.595L60.665,48.595z M16.404,24.451H8.355v8.047h8.049V24.451z
		 M8.355,44.571h8.049v-8.049H8.355V44.571z M20.428,32.498h8.047v-8.047h-8.047V32.498z M20.428,44.571h8.047v-8.049h-8.047V44.571
		z M4.332,48.194V20.427h44.263v8.048h4.023V12.78c0-2.444-1.949-4.425-4.357-4.425h-1.677v2.011c0,2.218-1.804,4.026-4.023,4.026
		c-2.223,0-4.026-1.808-4.026-4.026V8.355H14.393v2.011c0,2.218-1.804,4.026-4.024,4.026c-2.221,0-4.025-1.808-4.025-4.026V8.355
		H4.669c-2.411,0-4.361,1.981-4.361,4.425v35.414c0,2.437,1.95,4.425,4.361,4.425h23.806v-4.024H4.669
		C4.486,48.595,4.332,48.406,4.332,48.194L4.332,48.194z M40.548,32.498v-8.047h-8.049v8.047H40.548z M54.63,48.595h-6.035v-6.036
		c0-1.113-0.899-2.013-2.011-2.013c-1.112,0-2.012,0.9-2.012,2.013v8.047c0,1.112,0.899,2.013,2.012,2.013h8.046
		c1.111,0,2.012-0.9,2.012-2.013C56.642,49.495,55.741,48.595,54.63,48.595L54.63,48.595z M54.63,48.595"/>
</g>
<g>
	<path fill="#ED1C24" d="M-60.478,10.366V2.32c0-1.112,0.9-2.012,2.014-2.012c1.112,0,2.012,0.9,2.012,2.012v8.046
		c0,1.114-0.899,2.013-2.012,2.013C-59.578,12.379-60.478,11.48-60.478,10.366L-60.478,10.366z M-26.272,12.379
		c1.11,0,2.012-0.899,2.012-2.013V2.32c0-1.112-0.901-2.012-2.012-2.012c-1.113,0-2.013,0.9-2.013,2.012v8.046
		C-28.285,11.48-27.386,12.379-26.272,12.379L-26.272,12.379z M-4.141,48.595c0,8.887-7.209,16.096-16.098,16.096
		c-8.888,0-16.096-7.209-16.096-16.096c0-8.888,7.208-16.097,16.096-16.097C-11.35,32.498-4.141,39.708-4.141,48.595L-4.141,48.595z
		 M-8.168,48.595c0-6.656-5.414-12.073-12.07-12.073s-12.072,5.417-12.072,12.073c0,6.655,5.416,12.069,12.072,12.069
		S-8.168,55.25-8.168,48.595L-8.168,48.595z M-52.429,24.451h-8.049v8.047h8.049V24.451z M-60.478,44.571h8.049v-8.049h-8.049
		V44.571z M-48.405,32.498h8.047v-8.047h-8.047V32.498z M-48.405,44.571h8.047v-8.049h-8.047V44.571z M-64.501,48.194V20.427h44.263
		v8.048h4.023V12.78c0-2.444-1.949-4.425-4.357-4.425h-1.677v2.011c0,2.218-1.804,4.026-4.023,4.026
		c-2.223,0-4.026-1.808-4.026-4.026V8.355H-54.44v2.011c0,2.218-1.804,4.026-4.024,4.026c-2.221,0-4.025-1.808-4.025-4.026V8.355
		h-1.674c-2.411,0-4.361,1.981-4.361,4.425v35.414c0,2.437,1.95,4.425,4.361,4.425h23.806v-4.024h-23.806
		C-64.347,48.595-64.501,48.406-64.501,48.194L-64.501,48.194z M-28.285,32.498v-8.047h-8.049v8.047H-28.285z M-14.203,48.595
		h-6.035v-6.036c0-1.113-0.899-2.013-2.011-2.013c-1.112,0-2.012,0.9-2.012,2.013v8.047c0,1.112,0.899,2.013,2.012,2.013h8.046
		c1.111,0,2.012-0.9,2.012-2.013C-12.191,49.495-13.092,48.595-14.203,48.595L-14.203,48.595z M-14.203,48.595"/>
</g>
<circle fill="#A7A9B5" cx="102.334" cy="35.333" r="13.5"/>
</svg>
