<?xml version="1.0" encoding="utf-8"?>
<!-- Generator: Adobe Illustrator 16.0.0, SVG Export Plug-In . SVG Version: 6.00 Build 0)  -->
<!DOCTYPE svg PUBLIC "-//W3C//DTD SVG 1.1//EN" "http://www.w3.org/Graphics/SVG/1.1/DTD/svg11.dtd">
<svg version="1.1" id="Layer_1" xmlns="http://www.w3.org/2000/svg" xmlns:xlink="http://www.w3.org/1999/xlink" x="0px" y="0px"
	 width="65px" height="65px" viewBox="0 0 65 65" enable-background="new 0 0 65 65" xml:space="preserve">
<g>
	<path fill="#A7A9B5" d="M28.658,21.914c0.322-3.492,1.561-6.708,3.471-9.435C30.568,5.412,24.271,0.108,16.746,0.108
		c-8.682,0-15.748,7.068-15.748,15.756c0,7.557,5.349,13.883,12.469,15.397C17.04,26.383,22.438,22.938,28.658,21.914L28.658,21.914
		z M10.445,19.611c0-0.571,0.437-1.017,1.017-1.017h3.23v-0.752l-0.444-0.76h-2.786c-0.58,0-1.017-0.438-1.017-1.017
		c0-0.571,0.437-1.017,1.017-1.017h1.589L9.611,9.404C9.431,9.087,9.247,8.696,9.247,8.332c0-1.433,1.333-1.896,2.243-1.896
		c1.09,0,1.587,0.854,1.77,1.218l3.493,6.642l3.484-6.642c0.182-0.363,0.68-1.218,1.77-1.218c0.91,0,2.242,0.464,2.242,1.896
		c0,0.364-0.181,0.755-0.364,1.072l-3.438,5.646h1.588c0.571,0,1.01,0.445,1.01,1.017c0,0.579-0.438,1.017-1.01,1.017h-2.786
		l-0.444,0.76v0.752h3.23c0.571,0,1.016,0.445,1.016,1.017c0,0.572-0.444,1.018-1.016,1.018h-3.23v2.577
		c0,1.245-0.756,2.08-2.052,2.08c-1.307,0-2.061-0.835-2.061-2.08v-2.577h-3.23C10.882,20.629,10.445,20.184,10.445,19.611
		L10.445,19.611z M10.445,19.611"/>
	<path fill="#A7A9B5" d="M48.255,7.982c-7.955,0-14.53,5.931-15.587,13.595c3.002,0.028,5.869,0.618,8.514,1.671
		c0.168-0.406,0.531-0.661,1.097-0.661h0.546c-0.546-0.78-0.781-1.77-0.781-2.785c0-3.224,2.86-5.492,6.535-5.492
		c4.563,0,6.77,2.449,6.77,4.476c0,1.177-0.808,1.822-1.951,1.822c-2.289,0-0.889-3.175-4.402-3.175
		c-1.533,0-2.994,0.915-2.994,2.604c0,0.889,0.445,1.771,0.861,2.551h2.84c1.064,0,1.615,0.396,1.615,1.251
		c0,0.861-0.551,1.252-1.615,1.252h-2.059c0.08,0.21,0.127,0.392,0.127,0.627c0,0.416-0.101,0.835-0.263,1.244
		c0.849,0.7,1.636,1.48,2.384,2.296c0.72,0.147,1.365,0.316,2.126,0.316c0.444,0,1.515-0.289,1.924-0.289
		c0.964,0,1.515,0.725,1.515,1.66c0,1.475-1.318,2.114-2.671,2.202c0.901,1.508,1.649,3.108,2.2,4.805
		c5.323-2.523,9.018-7.942,9.018-14.22C64.002,15.05,56.938,7.982,48.255,7.982L48.255,7.982z M48.255,7.982"/>
	<path fill="#A7A9B5" d="M33.543,47.077v6.441c1.953-0.129,4.004-1.038,4.004-3.19C37.547,48.114,35.299,47.468,33.543,47.077
		L33.543,47.077z M33.543,47.077"/>
	<path fill="#A7A9B5" d="M27.945,39.357c0,1.636,1.203,2.571,3.646,3.063v-5.828C29.371,36.658,27.945,37.958,27.945,39.357
		L27.945,39.357z M27.945,39.357"/>
	<path fill="#A7A9B5" d="M32.5,25.508c-10.856,0-19.692,8.836-19.692,19.691c0,10.854,8.836,19.692,19.692,19.692
		c10.855,0,19.691-8.838,19.691-19.692C52.191,34.344,43.355,25.508,32.5,25.508L32.5,25.508z M33.543,56.841v2.021
		c0,0.552-0.424,1.104-0.975,1.104c-0.554,0-0.977-0.553-0.977-1.104v-2.021c-5.5-0.126-8.236-3.418-8.236-5.988
		c0-1.299,0.78-2.053,2.017-2.053c3.642,0,0.809,4.496,6.22,4.725V46.72c-4.826-0.881-7.747-2.994-7.747-6.608
		c0-4.428,3.676-6.709,7.747-6.837v-1.736c0-0.553,0.423-1.104,0.977-1.104c0.551,0,0.975,0.551,0.975,1.104v1.736
		c2.537,0.067,7.746,1.655,7.746,4.852c0,1.266-0.948,2.013-2.052,2.013c-2.114,0-2.087-3.48-5.694-3.547v6.185
		c4.3,0.916,8.103,2.181,8.103,7.202C41.646,54.337,38.388,56.553,33.543,56.841L33.543,56.841z M33.543,56.841"/>
</g>
<g>
	<path fill="#D18834" d="M-39.592,21.914c0.322-3.492,1.561-6.708,3.471-9.435c-1.561-7.067-7.858-12.371-15.383-12.371
		c-8.682,0-15.748,7.068-15.748,15.756c0,7.557,5.349,13.883,12.469,15.397C-51.21,26.383-45.813,22.938-39.592,21.914
		L-39.592,21.914z M-57.805,19.611c0-0.571,0.437-1.017,1.017-1.017h3.23v-0.752l-0.444-0.76h-2.786
		c-0.58,0-1.017-0.438-1.017-1.017c0-0.571,0.437-1.017,1.017-1.017h1.589l-3.439-5.646c-0.181-0.317-0.364-0.708-0.364-1.072
		c0-1.433,1.333-1.896,2.243-1.896c1.09,0,1.587,0.854,1.77,1.218l3.493,6.642l3.484-6.642c0.182-0.363,0.68-1.218,1.77-1.218
		c0.91,0,2.242,0.464,2.242,1.896c0,0.364-0.181,0.755-0.364,1.072l-3.438,5.646h1.588c0.571,0,1.01,0.445,1.01,1.017
		c0,0.579-0.438,1.017-1.01,1.017h-2.786l-0.444,0.76v0.752h3.23c0.571,0,1.016,0.445,1.016,1.017c0,0.572-0.444,1.018-1.016,1.018
		h-3.23v2.577c0,1.245-0.756,2.08-2.052,2.08c-1.307,0-2.061-0.835-2.061-2.08v-2.577h-3.23
		C-57.368,20.629-57.805,20.184-57.805,19.611L-57.805,19.611z M-57.805,19.611"/>
	<path fill="#D18834" d="M-19.995,7.982c-7.955,0-14.53,5.931-15.587,13.595c3.002,0.028,5.869,0.618,8.514,1.671
		c0.168-0.406,0.531-0.661,1.097-0.661h0.546c-0.546-0.78-0.781-1.77-0.781-2.785c0-3.224,2.86-5.492,6.535-5.492
		c4.563,0,6.77,2.449,6.77,4.476c0,1.177-0.808,1.822-1.951,1.822c-2.289,0-0.889-3.175-4.402-3.175
		c-1.533,0-2.994,0.915-2.994,2.604c0,0.889,0.445,1.771,0.861,2.551h2.84c1.064,0,1.615,0.396,1.615,1.251
		c0,0.861-0.551,1.252-1.615,1.252h-2.059c0.08,0.21,0.127,0.392,0.127,0.627c0,0.416-0.101,0.835-0.263,1.244
		c0.849,0.7,1.636,1.48,2.384,2.296c0.72,0.147,1.365,0.316,2.126,0.316c0.444,0,1.515-0.289,1.924-0.289
		c0.964,0,1.515,0.725,1.515,1.66c0,1.475-1.318,2.114-2.671,2.202c0.901,1.508,1.649,3.108,2.2,4.805
		c5.323-2.523,9.018-7.942,9.018-14.22C-4.248,15.05-11.313,7.982-19.995,7.982L-19.995,7.982z M-19.995,7.982"/>
	<path fill="#D18834" d="M-34.707,47.077v6.441c1.953-0.129,4.004-1.038,4.004-3.19C-30.703,48.114-32.951,47.468-34.707,47.077
		L-34.707,47.077z M-34.707,47.077"/>
	<path fill="#D18834" d="M-40.305,39.357c0,1.636,1.203,2.571,3.646,3.063v-5.828C-38.879,36.658-40.305,37.958-40.305,39.357
		L-40.305,39.357z M-40.305,39.357"/>
	<path fill="#D18834" d="M-35.75,25.508c-10.856,0-19.692,8.836-19.692,19.691c0,10.854,8.836,19.692,19.692,19.692
		c10.855,0,19.691-8.838,19.691-19.692C-16.059,34.344-24.895,25.508-35.75,25.508L-35.75,25.508z M-34.707,56.841v2.021
		c0,0.552-0.424,1.104-0.975,1.104c-0.554,0-0.977-0.553-0.977-1.104v-2.021c-5.5-0.126-8.236-3.418-8.236-5.988
		c0-1.299,0.78-2.053,2.017-2.053c3.642,0,0.809,4.496,6.22,4.725V46.72c-4.826-0.881-7.747-2.994-7.747-6.608
		c0-4.428,3.676-6.709,7.747-6.837v-1.736c0-0.553,0.423-1.104,0.977-1.104c0.551,0,0.975,0.551,0.975,1.104v1.736
		c2.537,0.067,7.746,1.655,7.746,4.852c0,1.266-0.948,2.013-2.052,2.013c-2.114,0-2.087-3.48-5.694-3.547v6.185
		c4.3,0.916,8.103,2.181,8.103,7.202C-26.604,54.337-29.862,56.553-34.707,56.841L-34.707,56.841z M-34.707,56.841"/>
</g>
<circle fill="#A7A9B5" cx="102.334" cy="35.333" r="13.5"/>
</svg>
