<?xml version="1.0" encoding="utf-8"?>
<!-- Generator: Adobe Illustrator 16.0.0, SVG Export Plug-In . SVG Version: 6.00 Build 0)  -->
<!DOCTYPE svg PUBLIC "-//W3C//DTD SVG 1.1//EN" "http://www.w3.org/Graphics/SVG/1.1/DTD/svg11.dtd">
<svg version="1.1" id="Layer_1" xmlns="http://www.w3.org/2000/svg" xmlns:xlink="http://www.w3.org/1999/xlink" x="0px" y="0px"
	 width="65px" height="65px" viewBox="0 0 65 65" enable-background="new 0 0 65 65" xml:space="preserve">
<g>
	
		<polyline fill-rule="evenodd" clip-rule="evenodd" fill="none" stroke="#F15A29" stroke-width="1.5" stroke-miterlimit="10" points="
		-135.097,-40.795 -144.104,-40.795 -144.104,16.002 -135.097,16.002 	"/>
	<path fill-rule="evenodd" clip-rule="evenodd" fill="#F15A29" d="M-157.32-1.889c0,1.292-1.048,2.34-2.34,2.34h-20.964
		c-1.291,0-2.339-1.048-2.339-2.34v-20.965c0-1.292,1.048-2.339,2.339-2.339h20.964c1.292,0,2.34,1.047,2.34,2.339V-1.889z"/>
	<circle fill-rule="evenodd" clip-rule="evenodd" fill="#F15A29" cx="-124.889" cy="-40.309" r="6.613"/>
	<circle fill-rule="evenodd" clip-rule="evenodd" fill="#F15A29" cx="-124.889" cy="-21.864" r="6.613"/>
	<circle fill-rule="evenodd" clip-rule="evenodd" fill="#F15A29" cx="-124.889" cy="-3.42" r="6.613"/>
	<circle fill-rule="evenodd" clip-rule="evenodd" fill="#F15A29" cx="-124.889" cy="15.024" r="6.613"/>
	
		<line fill="none" stroke="#F15A29" stroke-width="1.5" stroke-miterlimit="10" x1="-144.069" y1="-21.518" x2="-135.097" y2="-21.518"/>
	
		<line fill="none" stroke="#F15A29" stroke-width="1.5" stroke-miterlimit="10" x1="-144.069" y1="-2.531" x2="-135.097" y2="-2.531"/>
	
		<line fill="none" stroke="#F15A29" stroke-width="1.5" stroke-miterlimit="10" x1="-144.069" y1="-12.918" x2="-153.841" y2="-12.918"/>
</g>
<g>
	<path fill="#A7A9B5" d="M9.75,35.139c0.288,0.182,0.648,0.204,0.955,0.059l6.014-2.825c0.12,9.412-5.581,15.569-6.727,16.707
		c-0.269,0.269-0.362,0.667-0.239,1.025l0.824,2.412c0.111,0.326,0.386,0.575,0.725,0.649c0.071,0.018,0.143,0.023,0.214,0.023
		c0.268,0,0.527-0.106,0.718-0.305c2.122-2.207,4.2-5.287,5.705-8.451l7.069,2.86c0.502,0.204,1.071-0.029,1.284-0.527l1.329-3.086
		c0.108-0.247,0.112-0.524,0.007-0.771c-0.1-0.249-0.297-0.442-0.546-0.542l-7.348-2.974c0.431-1.621,1.43-5.752,1.378-9.111
		l5.411-2.63c0.342-0.168,0.56-0.511,0.56-0.893l0.006-3.255c0-0.34-0.175-0.657-0.463-0.841c-0.288-0.181-0.65-0.203-0.958-0.058
		L9.839,30.14c-0.35,0.164-0.57,0.515-0.567,0.899l0.017,3.264C9.292,34.644,9.467,34.957,9.75,35.139L9.75,35.139z M9.75,35.139"/>
	<path fill="#A7A9B5" d="M43.757,40.118l4.689,2.016l-2.392-11.12L43.757,40.118z M43.757,40.118"/>
	<path fill="#A7A9B5" d="M63.818,28.202V2.118c0-0.599-0.301-1.155-0.798-1.482c-0.503-0.331-1.13-0.382-1.675-0.146L32.521,12.959
		L3.648,0.885C3.103,0.648,2.475,0.704,1.973,1.03C1.474,1.358,1.173,1.914,1.173,2.512v25.129c0,0.021-0.006,0.032-0.006,0.052
		V62.09c0,0.599,0.301,1.155,0.799,1.481c0.294,0.194,0.631,0.292,0.974,0.292c0.236,0,0.479-0.049,0.702-0.145l28.874-12.496
		l28.842,13.284c0.226,0.101,0.465,0.149,0.703,0.149c0.341,0,0.68-0.101,0.972-0.292c0.501-0.33,0.8-0.887,0.8-1.481V28.483
		C63.835,28.409,63.829,28.312,63.818,28.202L63.818,28.202z M32.505,47.365L4.71,59.391V28.858L32.528,16.82L32.505,47.365z
		 M55.381,55.394c-0.184,0.154-0.414,0.235-0.646,0.235c-0.134,0-0.266-0.026-0.392-0.081l-2.62-1.126
		c-0.288-0.121-0.503-0.377-0.578-0.687l-1.525-6.46l-6.967-2.996l-1.296,4.504c-0.081,0.275-0.275,0.501-0.531,0.62
		c-0.26,0.124-0.558,0.13-0.819,0.017L37.2,48.214c-0.462-0.202-0.703-0.716-0.557-1.201l6.638-22.04
		c0.081-0.271,0.274-0.495,0.53-0.615c0.259-0.12,0.553-0.122,0.814-0.012l3.428,1.475c0.284,0.123,0.495,0.368,0.571,0.666
		l7.073,27.908C55.792,54.759,55.669,55.146,55.381,55.394L55.381,55.394z M60.273,24.184l-23.135-9.357L60.273,4.816V24.184z
		 M60.273,24.184"/>
</g>
<g>
	<path fill="#00A650" d="M178.721,35.099c-2.911,0-5.523,1.219-7.382,3.175l-21.712-10.628c0.078-0.502,0.126-1.003,0.126-1.524
		c0-0.507-0.048-1.001-0.12-1.485l21.677-10.514c1.858,1.967,4.488,3.203,7.411,3.203c5.635,0,10.201-4.565,10.201-10.195
		c0-5.635-4.566-10.202-10.201-10.202c-5.631,0-10.196,4.567-10.196,10.202c0,0.502,0.048,1,0.119,1.482l-21.683,10.513
		c-1.857-1.966-4.481-3.204-7.404-3.204c-5.637,0-10.201,4.567-10.201,10.2c0,5.634,4.564,10.196,10.201,10.196
		c2.904,0,5.521-1.223,7.382-3.173l21.711,10.626c-0.077,0.498-0.125,1.006-0.125,1.524c0,5.636,4.565,10.203,10.196,10.203
		c5.635,0,10.201-4.567,10.201-10.203C188.922,39.667,184.355,35.099,178.721,35.099L178.721,35.099z M178.721,35.099"/>
</g>
<g>
	<path fill="#D18834" d="M165.293-66.636c0.34-3.685,1.646-7.077,3.661-9.953c-1.646-7.456-8.29-13.05-16.228-13.05
		c-9.158,0-16.613,7.456-16.613,16.621c0,7.972,5.643,14.646,13.154,16.243C153.037-61.922,158.73-65.557,165.293-66.636
		L165.293-66.636z M146.08-69.064c0-0.603,0.461-1.073,1.072-1.073h3.408v-0.793l-0.469-0.802h-2.939
		c-0.611,0-1.072-0.461-1.072-1.072c0-0.603,0.461-1.073,1.072-1.073h1.676l-3.628-5.956c-0.19-0.335-0.384-0.747-0.384-1.131
		c0-1.512,1.406-2.001,2.365-2.001c1.15,0,1.675,0.901,1.867,1.285l3.686,7.006l3.676-7.006c0.191-0.384,0.717-1.285,1.866-1.285
		c0.96,0,2.365,0.489,2.365,2.001c0,0.384-0.19,0.796-0.384,1.131l-3.627,5.956h1.676c0.603,0,1.064,0.47,1.064,1.073
		c0,0.611-0.462,1.072-1.064,1.072h-2.939l-0.469,0.802v0.793h3.408c0.603,0,1.071,0.47,1.071,1.073s-0.469,1.073-1.071,1.073
		h-3.408v2.719c0,1.314-0.797,2.194-2.164,2.194c-1.379,0-2.174-0.88-2.174-2.194v-2.719h-3.408
		C146.541-67.992,146.08-68.461,146.08-69.064L146.08-69.064z M146.08-69.064"/>
	<path fill="#D18834" d="M185.966-81.333c-8.392,0-15.327,6.257-16.442,14.342c3.166,0.03,6.191,0.652,8.98,1.762
		c0.178-0.428,0.562-0.697,1.158-0.697h0.574c-0.574-0.823-0.822-1.866-0.822-2.938c0-3.4,3.017-5.794,6.893-5.794
		c4.813,0,7.143,2.584,7.143,4.722c0,1.241-0.853,1.923-2.059,1.923c-2.414,0-0.938-3.35-4.644-3.35
		c-1.618,0-3.159,0.965-3.159,2.746c0,0.938,0.469,1.868,0.908,2.691h2.996c1.123,0,1.704,0.418,1.704,1.32
		c0,0.909-0.581,1.321-1.704,1.321h-2.172c0.084,0.221,0.135,0.413,0.135,0.661c0,0.439-0.107,0.881-0.277,1.313
		c0.895,0.738,1.726,1.561,2.514,2.421c0.76,0.156,1.441,0.334,2.243,0.334c0.468,0,1.598-0.305,2.03-0.305
		c1.016,0,1.598,0.765,1.598,1.751c0,1.556-1.392,2.23-2.818,2.323c0.951,1.59,1.739,3.28,2.321,5.069
		c5.616-2.662,9.514-8.378,9.514-15.001C202.579-73.877,195.125-81.333,185.966-81.333L185.966-81.333z M185.966-81.333"/>
	<path fill="#D18834" d="M170.446-40.091v6.795c2.06-0.135,4.224-1.094,4.224-3.366C174.67-38.997,172.299-39.679,170.446-40.091
		L170.446-40.091z M170.446-40.091"/>
	<path fill="#D18834" d="M164.54-48.234c0,1.725,1.271,2.712,3.848,3.23v-6.148C166.045-51.081,164.54-49.71,164.54-48.234
		L164.54-48.234z M164.54-48.234"/>
	<path fill="#D18834" d="M169.346-62.844c-11.452,0-20.773,9.321-20.773,20.773c0,11.452,9.321,20.773,20.773,20.773
		s20.773-9.322,20.773-20.773C190.119-53.523,180.798-62.844,169.346-62.844L169.346-62.844z M170.446-29.789v2.13
		c0,0.582-0.447,1.165-1.028,1.165c-0.584,0-1.03-0.583-1.03-1.165v-2.13c-5.802-0.135-8.688-3.606-8.688-6.319
		c0-1.37,0.823-2.166,2.127-2.166c3.842,0,0.854,4.743,6.562,4.984v-7.178c-5.091-0.93-8.172-3.159-8.172-6.972
		c0-4.671,3.877-7.078,8.172-7.213v-1.832c0-0.583,0.446-1.164,1.03-1.164c0.581,0,1.028,0.581,1.028,1.164v1.832
		c2.677,0.071,8.171,1.747,8.171,5.119c0,1.335-1,2.123-2.164,2.123c-2.23,0-2.201-3.671-6.007-3.742v6.524
		c4.536,0.966,8.548,2.3,8.548,7.597C178.994-32.43,175.558-30.095,170.446-29.789L170.446-29.789z M170.446-29.789"/>
</g>
<g>
	<path fill="#ED1C24" d="M218.205,2.348v-7.719c0-1.066,0.863-1.93,1.932-1.93c1.066,0,1.93,0.863,1.93,1.93v7.719
		c0,1.067-0.863,1.931-1.93,1.931C219.068,4.279,218.205,3.416,218.205,2.348L218.205,2.348z M251.015,4.279
		c1.066,0,1.93-0.863,1.93-1.931v-7.719c0-1.066-0.863-1.93-1.93-1.93s-1.93,0.863-1.93,1.93v7.719
		C249.085,3.416,249.948,4.279,251.015,4.279L251.015,4.279z M272.243,39.017c0,8.525-6.914,15.44-15.439,15.44
		s-15.439-6.915-15.439-15.44s6.914-15.44,15.439-15.44S272.243,30.492,272.243,39.017L272.243,39.017z M268.382,39.017
		c0-6.385-5.193-11.581-11.578-11.581s-11.58,5.196-11.58,11.581s5.195,11.578,11.58,11.578S268.382,45.402,268.382,39.017
		L268.382,39.017z M225.926,15.858h-7.721v7.719h7.721V15.858z M218.205,35.158h7.721v-7.721h-7.721V35.158z M229.785,23.577h7.719
		v-7.719h-7.719V23.577z M229.785,35.158h7.719v-7.721h-7.719V35.158z M214.346,38.632V11.998h42.458v7.72h3.859V4.663
		c0-2.344-1.869-4.244-4.18-4.244h-1.609v1.93c0,2.127-1.73,3.861-3.859,3.861c-2.131,0-3.861-1.734-3.861-3.861v-1.93h-23.157v1.93
		c0,2.127-1.73,3.861-3.859,3.861c-2.131,0-3.861-1.734-3.861-3.861v-1.93h-1.605c-2.313,0-4.184,1.9-4.184,4.244v33.97
		c0,2.338,1.871,4.244,4.184,4.244h22.834v-3.859H214.67C214.494,39.017,214.346,38.835,214.346,38.632L214.346,38.632z
		 M249.085,23.577v-7.719h-7.721v7.719H249.085z M262.593,39.017h-5.789v-5.789c0-1.068-0.863-1.932-1.93-1.932
		s-1.93,0.863-1.93,1.932v7.719c0,1.066,0.863,1.93,1.93,1.93h7.719c1.066,0,1.93-0.863,1.93-1.93S263.659,39.017,262.593,39.017
		L262.593,39.017z M262.593,39.017"/>
</g>
<g>
	<path fill="#4768B1" d="M-39.76,59.434c0-2.995-9.311-5.424-20.795-5.424c-11.485,0-20.796,2.429-20.796,5.424
		c0,2.996,9.311,5.426,20.796,5.426C-49.07,64.859-39.76,62.43-39.76,59.434L-39.76,59.434z M-39.76,59.434"/>
	<path fill="#4768B1" d="M-39.063,82.33c-0.406-0.098-0.818-0.17-1.234-0.219c-5.656-0.66-10.86,3.161-11.924,8.756
		c-0.13,0.665-0.195,1.342-0.196,2.02c0,5.666,4.36,10.377,10.008,10.816c5.649,0.439,10.684-3.542,11.561-9.139
		C-29.973,88.967-33.551,83.639-39.063,82.33L-39.063,82.33z M-43.642,98.951c-0.353,0.354-0.925,0.354-1.278,0l-5.115-5.115
		c-0.343-0.354-0.337-0.918,0.011-1.268c0.349-0.348,0.912-0.354,1.267-0.01l4.477,4.475l9.589-9.59
		c0.353-0.354,0.926-0.354,1.279,0c0.353,0.354,0.353,0.927,0,1.279L-43.642,98.951z M-43.642,98.951"/>
	<path fill="#4768B1" d="M-81.351,97.408c0,2.265,7.911,5.424,20.796,5.424c3.439,0.015,6.875-0.241,10.275-0.764
		c-0.175-0.164-0.332-0.346-0.496-0.52c-0.102-0.107-0.208-0.209-0.304-0.32c-0.314-0.355-0.607-0.727-0.878-1.113
		c-0.021-0.029-0.037-0.063-0.058-0.091c-0.245-0.359-0.471-0.731-0.678-1.114c-0.073-0.136-0.137-0.278-0.206-0.416
		c-0.141-0.287-0.271-0.576-0.395-0.871c-0.066-0.162-0.125-0.328-0.18-0.494c-0.102-0.287-0.192-0.578-0.271-0.872
		c-0.047-0.169-0.09-0.338-0.134-0.51c-0.073-0.316-0.129-0.633-0.181-0.96c-0.022-0.152-0.053-0.302-0.071-0.452
		c-0.058-0.48-0.09-0.964-0.094-1.448c0-0.393,0.019-0.785,0.057-1.174c-0.564,0.049-1.144,0.075-1.718,0.111
		c-0.374,0.023-0.739,0.055-1.116,0.072c-1.176,0.055-2.357,0.09-3.552,0.09c-0.465,0-0.931-0.006-1.396-0.016l-0.338-0.007
		c-0.462-0.011-0.924-0.025-1.385-0.044l-0.107-0.007c-0.433-0.02-0.864-0.043-1.293-0.069l-0.338-0.023
		c-0.452-0.031-0.904-0.064-1.356-0.104l-0.165-0.016c-0.405-0.037-0.808-0.078-1.208-0.121l-0.329-0.036
		c-0.437-0.051-0.869-0.104-1.298-0.162l-0.225-0.031c-0.374-0.053-0.742-0.108-1.107-0.167c-0.101-0.017-0.204-0.032-0.304-0.05
		c-0.413-0.068-0.82-0.142-1.221-0.218l-0.241-0.047c-0.343-0.068-0.682-0.14-1.014-0.215c-0.091-0.02-0.181-0.039-0.271-0.06
		c-0.382-0.086-0.755-0.177-1.118-0.271c-0.082-0.021-0.162-0.043-0.243-0.065c-0.309-0.084-0.61-0.17-0.903-0.259l-0.229-0.068
		c-0.34-0.105-0.669-0.215-0.989-0.329l-0.223-0.082c-0.273-0.101-0.538-0.204-0.795-0.31l-0.166-0.078
		c-0.292-0.124-0.569-0.253-0.835-0.385l-0.189-0.098c-0.232-0.119-0.452-0.241-0.665-0.365c-0.037-0.023-0.077-0.045-0.115-0.068
		c-0.234-0.144-0.452-0.29-0.655-0.441c-0.021-0.016-0.048-0.031-0.069-0.047L-81.351,97.408z M-81.351,97.408"/>
	<path fill="#4768B1" d="M-81.351,84.75c0,2.266,7.911,5.425,20.796,5.425c1.199,0,2.39-0.032,3.565-0.091
		c0.388-0.019,0.766-0.055,1.15-0.08c0.667-0.043,1.331-0.09,1.989-0.154c0.017-0.07,0.042-0.137,0.06-0.206
		c0.045-0.171,0.095-0.339,0.147-0.507c0.052-0.167,0.113-0.361,0.181-0.535c0.067-0.174,0.124-0.33,0.19-0.494
		c0.066-0.164,0.142-0.34,0.217-0.506c0.076-0.166,0.151-0.319,0.231-0.477c0.081-0.157,0.168-0.32,0.257-0.477
		s0.181-0.305,0.271-0.451c0.09-0.148,0.193-0.303,0.295-0.453c0.102-0.149,0.199-0.286,0.304-0.426
		c0.104-0.141,0.219-0.283,0.332-0.423s0.22-0.271,0.336-0.397c0.115-0.127,0.242-0.264,0.367-0.393
		c0.125-0.131,0.239-0.248,0.361-0.367s0.271-0.244,0.404-0.361c0.131-0.117,0.255-0.226,0.388-0.332
		c0.134-0.106,0.29-0.223,0.438-0.332c0.146-0.108,0.271-0.201,0.408-0.295c0.154-0.105,0.313-0.201,0.472-0.299
		c0.142-0.09,0.281-0.181,0.426-0.259c0.166-0.091,0.335-0.181,0.504-0.262c0.146-0.074,0.29-0.151,0.439-0.22
		c0.181-0.081,0.361-0.151,0.543-0.225c0.147-0.06,0.293-0.123,0.445-0.181c0.19-0.069,0.386-0.124,0.579-0.181
		c0.148-0.045,0.294-0.096,0.445-0.137c0.206-0.055,0.417-0.096,0.626-0.141c0.144-0.029,0.285-0.066,0.43-0.09
		c0.235-0.042,0.475-0.067,0.714-0.096c0.125-0.015,0.246-0.037,0.371-0.048c0.361-0.032,0.736-0.05,1.109-0.05
		c0.442,0.004,0.884,0.029,1.324,0.078c0.091,0.008,0.175,0.017,0.263,0.027c0.073,0.009,0.147,0.014,0.221,0.023V75.07
		c-0.022,0.017-0.049,0.031-0.069,0.047c-0.205,0.151-0.421,0.299-0.655,0.442c-0.037,0.022-0.077,0.044-0.115,0.067
		c-0.21,0.124-0.433,0.246-0.665,0.365l-0.188,0.098c-0.267,0.133-0.543,0.261-0.836,0.386l-0.173,0.07
		c-0.257,0.106-0.521,0.21-0.794,0.31l-0.223,0.082c-0.32,0.114-0.649,0.224-0.988,0.33l-0.229,0.068
		c-0.296,0.09-0.597,0.175-0.904,0.259c-0.082,0.022-0.161,0.044-0.242,0.065c-0.362,0.096-0.734,0.186-1.119,0.271
		c-0.09,0.02-0.181,0.039-0.271,0.059c-0.333,0.074-0.671,0.146-1.015,0.214l-0.241,0.048c-0.4,0.077-0.808,0.149-1.221,0.219
		c-0.101,0.017-0.202,0.031-0.304,0.048c-0.362,0.059-0.733,0.114-1.107,0.167l-0.223,0.032c-0.428,0.06-0.861,0.114-1.298,0.161
		l-0.33,0.037c-0.4,0.043-0.804,0.084-1.209,0.121l-0.164,0.016c-0.452,0.039-0.904,0.072-1.356,0.104l-0.346,0.025
		c-0.431,0.027-0.861,0.051-1.293,0.07l-0.108,0.006c-0.461,0.02-0.922,0.035-1.384,0.045l-0.338,0.007
		c-0.466,0.009-0.932,0.016-1.396,0.016s-0.93-0.007-1.396-0.016l-0.338-0.007c-0.463-0.011-0.924-0.026-1.385-0.045l-0.107-0.006
		c-0.433-0.02-0.863-0.043-1.293-0.07l-0.339-0.023c-0.452-0.029-0.903-0.063-1.355-0.104l-0.164-0.016
		c-0.406-0.036-0.809-0.076-1.209-0.121l-0.329-0.036c-0.438-0.05-0.87-0.104-1.299-0.161l-0.227-0.029
		c-0.374-0.051-0.742-0.107-1.107-0.166c-0.101-0.017-0.204-0.031-0.304-0.049c-0.413-0.069-0.82-0.142-1.221-0.219l-0.241-0.047
		c-0.343-0.068-0.682-0.141-1.014-0.215c-0.091-0.02-0.181-0.039-0.271-0.059c-0.382-0.087-0.755-0.178-1.118-0.271
		c-0.082-0.021-0.162-0.043-0.243-0.065c-0.309-0.083-0.61-0.17-0.903-0.258l-0.229-0.069c-0.34-0.105-0.669-0.216-0.989-0.328
		l-0.223-0.083c-0.273-0.1-0.538-0.204-0.795-0.31l-0.166-0.077c-0.292-0.125-0.569-0.253-0.835-0.386l-0.189-0.098
		c-0.232-0.119-0.452-0.241-0.665-0.365c-0.037-0.023-0.077-0.045-0.115-0.067c-0.234-0.144-0.452-0.291-0.655-0.442
		c-0.021-0.016-0.048-0.03-0.069-0.047L-81.351,84.75z M-81.351,84.75"/>
	<path fill="#4768B1" d="M-81.351,72.092c0,2.261,7.911,5.426,20.796,5.426c12.884,0,20.795-3.165,20.795-5.426v-9.68
		c-0.021,0.017-0.048,0.031-0.069,0.047c-0.206,0.151-0.421,0.299-0.654,0.443c-0.037,0.021-0.079,0.043-0.115,0.066
		c-0.211,0.125-0.434,0.246-0.666,0.361l-0.188,0.098c-0.266,0.132-0.542,0.261-0.835,0.385l-0.172,0.071
		c-0.257,0.106-0.522,0.21-0.795,0.31l-0.223,0.082c-0.319,0.114-0.648,0.224-0.988,0.33l-0.229,0.068
		c-0.296,0.09-0.597,0.174-0.904,0.258c-0.081,0.022-0.162,0.045-0.242,0.065c-0.362,0.096-0.735,0.187-1.118,0.271
		c-0.091,0.021-0.182,0.04-0.272,0.06c-0.333,0.074-0.67,0.146-1.014,0.213l-0.24,0.049c-0.401,0.076-0.808,0.149-1.222,0.217
		c-0.101,0.018-0.203,0.033-0.304,0.05c-0.361,0.059-0.733,0.114-1.107,0.167l-0.223,0.031c-0.428,0.061-0.861,0.114-1.298,0.162
		l-0.329,0.036c-0.401,0.044-0.804,0.084-1.209,0.121l-0.165,0.016c-0.452,0.04-0.904,0.073-1.356,0.104l-0.336,0.029
		c-0.431,0.027-0.861,0.051-1.293,0.07l-0.108,0.006c-0.461,0.02-0.922,0.035-1.384,0.045l-0.338,0.008
		c-0.466,0.009-0.932,0.016-1.396,0.016s-0.93-0.007-1.396-0.016l-0.338-0.008c-0.463-0.011-0.924-0.025-1.385-0.045l-0.107-0.006
		c-0.433-0.02-0.863-0.043-1.293-0.07l-0.339-0.022c-0.452-0.03-0.903-0.064-1.355-0.104l-0.164-0.015
		c-0.406-0.037-0.809-0.077-1.209-0.122l-0.329-0.035c-0.438-0.051-0.87-0.105-1.299-0.162l-0.227-0.028
		c-0.374-0.052-0.742-0.108-1.107-0.167c-0.101-0.016-0.204-0.031-0.304-0.049c-0.413-0.068-0.82-0.142-1.221-0.218l-0.241-0.048
		c-0.343-0.068-0.682-0.14-1.014-0.214c-0.091-0.021-0.181-0.038-0.271-0.06c-0.382-0.086-0.755-0.178-1.118-0.271
		c-0.082-0.02-0.162-0.043-0.243-0.064c-0.309-0.084-0.61-0.17-0.903-0.259l-0.229-0.069c-0.34-0.105-0.669-0.215-0.989-0.328
		l-0.223-0.083c-0.273-0.1-0.538-0.203-0.795-0.31l-0.166-0.077c-0.292-0.125-0.569-0.253-0.835-0.386l-0.189-0.098
		c-0.232-0.119-0.452-0.24-0.665-0.361c-0.037-0.022-0.077-0.043-0.115-0.066c-0.234-0.145-0.452-0.291-0.655-0.442
		c-0.021-0.017-0.048-0.03-0.069-0.048L-81.351,72.092z M-81.351,72.092"/>
</g>
<g>
	<path fill="#D18834" d="M-44.357-49.079c0.135-0.563,0.203-1.132,0.203-1.711v-1.829c0-3.654-2.728-6.996-7.683-9.409
		c-4.594-2.237-10.665-3.469-17.098-3.469c-6.432,0-12.504,1.231-17.098,3.469c-4.955,2.413-7.683,5.755-7.683,9.409v1.829
		c0,3.604,2.654,6.902,7.479,9.308c-0.135,0.558-0.221,1.253-0.221,1.702v0.334c-4.686,2.395-7.258,5.648-7.258,9.195v1.83
		c0,2.464,1.242,4.786,3.569,6.777c-0.315,0.842-0.479,1.709-0.479,2.598v1.828c0,3.654,2.729,6.997,7.684,9.409
		c4.593,2.237,10.665,3.47,17.098,3.47s12.504-1.232,17.098-3.47c4.955-2.412,7.683-5.755,7.683-9.409v-1.828
		c0-2.465-1.241-4.786-3.567-6.776c0.315-0.842,0.477-1.711,0.477-2.599v-0.333c4.687-2.396,7.26-5.649,7.26-9.198v-1.829
		C-36.895-43.38-39.544-46.676-44.357-49.079L-44.357-49.079z M-90.251-54.167c0.717-1.824,2.672-3.597,5.601-5.023
		c4.172-2.031,9.753-3.149,15.716-3.149c5.964,0,11.544,1.118,15.716,3.149c2.93,1.427,4.884,3.199,5.603,5.023
		c-2.536,4.41-11.345,7.626-21.319,7.626C-78.907-46.541-87.718-49.756-90.251-54.167L-90.251-54.167z M-90.251-31.797
		c0.583-1.484,1.988-2.932,4.066-4.187c0.802,2.876,3.362,5.469,7.412,7.442c4.593,2.236,10.666,3.469,17.098,3.469
		c0.629,0,1.253-0.016,1.873-0.039c-2.808,0.604-5.908,0.941-9.133,0.941C-78.906-24.17-87.718-27.387-90.251-31.797L-90.251-31.797
		z M-44.525-20.593c-2.536,4.409-11.345,7.626-21.318,7.626c-8.663,0-16.444-2.429-20.001-5.957
		c4.571,2.18,10.563,3.382,16.91,3.382c6.433,0,12.504-1.231,17.098-3.47c2.38-1.158,4.245-2.532,5.542-4.051
		C-45.458-22.27-44.858-21.439-44.525-20.593L-44.525-20.593z M-61.675-33.702c-8.708,0-16.527-2.451-20.06-6.009
		c3.815,1.17,8.213,1.798,12.8,1.798c6.433,0,12.504-1.231,17.098-3.468c2.781-1.354,4.861-3.002,6.151-4.833
		c2.776,1.402,4.634,3.118,5.328,4.885C-42.893-36.917-51.702-33.702-61.675-33.702L-61.675-33.702z M-61.675-33.702"/>
	<g>
		<path fill="#D18834" d="M-79.716-59.227c0.665-0.107,1.722-0.189,2.97-0.189c1.539,0,2.783,0.203,3.948,0.72
			c0.974,0.435,1.838,1.074,2.531,1.916c0.961,1.168,0.683,1.97,0.024,2.255l0.033,0.041c0.937,0.258,1.841,0.869,2.795,1.711
			c1.174,1.033,2.481,2.229,2.973,2.582h-2.402c-0.381-0.258-1.243-1.006-2.479-2.134c-1.217-1.141-1.92-1.452-2.886-1.466h-0.708
			l2.964,3.6h-2.325L-79.716-59.227z M-74.147-55.287h0.924c1.17,0,1.438-0.517,0.777-1.317c-0.692-0.843-1.687-1.264-2.774-1.277
			c-0.57,0-0.86,0.041-1.007,0.068L-74.147-55.287z"/>
		<path fill="#D18834" d="M-64.729-52c0.621,0.231,1.737,0.503,2.43,0.503c0.708,0,0.822-0.217,0.542-0.557
			c-0.28-0.34-0.646-0.502-1.735-0.762c-1.935-0.461-3.15-1.209-3.784-1.996c-1.017-1.236-0.588-2.174,1.274-2.174
			c0.877,0,1.808,0.178,2.437,0.381l0.759,1.426c-0.473-0.163-1.298-0.38-1.945-0.38c-0.57,0-0.725,0.203-0.445,0.544
			c0.257,0.313,0.684,0.475,1.842,0.76c1.791,0.436,2.917,1.073,3.737,2.052c1.019,1.235,0.659,2.146-1.497,2.146
			c-0.985,0-2.019-0.19-2.813-0.462L-64.729-52z"/>
	</g>
</g>
<circle fill="#A7A9B5" cx="102.334" cy="35.333" r="13.5"/>
</svg>
