<?xml version="1.0" encoding="utf-8"?>
<!-- Generator: Adobe Illustrator 16.0.0, SVG Export Plug-In . SVG Version: 6.00 Build 0)  -->
<!DOCTYPE svg PUBLIC "-//W3C//DTD SVG 1.1//EN" "http://www.w3.org/Graphics/SVG/1.1/DTD/svg11.dtd">
<svg version="1.1" id="Layer_1" xmlns="http://www.w3.org/2000/svg" xmlns:xlink="http://www.w3.org/1999/xlink" x="0px" y="0px"
	 width="24px" height="22.4px" viewBox="0 0 24 22.4" enable-background="new 0 0 24 22.4" xml:space="preserve">
<g>
	<polygon fill="#808184" stroke="#808184" stroke-width="0.75" stroke-miterlimit="10" points="7.986,10.814 10.861,13.451 
		16.334,5.889 18.184,7.052 11.169,16.7 6.514,12.391 	"/>
	<path fill="none" stroke="#808184" stroke-width="1.25" stroke-miterlimit="10" d="M22.492,11.201c0,5.8-4.699,10.5-10.497,10.5
		c-4.192-0.002-7.81-2.458-9.493-6.009"/>
	<path fill="none" stroke="#808184" stroke-width="1.25" stroke-miterlimit="10" d="M1.495,11.201c0-5.799,4.7-10.5,10.5-10.5
		c4.232,0,7.88,2.505,9.542,6.115"/>
	<circle fill="#808184" cx="1.551" cy="11.031" r="1.551"/>
	<path fill="#808184" d="M23.949,11.138c0,0.854-0.693,1.548-1.551,1.548c-0.854,0-1.547-0.694-1.547-1.548
		c0-0.858,0.693-1.55,1.547-1.55C23.256,9.588,23.949,10.28,23.949,11.138z"/>
</g>
</svg>
