<?xml version="1.0" encoding="utf-8"?>
<!-- Generator: Adobe Illustrator 16.0.0, SVG Export Plug-In . SVG Version: 6.00 Build 0)  -->
<!DOCTYPE svg PUBLIC "-//W3C//DTD SVG 1.1//EN" "http://www.w3.org/Graphics/SVG/1.1/DTD/svg11.dtd">
<svg version="1.1" id="Layer_1" xmlns="http://www.w3.org/2000/svg" xmlns:xlink="http://www.w3.org/1999/xlink" x="0px" y="0px"
	 width="40px" height="40px" viewBox="0 0 40 40" enable-background="new 0 0 40 40" xml:space="preserve">
<g>
	<circle fill="#F69321" cx="20" cy="19.999" r="18.945"/>
	<path fill="#FFFFFF" d="M28.801,11.025H11.197c-1.404,0-2.539,1.137-2.539,2.539v10.834c0,1.402,1.135,2.541,2.539,2.541h5.744
		l-0.475,6.035l5.816-6.035h6.518c1.404,0,2.541-1.139,2.541-2.541V13.564C31.342,12.162,30.205,11.025,28.801,11.025z
		 M22.283,22.957h-9.738v-1.523h9.738V22.957z M27.289,19.572H12.545v-1.523h14.744V19.572z M27.289,16.186H12.545v-1.523h14.744
		V16.186z"/>
</g>
</svg>
