<?xml version="1.0" encoding="utf-8"?>
<!-- Generator: Adobe Illustrator 16.0.0, SVG Export Plug-In . SVG Version: 6.00 Build 0)  -->
<!DOCTYPE svg PUBLIC "-//W3C//DTD SVG 1.1//EN" "http://www.w3.org/Graphics/SVG/1.1/DTD/svg11.dtd">
<svg version="1.1" id="Layer_1" xmlns="http://www.w3.org/2000/svg" xmlns:xlink="http://www.w3.org/1999/xlink" x="0px" y="0px"
	 width="40px" height="40px" viewBox="0 0 40 40" enable-background="new 0 0 40 40" xml:space="preserve">
<g>
	<circle fill="#F69321" cx="20" cy="19.999" r="18.945"/>
	<g>
		<path fill="#FFFFFF" d="M16.922,20.001c2.533,2.146,3.26,2.45,3.424,2.495c1.107-0.266,6.748-5.428,11.99-10.652
			c-0.262-0.188-0.582-0.301-0.928-0.301H8.592c-0.243,0-0.472,0.059-0.678,0.155C9.585,13.319,13.768,17.33,16.922,20.001z"/>
		<path fill="#FFFFFF" d="M32.988,12.989c-1.164,1.152-2.955,2.909-4.813,4.656c-1.268,1.193-2.318,2.15-3.197,2.925l8.025,5.932
			V13.14C33.004,13.088,32.994,13.039,32.988,12.989z"/>
		<path fill="#FFFFFF" d="M23.988,21.426c-2.775,2.348-3.332,2.35-3.643,2.35c-0.463,0-1.26-0.309-3.832-2.451L8.189,28.4
			c0.13,0.033,0.263,0.057,0.402,0.057h22.816c0.512,0,0.961-0.246,1.254-0.621L23.988,21.426z"/>
		<path fill="#FFFFFF" d="M7.076,12.665c-0.048,0.15-0.08,0.307-0.08,0.475v13.722c0,0.262,0.069,0.506,0.181,0.723l8.349-7.098
			C12.461,17.842,8.688,14.227,7.076,12.665z"/>
	</g>
</g>
</svg>
