<?xml version="1.0" encoding="utf-8"?>
<!-- Generator: Adobe Illustrator 16.0.0, SVG Export Plug-In . SVG Version: 6.00 Build 0)  -->
<!DOCTYPE svg PUBLIC "-//W3C//DTD SVG 1.1//EN" "http://www.w3.org/Graphics/SVG/1.1/DTD/svg11.dtd">
<svg version="1.1" id="Layer_1" xmlns="http://www.w3.org/2000/svg" xmlns:xlink="http://www.w3.org/1999/xlink" x="0px" y="0px"
	 width="40px" height="40px" viewBox="0 0 40 40" enable-background="new 0 0 40 40" xml:space="preserve">
<g>
	<circle fill="#F69321" cx="20" cy="19.999" r="18.945"/>
	<g>
		<path fill-rule="evenodd" clip-rule="evenodd" fill="#FFFFFF" d="M21.988,26c-1.457,0-2.787,0-4.242,0
			c-0.184-2.098-0.014-4.109,1.541-5.714c1.045-1.075,2.207-2.039,3.352-3.012c1.096-0.933,1.844-2.008,1.4-3.499
			c-0.451-1.515-1.617-2.201-3.123-2.446c-2.246-0.364-4.189,0.695-5.043,2.811c-0.145,0.359-0.244,0.737-0.4,1.218
			c-1.381-0.164-2.756-0.33-4.217-0.502c0.042-1.79,0.741-3.204,1.865-4.451c3.549-3.937,11.281-3.576,14.381,0.668
			c1.713,2.349,1.668,5.099-0.221,7.304c-0.805,0.938-1.715,1.803-2.67,2.589C23.02,22.273,21.561,23.607,21.988,26z"/>
		<path fill-rule="evenodd" clip-rule="evenodd" fill="#FFFFFF" d="M17.777,28.145c1.422,0,2.779,0,4.184,0c0,1.412,0,2.77,0,4.197
			c-1.393,0-2.744,0-4.184,0C17.777,30.98,17.777,29.604,17.777,28.145z"/>
	</g>
</g>
</svg>
