<?xml version="1.0" encoding="utf-8"?>
<!-- Generator: Adobe Illustrator 16.0.0, SVG Export Plug-In . SVG Version: 6.00 Build 0)  -->
<!DOCTYPE svg PUBLIC "-//W3C//DTD SVG 1.1//EN" "http://www.w3.org/Graphics/SVG/1.1/DTD/svg11.dtd">
<svg version="1.1" id="Layer_1" xmlns="http://www.w3.org/2000/svg" xmlns:xlink="http://www.w3.org/1999/xlink" x="0px" y="0px"
	 width="52px" height="52px" viewBox="0 0 52 52" enable-background="new 0 0 52 52" xml:space="preserve">
<g>
	<path fill="#EF4523" d="M23.942,26.194l-6.987,21.332c0.118,0.039,0.234,0.086,0.354,0.123c8.542,2.744,17.522,0.146,23.326-5.938
		L23.942,26.194z"/>
	<path fill="#EF4523" d="M28.006,24.856l16.616,15.832c2.335-2.414,4.171-5.387,5.267-8.803c3.191-9.935-0.847-20.458-9.189-25.892
		L28.006,24.856z"/>
	<path fill="#EF4523" d="M16.521,47.389l7.04-21.694L36.27,7.097c-1.714-1.148-3.611-2.083-5.674-2.745
		C18.689,0.526,5.937,7.078,2.112,18.984C-1.689,30.814,4.758,43.477,16.521,47.389z"/>
</g>
</svg>
