<?xml version="1.0" encoding="utf-8"?>
<!-- Generator: Adobe Illustrator 16.0.0, SVG Export Plug-In . SVG Version: 6.00 Build 0)  -->
<!DOCTYPE svg PUBLIC "-//W3C//DTD SVG 1.1//EN" "http://www.w3.org/Graphics/SVG/1.1/DTD/svg11.dtd">
<svg version="1.1" id="Layer_1" xmlns="http://www.w3.org/2000/svg" xmlns:xlink="http://www.w3.org/1999/xlink" x="0px" y="0px"
	 width="52px" height="52px" viewBox="0 0 52 52" enable-background="new 0 0 52 52" xml:space="preserve">
<g>
	<path fill-rule="evenodd" clip-rule="evenodd" fill="#2A3B8F" d="M0.354,33.952c0-0.833,0-1.663,0-2.495
		c0.067-0.142,0.163-0.28,0.197-0.427c0.75-3.172,2.861-5.482,6.349-6.794c1.081-0.405,1.646-0.807,1.53-1.83
		c-0.049-0.429,0.119-0.888,0.251-1.318c1.494-4.869,6.571-7.75,12.523-7.12c0.547,0.058,1.002,0.148,1.498-0.333
		c3.156-3.06,7.153-4.259,11.927-3.682c6.282,0.758,11.259,6.153,10.562,11.449c-0.037,0.283,0.229,0.672,0.494,0.891
		c1.106,0.914,2.364,1.707,3.38,2.681c1.515,1.452,2.104,3.288,2.58,5.14c0,0.833,0,1.665,0,2.496
		c-0.067,0.208-0.156,0.414-0.202,0.625c-1.117,5.23-6.35,8.942-12.638,8.946c-9.069,0.007-18.138,0.011-27.206-0.003
		c-3.319-0.007-6.102-1.072-8.368-3.122C1.627,37.605,0.871,35.83,0.354,33.952z M26.432,37.697c3.061-2.568,5.199-5.188,8.34-7.824
		c-1.896,0-2.902,0-5.029,0c0-2.73,0-7.189,0-9.828c-2.214,0-4.285,0-6.498,0c0,2.68,0,7.138,0,9.871c-2.127,0-3.131,0-5.122,0
		C21.305,32.58,23.434,35.186,26.432,37.697z"/>
</g>
</svg>
