<?xml version="1.0" encoding="utf-8"?>
<!-- Generator: Adobe Illustrator 16.0.0, SVG Export Plug-In . SVG Version: 6.00 Build 0)  -->
<!DOCTYPE svg PUBLIC "-//W3C//DTD SVG 1.1//EN" "http://www.w3.org/Graphics/SVG/1.1/DTD/svg11.dtd">
<svg version="1.1" id="Layer_1" xmlns="http://www.w3.org/2000/svg" xmlns:xlink="http://www.w3.org/1999/xlink" x="0px" y="0px"
	 width="52px" height="52px" viewBox="0 0 52 52" enable-background="new 0 0 52 52" xml:space="preserve">
<g>
	<path fill="#D18731" d="M43.512,14.162c0.113-0.471,0.17-0.946,0.17-1.431v-1.529c0-3.055-2.28-5.85-6.422-7.866
		c-3.842-1.87-8.917-2.899-14.295-2.899c-5.377,0-10.453,1.029-14.293,2.899c-4.143,2.017-6.423,4.812-6.423,7.866v1.529
		c0,3.012,2.22,5.771,6.253,7.781c-0.113,0.467-0.186,1.047-0.186,1.423v0.279c-3.917,2.001-6.067,4.722-6.067,7.686v1.531
		c0,2.059,1.038,4,2.983,5.666c-0.264,0.703-0.4,1.428-0.4,2.172v1.527c0,3.055,2.281,5.85,6.424,7.865
		c3.839,1.871,8.915,2.902,14.293,2.902c5.379,0,10.454-1.031,14.293-2.902c4.145-2.016,6.424-4.811,6.424-7.865V39.27
		c0-2.061-1.035-4.002-2.982-5.666c0.266-0.703,0.398-1.43,0.398-2.172v-0.279c3.918-2.002,6.068-4.722,6.068-7.689v-1.529
		C49.75,18.924,47.537,16.17,43.512,14.162L43.512,14.162z M5.145,9.909c0.6-1.526,2.234-3.008,4.683-4.201
		c3.487-1.697,8.153-2.632,13.138-2.632c4.985,0,9.652,0.935,13.139,2.632c2.449,1.193,4.083,2.675,4.686,4.201
		c-2.123,3.686-9.486,6.375-17.824,6.375C14.628,16.284,7.263,13.594,5.145,9.909L5.145,9.909z M5.145,28.607
		c0.487-1.24,1.662-2.45,3.4-3.499c0.67,2.403,2.811,4.571,6.195,6.221c3.841,1.869,8.918,2.9,14.295,2.9
		c0.525,0,1.045-0.014,1.566-0.033c-2.349,0.504-4.94,0.787-7.637,0.787C14.629,34.984,7.263,32.295,5.145,28.607L5.145,28.607z
		 M43.371,37.975c-2.119,3.686-9.484,6.375-17.822,6.375c-7.242,0-13.747-2.029-16.721-4.98c3.822,1.822,8.831,2.828,14.137,2.828
		c5.378,0,10.453-1.029,14.295-2.9c1.988-0.969,3.547-2.117,4.632-3.387C42.593,36.574,43.094,37.268,43.371,37.975L43.371,37.975z
		 M29.035,27.016c-7.28,0-13.818-2.048-16.771-5.023c3.189,0.979,6.866,1.504,10.7,1.504c5.378,0,10.453-1.03,14.295-2.899
		c2.325-1.133,4.064-2.511,5.143-4.04c2.32,1.172,3.873,2.607,4.453,4.084C44.736,24.328,37.373,27.016,29.035,27.016L29.035,27.016
		z M29.035,27.016"/>
	<g>
		<path fill="#D18731" d="M17.515,13.889l0.964-0.862c-0.896-0.122-1.572-0.274-2.019-0.455c-0.442-0.183-0.712-0.443-0.804-0.785
			c-0.089-0.342,0.079-0.737,0.507-1.19l2.113-0.024c-0.368,0.474-0.485,0.832-0.35,1.076c0.196,0.346,0.651,0.562,1.365,0.65
			l3.071-2.748c-0.711-0.121-1.366-0.317-1.96-0.582c-0.44-0.197-0.674-0.442-0.699-0.739c-0.027-0.294,0.15-0.612,0.536-0.959
			c0.686-0.614,1.727-1.077,3.119-1.389c0.932-0.21,2.068-0.296,3.405-0.265l0.461-0.413l1.131,0.081l-0.46,0.412
			c1.061,0.127,1.783,0.337,2.163,0.629c0.488,0.372,0.512,0.838,0.073,1.398l-2.134-0.007c0.264-0.347,0.315-0.623,0.162-0.83
			c-0.159-0.206-0.52-0.361-1.078-0.461L24.3,8.913c0.845,0.179,1.392,0.309,1.636,0.392c0.464,0.16,0.792,0.337,0.979,0.534
			c0.189,0.195,0.253,0.416,0.193,0.665c-0.059,0.248-0.237,0.507-0.541,0.778c-0.668,0.6-1.648,1.068-2.942,1.405
			c-1.291,0.341-2.627,0.478-4.002,0.411l-0.976,0.872L17.515,13.889z M25.961,6.336c-0.805-0.002-1.543,0.091-2.216,0.276
			c-0.674,0.188-1.177,0.429-1.509,0.727c-0.33,0.295-0.419,0.554-0.276,0.775c0.146,0.227,0.588,0.427,1.331,0.606L25.961,6.336z
			 M20.424,12.379c0.792,0.011,1.571-0.091,2.34-0.305c0.765-0.216,1.354-0.506,1.764-0.874c0.352-0.313,0.458-0.578,0.326-0.791
			c-0.132-0.216-0.631-0.434-1.491-0.658L20.424,12.379z"/>
	</g>
</g>
</svg>
