<?xml version="1.0" encoding="utf-8"?>
<!-- Generator: Adobe Illustrator 16.0.0, SVG Export Plug-In . SVG Version: 6.00 Build 0)  -->
<!DOCTYPE svg PUBLIC "-//W3C//DTD SVG 1.1//EN" "http://www.w3.org/Graphics/SVG/1.1/DTD/svg11.dtd">
<svg version="1.1" id="Layer_1" xmlns="http://www.w3.org/2000/svg" xmlns:xlink="http://www.w3.org/1999/xlink" x="0px" y="0px"
	 width="65px" height="65px" viewBox="0 0 65 65" enable-background="new 0 0 65 65" xml:space="preserve">
<g>
	
		<polyline fill-rule="evenodd" clip-rule="evenodd" fill="none" stroke="#F15A29" stroke-width="1.5" stroke-miterlimit="10" points="
		-135.097,-40.795 -144.104,-40.795 -144.104,16.002 -135.097,16.002 	"/>
	<path fill-rule="evenodd" clip-rule="evenodd" fill="#F15A29" d="M-157.32-1.889c0,1.292-1.048,2.34-2.34,2.34h-20.964
		c-1.291,0-2.339-1.048-2.339-2.34v-20.965c0-1.292,1.048-2.339,2.339-2.339h20.964c1.292,0,2.34,1.047,2.34,2.339V-1.889z"/>
	<circle fill-rule="evenodd" clip-rule="evenodd" fill="#F15A29" cx="-124.889" cy="-40.309" r="6.613"/>
	<circle fill-rule="evenodd" clip-rule="evenodd" fill="#F15A29" cx="-124.889" cy="-21.864" r="6.613"/>
	<circle fill-rule="evenodd" clip-rule="evenodd" fill="#F15A29" cx="-124.889" cy="-3.42" r="6.613"/>
	<circle fill-rule="evenodd" clip-rule="evenodd" fill="#F15A29" cx="-124.889" cy="15.024" r="6.613"/>
	
		<line fill="none" stroke="#F15A29" stroke-width="1.5" stroke-miterlimit="10" x1="-144.069" y1="-21.518" x2="-135.097" y2="-21.518"/>
	
		<line fill="none" stroke="#F15A29" stroke-width="1.5" stroke-miterlimit="10" x1="-144.069" y1="-2.531" x2="-135.097" y2="-2.531"/>
	
		<line fill="none" stroke="#F15A29" stroke-width="1.5" stroke-miterlimit="10" x1="-144.069" y1="-12.918" x2="-153.841" y2="-12.918"/>
</g>
<g>
	<path fill="#00A650" d="M178.721,35.099c-2.911,0-5.523,1.219-7.382,3.175l-21.712-10.628c0.078-0.502,0.126-1.003,0.126-1.524
		c0-0.507-0.048-1.001-0.12-1.485l21.677-10.514c1.858,1.967,4.488,3.203,7.411,3.203c5.635,0,10.201-4.565,10.201-10.195
		c0-5.635-4.566-10.202-10.201-10.202c-5.631,0-10.196,4.567-10.196,10.202c0,0.502,0.048,1,0.119,1.482l-21.683,10.513
		c-1.857-1.966-4.481-3.204-7.404-3.204c-5.637,0-10.201,4.567-10.201,10.2c0,5.634,4.564,10.196,10.201,10.196
		c2.904,0,5.521-1.223,7.382-3.173l21.711,10.626c-0.077,0.498-0.125,1.006-0.125,1.524c0,5.636,4.565,10.203,10.196,10.203
		c5.635,0,10.201-4.567,10.201-10.203C188.922,39.667,184.355,35.099,178.721,35.099L178.721,35.099z M178.721,35.099"/>
</g>
<g>
	<path fill="#D18834" d="M165.293-66.636c0.34-3.685,1.646-7.077,3.661-9.953c-1.646-7.456-8.29-13.05-16.228-13.05
		c-9.158,0-16.613,7.456-16.613,16.621c0,7.972,5.643,14.646,13.154,16.243C153.037-61.922,158.73-65.557,165.293-66.636
		L165.293-66.636z M146.08-69.064c0-0.603,0.461-1.073,1.072-1.073h3.408v-0.793l-0.469-0.802h-2.939
		c-0.611,0-1.072-0.461-1.072-1.072c0-0.603,0.461-1.073,1.072-1.073h1.676l-3.628-5.956c-0.19-0.335-0.384-0.747-0.384-1.131
		c0-1.512,1.406-2.001,2.365-2.001c1.15,0,1.675,0.901,1.867,1.285l3.686,7.006l3.676-7.006c0.191-0.384,0.717-1.285,1.866-1.285
		c0.96,0,2.365,0.489,2.365,2.001c0,0.384-0.19,0.796-0.384,1.131l-3.627,5.956h1.676c0.603,0,1.064,0.47,1.064,1.073
		c0,0.611-0.462,1.072-1.064,1.072h-2.939l-0.469,0.802v0.793h3.408c0.603,0,1.071,0.47,1.071,1.073s-0.469,1.073-1.071,1.073
		h-3.408v2.719c0,1.314-0.797,2.194-2.164,2.194c-1.379,0-2.174-0.88-2.174-2.194v-2.719h-3.408
		C146.541-67.992,146.08-68.461,146.08-69.064L146.08-69.064z M146.08-69.064"/>
	<path fill="#D18834" d="M185.966-81.333c-8.392,0-15.327,6.257-16.442,14.342c3.166,0.03,6.191,0.652,8.98,1.762
		c0.178-0.428,0.562-0.697,1.158-0.697h0.574c-0.574-0.823-0.822-1.866-0.822-2.938c0-3.4,3.017-5.794,6.893-5.794
		c4.813,0,7.143,2.584,7.143,4.722c0,1.241-0.853,1.923-2.059,1.923c-2.414,0-0.938-3.35-4.644-3.35
		c-1.618,0-3.159,0.965-3.159,2.746c0,0.938,0.469,1.868,0.908,2.691h2.996c1.123,0,1.704,0.418,1.704,1.32
		c0,0.909-0.581,1.321-1.704,1.321h-2.172c0.084,0.221,0.135,0.413,0.135,0.661c0,0.439-0.107,0.881-0.277,1.313
		c0.895,0.738,1.726,1.561,2.514,2.421c0.76,0.156,1.441,0.334,2.243,0.334c0.468,0,1.598-0.305,2.03-0.305
		c1.016,0,1.598,0.765,1.598,1.751c0,1.556-1.392,2.23-2.818,2.323c0.951,1.59,1.739,3.28,2.321,5.069
		c5.616-2.662,9.514-8.378,9.514-15.001C202.579-73.877,195.125-81.333,185.966-81.333L185.966-81.333z M185.966-81.333"/>
	<path fill="#D18834" d="M170.446-40.091v6.795c2.06-0.135,4.224-1.094,4.224-3.366C174.67-38.997,172.299-39.679,170.446-40.091
		L170.446-40.091z M170.446-40.091"/>
	<path fill="#D18834" d="M164.54-48.234c0,1.725,1.271,2.712,3.848,3.23v-6.148C166.045-51.081,164.54-49.71,164.54-48.234
		L164.54-48.234z M164.54-48.234"/>
	<path fill="#D18834" d="M169.346-62.844c-11.452,0-20.773,9.321-20.773,20.773c0,11.452,9.321,20.773,20.773,20.773
		s20.773-9.322,20.773-20.773C190.119-53.523,180.798-62.844,169.346-62.844L169.346-62.844z M170.446-29.789v2.13
		c0,0.582-0.447,1.165-1.028,1.165c-0.584,0-1.03-0.583-1.03-1.165v-2.13c-5.802-0.135-8.688-3.606-8.688-6.319
		c0-1.37,0.823-2.166,2.127-2.166c3.842,0,0.854,4.743,6.562,4.984v-7.178c-5.091-0.93-8.172-3.159-8.172-6.972
		c0-4.671,3.877-7.078,8.172-7.213v-1.832c0-0.583,0.446-1.164,1.03-1.164c0.581,0,1.028,0.581,1.028,1.164v1.832
		c2.677,0.071,8.171,1.747,8.171,5.119c0,1.335-1,2.123-2.164,2.123c-2.23,0-2.201-3.671-6.007-3.742v6.524
		c4.536,0.966,8.548,2.3,8.548,7.597C178.994-32.43,175.558-30.095,170.446-29.789L170.446-29.789z M170.446-29.789"/>
</g>
<g>
	<path fill="#ED1C24" d="M218.205,2.348v-7.719c0-1.066,0.863-1.93,1.932-1.93c1.066,0,1.93,0.863,1.93,1.93v7.719
		c0,1.067-0.863,1.931-1.93,1.931C219.068,4.279,218.205,3.416,218.205,2.348L218.205,2.348z M251.015,4.279
		c1.066,0,1.93-0.863,1.93-1.931v-7.719c0-1.066-0.863-1.93-1.93-1.93s-1.93,0.863-1.93,1.93v7.719
		C249.085,3.416,249.948,4.279,251.015,4.279L251.015,4.279z M272.243,39.017c0,8.525-6.914,15.44-15.439,15.44
		s-15.439-6.915-15.439-15.44s6.914-15.44,15.439-15.44S272.243,30.492,272.243,39.017L272.243,39.017z M268.382,39.017
		c0-6.385-5.193-11.581-11.578-11.581s-11.58,5.196-11.58,11.581s5.195,11.578,11.58,11.578S268.382,45.402,268.382,39.017
		L268.382,39.017z M225.926,15.858h-7.721v7.719h7.721V15.858z M218.205,35.158h7.721v-7.721h-7.721V35.158z M229.785,23.577h7.719
		v-7.719h-7.719V23.577z M229.785,35.158h7.719v-7.721h-7.719V35.158z M214.346,38.632V11.998h42.458v7.72h3.859V4.663
		c0-2.344-1.869-4.244-4.18-4.244h-1.609v1.93c0,2.127-1.73,3.861-3.859,3.861c-2.131,0-3.861-1.734-3.861-3.861v-1.93h-23.157v1.93
		c0,2.127-1.73,3.861-3.859,3.861c-2.131,0-3.861-1.734-3.861-3.861v-1.93h-1.605c-2.313,0-4.184,1.9-4.184,4.244v33.97
		c0,2.338,1.871,4.244,4.184,4.244h22.834v-3.859H214.67C214.494,39.017,214.346,38.835,214.346,38.632L214.346,38.632z
		 M249.085,23.577v-7.719h-7.721v7.719H249.085z M262.593,39.017h-5.789v-5.789c0-1.068-0.863-1.932-1.93-1.932
		s-1.93,0.863-1.93,1.932v7.719c0,1.066,0.863,1.93,1.93,1.93h7.719c1.066,0,1.93-0.863,1.93-1.93S263.659,39.017,262.593,39.017
		L262.593,39.017z M262.593,39.017"/>
</g>
<g>
	<path fill="#4768B1" d="M53.137,7.851c0-3.798-11.807-6.877-26.368-6.877c-14.564,0-26.37,3.08-26.37,6.877
		c0,3.799,11.806,6.88,26.37,6.88C41.33,14.73,53.137,11.649,53.137,7.851L53.137,7.851z M53.137,7.851"/>
	<path fill="#4768B1" d="M54.018,36.883c-0.513-0.124-1.036-0.216-1.565-0.277c-7.169-0.837-13.769,4.008-15.119,11.102
		c-0.163,0.843-0.247,1.702-0.248,2.562c0.001,7.185,5.529,13.156,12.692,13.715c7.161,0.558,13.547-4.493,14.657-11.589
		C65.545,45.298,61.01,38.542,54.018,36.883L54.018,36.883z M48.215,57.959c-0.451,0.448-1.173,0.448-1.623,0l-6.484-6.485
		c-0.435-0.449-0.429-1.165,0.014-1.609c0.442-0.44,1.156-0.448,1.607-0.012l5.676,5.672l12.159-12.158
		c0.446-0.449,1.173-0.449,1.62,0c0.449,0.447,0.449,1.174,0,1.622L48.215,57.959z M48.215,57.959"/>
	<path fill="#4768B1" d="M0.399,56.003c0,2.869,10.031,6.877,26.37,6.877c4.361,0.017,8.717-0.307,13.028-0.968
		c-0.223-0.209-0.418-0.438-0.63-0.66c-0.127-0.136-0.264-0.265-0.385-0.406c-0.398-0.45-0.77-0.919-1.114-1.41
		c-0.028-0.037-0.047-0.079-0.074-0.115c-0.309-0.458-0.597-0.928-0.858-1.414c-0.094-0.172-0.173-0.354-0.263-0.527
		c-0.178-0.364-0.342-0.73-0.501-1.104c-0.083-0.205-0.158-0.416-0.228-0.626c-0.128-0.363-0.243-0.732-0.344-1.106
		c-0.061-0.215-0.115-0.429-0.17-0.648c-0.094-0.399-0.164-0.801-0.229-1.215c-0.029-0.193-0.068-0.384-0.092-0.574
		c-0.072-0.61-0.112-1.221-0.118-1.835c0-0.497,0.023-0.996,0.072-1.489c-0.717,0.064-1.451,0.095-2.179,0.143
		c-0.476,0.029-0.936,0.068-1.417,0.09c-1.489,0.069-2.988,0.114-4.502,0.114c-0.59,0-1.18-0.008-1.771-0.02l-0.427-0.01
		c-0.587-0.014-1.172-0.033-1.756-0.055l-0.137-0.01c-0.548-0.024-1.095-0.054-1.639-0.087l-0.428-0.029
		c-0.574-0.04-1.146-0.082-1.721-0.131l-0.209-0.022c-0.513-0.045-1.024-0.096-1.533-0.151l-0.417-0.047
		c-0.553-0.064-1.102-0.131-1.645-0.206l-0.286-0.04c-0.474-0.067-0.94-0.137-1.403-0.21c-0.128-0.023-0.259-0.042-0.385-0.065
		c-0.524-0.086-1.042-0.178-1.549-0.276l-0.306-0.058c-0.435-0.087-0.863-0.177-1.283-0.272c-0.117-0.025-0.23-0.05-0.345-0.076
		c-0.485-0.109-0.958-0.225-1.418-0.343c-0.104-0.028-0.206-0.055-0.309-0.083c-0.393-0.106-0.774-0.215-1.146-0.329l-0.291-0.085
		c-0.43-0.133-0.848-0.272-1.253-0.417L4.827,46c-0.346-0.127-0.681-0.259-1.008-0.392l-0.21-0.099
		c-0.369-0.158-0.721-0.321-1.059-0.489l-0.239-0.123c-0.294-0.151-0.574-0.306-0.843-0.464c-0.046-0.03-0.098-0.056-0.146-0.086
		c-0.297-0.182-0.573-0.368-0.83-0.56c-0.027-0.02-0.061-0.039-0.088-0.058L0.399,56.003z M0.399,56.003"/>
	<path fill="#4768B1" d="M0.399,39.952c0,2.872,10.031,6.878,26.37,6.878c1.521,0,3.03-0.041,4.519-0.115
		c0.491-0.023,0.972-0.07,1.459-0.102c0.845-0.055,1.688-0.114,2.522-0.195c0.021-0.09,0.053-0.174,0.075-0.262
		c0.058-0.217,0.119-0.43,0.186-0.643c0.066-0.211,0.145-0.458,0.229-0.679c0.087-0.219,0.158-0.418,0.243-0.626
		c0.081-0.208,0.179-0.431,0.274-0.642c0.097-0.21,0.191-0.406,0.294-0.604c0.104-0.199,0.212-0.406,0.325-0.604
		c0.112-0.199,0.23-0.387,0.345-0.572c0.113-0.188,0.246-0.385,0.374-0.575s0.252-0.364,0.385-0.539
		c0.132-0.18,0.277-0.359,0.421-0.538c0.145-0.177,0.279-0.344,0.427-0.504c0.146-0.16,0.308-0.334,0.466-0.497
		c0.156-0.167,0.303-0.314,0.458-0.467c0.154-0.149,0.343-0.31,0.513-0.457c0.164-0.15,0.323-0.286,0.49-0.422
		c0.17-0.134,0.367-0.282,0.555-0.42c0.187-0.138,0.342-0.255,0.519-0.373c0.195-0.135,0.396-0.256,0.598-0.379
		c0.179-0.115,0.356-0.229,0.541-0.328c0.21-0.115,0.426-0.229,0.64-0.332c0.187-0.095,0.366-0.193,0.556-0.279
		c0.23-0.103,0.459-0.193,0.689-0.284c0.186-0.078,0.37-0.157,0.564-0.231c0.239-0.087,0.488-0.157,0.733-0.229
		c0.188-0.056,0.375-0.121,0.564-0.172c0.263-0.071,0.528-0.122,0.795-0.179c0.183-0.036,0.36-0.083,0.544-0.113
		c0.299-0.054,0.603-0.088,0.907-0.123c0.158-0.018,0.312-0.046,0.471-0.06c0.458-0.041,0.934-0.062,1.407-0.062
		c0.56,0.004,1.12,0.036,1.679,0.097c0.113,0.011,0.221,0.021,0.332,0.037c0.094,0.01,0.188,0.016,0.282,0.028v-6.709
		c-0.028,0.021-0.063,0.04-0.089,0.06c-0.259,0.192-0.533,0.38-0.83,0.561c-0.046,0.029-0.099,0.056-0.146,0.086
		c-0.266,0.157-0.547,0.313-0.842,0.463l-0.238,0.124c-0.338,0.169-0.688,0.331-1.062,0.489l-0.218,0.089
		c-0.327,0.136-0.661,0.267-1.008,0.393l-0.283,0.104c-0.406,0.144-0.823,0.283-1.254,0.417l-0.288,0.087
		c-0.376,0.114-0.756,0.221-1.146,0.328c-0.104,0.028-0.205,0.055-0.308,0.082c-0.459,0.122-0.932,0.235-1.418,0.344
		c-0.115,0.025-0.23,0.05-0.343,0.075c-0.426,0.094-0.852,0.185-1.287,0.271l-0.305,0.06c-0.509,0.097-1.026,0.19-1.55,0.277
		c-0.128,0.021-0.255,0.04-0.386,0.061c-0.457,0.074-0.931,0.146-1.403,0.212l-0.283,0.04c-0.543,0.076-1.092,0.146-1.646,0.205
		l-0.418,0.046c-0.508,0.055-1.018,0.106-1.532,0.154l-0.209,0.019c-0.572,0.049-1.146,0.093-1.719,0.132l-0.44,0.032
		c-0.544,0.034-1.091,0.064-1.638,0.089l-0.138,0.007c-0.583,0.025-1.169,0.044-1.754,0.056l-0.429,0.01
		c-0.59,0.011-1.181,0.02-1.771,0.02c-0.589,0-1.177-0.009-1.769-0.02l-0.427-0.01c-0.587-0.013-1.172-0.032-1.757-0.056
		l-0.136-0.007c-0.548-0.025-1.094-0.056-1.641-0.089l-0.427-0.03c-0.574-0.037-1.146-0.081-1.72-0.131l-0.208-0.02
		c-0.514-0.045-1.026-0.097-1.534-0.154l-0.417-0.045c-0.555-0.063-1.104-0.133-1.646-0.206l-0.289-0.036
		c-0.474-0.064-0.94-0.136-1.403-0.211c-0.128-0.021-0.259-0.04-0.385-0.063c-0.524-0.087-1.042-0.178-1.549-0.277l-0.306-0.059
		c-0.435-0.087-0.863-0.178-1.283-0.272c-0.117-0.025-0.23-0.05-0.345-0.075c-0.485-0.11-0.958-0.226-1.418-0.343
		c-0.104-0.027-0.206-0.055-0.309-0.084c-0.393-0.105-0.774-0.215-1.146-0.327l-0.291-0.088c-0.43-0.134-0.848-0.273-1.253-0.416
		L4.827,29.95c-0.346-0.126-0.681-0.259-1.008-0.393l-0.21-0.098c-0.369-0.158-0.721-0.32-1.059-0.489l-0.239-0.124
		c-0.294-0.151-0.574-0.306-0.843-0.463c-0.046-0.03-0.098-0.057-0.146-0.086c-0.297-0.181-0.573-0.368-0.83-0.561
		c-0.027-0.02-0.061-0.039-0.088-0.06L0.399,39.952z M0.399,39.952"/>
	<path fill="#4768B1" d="M0.399,23.9c0,2.867,10.031,6.88,26.37,6.88c16.336,0,26.368-4.013,26.368-6.88V11.627
		c-0.026,0.021-0.063,0.04-0.089,0.059c-0.259,0.192-0.534,0.379-0.83,0.562c-0.047,0.027-0.1,0.055-0.144,0.084
		c-0.269,0.159-0.551,0.313-0.846,0.458l-0.238,0.125c-0.337,0.167-0.687,0.33-1.06,0.487l-0.219,0.09
		c-0.326,0.135-0.662,0.266-1.009,0.393l-0.281,0.104c-0.405,0.145-0.821,0.283-1.254,0.418l-0.29,0.086
		c-0.376,0.114-0.757,0.221-1.146,0.327c-0.104,0.028-0.205,0.057-0.307,0.083c-0.46,0.122-0.933,0.236-1.419,0.345
		c-0.114,0.025-0.23,0.05-0.347,0.075c-0.421,0.094-0.848,0.185-1.283,0.271l-0.304,0.062c-0.509,0.096-1.026,0.188-1.55,0.275
		c-0.129,0.022-0.256,0.042-0.386,0.062c-0.459,0.075-0.931,0.146-1.404,0.212l-0.282,0.04c-0.544,0.076-1.093,0.144-1.646,0.205
		l-0.417,0.046c-0.51,0.056-1.019,0.106-1.532,0.154l-0.211,0.02c-0.571,0.051-1.145,0.093-1.718,0.133l-0.428,0.036
		c-0.544,0.035-1.091,0.065-1.638,0.089l-0.138,0.007c-0.583,0.025-1.169,0.044-1.754,0.057l-0.429,0.01
		c-0.59,0.011-1.181,0.02-1.771,0.02c-0.589,0-1.177-0.009-1.769-0.02l-0.427-0.01c-0.587-0.014-1.172-0.032-1.757-0.057
		l-0.136-0.007c-0.548-0.024-1.094-0.055-1.641-0.089l-0.427-0.028c-0.574-0.039-1.146-0.082-1.72-0.132l-0.208-0.019
		c-0.514-0.047-1.026-0.098-1.534-0.155l-0.417-0.044c-0.555-0.064-1.104-0.134-1.646-0.206l-0.289-0.036
		c-0.474-0.066-0.94-0.138-1.403-0.211c-0.128-0.02-0.259-0.04-0.385-0.062c-0.524-0.086-1.042-0.18-1.549-0.276l-0.306-0.061
		c-0.435-0.086-0.863-0.176-1.283-0.271c-0.117-0.027-0.23-0.049-0.345-0.076c-0.485-0.109-0.958-0.226-1.418-0.344
		c-0.104-0.025-0.206-0.055-0.309-0.082c-0.393-0.106-0.774-0.216-1.146-0.329l-0.291-0.087c-0.43-0.134-0.848-0.272-1.253-0.417
		l-0.283-0.105c-0.346-0.126-0.681-0.257-1.008-0.392l-0.21-0.099C3.24,13.25,2.888,13.088,2.55,12.92l-0.239-0.124
		c-0.294-0.151-0.574-0.305-0.843-0.459c-0.046-0.028-0.098-0.054-0.146-0.083c-0.297-0.184-0.573-0.37-0.83-0.561
		c-0.027-0.021-0.061-0.039-0.088-0.061L0.399,23.9z M0.399,23.9"/>
</g>
<circle fill="#A7A9B5" cx="102.334" cy="35.333" r="13.5"/>
</svg>
