<?xml version="1.0" encoding="utf-8"?>
<!-- Generator: Adobe Illustrator 16.0.0, SVG Export Plug-In . SVG Version: 6.00 Build 0)  -->
<!DOCTYPE svg PUBLIC "-//W3C//DTD SVG 1.1//EN" "http://www.w3.org/Graphics/SVG/1.1/DTD/svg11.dtd">
<svg version="1.1" id="Layer_1" xmlns="http://www.w3.org/2000/svg" xmlns:xlink="http://www.w3.org/1999/xlink" x="0px" y="0px"
	 width="35px" height="35px" viewBox="0 0 35 35" enable-background="new 0 0 35 35" xml:space="preserve">
<g>
	<g>
		<path fill-rule="evenodd" clip-rule="evenodd" fill="none" stroke="#F79D20" stroke-width="1.2" stroke-miterlimit="10" d="
			M2.85,17.499c0,8.093,6.559,14.652,14.654,14.652c8.085,0,14.646-6.559,14.646-14.652c0-8.086-6.561-14.648-14.646-14.648
			C9.409,2.85,2.85,9.413,2.85,17.499z"/>
	</g>
	<path fill="#F79D20" d="M17.698,22.033c-1.17-0.34-3.393-2.021-3.393-3.777c0-1.039,0.642-1.912,2.57-3.324
		c1.07-0.715,2.998-1.959,2.998-3.28c0-1.072-0.742-1.74-1.877-1.74c-2.009,0-3.214,1.538-3.511,1.538
		c-0.362,0-1.217-0.527-1.217-1.212c0-0.388,0.214-0.668,0.658-1.041c0.954-0.778,2.338-1.134,2.85-1.134h0.033
		c2.601,0,4.923,2.25,4.923,4.646c0,1.011-0.527,1.742-1.467,2.548c-1.02,0.748-3.558,2.067-3.558,3.607
		c0,1.01,0.598,1.648,1.6,2.395L17.698,22.033z M17.171,26.936c-0.907,0-1.612-0.635-1.612-1.66c0-0.902,0.705-1.617,1.646-1.617
		c0.921,0,1.644,0.715,1.644,1.617c0,1.025-0.723,1.66-1.644,1.66H17.171z"/>
</g>
</svg>
