<?xml version="1.0" encoding="utf-8"?>
<!-- Generator: Adobe Illustrator 16.0.0, SVG Export Plug-In . SVG Version: 6.00 Build 0)  -->
<!DOCTYPE svg PUBLIC "-//W3C//DTD SVG 1.1//EN" "http://www.w3.org/Graphics/SVG/1.1/DTD/svg11.dtd">
<svg version="1.1" id="Layer_1" xmlns="http://www.w3.org/2000/svg" xmlns:xlink="http://www.w3.org/1999/xlink" x="0px" y="0px"
	 width="35px" height="35px" viewBox="0 0 35 35" enable-background="new 0 0 35 35" xml:space="preserve">
<g>
	<g>
		<path fill-rule="evenodd" clip-rule="evenodd" fill="none" stroke="#FFFFFF" stroke-width="1.2" stroke-miterlimit="10" d="
			M2.85,17.5c0,8.094,6.56,14.65,14.654,14.65c8.088,0,14.646-6.557,14.646-14.65c0-8.087-6.559-14.65-14.646-14.65
			C9.409,2.85,2.85,9.413,2.85,17.5z"/>
	</g>
	<path fill="#FFFFFF" d="M17.698,22.035c-1.169-0.342-3.393-2.021-3.393-3.777c0-1.041,0.641-1.912,2.57-3.326
		c1.069-0.714,2.996-1.958,2.996-3.279c0-1.072-0.742-1.74-1.876-1.74c-2.011,0-3.213,1.538-3.511,1.538
		c-0.362,0-1.219-0.528-1.219-1.213c0-0.388,0.216-0.668,0.659-1.041c0.955-0.778,2.339-1.134,2.85-1.134h0.034
		c2.602,0,4.923,2.252,4.923,4.646c0,1.01-0.527,1.742-1.466,2.547c-1.022,0.75-3.559,2.07-3.559,3.607
		c0,1.012,0.596,1.648,1.599,2.395L17.698,22.035z M17.172,26.938c-0.907,0-1.613-0.637-1.613-1.66c0-0.904,0.706-1.619,1.646-1.619
		c0.922,0,1.646,0.715,1.646,1.619c0,1.023-0.725,1.66-1.646,1.66H17.172z"/>
</g>
</svg>
