<?xml version="1.0" encoding="utf-8"?>
<!-- Generator: Adobe Illustrator 16.0.0, SVG Export Plug-In . SVG Version: 6.00 Build 0)  -->
<!DOCTYPE svg PUBLIC "-//W3C//DTD SVG 1.1//EN" "http://www.w3.org/Graphics/SVG/1.1/DTD/svg11.dtd">
<svg version="1.1" id="Layer_1" xmlns="http://www.w3.org/2000/svg" xmlns:xlink="http://www.w3.org/1999/xlink" x="0px" y="0px"
	 width="35px" height="35px" viewBox="0 0 35 35" enable-background="new 0 0 35 35" xml:space="preserve">
<g>
	<g>
		<g>
			<circle fill="none" stroke="#FFFFFF" stroke-width="1.2" stroke-miterlimit="10" cx="15.945" cy="8.685" r="7.657"/>
			<path fill="none" stroke="#FFFFFF" stroke-width="1.2" stroke-miterlimit="10" d="M23.418,18.99
				c-2.195-1.141-4.749-1.794-7.473-1.794c-7.823,0-14.234,5.391-14.812,12.23"/>
		</g>
	</g>
	<polygon fill="none" stroke="#FFFFFF" stroke-width="1.2" stroke-miterlimit="10" points="12.515,28.984 9.106,33.369 
		14.465,33.971 	"/>
	<path fill="none" stroke="#FFFFFF" stroke-width="1.2" stroke-miterlimit="10" d="M31.831,26.744
		c0.331-0.141,0.586-0.248,0.72-0.305c1.365-0.578,1.683-1.342,0.887-3.305c-0.715-1.77-1.872-2.084-3.141-1.549
		c-0.104,0.043-0.301,0.127-0.541,0.227L31.831,26.744z"/>
	<path fill="none" stroke="#FFFFFF" stroke-width="1.2" stroke-miterlimit="10" d="M28.08,22.525
		c-2.922,1.225-11.675,4.839-13.877,5.759l1.967,5.03c2.233-0.943,10.931-4.566,13.984-5.857L28.08,22.525z"/>
</g>
</svg>
